<svg xmlns:xlink="http://www.w3.org/1999/xlink" xmlns="http://www.w3.org/2000/svg" width="279" height="82" viewBox="0 0 279 82" fill="none">
<path d="M101.848 11.8887H103.215C105.388 12.1922 107.714 12.2506 109.627 13.4515C110.07 13.6833 110.266 14.1546 110.455 14.5863C109.959 14.8125 109.487 15.1651 108.925 15.182C107.58 15.2122 106.223 15.2518 104.892 15.0293C103.104 14.7221 101.263 14.8201 99.4933 15.2009C97.9022 15.5515 96.2732 15.9059 94.8621 16.7543C93.7369 17.4216 92.6137 18.0946 91.4071 18.6111C90.4372 19.1786 89.2875 19.4161 88.4104 20.1362C87.0656 21.3898 85.5426 22.4286 84.0936 23.554C83.2886 24.3401 82.2809 24.8811 81.4929 25.688C80.6462 26.5834 79.396 26.9605 78.5758 27.8917C78.0151 28.5251 77.3711 29.07 76.6987 29.5805C75.6341 30.5966 74.4882 31.5335 73.524 32.6476C72.8762 33.3866 71.9897 33.8805 71.3931 34.6704C70.6524 35.6865 69.3776 36.2313 68.8795 37.4378C72.0996 37.1116 75.3254 36.7459 78.4868 36.0352C80.381 35.5997 82.3396 35.5338 84.2754 35.628C85.7491 35.6921 87.255 35.4056 88.704 35.8015C90.6062 36.3105 92.6686 36.4236 94.3771 37.4849C95.2276 38.0203 96.0743 38.7725 96.2846 39.7942C96.421 40.4751 95.6652 40.8691 95.0856 40.831C94.2218 40.7952 93.6952 40.028 93.0304 39.5887C91.8579 39.0062 90.5437 38.7366 89.2344 38.7536C87.3308 38.7687 85.4366 38.3992 83.5348 38.5689C80.3147 38.8083 77.0889 38.9855 73.8782 39.3267C72.772 39.4756 71.7208 39.8772 70.6202 40.0657C68.7658 40.4367 66.7693 40.8725 65.4131 42.2917C63.7292 43.6358 63.4829 45.8772 62.7158 47.7477C62.2441 48.8543 61.9316 50.0155 61.5887 51.1636C61.3993 51.7593 61.549 52.387 61.5168 52.9978C61.5452 53.897 61.0546 54.7378 61.2061 55.6465C61.261 57 61.8634 58.2291 62.2593 59.5035C62.5964 60.5328 62.9033 61.5998 63.5492 62.4915C64.6611 64.0769 66.2333 65.2457 67.6729 66.5163C69.5633 68.1771 72.1091 69.1196 74.6378 68.9368C76.3994 68.8199 78.1402 68.4749 79.8373 67.9942C80.7352 67.7416 81.6387 67.2854 82.5991 67.4607C83.1806 67.4965 83.4382 68.2977 83.1238 68.7426C82.5385 69.6268 81.4891 70.0415 80.5079 70.3261C78.8221 70.788 77.176 71.461 75.4201 71.6175C73.1641 71.8362 70.8684 71.625 68.6863 71.0199C68.0725 70.8728 67.563 70.492 67.0781 70.1131C66.3659 69.5495 65.4794 69.2388 64.824 68.6012C64.0493 67.8547 63.392 66.997 62.64 66.2316C61.8122 65.3776 61.5187 64.1051 60.5053 63.4152C60.0734 62.1295 59.4597 60.9098 59.132 59.5883C57.9803 55.671 57.8648 51.3709 59.3157 47.5158C60.0279 45.8399 60.7401 44.1659 61.4694 42.4994C59.9048 42.7954 58.3591 43.2139 56.8665 43.7681C55.9725 44.0848 55.0273 44.2639 54.173 44.69C53.2979 45.1707 52.311 45.3988 51.4681 45.9436C50.0474 46.5035 48.5775 46.9446 47.1361 47.4479C45.1813 48.2887 43.1564 48.9523 41.1277 49.5895C40.0329 49.9476 38.8963 50.1984 37.864 50.7187C36.057 51.6424 34.0946 52.2038 32.1511 52.7584C31.5336 52.9601 30.8498 53.1279 30.4199 53.652C29.5921 54.6813 28.1752 54.8849 27.2281 55.7671C25.9534 57.0339 24.33 57.8672 23.0022 59.0756C22.4264 59.6939 21.466 59.79 20.9792 60.5007C20.7046 60.8928 20.4356 61.4603 20.7595 61.9033C21.4793 62.4104 22.3108 62.7629 23.1727 62.9458C24.0649 63.1626 24.9305 63.7884 25.1445 64.7178C25.2506 65.1495 24.9475 65.5718 24.5422 65.7094C23.6311 66.0676 22.5987 66.0035 21.6763 65.7113C20.2159 65.2702 18.6569 65.0251 17.3405 64.2107C16.7457 63.8525 16.2759 63.2889 16.1055 62.6102V61.7261C16.543 60.5403 17.5697 59.7335 18.5376 58.9851C19.3635 58.363 20.07 57.6014 20.911 57C21.5077 56.589 21.9528 55.9914 22.5912 55.6352C23.2863 55.2336 23.7788 54.5682 24.4854 54.1832C25.0517 53.8646 25.6295 53.5668 26.1522 53.1803C29.0182 51.1462 32.4315 50.1433 35.5588 48.6032C37.1177 47.8057 38.8016 47.3024 40.4401 46.6973C42.9537 45.7358 45.6094 45.2099 48.1381 44.288C49.017 43.994 49.8637 43.5943 50.7786 43.4152C51.3772 43.287 52.0022 43.1984 52.5364 42.8817C53.9533 41.975 55.6523 41.7242 57.1961 41.1078C59.0486 40.3688 61.0868 40.2463 62.909 39.4262C63.9716 38.9154 64.4092 37.7598 65.057 36.8568C65.6953 36.0556 66.4094 35.3109 66.9985 34.472C67.8225 33.0073 69.3 32.093 70.3721 30.828C71.2472 29.7497 72.3079 28.8392 73.4123 27.9984C74.0847 27.4819 74.6435 26.8278 75.3595 26.3659C76.6551 25.5496 77.6249 24.3243 78.9206 23.508C79.5911 23.1347 80.1006 22.5522 80.7125 22.0998C81.7789 21.1063 83.1048 20.4635 84.2603 19.5869C85.2358 18.8328 86.3761 18.3163 87.3099 17.5057C87.9899 16.9194 88.9105 16.7535 89.6606 16.2784C90.8577 15.5263 92.2253 15.1096 93.4414 14.3914C94.451 13.7866 95.5459 13.3508 96.6767 13.0307C98.3436 12.4316 100.082 12.0489 101.848 11.8887Z" fill="white" stroke="white" stroke-width="0.0938" stroke-miterlimit="10.43"/>
<path d="M140.204 31.5356C140.988 30.6911 142.119 30.2387 143.248 30.0897C144.31 29.9823 145.496 30.6289 145.772 31.6997C146.184 33.0796 144.964 34.5217 143.594 34.6707C142.63 34.7065 142.058 35.5227 141.321 36.0072C140.957 37.3777 139.916 38.4017 139.247 39.6173C138.701 40.624 137.631 41.1876 137.035 42.1396C136.724 43.152 136.635 44.2208 136.474 45.2652C136.144 46.385 135.722 47.4803 135.148 48.502C134.659 49.3805 134.616 50.4192 134.14 51.3015C133.625 52.244 133.659 53.3733 133.163 54.3215C132.689 55.1924 131.218 55.117 130.822 54.2121C130.502 53.4468 130.761 52.6098 130.922 51.8387C131.337 50.1421 131.723 48.4379 132.102 46.7337C132.28 46.1418 131.822 45.3067 131.127 45.5216C130.435 45.6121 130.297 46.3737 130.159 46.926C129.388 47.3068 128.554 47.6895 127.67 47.55C126.726 47.4218 125.561 47.484 124.895 46.6885C123.957 46.517 123.703 45.5009 123.031 44.9787C122.571 44.6261 121.974 44.9353 121.614 45.2765C120.919 45.9721 120.983 47.0712 120.413 47.8403C120.017 48.3399 119.32 48.3267 118.75 48.2117C117.983 48.0496 117.086 48.1476 116.477 47.5651C115.437 46.7281 115.054 45.1257 115.745 43.9569C115.965 43.5497 116.365 43.3009 116.732 43.0388C117.725 42.3357 118.289 41.1876 119.303 40.509C120.098 40.0169 121.049 39.747 121.989 39.7983C122.777 39.9566 123.43 40.5429 124.256 40.5712C124.669 40.6504 125.256 40.5561 125.499 40.9874C125.694 41.4926 125.73 42.1072 125.446 42.5879C125.629 43.4645 125.72 44.5432 126.552 45.0744C127.213 45.4741 127.972 45.1027 128.607 44.835C129.259 44.5903 129.579 43.9358 130.083 43.5064C131.134 42.6656 131.962 41.5797 133.015 40.7465C133.848 39.6588 135.47 40.0094 136.413 39.0763C137.392 38.2015 137.269 36.7439 138.04 35.7392C138.479 35.168 138.523 34.4214 138.869 33.8012C139.277 33.0268 139.563 32.1634 140.204 31.5356ZM118.149 44.9523C119.286 45.0428 120.265 44.1096 120.538 43.0634C119.5 43.1554 117.966 43.6308 118.149 44.9523Z" fill="white" stroke="white" stroke-width="0.0938" stroke-miterlimit="10.43"/>
<path d="M104.196 37.9059C104.897 37.5195 105.623 37.0746 106.458 37.1028C107.108 37.1236 107.776 37.1179 108.407 37.2951C109.212 37.5949 109.339 38.5469 109.707 39.2142C110.154 40.0022 110.309 41.0127 109.856 41.8327C109.199 42.5114 108.216 42.5227 107.367 42.7734C106.718 43.0071 106.894 43.8215 106.676 44.3343C105.592 45.3127 104.299 46.1761 103.694 47.5602C103.528 47.9523 103.865 48.3142 104.255 48.3482C105.638 48.5951 106.99 48.0635 108.326 47.7845C109.301 47.5847 110.176 46.9984 111.184 46.9456C111.601 46.8777 112.048 47.2925 111.879 47.7129C111.796 48.1634 111.464 48.499 111.087 48.729C109.144 50.1014 106.718 50.501 104.397 50.714C103.283 50.7555 101.933 50.9327 101.088 50.0335C100.495 49.5019 100.489 48.6177 100.701 47.907C100.949 47.1285 101.211 46.3065 101.802 45.7108C103.131 44.3554 104.912 43.5504 106.293 42.2667C106.719 41.4915 107.456 40.9848 108.028 40.3306C107.365 39.5049 106.2 39.799 105.317 40.0196C104.259 40.2571 103.323 40.8113 102.326 41.2087C101.908 40.9825 101.426 40.7506 101.241 40.2793C101.051 39.9102 101.173 39.4423 101.5 39.1916C102.281 38.5431 103.327 38.3942 104.196 37.9059Z" fill="white" stroke="white" stroke-width="0.0938" stroke-miterlimit="10.43"/>
<path d="M177.892 38.6774C179.5 37.411 181.997 37.0863 183.722 38.3042C185.107 39.3391 185.412 41.2224 185.251 42.8379C185.018 45.4715 183.881 48.2238 181.586 49.7131C181.118 50.0015 180.885 50.5313 180.434 50.8385C180.078 51.1006 179.72 51.3607 179.385 51.6491C178.29 52.5993 177.034 53.3345 175.861 54.1809C174.812 54.7898 173.6 55.3233 172.363 55.2083C171.537 55.1159 171.452 53.9867 171.891 53.4532C172.49 52.6407 173.549 52.4748 174.346 51.9263C175.598 51.1021 177.072 50.5784 178.114 49.4643C178.771 48.7837 179.625 48.3068 180.176 47.5207C181.021 46.3349 181.957 45.0982 182.131 43.6071C182.245 42.6438 182.451 41.5994 182.059 40.6738C181.802 40.0536 180.955 39.8066 180.434 40.2609C179.371 41.098 179.375 42.5514 179.053 43.7447C178.792 44.5478 178.674 45.5281 177.886 46.0125C177.398 46.4197 176.736 46.3839 176.161 46.2312C174.893 45.9334 173.603 46.2425 172.348 46.4292C171.266 46.5687 170.423 47.4057 169.332 47.515C168.394 47.598 167.392 47.5753 166.531 47.1568C165.227 46.5366 164.996 44.7401 163.578 44.2801C162.665 44.0558 161.608 44.1274 160.82 44.676C160.255 45.0624 160.342 45.9371 159.711 46.252C158.975 46.6064 158.187 46.8514 157.412 47.1116C156.073 47.3552 154.533 47.0252 153.569 46.0257C153.029 45.5186 153.362 44.6383 152.853 44.1236C152.275 43.7692 151.534 44.0124 151.008 44.3498C149.936 45.0832 149.055 46.0502 148.022 46.8345C147.27 47.417 146.5 48.2333 145.46 48.1277C144.319 48.0089 143.073 47.6112 142.427 46.5988C141.717 45.562 140.684 44.6458 140.464 43.3601C140.358 42.6136 141.196 42.3799 141.68 42.0386C142.313 41.6748 143.046 41.055 143.817 41.4018C144.493 41.6827 144.605 42.467 144.762 43.0924C144.906 43.6768 144.802 44.3257 145.099 44.8683C145.351 45.3 145.923 45.3301 146.338 45.1284C147.552 44.6025 148.486 43.6354 149.536 42.8606C149.979 42.5552 150.206 42.0443 150.625 41.7125C151.651 40.9038 152.322 39.7048 153.523 39.1053C154.18 38.585 155.042 38.7453 155.794 38.9244C156.019 39.6709 156.262 40.4683 156.072 41.2507C155.915 41.8445 155.364 42.3403 155.489 42.9963C155.569 43.7296 156.033 44.5855 156.858 44.6326C157.917 44.4724 158.741 43.6806 159.429 42.9152C159.84 42.3912 160.408 42.016 160.796 41.4731C161.31 40.7892 162.081 40.3627 162.605 39.686C163.289 38.7189 164.774 38.8735 165.646 39.4899C166.739 40.3458 166.725 41.8407 166.972 43.0792C167.347 43.7409 167.724 44.6684 168.612 44.7137C170.392 45.0172 172.071 44.2047 173.683 43.575C174.598 43.1961 175.645 42.9454 176.311 42.1593C177.177 41.1587 176.867 39.5751 177.892 38.6774Z" fill="white" stroke="white" stroke-width="0.0938" stroke-miterlimit="10.43"/>
<path d="M119.801 62.5117C120.551 62.1441 121.409 62.2741 122.195 62.4419C122.161 62.7322 122.127 63.0225 122.095 63.3147C121.583 63.2148 121.026 62.9792 120.521 63.2186C120.161 63.3977 119.962 63.967 120.318 64.246C120.818 64.6079 121.464 64.7022 121.958 65.0773C122.762 65.6523 122.684 67.0511 121.828 67.5412C120.998 68.0352 119.983 67.89 119.09 67.6766C119.121 67.3674 119.151 67.0602 119.183 66.7529C119.81 66.9207 120.551 67.2581 121.138 66.7962C121.452 66.5945 121.469 66.0761 121.145 65.8744C120.594 65.4559 119.818 65.4012 119.344 64.8658C118.737 64.1649 118.968 62.9358 119.801 62.5117Z" fill="white" stroke="white" stroke-width="0.0938" stroke-miterlimit="10.43"/>
<path d="M132.788 62.3641C133.15 62.3641 133.512 62.3622 133.877 62.3641C133.921 63.6404 133.782 64.9317 133.955 66.2004C134.072 66.9658 135.095 67.2825 135.686 66.8263C136.11 66.5002 136.145 65.9233 136.152 65.435C136.154 64.4114 136.146 63.3878 136.15 62.3641C136.512 62.3641 136.874 62.3622 137.239 62.3641C137.228 63.5838 137.258 64.8035 137.23 66.0232C137.207 66.666 136.921 67.3711 136.283 67.6275C135.463 67.9762 134.47 67.9743 133.663 67.5898C133 67.2749 132.786 66.4907 132.79 65.8158C132.779 64.6659 132.791 63.5141 132.788 62.3641Z" fill="white" stroke="white" stroke-width="0.0938" stroke-miterlimit="10.43"/>
<path d="M139.942 62.5608C140.691 62.1291 141.59 62.2761 142.399 62.4269C142.374 62.721 142.352 63.0151 142.327 63.3111C141.823 63.2262 141.285 62.9872 140.785 63.2017C140.374 63.3525 140.156 64.0218 140.583 64.2763C141.128 64.6439 141.829 64.7396 142.321 65.1959C143 65.8575 142.829 67.179 141.956 67.5975C141.134 68.0255 140.17 67.8784 139.306 67.6786C139.342 67.3638 139.38 67.0508 139.42 66.736C139.997 66.9189 140.658 67.2148 141.24 66.8774C141.617 66.7247 141.759 66.1497 141.395 65.9047C140.853 65.4541 140.058 65.4145 139.575 64.8773C138.98 64.2061 139.162 63.0189 139.942 62.5608Z" fill="white" stroke="white" stroke-width="0.0938" stroke-miterlimit="10.43"/>
<path d="M147.798 62.3613C148.16 62.3613 148.524 62.3632 148.888 62.3632C148.888 63.3228 148.888 64.2823 148.884 65.2418C148.891 65.6754 148.878 66.1373 149.094 66.5313C149.441 67.1572 150.456 67.2062 150.882 66.6387C151.14 66.2938 151.147 65.8394 151.163 65.4285C151.164 64.4067 151.157 63.385 151.161 62.3632C151.522 62.3632 151.884 62.3613 152.25 62.3632C152.246 63.515 152.255 64.6688 152.25 65.8225C152.244 66.471 152.055 67.2175 151.441 67.5512C150.617 67.981 149.583 67.9832 148.736 67.619C148.096 67.3494 147.825 66.635 147.804 65.9884C147.783 64.78 147.806 63.5697 147.798 62.3613Z" fill="white" stroke="white" stroke-width="0.0938" stroke-miterlimit="10.43"/>
<path d="M219.26 62.3608C220.317 62.0988 221.597 62.3797 222.232 63.3223C222.859 64.3025 222.863 65.6278 222.334 66.6514C221.412 68.3443 218.489 68.2915 217.671 66.527C216.948 65.049 217.432 62.7228 219.26 62.3608ZM219.425 63.245C218.392 63.7879 218.296 65.2564 218.741 66.2178C219.099 67.1265 220.456 67.3078 221.09 66.593C221.706 65.805 221.747 64.6173 221.228 63.769C220.889 63.1507 220.043 62.9584 219.425 63.245Z" fill="white" stroke="white" stroke-width="0.0938" stroke-miterlimit="10.43"/>
<path d="M101.533 62.3641C102.607 62.3622 103.679 62.3641 104.753 62.3641C104.751 62.6469 104.751 62.9278 104.753 63.2124C104.043 63.2124 103.333 63.2124 102.622 63.2124C102.62 63.6517 102.622 64.0928 102.622 64.532C103.268 64.532 103.916 64.532 104.564 64.532C104.562 64.8148 104.562 65.0976 104.564 65.3823C103.916 65.3804 103.268 65.3804 102.622 65.3804C102.622 65.8988 102.622 66.4172 102.622 66.9356C103.333 66.9356 104.043 66.9356 104.753 66.9356C104.751 67.2184 104.751 67.5012 104.753 67.7839C103.679 67.7821 102.607 67.7839 101.533 67.7839C101.533 65.978 101.533 64.1701 101.533 62.3641Z" fill="white" stroke="white" stroke-width="0.0938" stroke-miterlimit="10.43"/>
<path d="M106.742 67.784C106.742 65.978 106.742 64.172 106.742 62.3642C107.852 62.4339 109.11 62.1361 110.102 62.7714C110.875 63.4462 110.55 64.8073 109.566 65.0976C110.243 65.8498 110.426 66.8904 110.854 67.784C110.451 67.784 110.048 67.784 109.646 67.784C109.377 67.1487 109.176 66.487 108.869 65.8705C108.699 65.4615 108.191 65.552 107.839 65.4897C107.826 66.2551 107.833 67.0186 107.831 67.784C107.468 67.784 107.104 67.784 106.742 67.784ZM107.837 63.1936C107.831 63.6932 107.829 64.1928 107.831 64.6923C108.229 64.6603 108.649 64.7036 109.024 64.5434C109.494 64.3488 109.538 63.6099 109.085 63.3671C108.7 63.1748 108.252 63.2276 107.837 63.1936Z" fill="white" stroke="white" stroke-width="0.0938" stroke-miterlimit="10.43"/>
<path d="M114.159 62.3613C114.565 62.3613 114.97 62.3632 115.377 62.3632C116.103 64.1673 116.817 65.9733 117.527 67.783C117.122 67.783 116.72 67.783 116.319 67.7849C116.162 67.3589 116.005 66.9347 115.851 66.5087C115.111 66.5124 114.374 66.5105 113.635 66.5105C113.472 66.9347 113.309 67.3589 113.15 67.783C112.771 67.783 112.393 67.783 112.016 67.7868C112.735 65.9789 113.434 64.1654 114.159 62.3613ZM114.746 63.434C114.479 64.1748 114.229 64.9195 113.966 65.6603C114.494 65.6603 115.023 65.6622 115.551 65.6622C115.286 64.9195 115.019 64.1767 114.746 63.434Z" fill="white" stroke="white" stroke-width="0.0938" stroke-miterlimit="10.43"/>
<path d="M124.453 62.3633C125.035 62.3633 125.616 62.3633 126.198 62.3633C126.652 63.7357 127.082 65.1137 127.531 66.4861C127.98 65.1137 128.412 63.7376 128.859 62.3633C129.442 62.3633 130.026 62.3633 130.609 62.3633C130.607 64.1693 130.609 65.9771 130.609 67.7831C130.261 67.7831 129.914 67.7831 129.567 67.7831C129.562 66.2844 129.579 64.7857 129.556 63.287C129.069 64.7895 128.556 66.2825 128.06 67.7831C127.707 67.7831 127.355 67.7831 127.005 67.785C126.497 66.2863 126.001 64.7857 125.495 63.2889C125.493 64.7857 125.495 66.2844 125.495 67.7831C125.146 67.7831 124.8 67.7831 124.453 67.7831C124.453 65.9771 124.453 64.1693 124.453 62.3633Z" fill="white" stroke="white" stroke-width="0.0938" stroke-miterlimit="10.43"/>
<path d="M154.381 62.3641C154.83 62.3641 155.279 62.3641 155.73 62.3641C156.411 63.7422 157.156 65.0863 157.838 66.4624C157.838 65.0957 157.838 63.7309 157.838 62.3641C158.183 62.3622 158.531 62.3641 158.88 62.3641C158.88 64.1701 158.88 65.978 158.88 67.7839C158.438 67.7839 157.995 67.7839 157.556 67.7858C156.836 66.4229 156.12 65.058 155.421 63.6856C155.425 65.0524 155.421 66.4172 155.423 67.7839C155.072 67.7839 154.727 67.7839 154.381 67.7839C154.381 65.978 154.381 64.1701 154.381 62.3641Z" fill="white" stroke="white" stroke-width="0.0938" stroke-miterlimit="10.43"/>
<path d="M160.916 62.3641C161.278 62.3622 161.64 62.3641 162.005 62.3641C162.005 64.1701 162.005 65.978 162.005 67.7839C161.641 67.7839 161.278 67.7839 160.916 67.7839C160.916 65.978 160.916 64.1701 160.916 62.3641Z" fill="white" stroke="white" stroke-width="0.0938" stroke-miterlimit="10.43"/>
<path d="M163.623 62.3632C164.011 62.3613 164.4 62.3613 164.79 62.3613C165.267 63.7827 165.71 65.2136 166.212 66.6255C166.667 65.2026 167.124 63.779 167.603 62.3632C167.959 62.3632 168.315 62.3613 168.673 62.3632C168.082 64.1748 167.442 65.9733 166.843 67.783C166.394 67.783 165.947 67.783 165.502 67.783C164.871 65.9771 164.236 64.1745 163.623 62.3632Z" fill="white" stroke="white" stroke-width="0.0938" stroke-miterlimit="10.43"/>
<path d="M170.293 62.3641C171.365 62.3622 172.439 62.3641 173.513 62.3641C173.511 62.6469 173.511 62.9297 173.513 63.2124C172.801 63.2124 172.091 63.2124 171.382 63.2124C171.38 63.6517 171.382 64.0928 171.382 64.532C172.028 64.532 172.676 64.532 173.324 64.532C173.322 64.8129 173.322 65.0976 173.324 65.3804C172.676 65.3804 172.028 65.3804 171.382 65.3804C171.38 65.8988 171.382 66.4172 171.382 66.9356C172.092 66.9356 172.803 66.9356 173.513 66.9356C173.511 67.2165 173.511 67.4993 173.513 67.7839C172.439 67.7839 171.365 67.7821 170.293 67.7839C170.293 65.978 170.293 64.1701 170.293 62.3641Z" fill="white" stroke="white" stroke-width="0.0938" stroke-miterlimit="10.43"/>
<path d="M175.501 67.7828C175.501 65.9768 175.499 64.1708 175.501 62.3649C176.607 62.4327 177.853 62.1405 178.848 62.7589C179.645 63.4319 179.308 64.8118 178.317 65.1021C179.013 65.8392 179.177 66.8968 179.613 67.7828C179.208 67.7828 178.806 67.7828 178.405 67.7828C178.136 67.1494 177.935 66.4877 177.63 65.8712C177.458 65.4603 176.95 65.5508 176.596 65.4886C176.584 66.2539 176.59 67.0174 176.59 67.7828C176.226 67.7828 175.863 67.7828 175.501 67.7828ZM176.595 63.1924C176.588 63.692 176.588 64.1897 176.59 64.6892C177.052 64.6478 177.584 64.7345 177.972 64.4197C178.266 64.118 178.217 63.5695 177.838 63.3621C177.451 63.1755 177.007 63.2264 176.595 63.1924Z" fill="white" stroke="white" stroke-width="0.0938" stroke-miterlimit="10.43"/>
<path d="M181.946 62.5354C182.694 62.1357 183.564 62.2847 184.359 62.4242C184.334 62.7182 184.31 63.0123 184.289 63.3083C183.8 63.2272 183.293 63.0123 182.802 63.1763C182.385 63.3026 182.13 63.8833 182.455 64.2222C182.995 64.6222 183.715 64.7048 184.228 65.1535C184.946 65.7831 184.816 67.1216 183.958 67.5702C183.134 68.0302 182.143 67.8869 181.266 67.6777C181.298 67.3685 181.332 67.0594 181.37 66.7521C181.976 66.9217 182.679 67.2366 183.264 66.8354C183.579 66.671 183.677 66.1865 183.398 65.949C182.84 65.4457 181.972 65.4249 181.481 64.8258C180.939 64.1246 181.149 62.9614 181.946 62.5354Z" fill="white" stroke="white" stroke-width="0.0938" stroke-miterlimit="10.43"/>
<path d="M186.536 62.3641C186.898 62.3641 187.26 62.3622 187.625 62.3641C187.623 64.1701 187.625 65.978 187.625 67.7839C187.26 67.7839 186.898 67.7839 186.536 67.7839C186.534 65.978 186.536 64.1701 186.536 62.3641Z" fill="white" stroke="white" stroke-width="0.0938" stroke-miterlimit="10.43"/>
<path d="M189.187 62.3633C190.592 62.3633 191.996 62.3633 193.402 62.3633C193.4 62.6461 193.4 62.9288 193.402 63.2116C192.879 63.2116 192.358 63.2116 191.839 63.2116C191.839 64.7348 191.839 66.258 191.839 67.7831C191.473 67.7831 191.111 67.7831 190.75 67.7831C190.748 66.258 190.752 64.7348 190.748 63.2097C190.227 63.2116 189.706 63.2116 189.187 63.2116C189.185 62.9288 189.185 62.6461 189.187 62.3633Z" fill="white" stroke="white" stroke-width="0.0938" stroke-miterlimit="10.43"/>
<path d="M195.059 62.3633C196.132 62.3633 197.206 62.3633 198.28 62.3633C198.278 62.6461 198.278 62.9288 198.28 63.2116C197.567 63.2116 196.859 63.2116 196.149 63.2116C196.147 63.6508 196.149 64.092 196.149 64.5312C196.795 64.5312 197.442 64.5312 198.09 64.5312C198.088 64.814 198.088 65.0968 198.09 65.3795C197.442 65.3795 196.795 65.3795 196.149 65.3795C196.149 65.8979 196.147 66.4164 196.149 66.9348C196.857 66.9348 197.569 66.9348 198.281 66.9348C198.276 67.2176 198.278 67.5003 198.278 67.7831C197.204 67.7812 196.132 67.7831 195.059 67.7831C195.059 65.9771 195.058 64.1693 195.059 62.3633Z" fill="white" stroke="white" stroke-width="0.0938" stroke-miterlimit="10.43"/>
<path d="M200.221 62.3633C200.581 62.3633 200.944 62.3633 201.31 62.3633C201.31 64.1693 201.31 65.9752 201.31 67.7831C200.946 67.7831 200.582 67.7831 200.221 67.7831C200.221 65.9771 200.221 64.1693 200.221 62.3633Z" fill="white" stroke="white" stroke-width="0.0938" stroke-miterlimit="10.43"/>
<path d="M202.873 62.3641C204.276 62.3622 205.682 62.3641 207.087 62.3641C207.085 62.6469 207.085 62.9297 207.087 63.2124C206.564 63.2124 206.043 63.2124 205.524 63.2124C205.523 64.7356 205.524 66.2607 205.524 67.7839C205.159 67.7839 204.795 67.7839 204.435 67.7839C204.433 66.2607 204.435 64.7356 204.435 63.2124C203.912 63.2124 203.392 63.2124 202.873 63.2124C202.871 62.9297 202.871 62.6469 202.873 62.3641Z" fill="white" stroke="white" stroke-width="0.0938" stroke-miterlimit="10.43"/>
<path d="M211.774 62.3659C212.826 62.4112 213.951 62.2038 214.943 62.643C215.938 63.1803 215.678 64.8656 214.553 65.09C215.296 65.8025 215.438 66.894 215.887 67.7838C215.481 67.7838 215.078 67.7838 214.676 67.782C214.415 67.1523 214.208 66.5019 213.915 65.8874C213.748 65.4711 213.223 65.5484 212.867 65.4862C212.86 66.2516 212.863 67.0185 212.863 67.7842C212.498 67.7842 212.136 67.7842 211.774 67.7842C211.774 65.9779 211.772 64.1719 211.774 62.3659ZM212.865 63.1935C212.861 63.6931 212.861 64.1926 212.863 64.6922C213.272 64.653 213.727 64.7186 214.106 64.515C214.513 64.302 214.551 63.6572 214.17 63.399C213.778 63.1652 213.297 63.2293 212.865 63.1935Z" fill="white" stroke="white" stroke-width="0.0938" stroke-miterlimit="10.43"/>
<path d="M224.087 62.3641C225.491 62.3622 226.896 62.3641 228.302 62.3641C228.3 62.6469 228.3 62.9297 228.302 63.2124C227.779 63.2124 227.258 63.2124 226.739 63.2124C226.737 64.7356 226.739 66.2607 226.739 67.7839C226.374 67.7839 226.01 67.7839 225.65 67.7839C225.648 66.2607 225.65 64.7356 225.65 63.2124C225.127 63.2124 224.606 63.2124 224.087 63.2124C224.085 62.9297 224.085 62.6469 224.087 62.3641Z" fill="white" stroke="white" stroke-width="0.0938" stroke-miterlimit="10.43"/>
<path d="M229.392 62.3641C230.796 62.3622 232.201 62.3641 233.607 62.3641C233.605 62.6469 233.605 62.9297 233.607 63.2124C233.084 63.2124 232.563 63.2124 232.044 63.2124C232.044 64.7356 232.044 66.2607 232.044 67.7839C231.678 67.7839 231.315 67.7839 230.955 67.7839C230.953 66.2607 230.953 64.7375 230.955 63.2124C230.432 63.2124 229.911 63.2124 229.392 63.2124C229.39 62.9297 229.39 62.6469 229.392 62.3641Z" fill="white" stroke="white" stroke-width="0.0938" stroke-miterlimit="10.43"/>
<path d="M235.216 62.3633C236.288 62.3633 237.362 62.3633 238.436 62.3633C238.432 62.6461 238.432 62.9288 238.436 63.2116C237.724 63.2116 237.013 63.2116 236.305 63.2116C236.303 63.6508 236.303 64.0901 236.305 64.5312C236.951 64.5312 237.599 64.5312 238.246 64.5312C238.243 64.814 238.243 65.0968 238.246 65.3795C237.599 65.3795 236.951 65.3795 236.305 65.3795C236.303 65.8979 236.303 66.4145 236.305 66.9329C237.013 66.9348 237.725 66.9348 238.438 66.9348C238.432 67.2176 238.434 67.5003 238.436 67.7831C237.362 67.7831 236.288 67.7831 235.216 67.7831C235.216 65.9752 235.214 64.1693 235.216 62.3633Z" fill="white" stroke="white" stroke-width="0.0938" stroke-miterlimit="10.43"/>
<path d="M240.425 62.3632C241.504 62.4197 242.684 62.1747 243.685 62.695C244.579 63.3039 244.285 64.8422 243.219 65.0929C243.944 65.8149 244.094 66.8928 244.535 67.7849C244.13 67.783 243.728 67.783 243.328 67.783C243.063 67.1515 242.859 66.4954 242.559 65.879C242.391 65.4624 241.877 65.5491 241.523 65.4888C241.506 66.2541 241.514 67.0176 241.514 67.783C241.148 67.783 240.785 67.783 240.425 67.783C240.425 65.977 240.423 64.1692 240.425 62.3632ZM241.52 63.1926C241.512 63.6922 241.51 64.1899 241.514 64.6895C242.093 64.68 243.082 64.729 243.092 63.909C243.029 63.1323 242.078 63.219 241.52 63.1926Z" fill="white" stroke="white" stroke-width="0.0938" stroke-miterlimit="10.43"/>
<path d="M246.25 62.3641C247.618 62.3981 249.298 62.1323 250.321 63.2633C251.209 64.4227 251.124 66.4455 249.841 67.3013C248.76 67.9423 247.451 67.7557 246.25 67.7839C246.25 65.9761 246.25 64.1701 246.25 62.3641ZM247.341 63.1992C247.337 64.4491 247.339 65.699 247.339 66.9507C247.93 66.9319 248.606 66.979 249.076 66.5435C249.998 65.846 249.981 64.2662 249.051 63.5838C248.579 63.1706 247.923 63.2124 247.341 63.1992Z" fill="white" stroke="white" stroke-width="0.0938" stroke-miterlimit="10.43"/>
<path d="M254.47 62.3613C254.874 62.3631 255.279 62.3613 255.688 62.3594C256.415 64.1635 257.126 65.9751 257.84 67.7829C257.434 67.7829 257.031 67.7829 256.632 67.7829C256.473 67.3588 256.317 66.9346 256.166 66.5086C255.425 66.5105 254.686 66.5105 253.95 66.5086C253.787 66.9327 253.624 67.3569 253.465 67.7829C253.084 67.7829 252.703 67.7829 252.328 67.7886C253.044 65.9804 253.748 64.1672 254.47 62.3613ZM254.279 65.6603C254.805 65.6622 255.334 65.6622 255.866 65.6622C255.599 64.9175 255.326 64.1785 255.07 63.432C254.788 64.1691 254.54 64.9175 254.279 65.6603Z" fill="white" stroke="white" stroke-width="0.0938" stroke-miterlimit="10.43"/>
<path d="M259.462 62.3641C260.041 62.3641 260.623 62.3641 261.206 62.3641C261.661 63.7384 262.095 65.1202 262.54 66.4983C262.983 65.1202 263.417 63.7384 263.875 62.3641C264.453 62.3641 265.035 62.3622 265.618 62.3641C265.618 64.1701 265.618 65.9761 265.618 67.7839C265.267 67.7839 264.921 67.7839 264.576 67.7839C264.576 66.2852 264.574 64.7865 264.578 63.2897C264.068 64.7865 263.572 66.2871 263.066 67.7858C262.712 67.7839 262.36 67.7839 262.011 67.7839C261.506 66.2871 261.011 64.7847 260.502 63.2897C260.505 64.7884 260.502 66.2852 260.504 67.7839C260.153 67.7839 259.807 67.7839 259.462 67.7839C259.462 65.9761 259.46 64.1701 259.462 62.3641Z" fill="white" stroke="white" stroke-width="0.0938" stroke-miterlimit="10.43"/>
<path d="M26.3081 63.3836C27.134 62.8124 28.2004 62.7483 29.1759 62.6917C30.1211 62.6823 31.3751 62.8727 31.627 63.9642C31.0512 64.3412 30.4791 64.8106 29.7593 64.8559C28.7933 64.9803 27.6776 65.2235 26.848 64.558C26.4975 64.3013 25.9312 63.8436 26.3081 63.3836Z" fill="white" stroke="white" stroke-width="0.0938" stroke-miterlimit="10.43"/>
<path d="M33.7358 62.9675C34.1942 62.9637 34.8458 62.7997 35.0977 63.3106C35.3383 63.582 35.1034 63.9534 34.8439 64.1117C34.3987 64.3945 33.8437 64.3248 33.3418 64.3587C33.2262 64.1476 33.1221 63.9308 33.0273 63.7121C33.2073 63.4142 33.4895 63.205 33.7358 62.9675Z" fill="white" stroke="white" stroke-width="0.0938" stroke-miterlimit="10.43"/>
<path d="M92.2519 63.5221C93.2558 63.2902 94.2351 62.751 95.2939 62.9335C95.0856 64.0382 94.1328 64.764 93.1971 65.2658C92.2462 65.8103 91.1457 65.9765 90.1437 66.4007C89.3954 66.7249 88.5639 66.7626 87.7664 66.6382C87.5694 66.1349 87.4217 65.5429 87.9009 65.1452C88.4862 65.0208 89.0488 64.7889 89.5167 64.4119C90.2797 63.7668 91.3233 63.7483 92.2519 63.5221Z" fill="white" stroke="white" stroke-width="0.0938" stroke-miterlimit="10.43"/>
<path d="M85.155 66.3187C85.6967 66.2113 86.3597 66.0812 86.7973 66.5129C87.267 66.7636 87.2708 67.4687 86.8787 67.791C86.1172 68.6167 84.6928 68.6676 83.8272 67.989C83.2456 67.0709 84.3878 66.4488 85.155 66.3187Z" fill="white" stroke="white" stroke-width="0.0938" stroke-miterlimit="10.43"/>
</svg>