<svg xmlns:xlink="http://www.w3.org/1999/xlink" xmlns="http://www.w3.org/2000/svg" width="185" height="85" viewBox="0 0 185 85" fill="none">
<g clip-path="url(#clip0_1512_1042)">
<path d="M60.0157 29.6623C60.0157 29.6623 59.8979 29.6623 59.8685 29.6623C55.3041 29.6623 50.1213 32.2537 46.7348 39.5567C44.9384 43.6205 43.9078 48.2733 43.9078 52.985H42.4648C42.4648 43.2083 44.9384 34.7273 48.5311 30.7518C49.5323 29.5739 51.1519 29.0439 52.7716 29.2205C53.1249 29.25 53.4489 29.3383 53.7433 29.4267C53.3605 28.5727 52.536 27.9543 51.5642 27.8659C51.1225 27.807 50.6808 27.8659 50.2979 28.0426C50.7691 27.4242 51.1814 26.8942 51.5642 26.3936C52.0354 25.8635 52.2415 25.7457 52.6243 25.569C53.0366 25.4218 53.5078 25.3629 53.9495 25.4218C54.3912 25.4807 54.6857 25.6574 55.2452 25.834C55.9814 26.0991 56.6292 26.1285 57.3654 26.0696C58.3372 26.0107 59.309 25.5985 60.0452 24.8623C59.2795 25.0978 58.455 25.0978 57.6894 24.8917C56.8943 24.6561 56.3937 24.2439 55.3924 23.861C54.8624 23.6549 54.3029 23.6255 53.7728 23.7432C54.3029 23.1543 54.8624 22.5359 55.5691 21.7702C55.9225 21.3874 56.3937 21.034 56.5703 20.9162C57.071 20.5923 57.5127 20.3862 57.866 20.2684C58.2194 20.1506 58.6022 20.0917 58.9556 20.0917C58.6317 19.5617 58.6611 18.8549 59.1029 18.3543C59.6329 17.7359 60.5752 17.677 61.1642 18.207C61.7532 18.7077 61.8415 19.5911 61.3703 20.2095C61.9887 20.2978 62.6366 20.1212 63.1078 19.65C63.8734 18.8549 63.8734 17.6181 63.0783 16.8524C62.9311 16.7052 62.7249 16.558 62.5483 16.4696C62.5483 16.4696 62.3716 16.3813 62.1065 16.3224C61.7237 16.234 61.5176 16.1751 61.5176 16.1751C61.5176 16.1751 61.4881 16.1751 61.4881 16.1457C61.4587 16.1162 61.4292 16.0574 61.4881 15.9985C61.5176 15.969 61.547 15.969 61.547 15.969C61.9887 15.969 62.0771 15.9396 62.0771 15.9396C62.0771 15.9396 62.3127 15.9396 62.6366 15.8512C62.99 15.7629 63.2844 15.5567 63.52 15.2917C63.6378 15.115 63.7262 14.9383 63.8145 14.7028C63.9323 14.3199 63.9323 13.8782 63.8734 13.2893C63.7556 12.2586 63.7851 11.5813 63.7851 11.5813C63.7851 11.5813 63.1078 11.6991 62.0771 11.7285C61.4881 11.7285 61.0464 11.8169 60.693 11.9641C60.4869 12.0524 60.3102 12.1702 60.163 12.3175C59.9274 12.5531 59.7507 12.877 59.7213 13.2598C59.6918 13.5543 59.7213 13.8193 59.7213 13.8193C59.7213 13.8193 59.7213 13.9077 59.7507 14.3494C59.7507 14.3788 59.7507 14.4083 59.7213 14.4377C59.6918 14.4672 59.6329 14.4966 59.574 14.4377C59.574 14.4377 59.5446 14.4377 59.5446 14.4083C59.5446 14.4083 59.4562 14.2021 59.309 13.8488C59.2206 13.5837 59.1029 13.407 59.1029 13.407C58.9851 13.2304 58.8378 13.0537 58.6611 12.9064C57.8071 12.2291 56.5409 12.3764 55.8636 13.2598C55.4513 13.7899 55.363 14.4672 55.5397 15.0561C56.0697 14.5261 56.9532 14.4672 57.5421 14.9972C58.1605 15.5273 58.2194 16.4696 57.6894 17.0586C57.2476 17.5592 56.5703 17.677 55.9814 17.4414C56.0403 17.8242 56.0108 18.1776 55.9519 18.5604C55.8636 18.9727 55.7164 19.5028 55.3924 20.0917C55.2452 20.3273 55.0685 20.5629 54.9507 20.7101C54.1556 21.5641 53.5078 22.2709 52.9483 22.9187C52.9777 22.3886 52.8305 21.888 52.5654 21.4169C52.0648 20.5629 51.5937 20.1212 51.1814 19.2966C50.8575 18.5604 50.7102 17.7359 50.828 16.9408C50.2391 17.7948 49.974 18.796 50.0918 19.7972C50.1507 20.5629 50.2979 21.1813 50.6808 21.8586C50.9458 22.3886 51.1519 22.6242 51.2992 23.0659C51.417 23.4782 51.4464 23.9494 51.3875 24.3911C51.2992 24.8034 51.0047 25.2451 50.8575 25.4512C50.3863 26.0402 49.8562 26.7175 49.2673 27.5126C49.3262 26.9825 49.2378 26.423 48.9728 25.9224C48.5016 25.0389 47.6476 24.5089 46.7053 24.45C46.9114 24.715 47.0881 24.9801 47.2354 25.304C47.6476 26.0696 47.8538 26.9236 47.8538 27.7482C47.8538 28.985 46.3225 31.1052 45.8808 31.812C42.9949 36.4942 41.1102 44.2389 41.1102 53.0144H39.6673V47.6843C39.6673 36.877 42.347 27.0709 47.0881 18.1187C47.7949 16.7641 48.2366 14.9678 48.2366 13.3187C48.2366 13.2598 48.2366 13.2304 48.2366 13.1715C48.2366 10.9629 47.5004 8.93097 46.2636 7.31134C45.7041 6.57514 45.0268 5.89784 44.2611 5.33834C43.3188 4.63159 41.2869 3.54201 40.5213 3.1003C39.3433 2.3641 38.5483 1.03895 38.5483 -0.462891C38.5483 1.03895 37.7532 2.3641 36.5752 3.1003C35.8391 3.54201 33.7777 4.63159 32.8354 5.33834C32.0697 5.89784 31.3924 6.5457 30.8329 7.31134C29.5961 8.93097 28.8599 10.9629 28.8599 13.1715C28.8599 13.2304 28.8599 13.2893 28.8599 13.3187C28.8599 14.9678 29.3016 16.7641 30.0084 18.1187C34.7495 27.0709 37.4292 36.877 37.4292 47.6843V53.0144H35.9863C35.9863 44.2684 34.1016 36.5236 31.2157 31.812C30.774 31.1052 29.2722 28.9555 29.2427 27.7482C29.2427 26.9236 29.4489 26.0991 29.8611 25.304C30.0084 25.0095 30.2145 24.715 30.3912 24.45C29.4783 24.5089 28.5949 25.0389 28.1237 25.9224C27.8587 26.423 27.7703 26.9825 27.8292 27.5126C27.2403 26.7175 26.7102 26.0696 26.239 25.4512C26.0918 25.2451 25.7973 24.8328 25.709 24.3911C25.6206 23.9494 25.6501 23.5077 25.7973 23.0659C25.9446 22.6242 26.1507 22.3886 26.4157 21.8586C26.7691 21.1813 26.9458 20.5629 27.0047 19.7972C27.093 18.8255 26.8575 17.7948 26.2685 16.9408C26.3568 17.7359 26.2391 18.5604 25.9151 19.2966C25.5029 20.1212 25.0317 20.5334 24.5311 21.4169C24.266 21.888 24.1483 22.3886 24.1483 22.9187C23.5593 22.2709 22.9409 21.5641 22.1458 20.7101C22.028 20.5629 21.8219 20.3273 21.7041 20.0917C21.3802 19.5028 21.2329 18.9727 21.1446 18.5604C21.0857 18.1776 21.0562 17.8242 21.1151 17.4414C20.5556 17.7064 19.8489 17.5592 19.4072 17.0586C18.8771 16.4402 18.936 15.5273 19.5544 14.9972C20.1433 14.4966 21.0268 14.5261 21.5568 15.0561C21.7335 14.4672 21.6452 13.7899 21.2329 13.2598C20.5556 12.4058 19.3188 12.2291 18.4354 12.9064C18.2587 13.0537 18.1114 13.2304 17.9937 13.407C17.9937 13.407 17.9053 13.5837 17.7875 13.8488C17.6403 14.2021 17.5519 14.4083 17.5519 14.4083C17.5519 14.4083 17.5519 14.4377 17.5225 14.4377C17.493 14.4672 17.4047 14.4672 17.3752 14.4377C17.3458 14.4083 17.3458 14.3788 17.3458 14.3494C17.4047 13.9077 17.4047 13.8193 17.4047 13.8193C17.4047 13.8193 17.4341 13.5837 17.4047 13.2598C17.3752 12.877 17.1986 12.5531 16.963 12.3175C16.8157 12.1702 16.6391 12.0524 16.4329 11.9641C16.0795 11.8169 15.6378 11.7285 15.0489 11.7285C14.0182 11.7285 13.3409 11.5813 13.3409 11.5813C13.3409 11.5813 13.3703 12.288 13.2525 13.2893C13.1937 13.8782 13.1937 14.3199 13.3114 14.7028C13.3703 14.9089 13.4587 15.115 13.5765 15.2917C13.7826 15.5567 14.0771 15.7629 14.4599 15.8512C14.7544 15.9396 15.0194 15.9396 15.0194 15.9396C15.0194 15.9396 15.1078 15.969 15.5495 15.969C15.5789 15.969 15.6084 15.969 15.6084 15.9985C15.6378 16.0279 15.6378 16.1162 15.6084 16.1457C15.6084 16.1457 15.5789 16.1457 15.5789 16.1751C15.5789 16.1751 15.3728 16.234 14.99 16.3224C14.7249 16.3813 14.5483 16.4696 14.5483 16.4696C14.3421 16.558 14.1654 16.7052 14.0182 16.8524C13.2231 17.6181 13.2231 18.8843 13.9887 19.65C14.4599 20.1212 15.1078 20.3273 15.7262 20.2095C15.255 19.5911 15.3433 18.7371 15.9323 18.207C16.5507 17.677 17.4636 17.7359 17.9937 18.3543C18.4354 18.8549 18.4648 19.5617 18.1409 20.0917C18.5237 20.0917 18.8771 20.1506 19.2305 20.2684C19.6133 20.3862 20.055 20.5923 20.5262 20.9162C20.7029 21.034 21.174 21.3874 21.5274 21.7702C22.2341 22.5359 22.7937 23.1543 23.3237 23.7432C22.7937 23.6255 22.2341 23.6549 21.7041 23.861C20.7029 24.2439 20.2022 24.6267 19.4072 24.8917C18.6415 25.0978 17.817 25.0978 17.0219 24.8623C17.7581 25.5985 18.7298 25.9813 19.7016 26.0696C20.4673 26.1285 21.0857 26.0696 21.8219 25.834C22.3814 25.6574 22.6464 25.4807 23.1176 25.4218C23.5593 25.3629 24.001 25.4218 24.4427 25.569C24.8256 25.7457 25.0317 25.8635 25.5029 26.3936C25.8857 26.8942 26.2979 27.4242 26.7691 28.0426C26.3863 27.8954 25.9446 27.8365 25.5029 27.8659C24.5016 27.9837 23.7065 28.6021 23.3237 29.4267C23.6476 29.3383 23.9716 29.25 24.2955 29.2205C25.9151 29.0439 27.5348 29.5739 28.536 30.7518C32.1286 34.7567 34.6022 43.2083 34.6022 52.985H32.9826C32.9826 48.2733 31.9814 43.5911 30.1556 39.5567C26.7691 32.2537 21.5863 29.6623 17.0219 29.6623C17.0219 29.6623 16.9041 29.6623 16.8746 29.6623C11.6624 29.6623 7.42188 33.9028 7.42188 39.115C7.42188 42.9432 9.68936 46.2414 12.9581 47.7138C13.9004 48.1555 14.8722 48.5383 15.9029 48.7739C18.2587 49.304 19.7311 49.6574 21.0857 50.5113C21.9102 50.9825 22.4697 51.8954 22.4697 52.8966C22.4697 53.6623 22.1458 54.369 21.6452 54.8696L20.8795 55.5764C20.8795 55.5764 20.644 55.7825 20.5262 55.8709C20.0256 56.2831 19.201 56.6954 18.4943 56.7837C18.4354 56.7837 18.347 56.7543 18.2881 56.6954C18.2587 56.6365 18.2292 56.5776 18.2292 56.5187C18.2587 56.3715 18.2587 56.1948 18.2587 56.0475C18.1703 54.958 17.228 54.1334 16.1384 54.2218C16.109 54.2218 16.0501 54.2218 16.0206 54.2218C15.9912 54.2218 15.9618 54.2218 15.9323 54.2512C15.9323 54.2512 15.9323 54.2512 15.9029 54.2512C15.8734 54.2512 15.844 54.2807 15.8145 54.2807C14.9016 54.5163 14.2832 55.3702 14.3421 56.342C14.3716 56.6659 14.4599 56.931 14.6072 57.196C14.6072 57.196 14.6072 57.196 14.6072 57.2255C14.6072 57.2549 14.6366 57.2843 14.6366 57.2843C14.6366 57.3138 14.666 57.3138 14.666 57.3432C14.666 57.3432 14.666 57.3433 14.666 57.3727C14.666 57.3727 14.666 57.3727 14.6955 57.4021C14.7249 57.4316 14.7249 57.461 14.7544 57.4905C14.8722 57.6377 15.0194 57.7555 15.1372 57.8733C15.1372 57.8733 15.1961 57.9028 15.2845 57.9617C15.3728 58.0205 15.4906 58.05 15.5789 58.1089C15.9323 58.2561 16.109 58.3445 16.109 58.3445C16.109 58.3445 16.1384 58.3445 16.1384 58.3739C16.1679 58.4034 16.1679 58.4917 16.1384 58.5212C16.109 58.5506 16.0795 58.5506 16.0501 58.5506C15.6084 58.4917 15.52 58.4917 15.52 58.4917C15.52 58.4917 15.2845 58.4623 14.9605 58.4623C14.5777 58.4917 14.2538 58.6389 13.9887 58.8745C13.8415 59.0218 13.7237 59.1985 13.6059 59.4046C13.4292 59.758 13.3409 60.1997 13.3114 60.7886C13.2525 61.8193 13.1053 62.4966 13.1053 62.4966C13.1053 62.4966 13.8121 62.4966 14.8427 62.6439C15.4317 62.7322 15.8734 62.7322 16.2562 62.6439C16.4624 62.585 16.6685 62.4966 16.8452 62.3788C17.1397 62.1727 17.3458 61.8782 17.4341 61.5248C17.5225 61.2304 17.5225 60.9653 17.5225 60.9653C17.5225 60.9653 17.5519 60.877 17.5814 60.4353C17.5814 60.4058 17.5814 60.3764 17.6108 60.3764C17.6403 60.3469 17.7286 60.3469 17.7581 60.4058C17.7581 60.4058 17.7581 60.4353 17.7875 60.4353C17.7875 60.4353 17.8464 60.6414 17.9053 61.0242C17.9348 61.142 17.9642 61.2304 17.9937 61.3482C18.0231 61.4365 18.0525 61.4954 18.0525 61.4954C18.1114 61.6426 18.2292 61.8193 18.347 61.9666C18.3765 61.996 18.3765 62.0255 18.4059 62.0549C18.4059 62.0549 18.4059 62.0549 18.4354 62.0844C18.4354 62.0844 18.4354 62.0843 18.4648 62.1138C18.4943 62.1138 18.4943 62.1432 18.5237 62.1727C18.5532 62.2021 18.5532 62.2021 18.5826 62.2316C18.7887 62.4377 19.0538 62.585 19.3483 62.6733C20.2906 62.9383 21.2624 62.4966 21.6746 61.6426C21.7041 61.6132 21.7041 61.5837 21.7335 61.5543C21.7335 61.5248 21.763 61.4954 21.763 61.4659C21.763 61.4365 21.7924 61.3776 21.7924 61.3482C22.0869 60.288 21.4685 59.1985 20.4378 58.904C20.2906 58.8451 20.1139 58.8451 19.9667 58.8156C19.9078 58.8156 19.8489 58.7862 19.8194 58.7273C19.7605 58.6684 19.7605 58.5801 19.79 58.5212C20.0256 57.8439 20.5556 57.2255 21.0268 56.7837C21.3213 56.5187 22.2341 55.7531 22.9409 54.8107C23.1176 54.6046 23.2648 54.369 23.3826 54.104C23.5593 53.7801 23.7065 53.4267 23.7949 53.0733C23.8832 52.7494 23.9421 52.396 23.9716 52.0132C23.9716 50.7469 23.7065 50.0107 23.2354 49.1273C22.7053 48.185 21.8513 47.0071 21.8513 45.7408C21.8513 44.2095 23.0881 42.9432 24.6489 42.9432C24.8256 42.9432 25.0906 42.9432 25.2673 42.9727C27.1814 43.2672 28.3887 44.4156 29.3311 45.8291C30.7151 47.9494 31.5102 50.4819 31.5397 53.1911C30.3912 53.2205 29.3016 53.8684 28.7421 54.8696C28.1532 55.9003 28.1532 57.196 28.7421 58.2561C29.3605 59.2868 30.4501 59.9347 31.6869 59.9347H35.309C35.309 60.1408 35.2795 60.3175 35.1912 60.4942C34.1016 63.2917 29.7433 64.5285 23.6476 67.1199C20.4084 68.504 19.5838 70.6242 19.4955 72.3616C19.4955 72.4205 19.4955 72.45 19.4955 72.5089C19.4955 73.2745 19.6722 74.0107 19.9961 74.6586C20.0256 72.3616 21.7924 70.5064 24.0305 70.3298C24.6783 70.2709 25.3851 70.2709 26.1213 70.2709C26.3568 70.2709 26.563 70.2709 26.7691 70.2414C29.655 69.9469 30.7446 68.0917 31.8341 67.0021C32.9237 65.9126 34.19 65.4709 34.3078 65.412C34.455 65.3531 34.6317 65.3236 34.8084 65.3236C35.574 65.3236 36.2219 65.9715 36.2219 66.7371C36.2219 66.8255 36.2219 66.9138 36.1924 67.0316C36.1924 67.0905 36.163 67.1494 36.1335 67.2083C35.2206 69.1813 32.747 70.0353 28.4771 71.861C26.2096 72.8328 25.6206 74.3346 25.5618 75.542C25.5618 75.5715 25.5618 75.6009 25.5618 75.6304C25.5618 76.1899 25.6795 76.6905 25.9151 77.1322C25.9151 75.5126 27.1814 74.2169 28.7421 74.0991C29.2133 74.0696 29.6844 74.0696 30.2145 74.0696C30.3912 74.0696 30.509 74.0696 30.6857 74.0696C32.7176 73.8635 33.4832 72.5678 34.2194 71.8021C34.9851 71.0365 35.8685 70.7126 35.9568 70.6831C36.0746 70.6242 36.1924 70.6242 36.3102 70.6242C36.8697 70.6242 37.3114 71.0659 37.3114 71.6255C37.3114 71.6843 37.3114 71.7432 37.282 71.8316C37.2525 71.9199 37.1053 72.8328 36.4575 73.7163C35.8391 74.5997 34.6611 75.542 34.8084 77.5739C34.8967 78.8696 35.2501 79.4291 34.72 80.2242C34.72 80.2242 36.0452 80.1064 37.0759 78.7224C37.1053 78.6929 37.1053 78.6929 37.1348 78.6929C37.1936 78.6929 37.2231 78.7224 37.2231 78.7813C37.2231 78.8107 37.2231 78.8107 37.1937 78.8402C35.8685 80.7248 37.547 82.5506 37.9004 83.1396C38.2832 83.7285 38.4894 84.6708 38.4894 84.6708C38.4894 84.6708 38.6955 83.7285 39.0783 83.1396C39.4611 82.5506 41.1397 80.7248 39.7851 78.8402C39.7851 78.8107 39.7556 78.8107 39.7556 78.7813C39.7556 78.7224 39.7851 78.6929 39.844 78.6929C39.8734 78.6929 39.9029 78.6929 39.9029 78.7224C40.9335 80.1359 42.2587 80.2242 42.2587 80.2242C41.7581 79.4291 42.1114 78.8696 42.1703 77.5739C42.2881 75.542 41.1397 74.5702 40.5213 73.7163C39.9029 72.8328 39.7262 71.9199 39.6967 71.8316C39.6967 71.7727 39.6673 71.7138 39.6673 71.6255C39.6673 71.0659 40.109 70.6242 40.6685 70.6242C40.7863 70.6242 40.9041 70.6242 41.0219 70.6831C41.1102 70.7126 41.9937 71.0365 42.7593 71.8021C43.5249 72.5678 44.2611 73.8635 46.293 74.0696C46.4403 74.0991 46.5875 74.0696 46.7642 74.0696C47.2648 74.0696 47.7654 74.0696 48.2366 74.0991C49.8268 74.2169 51.0636 75.5126 51.0636 77.1322C51.2992 76.661 51.417 76.1604 51.417 75.6304C51.417 75.6009 51.417 75.5715 51.417 75.542C51.3581 74.3346 50.7986 72.8328 48.5016 71.861C44.2317 70.0647 41.7581 69.1813 40.8452 67.2083C40.8157 67.1494 40.7863 67.0905 40.7863 67.0316C40.7568 66.9432 40.7568 66.8549 40.7568 66.7371C40.7568 65.9715 41.3752 65.3236 42.1703 65.3236C42.347 65.3236 42.5237 65.3531 42.671 65.412C42.7887 65.4709 44.055 65.9126 45.1446 67.0021C46.2341 68.0917 47.2943 69.9469 50.2096 70.2414C50.4157 70.2709 50.6219 70.2709 50.8575 70.2709C51.5937 70.2709 52.271 70.2709 52.9483 70.3298C55.1863 70.5064 56.9826 72.3616 56.9826 74.6586C57.3065 74.0107 57.4832 73.304 57.4832 72.5089C57.4832 72.45 57.4832 72.4205 57.4832 72.3616C57.4243 70.6242 56.5703 68.4745 53.3311 67.1199C47.2354 64.5285 42.8771 63.2917 41.7875 60.4942C41.7286 60.3175 41.6697 60.1408 41.6697 59.9347H45.2329C46.4403 59.9347 47.5593 59.2868 48.1483 58.2561C48.7667 57.2255 48.7667 55.9298 48.1483 54.8696C47.5887 53.8684 46.5286 53.25 45.4096 53.1911C45.439 50.4819 46.2341 47.9494 47.6182 45.8291C48.5605 44.4156 49.7973 43.2672 51.682 42.9727C51.8587 42.9432 52.1237 42.9432 52.3004 42.9432C53.8317 42.9432 55.0979 44.1801 55.0979 45.7408C55.0979 47.0071 54.244 48.185 53.7139 49.1273C53.2427 50.0107 52.9482 50.7764 52.9777 52.0132C53.0071 52.3666 53.066 52.7199 53.1544 53.0733C53.2427 53.4267 53.39 53.7801 53.5667 54.104C53.6844 54.3396 53.8611 54.5751 54.0084 54.8107C54.7151 55.7825 55.628 56.5187 55.9225 56.7837C56.3937 57.2255 56.9237 57.8439 57.1593 58.5212C57.1887 58.5801 57.1593 58.6684 57.1298 58.7273C57.071 58.7862 57.0121 58.8156 56.9532 58.8156C56.8059 58.8156 56.6292 58.8451 56.482 58.904C55.4219 59.1985 54.8035 60.3175 55.1274 61.3482C55.1274 61.3776 55.1568 61.4365 55.1568 61.4659C55.1568 61.4954 55.1863 61.5248 55.1863 61.5543C55.1863 61.5837 55.2157 61.6132 55.2157 61.6426C55.628 62.4966 56.5998 62.9383 57.5421 62.6733C57.8366 62.585 58.1016 62.4377 58.3078 62.2316C58.3372 62.2021 58.3372 62.2021 58.3667 62.1727C58.3667 62.1727 58.3961 62.1432 58.4256 62.1138C58.4256 62.1138 58.4256 62.1138 58.455 62.0844C58.455 62.0844 58.455 62.0844 58.4845 62.0549C58.5139 62.0255 58.5139 61.996 58.5433 61.9666C58.6611 61.8193 58.7495 61.6721 58.8378 61.4954C58.8378 61.4954 58.8673 61.4365 58.8967 61.3482C58.9262 61.2304 58.9556 61.142 58.9851 61.0242C59.0734 60.6414 59.1029 60.4353 59.1029 60.4353C59.1029 60.4353 59.1029 60.4058 59.1323 60.4058C59.1618 60.3764 59.2206 60.3469 59.2795 60.3764C59.309 60.4058 59.309 60.4353 59.309 60.4353C59.3384 60.877 59.3679 60.9653 59.3679 60.9653C59.3679 60.9653 59.3679 61.2009 59.4562 61.5248C59.574 61.8782 59.7802 62.1727 60.0452 62.3788C60.2219 62.4966 60.428 62.585 60.6341 62.6439C61.017 62.7322 61.4587 62.7322 62.0476 62.6439C63.0783 62.4966 63.7851 62.4966 63.7851 62.4966C63.7851 62.4966 63.6378 61.8193 63.5789 60.7886C63.5495 60.1997 63.4611 59.758 63.2844 59.4046C63.1961 59.1985 63.0489 59.0218 62.9016 58.8745C62.6366 58.6389 62.3127 58.4917 61.9298 58.4623C61.6059 58.4328 61.3703 58.4917 61.3703 58.4917C61.3703 58.4917 61.282 58.4917 60.8403 58.5506C60.8108 58.5506 60.7814 58.5506 60.7519 58.5212C60.7225 58.4917 60.693 58.4328 60.7519 58.3739C60.7519 58.3739 60.7519 58.3445 60.7814 58.3445C60.7814 58.3445 60.9581 58.2561 61.3114 58.1089C61.4292 58.0794 61.5176 58.0205 61.6059 57.9617C61.6943 57.9028 61.7532 57.8733 61.7532 57.8733C61.9004 57.785 62.0182 57.6377 62.136 57.4905C62.1654 57.461 62.1654 57.4316 62.1949 57.4021C62.1949 57.4021 62.1949 57.4021 62.2243 57.3727C62.2243 57.3727 62.2243 57.3727 62.2243 57.3432C62.2243 57.3138 62.2538 57.3138 62.2538 57.2843C62.2538 57.2549 62.2832 57.2549 62.2832 57.2255C62.2832 57.2255 62.2832 57.2255 62.2832 57.196C62.4305 56.931 62.5188 56.6659 62.5483 56.342C62.6071 55.3702 61.9887 54.5163 61.0759 54.2807C61.0464 54.2807 61.017 54.2512 60.9875 54.2512C60.9875 54.2512 60.9875 54.2512 60.9581 54.2512C60.9286 54.2512 60.8992 54.2512 60.8403 54.2218C60.8108 54.2218 60.7519 54.2218 60.7225 54.2218C59.6329 54.1334 58.6611 54.958 58.6022 56.0475C58.6022 56.2242 58.6022 56.3715 58.6317 56.5187C58.6317 56.5776 58.6317 56.6365 58.5728 56.6954C58.5139 56.7543 58.455 56.7837 58.3667 56.7837C57.6599 56.6954 56.8354 56.2831 56.3348 55.8709C56.217 55.7825 55.9814 55.5764 55.9814 55.5764L55.2157 54.8696C54.7151 54.369 54.3912 53.6623 54.3912 52.8966C54.3912 51.8659 54.9507 50.9825 55.7752 50.5113C57.1593 49.6574 58.6317 49.304 60.9581 48.7739C61.9887 48.5383 62.9605 48.1555 63.9029 47.7138C67.1716 46.212 69.439 42.9432 69.439 39.115C69.4685 33.9028 65.228 29.6623 60.0157 29.6623Z" fill="white"/>
<path d="M80.5992 33.901C80.0986 33.1943 79.3035 32.8409 78.5084 32.8409C76.6237 32.8409 75.2986 34.5783 75.2986 36.5219C75.2986 38.5538 76.6237 40.2029 78.5084 40.2029C79.5391 40.2029 80.3341 39.7612 80.9231 38.9661L81.6593 39.6139C80.9231 40.674 79.8335 41.1747 78.4789 41.1747C76.0642 41.1747 74.209 39.2016 74.209 36.5219C74.209 33.9305 75.9759 31.8691 78.4789 31.8691C79.6274 31.8691 80.717 32.2814 81.4532 33.2532L80.5992 33.901Z" fill="white"/>
<path d="M81.8066 36.4926C81.8066 33.8128 83.6324 31.8398 86.1944 31.8398C88.7563 31.8398 90.5821 33.8128 90.5821 36.4926C90.5821 39.1724 88.7563 41.1454 86.1944 41.1454C83.6619 41.1454 81.8066 39.1724 81.8066 36.4926ZM89.522 36.4926C89.522 34.4607 88.1674 32.8116 86.1944 32.8116C84.2214 32.8116 82.8668 34.4607 82.8668 36.4926C82.8668 38.5245 84.2214 40.1736 86.1944 40.1736C88.1674 40.1441 89.522 38.5245 89.522 36.4926Z" fill="white"/>
<path d="M91.7598 32.0762H93.2322L96.0886 38.9964H96.118L98.9745 32.0762H100.417V40.9105H99.4162V33.4897L96.3831 40.9105H95.7941L92.7904 33.4897H92.761V40.9105H91.7598V32.0762Z" fill="white"/>
<path d="M108.368 37.5242C108.368 39.4383 107.514 41.1168 105.217 41.1168C102.92 41.1168 102.066 39.4383 102.066 37.5242V32.0469H103.068V37.3769C103.068 38.7904 103.568 40.145 105.247 40.145C106.925 40.145 107.426 38.7904 107.426 37.3769V32.0469H108.427V37.5242H108.368Z" fill="white"/>
<path d="M109.988 32.0762H111.225L116.084 39.4087H116.113V32.0762H117.115V40.9105H115.848L110.99 33.578H110.96V40.9105H109.988V32.0762Z" fill="white"/>
<path d="M118.764 32.0762H124.035V33.048H119.765V35.8161H123.74V36.7878H119.765V39.9387H124.241V40.9105H118.764V32.0762Z" fill="white"/>
<path d="M127.744 32.0762H130.954C132.603 32.0762 135.077 33.2246 135.077 36.4933C135.077 39.7621 132.603 40.9105 130.954 40.9105H127.744V32.0762ZM128.745 39.9387H130.63C132.544 39.9387 134.017 38.9081 134.017 36.4933C134.017 34.0786 132.574 33.048 130.63 33.048H128.745V39.9387Z" fill="white"/>
<path d="M137.286 32.0762H136.285V40.9105H137.286V32.0762Z" fill="white"/>
<path d="M88.609 43.9142C88.5206 43.5609 88.1967 43.502 87.3427 43.502C86.047 43.502 82.5722 43.5903 79.3034 43.5903C77.8016 43.5903 75.7992 43.4725 75.4752 43.4725C75.3574 43.4725 75.2102 43.502 75.0924 43.5314C74.9746 43.5609 74.8568 43.6198 74.8274 43.7964C74.8568 44.1204 75.1807 44.1498 75.4752 44.2382C76.7415 44.5326 76.6531 44.6799 76.7709 45.7989C76.8887 47.6836 76.8887 49.3621 76.8887 52.6013C76.8887 55.929 76.8887 59.9339 76.7709 60.9056C76.6531 62.0836 76.6826 62.113 75.328 62.4369C74.8568 62.5253 74.6212 62.6136 74.5918 62.8786C74.5918 63.0553 74.739 63.1142 74.8568 63.1437C74.9746 63.1731 75.1219 63.2026 75.2396 63.2026C75.5047 63.2026 76.4176 63.0848 77.566 63.0848C78.9206 63.0848 80.3047 63.2615 80.6875 63.2615H80.7464C80.9231 63.2615 81.0703 63.2615 81.2176 63.232C81.3648 63.2026 81.5415 63.1437 81.5415 62.9375C81.512 62.6725 81.2765 62.6136 80.9525 62.5253C79.3329 62.1424 79.3624 62.113 79.2446 60.9056C79.1857 59.9044 79.1562 57.048 79.1562 55.3989C79.1562 54.8099 79.1562 54.3388 79.1562 54.221C79.1562 54.221 79.1562 54.1915 79.1857 54.1621C79.2151 54.1032 79.274 54.0443 79.3329 54.0148C79.3623 53.9854 79.3918 53.9559 79.3918 53.9559C84.928 53.9559 84.0446 54.0148 84.5746 54.1032C84.928 54.1915 85.2519 54.5155 85.4286 54.9866C85.6347 55.4578 85.7525 55.7228 86.0176 55.7523C86.1059 55.7523 86.2531 55.6934 86.2826 55.5756C86.3415 55.4578 86.3415 55.34 86.3415 55.1339C86.3415 54.6627 86.1943 54.3093 86.1943 53.8087C86.1943 53.2198 86.3415 52.3363 86.3709 51.9535C86.3709 51.8946 86.3709 51.8357 86.3709 51.7768C86.3709 51.659 86.3709 51.5707 86.312 51.4823C86.2531 51.394 86.1648 51.3645 86.0765 51.3645C85.8703 51.394 85.8114 51.5118 85.6053 51.8652C85.0752 52.8664 84.6041 52.8369 84.2212 52.8958C83.6912 52.9253 82.69 52.9842 79.3329 52.9842C79.3329 52.9842 79.1562 52.9253 79.1562 52.7191C79.1268 51.2762 79.1268 50.0394 79.1268 48.9498C79.1268 46.8001 79.1562 45.4161 79.1562 44.8271C79.1562 44.8271 79.2151 44.6799 79.3034 44.5621C79.3918 44.4443 79.5096 44.3854 79.5685 44.3854C82.8666 44.3854 84.4274 44.3854 85.5464 44.4737C86.7243 44.5621 87.3722 44.8566 87.9317 45.9756C88.1084 46.2995 88.1673 46.6234 88.4912 46.6529C88.7268 46.6234 88.7857 46.3879 88.7857 46.2112C88.7857 46.1228 88.7857 46.0345 88.7562 45.9461C88.7562 45.5633 88.6679 44.4148 88.609 43.9142ZM96.9133 43.502C96.7955 43.4725 96.6777 43.4725 96.5599 43.4725C95.7943 43.4725 94.8519 43.5903 93.8801 43.5903C92.82 43.5903 92.1722 43.4725 91.2004 43.4725C90.847 43.502 90.6114 43.4725 90.5525 43.767C90.582 44.032 90.7881 44.0909 91.0237 44.1498C92.2311 44.4148 92.4078 44.4443 92.5255 45.4161C92.5844 45.8872 92.7022 46.5645 92.7022 48.0369C92.7022 48.832 92.7022 51.4234 92.7022 53.9854C92.7022 56.5474 92.7022 59.1388 92.6728 59.9928C92.6139 61.848 92.5255 62.1719 91.3182 62.4369C90.7292 62.5842 90.4936 62.5842 90.4347 62.8786C90.4642 63.2026 90.7881 63.232 91.0826 63.232C91.7304 63.232 92.7317 63.0848 94.2041 63.0848C95.0286 63.0848 96.0004 63.1731 96.3243 63.1731C96.7071 63.1437 97.0311 63.2026 97.1194 62.8492C97.1194 62.6136 96.9133 62.4958 96.4421 62.4075C95.4409 62.1424 95.382 62.1424 95.2642 60.9645C95.2053 60.1105 95.0875 57.4897 95.0875 53.0136C95.0875 52.2185 95.0875 51.1879 95.0875 50.1277C95.0875 48.5375 95.0875 46.8885 95.1464 45.9167C95.2347 44.621 95.2642 44.3854 96.5893 44.1498C96.9722 44.1204 97.2078 44.0026 97.2078 43.7375C97.1194 43.5314 97.0016 43.5609 96.9133 43.502ZM130.425 59.7572C130.189 59.7572 130.042 59.9339 129.718 60.3461C129.365 60.7584 128.805 61.4946 128.54 61.7302C127.951 62.1719 127.568 62.2897 124.27 62.2897C121.797 62.2897 121.355 62.2308 120.795 61.9658C120.177 61.7007 119.941 60.9645 119.941 60.6995C119.941 60.1105 119.824 55.9584 119.824 54.4271C119.824 54.1032 119.824 53.9265 119.853 53.8676C119.853 53.8676 119.824 53.8676 120 53.8382C124.948 53.8382 124.889 53.8676 125.566 54.0443C125.978 54.1621 126.214 54.6038 126.302 54.8688C126.538 55.3694 126.538 55.5756 126.832 55.6345C127.009 55.605 127.186 55.4283 127.186 55.075C127.186 55.0161 127.186 54.9277 127.156 54.8394C127.127 54.7216 127.068 54.1915 127.068 53.6909C127.068 53.5437 127.068 53.367 127.097 53.2492C127.156 52.6897 127.303 51.924 127.303 51.7179C127.303 51.4823 127.245 51.2762 127.009 51.2467C126.803 51.2467 126.685 51.394 126.538 51.659C126.214 52.248 125.89 52.6013 125.713 52.6602C125.625 52.6897 125.566 52.7486 125.566 52.8369C125.419 52.8369 125.124 52.8664 124.535 52.8664H119.883C119.883 52.8664 119.883 52.8664 119.853 52.8369C119.824 52.778 119.794 52.6602 119.794 52.4541V45.3572C119.794 44.8566 119.824 44.5915 119.883 44.4737C119.941 44.3854 119.941 44.3854 120.089 44.356C120.354 44.3265 121.326 44.3265 122.445 44.3265C124.211 44.3265 126.361 44.3559 126.921 44.4443C127.51 44.5326 127.951 44.7682 128.599 46.1228C128.776 46.4467 128.835 46.594 129.07 46.6234C129.335 46.594 129.335 46.329 129.365 46.1817C129.365 46.1228 129.365 46.0639 129.365 46.005C129.188 45.3277 129.159 44.4443 129.129 44.0615C129.041 43.6787 128.953 43.4431 128.688 43.4136C128.305 43.4136 127.892 43.4725 126.626 43.4725C125.242 43.4725 120.295 43.5314 118.764 43.5314C117.674 43.5314 116.938 43.4431 116.143 43.4431C115.995 43.4431 115.848 43.4725 115.76 43.502C115.672 43.5609 115.554 43.5609 115.524 43.7375C115.554 43.9731 115.76 44.0909 116.113 44.1498C117.321 44.4148 117.586 44.621 117.615 46.4173C117.615 52.7486 117.586 55.6934 117.438 60.6112C117.38 61.9069 116.849 62.2308 115.642 62.4369C115.377 62.4958 115.141 62.4958 115.024 62.6136C112.962 59.6099 109.399 54.2799 108.928 53.367C108.869 53.1903 108.81 52.9842 108.81 52.8664C108.81 52.8369 108.81 52.8369 108.81 52.8369C109.37 52.6602 110.312 52.2774 110.901 51.8063C111.696 51.2762 112.903 50.3339 112.903 48.2431C112.903 46.859 112.226 45.4455 110.724 44.4737C109.576 43.7375 108.192 43.3842 106.13 43.3842C104.982 43.3842 103.716 43.5314 102.479 43.5314C101.242 43.5314 100.447 43.4136 99.9464 43.4136C99.5047 43.4431 99.2397 43.4431 99.2102 43.7375C99.2691 44.0615 99.593 44.0615 99.8875 44.1498C101.301 44.3854 101.242 44.6799 101.36 45.5633C101.419 46.5351 101.566 48.1253 101.566 52.3952C101.566 56.8124 101.507 59.0799 101.389 60.8173C101.272 62.0541 101.007 62.2308 99.9464 62.4369C99.5047 62.5547 99.2102 62.5253 99.1513 62.8492C99.2102 63.1731 99.5341 63.1731 99.8581 63.2026C100.535 63.2026 101.507 63.0553 102.773 63.0553C103.922 63.0553 104.57 63.2026 105.306 63.2026C105.718 63.1731 106.042 63.1731 106.13 62.8492C106.101 62.5842 105.865 62.5253 105.512 62.4664C104.275 62.2602 104.128 62.0247 104.01 61.7007C103.922 61.4651 103.775 60.3756 103.745 58.9915C103.745 58.6676 103.745 58.1375 103.745 57.5486C103.745 55.9584 103.775 53.7793 103.834 53.6026C103.834 53.5437 103.951 53.4553 104.04 53.4553C104.187 53.4553 104.334 53.4553 104.481 53.4553C105.1 53.4553 105.453 53.5142 105.718 53.5731C106.072 53.6615 106.366 53.9265 106.69 54.2799C107.132 54.7805 113.669 64.7044 115.318 66.7658C116.526 68.2381 117.91 69.3277 120.03 69.4161C120.177 69.4161 120.324 69.4161 120.472 69.4161C120.825 69.4161 121.149 69.3866 121.384 69.3277C121.679 69.2099 121.826 69.2099 121.915 68.9743V68.9449C121.856 68.7093 121.649 68.6799 121.355 68.6504C120.766 68.621 119.824 68.3265 118.793 67.3253C118.116 66.648 117.438 65.8823 116.437 64.5572C116.261 64.3216 115.907 63.821 115.436 63.1437C115.524 63.1437 115.613 63.1731 115.73 63.1731C116.113 63.1731 117.88 63.0259 119.029 63.0259C121.826 63.0259 125.743 63.1437 129.365 63.1437C129.63 63.1437 129.807 62.9375 129.924 62.7314C130.16 62.3191 130.425 61.2885 130.69 60.4639C130.749 60.2872 130.778 60.1694 130.778 60.0516C130.69 59.9339 130.602 59.7572 130.425 59.7572ZM104.746 52.7486C104.481 52.7486 104.04 52.7486 103.834 52.7191C103.804 52.7191 103.804 52.7191 103.775 52.6897C103.745 52.6308 103.716 52.513 103.716 52.3069C103.716 51.8357 103.716 45.3572 103.745 44.7682C103.804 44.2676 103.804 44.4148 103.863 44.356L103.804 44.2382L103.863 44.356C103.981 44.2971 104.511 44.1498 104.923 44.1498C106.955 44.1498 108.133 44.5915 109.046 45.3277C109.9 46.0345 110.43 47.1535 110.43 48.7142C110.43 50.3044 109.37 51.5118 108.427 52.1007C107.838 52.4836 105.718 52.7486 104.746 52.7486ZM168.148 59.1682C167.853 59.1682 167.676 59.4038 167.559 59.6688C167.146 60.2578 166.675 60.8762 166.351 61.1412C165.821 61.6124 165.438 61.6713 164.643 61.7891C163.318 61.9363 158.4 61.9952 154.072 61.9952C154.042 61.9952 154.013 61.9952 154.013 61.9952C154.013 61.9952 154.042 61.9658 154.042 61.9363C154.955 60.5817 163.024 49.3326 164.231 47.6836C165.468 45.9167 167.088 44.3559 167.294 44.1498C167.382 44.032 167.441 43.9437 167.441 43.8259C167.441 43.6492 167.323 43.502 167.117 43.502C167.088 43.502 167.088 43.502 167.058 43.502C166.675 43.5609 165.703 43.5903 164.113 43.5903C156.692 43.5903 156.221 43.502 155.544 43.4725C154.867 43.4431 154.484 43.2664 154.219 43.178C154.13 43.1486 154.072 43.1191 153.983 43.1191C153.777 43.1191 153.689 43.2958 153.63 43.4431C153.453 43.8259 153.011 45.2394 152.364 46.2701C152.275 46.4173 152.216 46.5645 152.216 46.7118C152.216 46.8296 152.305 47.0063 152.481 47.0063C152.629 47.0063 152.835 46.9768 153.041 46.6823C153.453 46.1523 154.189 45.3866 154.602 45.0627C155.014 44.7682 155.249 44.7388 155.691 44.7093C156.427 44.6504 160.108 44.6504 162.288 44.6504C163.024 44.6504 163.583 44.6504 163.819 44.6504C163.819 44.7093 163.789 44.7682 163.73 44.8271C161.345 48.0369 153.512 59.1093 150.538 62.5547C150.449 62.6431 150.391 62.7314 150.391 62.8492C150.42 63.1142 150.656 63.1731 150.921 63.1731C151.716 63.1437 153.218 63.0848 154.513 63.0848C156.074 63.0848 165.497 63.0553 166.116 63.0553C166.381 63.0553 166.734 63.0553 166.999 63.0259C167.264 62.967 167.559 62.9375 167.618 62.6431C167.706 61.8774 168.236 60.1694 168.354 59.875C168.383 59.7572 168.413 59.6394 168.413 59.551C168.413 59.4038 168.354 59.1977 168.148 59.1682ZM183.902 59.7572C183.667 59.7572 183.519 59.9339 183.195 60.3461C182.842 60.7584 182.283 61.4946 182.018 61.7302C181.429 62.1719 181.046 62.2897 177.748 62.2897C175.274 62.2897 174.832 62.2308 174.273 61.9658C173.654 61.7007 173.419 60.9645 173.419 60.6995C173.419 60.1105 173.301 55.9584 173.301 54.4271C173.301 54.1032 173.301 53.9265 173.33 53.8676C173.33 53.8676 173.301 53.8676 173.478 53.8382C178.425 53.8382 178.366 53.8676 179.043 54.0443C179.456 54.1621 179.691 54.6038 179.78 54.8688C180.015 55.3694 180.015 55.5756 180.31 55.6345C180.486 55.605 180.663 55.4283 180.663 55.075C180.663 55.0161 180.663 54.9277 180.634 54.8394C180.604 54.7216 180.545 54.1915 180.545 53.6909C180.545 53.5437 180.545 53.367 180.575 53.2492C180.634 52.6897 180.781 51.924 180.781 51.7179C180.781 51.4823 180.722 51.2762 180.486 51.2467C180.28 51.2467 180.162 51.394 180.015 51.659C179.691 52.248 179.367 52.6013 179.191 52.6602C178.955 52.8075 178.69 52.8664 176.953 52.8664H173.36C173.36 52.8664 173.36 52.8664 173.33 52.8369C173.301 52.778 173.272 52.6602 173.272 52.4541V45.3572C173.272 44.8566 173.301 44.5915 173.36 44.4737C173.419 44.3854 173.419 44.3854 173.566 44.356C173.831 44.3265 174.803 44.3265 175.922 44.3265C177.689 44.3265 179.838 44.3559 180.398 44.4443C180.987 44.5326 181.429 44.7682 182.076 46.1228C182.253 46.4467 182.312 46.594 182.548 46.6234C182.813 46.594 182.813 46.329 182.842 46.1817C182.842 46.1228 182.842 46.0639 182.842 46.005C182.665 45.3277 182.636 44.4443 182.607 44.0615C182.548 43.6787 182.43 43.4431 182.165 43.4136C181.782 43.4136 181.37 43.4725 180.103 43.4725C178.719 43.4725 173.772 43.5314 172.241 43.5314C171.151 43.5314 170.415 43.4431 169.62 43.4431C169.473 43.4431 169.326 43.4725 169.237 43.502C169.149 43.5609 169.031 43.5609 169.002 43.7375C169.031 43.9731 169.237 44.0909 169.591 44.1498C170.798 44.4148 171.063 44.621 171.092 46.4173C171.092 52.7486 171.063 55.6934 170.916 60.6112C170.857 61.9069 170.327 62.2308 169.119 62.4369C168.737 62.5253 168.472 62.4958 168.383 62.8197C168.442 63.1142 168.707 63.1437 169.119 63.1731C169.502 63.1731 171.269 63.0259 172.418 63.0259C175.215 63.0259 179.132 63.1437 182.754 63.1437C183.019 63.1437 183.195 62.9375 183.313 62.7314C183.549 62.3191 183.814 61.2885 184.079 60.4639C184.138 60.2872 184.167 60.1694 184.167 60.0516C184.138 59.9339 184.049 59.7572 183.902 59.7572ZM151.392 43.767C151.333 43.4725 151.068 43.502 150.773 43.4725C150.42 43.4725 149.772 43.5609 148.859 43.5609C148.182 43.5609 147.387 43.4725 146.827 43.4725C146.503 43.502 146.15 43.4431 146.091 43.7964C146.15 44.0909 146.415 44.0909 146.768 44.2087C147.711 44.4737 148.182 44.621 148.211 46.4173C148.241 49.1854 148.359 58.167 148.359 59.4038C148.359 59.4332 148.359 59.4627 148.359 59.4921C145.384 56.1645 137.669 46.8296 135.696 44.2971C135.284 43.767 135.137 43.5903 134.901 43.5903C133.811 43.5903 132.398 43.4431 131.721 43.4431C131.22 43.4431 130.955 43.502 130.926 43.7964C130.955 44.0909 131.22 44.1498 131.632 44.2087C132.339 44.3265 132.692 44.4737 133.075 44.7682C133.311 44.9744 133.546 45.0922 133.576 46.8885C133.576 48.7731 133.34 59.1388 133.252 60.2283C133.075 61.9952 132.899 62.1719 131.721 62.5253C131.397 62.6431 131.102 62.6431 131.043 62.967C131.043 63.0259 131.102 63.1731 131.191 63.2026C131.308 63.2615 131.426 63.2615 131.691 63.2615C131.927 63.2615 132.869 63.1142 133.782 63.1142C134.754 63.1142 135.549 63.2615 136.108 63.2615C136.403 63.232 136.756 63.2909 136.815 62.9375C136.786 62.6136 136.491 62.5547 136.167 62.4664C135.755 62.3486 134.96 62.0247 134.754 61.5535C134.518 61.0529 134.43 60.3461 134.43 59.021C134.43 57.7253 134.518 47.6541 134.518 46.3584C134.724 46.6234 137.492 49.951 140.496 53.5731C143.618 57.3424 146.975 61.4062 147.917 62.5842C148.182 62.9081 148.418 63.2026 148.594 63.4087C148.8 63.6148 148.859 63.7621 149.065 63.7915C149.36 63.7621 149.389 63.4676 149.389 63.1437C149.389 63.0259 149.389 62.8786 149.389 62.702C149.36 62.1719 149.36 61.6124 149.36 60.994C149.36 59.7866 149.389 58.3731 149.389 56.5179C149.389 53.6615 149.448 46.8296 149.566 45.9461C149.713 45.151 149.684 44.621 150.803 44.2382C150.98 44.0909 151.333 44.1204 151.392 43.767Z" fill="white"/>
</g>
<defs>
<clipPath id="clip0_1512_1042">
<rect width="185" height="85" fill="white"/>
</clipPath>
</defs>
</svg>