<svg xmlns:xlink="http://www.w3.org/1999/xlink" xmlns="http://www.w3.org/2000/svg" width="180" height="31" viewBox="0 0 180 31" fill="none"><g clip-path="url(#clip3890438492)" fill="none"><path d="M28.0461 0H18.5633C17.0691 0 15.8047 1.21455 15.8047 2.77612V12.3769C15.8047 13.8806 17.0116 15.153 18.5633 15.153H28.1035C29.5978 15.153 30.8622 13.9384 30.8622 12.3769V2.77612C30.8047 1.21455 29.5978 0 28.0461 0Z" fill="#CFB7F5"></path><path d="M23.3334 15.9062H18.5633C17.0691 15.9062 15.8047 17.1208 15.8047 18.6824V28.2831C15.8047 29.7868 17.0116 31.0592 18.5633 31.0592H23.3334C27.4714 31.0592 30.8047 27.7048 30.8047 23.5406C30.8047 19.3186 27.4714 15.9062 23.3334 15.9062Z" fill="#CFB7F5"></path><path d="M12.2414 0H7.47126C3.33333 0 0 3.35448 0 7.51866C0 11.6828 3.33333 15.0373 7.47126 15.0373H12.2414C13.7356 15.0373 15 13.8228 15 12.2612V2.77612C15 1.21455 13.7931 0 12.2414 0Z" fill="#CFB7F5"></path><path d="M12.2414 15.9062H2.75862C1.26437 15.9062 0 17.1208 0 18.6824V28.2831C0 29.7868 1.2069 31.0592 2.75862 31.0592H12.2988C13.7931 31.0592 15.0575 29.8447 15.0575 28.2831V18.6824C15 17.1786 13.7931 15.9062 12.2414 15.9062Z" fill="#CFB7F5"></path><path d="M43.9649 11.2199C43.9649 12.3188 44.8845 12.8393 46.9534 13.0128C51.3212 13.3598 53.735 15.4419 53.6776 18.9121C53.6776 22.8449 50.5741 25.5053 46.0914 25.5053C40.9189 25.5053 38.2178 22.6714 38.5052 17.871H42.9879C42.8155 20.0688 43.9649 21.399 46.0914 21.399C47.758 21.399 48.735 20.4736 48.735 19.4326C48.735 18.1602 47.8155 17.5818 45.5741 17.4083C41.2638 17.0613 38.9649 15.0949 38.9649 11.7404C38.9649 8.09675 41.9534 5.49414 46.1488 5.49414C50.7465 5.49414 53.4477 8.27026 53.1028 12.3188H48.735C48.85 10.5837 47.9304 9.54265 46.2638 9.54265C44.8845 9.48481 43.9649 10.1788 43.9649 11.2199Z" fill="#041C3B"></path><path d="M59.0232 13.9964C59.8853 12.2614 61.437 11.6252 62.7589 11.6252C66.0922 11.6252 67.7014 13.8229 67.7014 16.1942V25.0431H63.3911V17.6401C63.3911 16.3677 62.7589 15.558 61.437 15.558C59.8853 15.558 59.0232 16.5412 59.0232 17.9293V25.0431H54.7129V5.37891H59.0232V13.9964Z" fill="#041C3B"></path><path d="M69.2516 16.5989C69.3666 14.1698 71.0907 11.625 75.2286 11.625C79.0792 11.625 81.3206 13.7071 81.3206 17.0037V25.1007H77.7574V22.6138C77.0677 24.5802 75.2861 25.4478 73.1022 25.4478C70.4585 25.4478 68.7344 23.597 68.7344 21.3414C68.7344 18.9123 70.1712 17.6399 73.6769 17.0616L76.9528 16.541V16.3675C76.9528 15.6735 76.4355 14.9795 75.1137 14.9795C73.8493 14.9795 73.2746 15.6735 73.1597 16.541H69.2516V16.5989ZM74.4815 22.0933C76.0332 22.0933 76.9528 20.7631 76.9528 19.4907V19.2593L74.7114 19.6063C73.7344 19.7799 73.1597 20.1269 73.1597 20.9366C73.1597 21.7463 73.7919 22.0933 74.4815 22.0933Z" fill="#041C3B"></path><path d="M90.8624 25.4478C89.1957 25.4478 87.7015 24.7537 87.1267 23.4235V30.0168H82.8164V12.0299H86.3796V14.7481C87.0693 12.6082 89.0808 11.625 90.8624 11.625C94.1382 11.625 96.9543 14.2854 96.9543 18.5653C96.9543 22.8451 94.1957 25.4478 90.8624 25.4478ZM89.9428 21.5149C91.2072 21.5149 92.5865 20.7052 92.5865 18.5075C92.5865 16.3097 91.2647 15.5 89.9428 15.5C88.2187 15.5 87.1267 16.7146 87.1267 18.5075C87.1267 20.3004 88.2187 21.5149 89.9428 21.5149Z" fill="#041C3B"></path><path d="M97.5859 18.5653C97.5859 14.3433 100.345 11.625 104.368 11.625C107.873 11.625 110.804 13.9384 110.804 18.5653C110.804 19.3172 110.689 19.8377 110.632 19.9534H101.839C101.896 21.2836 102.816 22.0933 104.31 22.0933C106.034 22.0933 106.494 21.3414 106.609 20.9366H110.747C110.632 22.7873 108.965 25.4478 104.425 25.4478C100.345 25.4478 97.5859 22.7873 97.5859 18.5653ZM106.437 16.9459C106.322 15.6735 105.517 14.9795 104.31 14.9795C102.988 14.9795 102.011 15.6735 101.954 16.9459H106.437Z" fill="#041C3B"></path><path d="M116.034 15.6157C116.034 16.194 116.551 16.4832 117.758 16.5989C121.379 16.8881 123.045 18.2761 123.045 20.8209C123.045 23.7127 120.689 25.5056 117.068 25.5056C113.735 25.5056 111.034 23.8284 111.264 20.1847H115.057C114.942 21.5728 115.689 22.4981 117.068 22.4981C118.045 22.4981 118.735 22.0354 118.735 21.2257C118.735 20.5896 118.275 20.1269 117.068 20.0112C113.333 19.6642 111.781 18.3918 111.781 15.9049C111.781 13.0709 114.597 11.625 117.241 11.625C120.631 11.625 122.758 13.3022 122.528 16.0784H118.85C118.85 15.2108 118.333 14.6325 117.413 14.6325C116.436 14.6325 116.034 15.0951 116.034 15.6157Z" fill="#041C3B"></path><path d="M130.861 21.6298C132.126 21.6298 132.988 20.9358 133.218 19.8948H137.471C137.126 22.8444 135.172 25.447 130.804 25.447C126.608 25.447 123.562 22.6709 123.562 18.5067C123.562 14.3425 126.608 11.5664 130.804 11.5664C135.172 11.5664 137.183 14.2269 137.471 17.1186H133.218C132.93 16.0776 132.126 15.3836 130.861 15.3836C129.08 15.3836 127.988 16.656 127.988 18.5067C127.988 20.3575 129.08 21.6298 130.861 21.6298Z" fill="#041C3B"></path><path d="M138.447 16.5989C138.562 14.1698 140.286 11.625 144.424 11.625C148.274 11.625 150.516 13.7071 150.516 17.0037V25.1007H146.953V22.6138C146.263 24.5802 144.481 25.4478 142.297 25.4478C139.654 25.4478 137.93 23.597 137.93 21.3414C137.93 18.9123 139.366 17.6399 142.872 17.0616L146.148 16.541V16.3675C146.148 15.6735 145.631 14.9795 144.309 14.9795C143.045 14.9795 142.47 15.6735 142.355 16.541H138.447V16.5989ZM143.677 22.0933C145.229 22.0933 146.148 20.7631 146.148 19.4907V19.2593L143.907 19.6063C142.93 19.7799 142.355 20.1269 142.355 20.9366C142.355 21.7463 142.987 22.0933 143.677 22.0933Z" fill="#041C3B"></path><path d="M160.058 25.4478C158.391 25.4478 156.897 24.7537 156.322 23.4235V30.0168H152.012V12.0299H155.575V14.7481C156.265 12.6082 158.276 11.625 160.058 11.625C163.334 11.625 166.15 14.2854 166.15 18.5653C166.15 22.8451 163.391 25.4478 160.058 25.4478ZM159.138 21.5149C160.403 21.5149 161.782 20.7052 161.782 18.5075C161.782 16.3097 160.46 15.5 159.138 15.5C157.414 15.5 156.322 16.7146 156.322 18.5075C156.322 20.3004 157.357 21.5149 159.138 21.5149Z" fill="#041C3B"></path><path d="M166.781 18.5653C166.781 14.3433 169.54 11.625 173.563 11.625C177.069 11.625 180 13.9384 180 18.5653C180 19.3172 179.885 19.8377 179.827 19.9534H171.034C171.092 21.2836 172.011 22.0933 173.505 22.0933C175.23 22.0933 175.689 21.3414 175.804 20.9366H179.942C179.827 22.7873 178.161 25.4478 173.62 25.4478C169.54 25.4478 166.781 22.7873 166.781 18.5653ZM175.632 16.9459C175.517 15.6735 174.712 14.9795 173.505 14.9795C172.184 14.9795 171.207 15.6735 171.149 16.9459H175.632Z" fill="#041C3B"></path></g><defs><clipPath id="clip3890438492"><rect width="180" height="31" fill="white"></rect></clipPath></defs></svg>