<svg xmlns:xlink="http://www.w3.org/1999/xlink" xmlns="http://www.w3.org/2000/svg" width="225" height="108" viewBox="0 0 225 108" fill="none">
<path d="M43.1014 26.0746C40.448 26.246 36.8941 27.0003 33.9673 28.0288C32.1019 28.6974 28.6928 30.5146 26.8595 31.8174C19.4622 37.1146 15.3455 45.5488 16.0852 53.8803C16.9375 63.4974 23.2252 71.5545 33.099 75.6517C43.8411 80.1088 57.2045 78.086 65.6631 70.7317C71.8061 65.3831 74.9097 58.4917 74.572 50.9831C74.3147 45.2917 72.2081 40.2688 68.2039 35.846C65.9847 33.3946 62.5434 30.686 60.5172 29.7774L59.9865 29.5546V40.9203C59.9865 53.1088 59.9704 53.4003 59.1664 54.6688C58.8447 55.1831 55.8697 57.6688 55.5803 57.6688C55.3873 57.6688 55.4677 36.3088 55.6607 35.3488C55.8858 34.2174 56.4326 33.0688 57.1241 32.2974C58.2819 30.9946 59.5041 29.486 59.5041 29.366C59.5041 29.1946 57.317 28.2346 55.516 27.6517C53.2646 26.9146 50.4183 26.3488 47.9418 26.1431C45.8512 25.9546 45.0472 25.9546 43.1014 26.0746ZM42.9406 53.3831C42.6833 54.4288 42.1365 55.1145 40.5284 56.4174C39.6922 57.1031 38.9525 57.6517 38.8721 57.6688C38.8077 57.6688 38.7756 52.5945 38.7917 46.3888C38.856 32.9488 38.6148 34.3546 41.2842 31.2003L43.021 29.1603L43.0692 40.9546C43.0853 48.446 43.0371 52.9717 42.9406 53.3831ZM37.473 47.4345C37.473 57.3774 37.4248 60.0688 37.264 60.3088C37.1514 60.4631 36.2026 61.286 35.1413 62.1088L33.2115 63.6174L33.1633 51.6345L33.1311 39.6517L35.1734 37.2688C36.3152 35.9488 37.28 34.8688 37.3604 34.8688C37.4248 34.8688 37.473 40.526 37.473 47.4345ZM54.0365 47.6231V60.3603L52.0746 61.9031C50.9811 62.7431 50.0002 63.4974 49.9037 63.566C49.7429 63.6688 49.6946 61.2517 49.6946 51.7203V39.7546L51.8012 37.3031C52.9591 35.966 53.94 34.8688 53.9722 34.8688C54.0043 34.8688 54.0365 40.6117 54.0365 47.6231ZM31.523 56.1774V68.9145L29.5611 70.4574C28.4998 71.2974 27.5188 72.0517 27.3902 72.1203C27.2133 72.2403 27.1811 70.2688 27.1811 60.2917V48.326L28.0334 47.3317C28.4837 46.7831 29.4164 45.7031 30.0757 44.8974C30.7351 44.1088 31.3301 43.4574 31.4105 43.4574C31.4748 43.4403 31.523 49.166 31.523 56.1774ZM48.5689 56.5374V69.2917L46.4784 70.9374C45.3206 71.846 44.3396 72.5831 44.3075 72.5831C44.2592 72.5831 44.2271 67.2003 44.2271 60.6174L44.2431 48.6688L46.3337 46.2174C47.4915 44.8803 48.4725 43.7831 48.5046 43.7831C48.5368 43.7831 48.5689 49.526 48.5689 56.5374Z" fill="white"/>
<path d="M79.903 41.063C79.735 41.063 79.609 41.035 79.525 40.979C79.455 40.923 79.42 40.846 79.42 40.748C79.42 40.622 79.483 40.545 79.609 40.517C79.735 40.475 79.861 40.426 79.987 40.37C80.309 40.244 80.589 40.041 80.827 39.761C81.079 39.481 81.233 39.131 81.289 38.711C81.359 38.193 81.436 37.486 81.52 36.59C81.604 35.68 81.695 34.672 81.793 33.566C81.891 32.446 81.989 31.312 82.087 30.164C82.101 30.094 82.108 29.996 82.108 29.87C82.108 29.744 82.108 29.604 82.108 29.45C82.108 29.17 82.059 28.953 81.961 28.799C81.877 28.645 81.744 28.519 81.562 28.421C81.408 28.337 81.24 28.26 81.058 28.19C80.876 28.106 80.68 28.036 80.47 27.98C80.302 27.938 80.162 27.882 80.05 27.812C79.952 27.742 79.903 27.644 79.903 27.518C79.903 27.392 79.952 27.308 80.05 27.266C80.162 27.21 80.295 27.182 80.449 27.182C80.673 27.182 80.939 27.189 81.247 27.203C81.569 27.217 81.919 27.231 82.297 27.245C82.675 27.245 83.06 27.252 83.452 27.266C83.858 27.28 84.25 27.287 84.628 27.287C84.74 27.287 84.845 27.329 84.943 27.413C85.041 27.497 85.104 27.581 85.132 27.665C85.244 27.945 85.342 28.204 85.426 28.442C85.51 28.666 85.608 28.918 85.72 29.198L88.744 36.317C88.772 36.373 88.8 36.401 88.828 36.401C88.87 36.401 88.898 36.373 88.912 36.317L91.663 29.702C91.775 29.156 91.859 28.729 91.915 28.421C91.985 28.099 92.048 27.854 92.104 27.686C92.16 27.504 92.279 27.413 92.461 27.413H93.406C94.022 27.385 94.666 27.343 95.338 27.287C96.024 27.217 96.563 27.182 96.955 27.182C97.109 27.182 97.235 27.21 97.333 27.266C97.445 27.308 97.501 27.392 97.501 27.518C97.501 27.644 97.452 27.735 97.354 27.791C97.256 27.847 97.144 27.896 97.018 27.938C96.962 27.952 96.885 27.98 96.787 28.022C96.703 28.064 96.633 28.099 96.577 28.127C96.157 28.323 95.849 28.54 95.653 28.778C95.471 29.016 95.394 29.401 95.422 29.933C95.464 30.955 95.506 31.83 95.548 32.558C95.59 33.286 95.625 33.958 95.653 34.574C95.695 35.19 95.737 35.841 95.779 36.527C95.835 37.199 95.891 38.004 95.947 38.942C95.975 39.292 96.129 39.579 96.409 39.803C96.689 40.013 97.039 40.174 97.459 40.286C97.585 40.328 97.69 40.377 97.774 40.433C97.872 40.489 97.921 40.587 97.921 40.727C97.921 40.825 97.879 40.902 97.795 40.958C97.725 41.014 97.634 41.042 97.522 41.042C97.228 41.042 96.864 41.035 96.43 41.021C96.01 41.007 95.59 40.993 95.17 40.979C94.75 40.965 94.4 40.958 94.12 40.958C93.84 40.958 93.511 40.965 93.133 40.979C92.769 40.993 92.391 41.007 91.999 41.021C91.621 41.049 91.278 41.063 90.97 41.063C90.858 41.063 90.753 41.035 90.655 40.979C90.571 40.923 90.529 40.846 90.529 40.748C90.529 40.622 90.571 40.524 90.655 40.454C90.753 40.37 90.865 40.314 90.991 40.286C91.523 40.174 91.894 40.034 92.104 39.866C92.314 39.684 92.405 39.383 92.377 38.963C92.335 38.123 92.3 37.269 92.272 36.401C92.244 35.533 92.216 34.679 92.188 33.839C92.174 32.985 92.146 32.18 92.104 31.424C92.104 31.34 92.083 31.305 92.041 31.319C91.999 31.319 91.957 31.368 91.915 31.466L88.093 40.937C88.009 41.161 87.89 41.252 87.736 41.21C87.596 41.168 87.498 41.091 87.442 40.979C86.714 39.355 85.965 37.752 85.195 36.17C84.425 34.588 83.739 33.055 83.137 31.571C83.081 31.431 83.004 31.382 82.906 31.424C82.822 31.466 82.773 31.578 82.759 31.76C82.731 32.39 82.71 33.125 82.696 33.965C82.696 34.805 82.703 35.652 82.717 36.506C82.731 37.36 82.738 38.13 82.738 38.816C82.738 39.208 82.864 39.516 83.116 39.74C83.368 39.964 83.774 40.146 84.334 40.286C84.46 40.314 84.586 40.363 84.712 40.433C84.838 40.489 84.901 40.587 84.901 40.727C84.901 40.825 84.845 40.902 84.733 40.958C84.621 41.014 84.509 41.042 84.397 41.042C84.019 41.042 83.725 41.035 83.515 41.021C83.305 41.007 83.109 41 82.927 41C82.759 40.986 82.528 40.979 82.234 40.979C81.912 40.979 81.569 40.986 81.205 41C80.841 41.014 80.533 41.028 80.281 41.042C80.029 41.056 79.903 41.063 79.903 41.063ZM99.3469 41.105C98.9409 41.105 98.7379 41.028 98.7379 40.874C98.7379 40.776 98.7939 40.699 98.9059 40.643C99.0179 40.587 99.1929 40.538 99.4309 40.496C99.9909 40.398 100.404 40.237 100.67 40.013C100.936 39.775 101.069 39.418 101.069 38.942V29.45C101.069 28.96 100.964 28.61 100.754 28.4C100.558 28.19 100.194 28.036 99.6619 27.938C99.1999 27.854 98.9689 27.714 98.9689 27.518C98.9689 27.364 99.1719 27.287 99.5779 27.287C99.9699 27.287 100.418 27.301 100.922 27.329L102.035 27.35L103.043 27.329C103.491 27.301 103.918 27.287 104.324 27.287C104.73 27.287 104.933 27.364 104.933 27.518C104.933 27.714 104.702 27.854 104.24 27.938C103.694 28.036 103.309 28.197 103.085 28.421C102.861 28.631 102.749 28.974 102.749 29.45V38.942C102.749 39.418 102.882 39.775 103.148 40.013C103.428 40.237 103.848 40.398 104.408 40.496C104.646 40.538 104.821 40.587 104.933 40.643C105.045 40.699 105.101 40.776 105.101 40.874C105.101 41.028 104.898 41.105 104.492 41.105C103.974 41.105 103.526 41.084 103.148 41.042C102.7 41.014 102.329 41 102.035 41C101.685 41 101.258 41.014 100.754 41.042C100.334 41.084 99.8649 41.105 99.3469 41.105ZM119.504 41.357C119.336 41.357 119.063 41.238 118.685 41C118.321 40.762 117.992 40.44 117.698 40.034C117.586 39.866 116.767 38.886 115.241 37.094C113.729 35.302 112.63 33.993 111.944 33.167C110.824 31.851 110.166 31.074 109.97 30.836C109.788 30.612 109.641 30.5 109.529 30.5C109.459 30.5 109.41 30.549 109.382 30.647C109.354 30.731 109.34 30.829 109.34 30.941C109.27 34.399 109.235 37.024 109.235 38.816C109.235 39.768 109.683 40.328 110.579 40.496C110.817 40.538 110.992 40.587 111.104 40.643C111.216 40.699 111.272 40.776 111.272 40.874C111.272 41.028 111.069 41.105 110.663 41.105C110.145 41.105 109.746 41.084 109.466 41.042C109.186 41.014 108.927 41 108.689 41C108.479 41 108.234 41.014 107.954 41.042C107.408 41.084 107.016 41.105 106.778 41.105C106.372 41.105 106.169 41.028 106.169 40.874C106.169 40.79 106.218 40.72 106.316 40.664C106.428 40.608 106.61 40.545 106.862 40.475C107.576 40.279 107.982 39.705 108.08 38.753C108.178 37.843 108.262 36.618 108.332 35.078C108.416 33.524 108.458 31.949 108.458 30.353C108.458 29.667 108.283 29.156 107.933 28.82C107.597 28.484 107.079 28.204 106.379 27.98C106.253 27.938 106.113 27.875 105.959 27.791C105.805 27.693 105.728 27.588 105.728 27.476C105.728 27.364 105.777 27.287 105.875 27.245C105.987 27.203 106.099 27.182 106.211 27.182L107.681 27.245C108.353 27.273 108.941 27.287 109.445 27.287C109.557 27.287 109.641 27.315 109.697 27.371C109.767 27.413 109.851 27.504 109.949 27.644C110.117 27.882 111.3 29.338 113.498 32.012C115.696 34.686 117.264 36.59 118.202 37.724C118.44 38.004 118.615 38.144 118.727 38.144C118.853 38.144 118.923 37.997 118.937 37.703C118.965 36.639 118.979 33.79 118.979 29.156C118.965 28.904 118.818 28.659 118.538 28.421C118.272 28.183 118.013 28.043 117.761 28.001C117.131 27.889 116.816 27.749 116.816 27.581C116.816 27.511 116.907 27.455 117.089 27.413C117.271 27.371 117.467 27.35 117.677 27.35H118.874L119.924 27.329C120.372 27.301 120.827 27.287 121.289 27.287C121.695 27.287 121.898 27.364 121.898 27.518C121.898 27.714 121.667 27.854 121.205 27.938C120.687 28.036 120.344 28.162 120.176 28.316C120.008 28.47 119.91 28.722 119.882 29.072C119.854 29.576 119.84 32.817 119.84 38.795C119.84 39.355 119.868 39.887 119.924 40.391L119.945 40.832C119.945 41.182 119.798 41.357 119.504 41.357ZM123.115 41.105C122.709 41.105 122.506 41.028 122.506 40.874C122.506 40.776 122.562 40.699 122.674 40.643C122.786 40.587 122.961 40.538 123.199 40.496C123.759 40.398 124.172 40.237 124.438 40.013C124.704 39.775 124.837 39.418 124.837 38.942V29.45C124.837 28.96 124.732 28.61 124.522 28.4C124.326 28.19 123.962 28.036 123.43 27.938C122.968 27.854 122.737 27.714 122.737 27.518C122.737 27.364 122.94 27.287 123.346 27.287C123.738 27.287 124.186 27.301 124.69 27.329L125.803 27.35L126.811 27.329C127.259 27.301 127.686 27.287 128.092 27.287C128.498 27.287 128.701 27.364 128.701 27.518C128.701 27.714 128.47 27.854 128.008 27.938C127.462 28.036 127.077 28.197 126.853 28.421C126.629 28.631 126.517 28.974 126.517 29.45V38.942C126.517 39.418 126.65 39.775 126.916 40.013C127.196 40.237 127.616 40.398 128.176 40.496C128.414 40.538 128.589 40.587 128.701 40.643C128.813 40.699 128.869 40.776 128.869 40.874C128.869 41.028 128.666 41.105 128.26 41.105C127.742 41.105 127.294 41.084 126.916 41.042C126.468 41.014 126.097 41 125.803 41C125.453 41 125.026 41.014 124.522 41.042C124.102 41.084 123.633 41.105 123.115 41.105ZM133.528 41.336C132.352 41.336 131.365 41 130.567 40.328C130.413 40.174 130.322 40.034 130.294 39.908C130.238 39.656 130.175 39.075 130.105 38.165L130.084 37.703C130.084 37.605 130.119 37.535 130.189 37.493C130.273 37.437 130.378 37.409 130.504 37.409C130.686 37.409 130.798 37.486 130.84 37.64C131.092 38.662 131.484 39.418 132.016 39.908C132.562 40.398 133.164 40.643 133.822 40.643C134.55 40.643 135.152 40.412 135.628 39.95C136.104 39.474 136.342 38.851 136.342 38.081C136.342 37.535 136.251 37.087 136.069 36.737C135.901 36.373 135.663 36.072 135.355 35.834C135.047 35.582 134.585 35.267 133.969 34.889L133.549 34.637C132.863 34.217 132.324 33.853 131.932 33.545C131.54 33.237 131.204 32.859 130.924 32.411C130.644 31.963 130.504 31.452 130.504 30.878C130.504 29.758 130.882 28.841 131.638 28.127C132.394 27.413 133.479 27.056 134.893 27.056C135.607 27.056 136.342 27.21 137.098 27.518C137.196 27.56 137.287 27.63 137.371 27.728C137.455 27.826 137.511 27.931 137.539 28.043C137.679 28.533 137.784 28.932 137.854 29.24C137.924 29.534 137.959 29.828 137.959 30.122C137.959 30.276 137.854 30.353 137.644 30.353C137.518 30.353 137.392 30.325 137.266 30.269C137.154 30.213 137.084 30.143 137.056 30.059C136.748 29.289 136.391 28.715 135.985 28.337C135.593 27.959 135.11 27.77 134.536 27.77C133.836 27.77 133.255 27.966 132.793 28.358C132.345 28.736 132.121 29.338 132.121 30.164C132.121 30.556 132.247 30.92 132.499 31.256C132.751 31.592 133.066 31.9 133.444 32.18C133.836 32.46 134.375 32.81 135.061 33.23C135.719 33.636 136.251 34 136.657 34.322C137.063 34.644 137.406 35.043 137.686 35.519C137.966 35.995 138.106 36.562 138.106 37.22C138.106 38.466 137.686 39.467 136.846 40.223C136.006 40.965 134.9 41.336 133.528 41.336ZM143.5 41.105C143.094 41.105 142.891 41.028 142.891 40.874C142.891 40.776 142.947 40.699 143.059 40.643C143.171 40.587 143.346 40.538 143.584 40.496C144.13 40.398 144.536 40.223 144.802 39.971C145.082 39.719 145.222 39.348 145.222 38.858V30.71C145.222 29.772 145.187 29.142 145.117 28.82C145.061 28.484 144.949 28.302 144.781 28.274C144.599 28.232 144.382 28.211 144.13 28.211C143.892 28.197 143.612 28.19 143.29 28.19H142.303C141.939 28.19 141.596 28.26 141.274 28.4C140.952 28.54 140.721 28.743 140.581 29.009C140.497 29.177 140.364 29.352 140.182 29.534C140.014 29.716 139.86 29.807 139.72 29.807C139.622 29.807 139.573 29.716 139.573 29.534C139.573 29.394 139.608 29.254 139.678 29.114C139.874 28.736 140.014 28.393 140.098 28.085C140.182 27.763 140.259 27.371 140.329 26.909C140.371 26.587 140.49 26.426 140.686 26.426C140.728 26.426 140.805 26.503 140.917 26.657C141.043 26.811 141.141 26.958 141.211 27.098C141.295 27.238 141.477 27.343 141.757 27.413C142.051 27.483 142.359 27.518 142.681 27.518H150.073C150.941 27.518 151.606 27.413 152.068 27.203C152.152 27.161 152.271 27.084 152.425 26.972C152.593 26.846 152.747 26.783 152.887 26.783C152.929 26.783 152.964 26.839 152.992 26.951C153.02 27.049 153.034 27.154 153.034 27.266C153.034 27.322 153.006 27.518 152.95 27.854L152.824 28.484C152.768 28.652 152.74 28.855 152.74 29.093V29.345C152.74 29.485 152.705 29.632 152.635 29.786C152.579 29.94 152.502 30.017 152.404 30.017C152.306 30.017 152.229 29.954 152.173 29.828C152.117 29.688 152.061 29.464 152.005 29.156C151.949 28.848 151.774 28.61 151.48 28.442C151.186 28.274 150.717 28.19 150.073 28.19H147.952C147.602 28.19 147.357 28.232 147.217 28.316C147.091 28.4 147.007 28.603 146.965 28.925C146.923 29.233 146.902 29.793 146.902 30.605V38.858C146.902 39.348 147.042 39.719 147.322 39.971C147.602 40.223 148.015 40.398 148.561 40.496C148.799 40.538 148.974 40.587 149.086 40.643C149.198 40.699 149.254 40.776 149.254 40.874C149.254 41.028 149.051 41.105 148.645 41.105C148.127 41.105 147.679 41.084 147.301 41.042C146.853 41.014 146.482 41 146.188 41C145.838 41 145.411 41.014 144.907 41.042C144.487 41.084 144.018 41.105 143.5 41.105ZM166.451 41.441C165.807 41.441 165.247 41.357 164.771 41.189C164.309 41.021 163.903 40.727 163.553 40.307C162.909 39.509 162.377 38.83 161.957 38.27C161.537 37.696 161.005 36.884 160.361 35.834C160.151 35.484 159.85 35.211 159.458 35.015C158.996 34.791 158.443 34.644 157.799 34.574H157.757C157.575 34.574 157.484 34.714 157.484 34.994V38.69C157.484 39.726 157.953 40.328 158.891 40.496C159.129 40.538 159.304 40.587 159.416 40.643C159.528 40.699 159.584 40.776 159.584 40.874C159.584 41.028 159.381 41.105 158.975 41.105C158.527 41.105 158.121 41.077 157.757 41.021C157.505 40.979 157.225 40.958 156.917 40.958C156.665 40.958 156.406 40.972 156.14 41C155.888 41.014 155.706 41.021 155.594 41.021C155.034 41.077 154.565 41.105 154.187 41.105C153.781 41.105 153.578 41.028 153.578 40.874C153.578 40.776 153.634 40.699 153.746 40.643C153.858 40.587 154.033 40.538 154.271 40.496C154.817 40.398 155.209 40.237 155.447 40.013C155.685 39.775 155.804 39.404 155.804 38.9V29.954C155.804 29.366 155.776 28.953 155.72 28.715C155.678 28.463 155.566 28.281 155.384 28.169C155.216 28.057 154.929 27.98 154.523 27.938C154.299 27.924 154.124 27.875 153.998 27.791C153.886 27.707 153.83 27.616 153.83 27.518C153.83 27.364 154.033 27.287 154.439 27.287C155.041 27.287 155.433 27.294 155.615 27.308H156.497C156.707 27.308 157.022 27.294 157.442 27.266C158.198 27.224 158.688 27.203 158.912 27.203C160.452 27.203 161.621 27.497 162.419 28.085C163.231 28.659 163.637 29.513 163.637 30.647C163.637 32.159 162.811 33.335 161.159 34.175C161.117 34.189 161.096 34.224 161.096 34.28C161.096 34.322 161.117 34.378 161.159 34.448C162.041 35.778 162.748 36.8 163.28 37.514C163.826 38.228 164.54 38.984 165.422 39.782C165.758 40.076 166.101 40.265 166.451 40.349C166.801 40.433 167.263 40.475 167.837 40.475C168.047 40.475 168.152 40.552 168.152 40.706C168.152 40.972 167.963 41.161 167.585 41.273C167.221 41.385 166.843 41.441 166.451 41.441ZM158.597 34.091C159.213 34.091 159.759 33.951 160.235 33.671C160.725 33.377 161.096 32.992 161.348 32.516C161.614 32.04 161.747 31.529 161.747 30.983C161.747 29.989 161.537 29.219 161.117 28.673C160.697 28.113 159.878 27.833 158.66 27.833C158.226 27.833 157.932 27.973 157.778 28.253C157.638 28.519 157.554 29.03 157.526 29.786C157.498 30.738 157.484 31.928 157.484 33.356C157.484 33.678 157.568 33.881 157.736 33.965C157.904 34.049 158.191 34.091 158.597 34.091ZM170.185 41.105C169.779 41.105 169.576 41.028 169.576 40.874C169.576 40.776 169.632 40.699 169.744 40.643C169.856 40.587 170.031 40.538 170.269 40.496C171.361 40.3 171.907 39.712 171.907 38.732V35.624C171.907 35.386 171.844 35.12 171.718 34.826C171.606 34.518 171.494 34.266 171.382 34.07L168.925 30.038C168.155 28.806 167.532 28.12 167.056 27.98C166.818 27.896 166.643 27.819 166.531 27.749C166.419 27.679 166.363 27.602 166.363 27.518C166.363 27.364 166.566 27.287 166.972 27.287L167.938 27.308C168.554 27.336 169.051 27.35 169.429 27.35L170.437 27.329C170.605 27.315 170.829 27.308 171.109 27.308C171.515 27.308 171.718 27.385 171.718 27.539C171.718 27.707 171.487 27.847 171.025 27.959C170.787 28.015 170.612 28.085 170.5 28.169C170.402 28.239 170.353 28.344 170.353 28.484C170.353 28.666 170.444 28.918 170.626 29.24L172.558 32.81C172.838 33.342 173.034 33.608 173.146 33.608C173.23 33.608 173.314 33.559 173.398 33.461C173.482 33.349 173.629 33.132 173.839 32.81C174.259 32.138 174.721 31.354 175.225 30.458C175.281 30.346 175.407 30.122 175.603 29.786C175.855 29.366 175.981 29.009 175.981 28.715C175.981 28.309 175.694 28.064 175.12 27.98C174.966 27.952 174.812 27.896 174.658 27.812C174.504 27.728 174.427 27.644 174.427 27.56C174.427 27.406 174.63 27.329 175.036 27.329L176.611 27.35C177.003 27.35 177.465 27.336 177.997 27.308L178.795 27.287C179.201 27.287 179.404 27.364 179.404 27.518C179.404 27.602 179.306 27.686 179.11 27.77C178.928 27.854 178.655 27.945 178.291 28.043C177.955 28.141 177.668 28.316 177.43 28.568C177.206 28.82 176.877 29.282 176.443 29.954C175.701 31.102 174.924 32.334 174.112 33.65C173.86 34.07 173.706 34.378 173.65 34.574C173.608 34.77 173.587 35.092 173.587 35.54V38.732C173.587 39.208 173.727 39.6 174.007 39.908C174.301 40.202 174.714 40.398 175.246 40.496C175.484 40.538 175.659 40.587 175.771 40.643C175.883 40.699 175.939 40.776 175.939 40.874C175.939 41.028 175.736 41.105 175.33 41.105C174.812 41.105 174.364 41.084 173.986 41.042C173.538 41.014 173.167 41 172.873 41C172.523 41 172.096 41.014 171.592 41.042C171.172 41.084 170.703 41.105 170.185 41.105ZM190.583 41.294C189.603 41.294 188.672 41.133 187.79 40.811C186.908 40.475 186.124 40.006 185.438 39.404C184.752 38.788 184.213 38.06 183.821 37.22C183.429 36.366 183.233 35.421 183.233 34.385C183.233 33.433 183.394 32.523 183.716 31.655C184.038 30.773 184.514 29.989 185.144 29.303C185.788 28.617 186.579 28.071 187.517 27.665C188.455 27.259 189.54 27.056 190.772 27.056C191.752 27.056 192.683 27.224 193.565 27.56C194.447 27.882 195.231 28.351 195.917 28.967C196.603 29.569 197.142 30.297 197.534 31.151C197.926 31.991 198.122 32.929 198.122 33.965C198.122 34.903 197.961 35.813 197.639 36.695C197.317 37.577 196.834 38.361 196.19 39.047C195.56 39.733 194.776 40.279 193.838 40.685C192.9 41.091 191.815 41.294 190.583 41.294ZM190.961 40.307C191.703 40.307 192.319 40.083 192.809 39.635C193.313 39.187 193.691 38.571 193.943 37.787C194.195 36.989 194.321 36.079 194.321 35.057C194.321 34.217 194.244 33.384 194.09 32.558C193.936 31.732 193.698 30.983 193.376 30.311C193.054 29.625 192.641 29.079 192.137 28.673C191.647 28.267 191.052 28.064 190.352 28.064C189.624 28.064 189.008 28.288 188.504 28.736C188.014 29.184 187.643 29.8 187.391 30.584C187.153 31.368 187.034 32.271 187.034 33.293C187.034 34.133 187.111 34.966 187.265 35.792C187.419 36.618 187.65 37.374 187.958 38.06C188.28 38.732 188.686 39.278 189.176 39.698C189.68 40.104 190.275 40.307 190.961 40.307ZM199.882 41.105C199.476 41.105 199.273 41.028 199.273 40.874C199.273 40.776 199.329 40.699 199.441 40.643C199.553 40.587 199.728 40.538 199.966 40.496C200.498 40.398 200.862 40.237 201.058 40.013C201.268 39.775 201.373 39.404 201.373 38.9V30.038C201.373 29.366 201.282 28.869 201.1 28.547C200.932 28.225 200.596 28.022 200.092 27.938C199.63 27.854 199.399 27.714 199.399 27.518C199.399 27.364 199.602 27.287 200.008 27.287C200.526 27.287 201.149 27.301 201.877 27.329L203.62 27.35H206.266C206.658 27.35 207.106 27.308 207.61 27.224C207.974 27.168 208.219 27.14 208.345 27.14C208.583 27.14 208.709 27.203 208.723 27.329C208.751 27.539 208.772 27.882 208.786 28.358C208.814 28.834 208.828 29.198 208.828 29.45C208.828 29.744 208.765 29.891 208.639 29.891C208.569 29.891 208.506 29.87 208.45 29.828C208.394 29.772 208.352 29.709 208.324 29.639C208.198 29.163 208.037 28.82 207.841 28.61C207.505 28.232 207.036 28.043 206.434 28.043H203.767C203.473 28.043 203.284 28.134 203.2 28.316C203.116 28.484 203.067 28.743 203.053 29.093C203.039 29.443 203.032 30.143 203.032 31.193C203.032 32.187 203.039 32.852 203.053 33.188C203.053 33.496 203.123 33.65 203.263 33.65C203.641 33.65 204.152 33.636 204.796 33.608L205.699 33.587C205.993 33.587 206.252 33.51 206.476 33.356C206.7 33.188 206.868 32.978 206.98 32.726C207.008 32.67 207.064 32.6 207.148 32.516C207.246 32.418 207.316 32.369 207.358 32.369C207.414 32.369 207.477 32.404 207.547 32.474C207.617 32.544 207.645 32.621 207.631 32.705C207.589 33.181 207.568 33.566 207.568 33.86C207.568 34.196 207.589 34.672 207.631 35.288C207.631 35.526 207.568 35.645 207.442 35.645C207.316 35.645 207.211 35.596 207.127 35.498C207.043 35.386 206.987 35.274 206.959 35.162C206.861 34.868 206.721 34.658 206.539 34.532C206.357 34.392 206.168 34.322 205.972 34.322L204.922 34.301C204.306 34.301 203.851 34.315 203.557 34.343C203.221 34.371 203.053 34.546 203.053 34.868C203.053 36.618 203.074 37.955 203.116 38.879C203.144 39.355 203.256 39.726 203.452 39.992C203.648 40.244 203.998 40.412 204.502 40.496C204.74 40.538 204.915 40.587 205.027 40.643C205.139 40.699 205.195 40.776 205.195 40.874C205.195 41.028 204.992 41.105 204.586 41.105C204.138 41.105 203.732 41.077 203.368 41.021C203.116 40.979 202.836 40.958 202.528 40.958C202.29 40.958 202.045 40.972 201.793 41C201.555 41.014 201.38 41.021 201.268 41.021C200.736 41.077 200.274 41.105 199.882 41.105ZM79.735 59.105C79.609 59.105 79.511 59.07 79.441 59C79.371 58.93 79.336 58.853 79.336 58.769C79.336 58.559 79.476 58.412 79.756 58.328C80.218 58.188 80.54 58.041 80.722 57.887C80.918 57.733 81.016 57.439 81.016 57.005V47.429C81.016 46.981 80.925 46.666 80.743 46.484C80.575 46.288 80.246 46.134 79.756 46.022C79.588 45.98 79.469 45.917 79.399 45.833C79.343 45.749 79.315 45.665 79.315 45.581C79.315 45.483 79.35 45.406 79.42 45.35C79.504 45.28 79.609 45.245 79.735 45.245C80.043 45.245 80.379 45.252 80.743 45.266C81.107 45.28 81.464 45.301 81.814 45.329C82.164 45.343 82.479 45.35 82.759 45.35C83.543 45.35 84.383 45.343 85.279 45.329C86.175 45.315 86.966 45.301 87.652 45.287C88.1 45.287 88.464 45.259 88.744 45.203C89.038 45.147 89.213 45.119 89.269 45.119C89.381 45.119 89.493 45.154 89.605 45.224C89.731 45.28 89.801 45.392 89.815 45.56C89.871 46.078 89.941 46.589 90.025 47.093C90.123 47.583 90.172 48.017 90.172 48.395C90.172 48.535 90.144 48.64 90.088 48.71C90.032 48.78 89.969 48.815 89.899 48.815C89.829 48.815 89.752 48.787 89.668 48.731C89.584 48.675 89.514 48.584 89.458 48.458C89.304 48.08 89.164 47.765 89.038 47.513C88.926 47.247 88.793 47.037 88.639 46.883C88.485 46.729 88.289 46.582 88.051 46.442C87.813 46.288 87.498 46.211 87.106 46.211H85.783C85.433 46.211 85.146 46.295 84.922 46.463C84.698 46.631 84.586 46.869 84.586 47.177V51.041C84.586 51.223 84.635 51.356 84.733 51.44C84.831 51.51 84.964 51.545 85.132 51.545H86.917C87.281 51.545 87.54 51.412 87.694 51.146C87.862 50.88 88.009 50.579 88.135 50.243C88.247 49.991 88.394 49.865 88.576 49.865C88.646 49.865 88.709 49.907 88.765 49.991C88.821 50.075 88.842 50.194 88.828 50.348C88.814 50.544 88.793 50.74 88.765 50.936C88.751 51.132 88.737 51.328 88.723 51.524C88.723 51.706 88.723 51.895 88.723 52.091C88.723 52.273 88.723 52.462 88.723 52.658C88.737 52.84 88.751 53.029 88.765 53.225C88.779 53.421 88.793 53.624 88.807 53.834C88.835 54.044 88.821 54.198 88.765 54.296C88.723 54.38 88.667 54.422 88.597 54.422C88.359 54.422 88.191 54.254 88.093 53.918C87.967 53.47 87.82 53.127 87.652 52.889C87.498 52.651 87.288 52.532 87.022 52.532H85.048C84.894 52.532 84.775 52.574 84.691 52.658C84.621 52.742 84.586 52.861 84.586 53.015V56.984C84.586 57.376 84.67 57.656 84.838 57.824C85.006 57.978 85.265 58.055 85.615 58.055H87.484C87.764 58.055 88.037 58.02 88.303 57.95C88.583 57.866 88.821 57.74 89.017 57.572C89.255 57.376 89.472 57.124 89.668 56.816C89.878 56.508 90.06 56.2 90.214 55.892C90.27 55.78 90.326 55.71 90.382 55.682C90.452 55.654 90.529 55.64 90.613 55.64C90.697 55.64 90.753 55.689 90.781 55.787C90.809 55.871 90.823 55.962 90.823 56.06C90.823 56.312 90.788 56.585 90.718 56.879C90.648 57.173 90.557 57.488 90.445 57.824C90.347 58.146 90.249 58.482 90.151 58.832C90.123 58.93 90.06 58.993 89.962 59.021C89.864 59.063 89.759 59.084 89.647 59.084C89.577 59.084 89.304 59.077 88.828 59.063C88.352 59.063 87.757 59.056 87.043 59.042C86.343 59.028 85.608 59.014 84.838 59C84.082 59 83.389 59 82.759 59C82.479 59 82.157 59.007 81.793 59.021C81.429 59.035 81.065 59.049 80.701 59.063C80.337 59.091 80.015 59.105 79.735 59.105ZM97.9451 59.105C96.4051 59.035 95.2711 59 94.5431 59C94.3051 59 93.9901 59.014 93.5981 59.042C93.2901 59.084 92.8701 59.105 92.3381 59.105C91.9321 59.105 91.7291 59.014 91.7291 58.832C91.7291 58.72 91.7711 58.65 91.8551 58.622C91.9391 58.594 92.1281 58.552 92.4221 58.496C92.9541 58.398 93.3181 58.237 93.5141 58.013C93.7241 57.789 93.8291 57.425 93.8291 56.921V47.471C93.8291 46.981 93.7241 46.631 93.5141 46.421C93.3181 46.197 92.9541 46.036 92.4221 45.938C92.1561 45.896 91.9741 45.854 91.8761 45.812C91.7781 45.756 91.7291 45.672 91.7291 45.56C91.7291 45.378 91.9321 45.287 92.3381 45.287L93.5351 45.308C93.7451 45.322 94.1231 45.329 94.6691 45.329C95.2431 45.329 95.9641 45.294 96.8321 45.224C97.1261 45.21 97.3921 45.196 97.6301 45.182C97.8821 45.168 98.0921 45.161 98.2601 45.161C100.08 45.161 101.585 45.455 102.775 46.043C103.965 46.617 104.833 47.408 105.379 48.416C105.939 49.41 106.219 50.544 106.219 51.818C106.219 53.134 105.89 54.359 105.232 55.493C104.574 56.613 103.685 57.502 102.565 58.16C101.445 58.818 100.227 59.147 98.9111 59.147L97.9451 59.105ZM98.6591 58.412C99.7371 58.412 100.696 58.146 101.536 57.614C102.39 57.082 103.048 56.347 103.51 55.409C103.986 54.457 104.224 53.379 104.224 52.175C104.224 50.887 103.944 49.76 103.384 48.794C102.824 47.828 102.089 47.093 101.179 46.589C100.283 46.071 99.3451 45.812 98.3651 45.812C97.6231 45.812 97.0631 45.833 96.6851 45.875C96.3211 45.917 96.0341 46.029 95.8241 46.211C95.6141 46.393 95.5091 46.687 95.5091 47.093V56.459C95.5091 57.229 95.7891 57.747 96.3491 58.013C96.9231 58.279 97.6931 58.412 98.6591 58.412ZM114.764 59.294C112.93 59.294 111.53 58.818 110.564 57.866C109.598 56.914 109.115 55.612 109.115 53.96V47.513C109.115 47.051 109.024 46.701 108.842 46.463C108.66 46.211 108.429 46.05 108.149 45.98C107.687 45.854 107.456 45.7 107.456 45.518C107.456 45.364 107.659 45.287 108.065 45.287L108.968 45.308C109.416 45.336 109.787 45.35 110.081 45.35L111.089 45.329C111.257 45.315 111.481 45.308 111.761 45.308C112.167 45.308 112.37 45.385 112.37 45.539C112.37 45.623 112.321 45.693 112.223 45.749C112.125 45.805 111.943 45.875 111.677 45.959C111.481 46.015 111.285 46.19 111.089 46.484C110.893 46.764 110.795 47.093 110.795 47.471V53.372C110.795 54.996 111.194 56.214 111.992 57.026C112.79 57.838 113.861 58.244 115.205 58.244C116.605 58.244 117.648 57.761 118.334 56.795C119.034 55.815 119.384 54.478 119.384 52.784C119.384 51.93 119.356 50.425 119.3 48.269C119.286 47.681 119.209 47.177 119.069 46.757C118.929 46.323 118.719 46.064 118.439 45.98C117.977 45.854 117.746 45.714 117.746 45.56C117.746 45.406 117.949 45.329 118.355 45.329L119.93 45.35C120.196 45.35 120.525 45.336 120.917 45.308L121.631 45.287C122.037 45.287 122.24 45.364 122.24 45.518C122.24 45.7 122.009 45.84 121.547 45.938C120.889 46.064 120.539 46.589 120.497 47.513C120.441 48.367 120.399 49.242 120.371 50.138C120.357 51.02 120.343 51.615 120.329 51.923C120.329 52.329 120.315 52.938 120.287 53.75C120.259 54.814 120 55.773 119.51 56.627C119.02 57.467 118.362 58.125 117.536 58.601C116.71 59.063 115.786 59.294 114.764 59.294ZM131.003 59.315C129.687 59.315 128.448 59.021 127.286 58.433C126.124 57.831 125.186 56.991 124.472 55.913C123.772 54.835 123.422 53.603 123.422 52.217C123.422 50.887 123.793 49.683 124.535 48.605C125.277 47.513 126.271 46.652 127.517 46.022C128.763 45.392 130.1 45.077 131.528 45.077C132.256 45.077 132.844 45.119 133.292 45.203C133.754 45.273 134.412 45.413 135.266 45.623C135.462 45.679 135.602 45.763 135.686 45.875C135.784 45.987 135.847 46.141 135.875 46.337C135.987 47.429 136.05 48.234 136.064 48.752C136.078 48.836 136.043 48.913 135.959 48.983C135.889 49.039 135.805 49.067 135.707 49.067C135.525 49.067 135.406 48.969 135.35 48.773C135.196 48.171 135.021 47.695 134.825 47.345C134.643 46.981 134.384 46.68 134.048 46.442C133.698 46.218 133.271 46.043 132.767 45.917C132.277 45.791 131.745 45.728 131.171 45.728C130.107 45.728 129.148 46.008 128.294 46.568C127.44 47.128 126.768 47.87 126.278 48.794C125.788 49.704 125.543 50.677 125.543 51.713C125.543 52.875 125.788 53.995 126.278 55.073C126.768 56.137 127.447 57.005 128.315 57.677C129.197 58.335 130.198 58.664 131.318 58.664C132.284 58.664 133.096 58.447 133.754 58.013C134.426 57.565 135.007 56.907 135.497 56.039C135.539 55.955 135.602 55.892 135.686 55.85C135.77 55.794 135.847 55.766 135.917 55.766C136.001 55.766 136.071 55.794 136.127 55.85C136.183 55.906 136.211 55.99 136.211 56.102C136.211 56.27 136.148 56.578 136.022 57.026C135.896 57.46 135.77 57.831 135.644 58.139C135.532 58.335 135.448 58.461 135.392 58.517C135.336 58.573 135.196 58.636 134.972 58.706C134.482 58.902 133.88 59.049 133.166 59.147C132.452 59.259 131.731 59.315 131.003 59.315ZM137.932 59.105C137.75 59.105 137.603 59.077 137.491 59.021C137.379 58.979 137.323 58.916 137.323 58.832C137.323 58.65 137.554 58.489 138.016 58.349C138.422 58.223 138.772 58.048 139.066 57.824C139.36 57.586 139.612 57.222 139.822 56.732C140.564 55.024 141.208 53.477 141.754 52.091C142.314 50.691 142.979 48.948 143.749 46.862C143.903 46.428 144.001 46.022 144.043 45.644C144.085 45.63 144.183 45.602 144.337 45.56C144.505 45.504 144.659 45.427 144.799 45.329C144.911 45.245 144.995 45.119 145.051 44.951C145.121 44.783 145.17 44.671 145.198 44.615C145.212 44.601 145.226 44.601 145.24 44.615C145.268 44.615 145.289 44.622 145.303 44.636C145.331 44.706 145.352 44.783 145.366 44.867C145.394 44.951 145.422 45.028 145.45 45.098C146.486 48.36 147.732 52.098 149.188 56.312C149.454 57.082 149.748 57.607 150.07 57.887C150.392 58.153 150.805 58.328 151.309 58.412C151.533 58.454 151.701 58.524 151.813 58.622C151.939 58.706 152.002 58.797 152.002 58.895C152.002 59.035 151.799 59.105 151.393 59.105L150.259 59.063C149.475 59.007 148.88 58.979 148.474 58.979L146.269 59C145.863 59 145.66 58.916 145.66 58.748C145.66 58.664 145.723 58.587 145.849 58.517C145.989 58.433 146.157 58.377 146.353 58.349C147.207 58.209 147.634 57.894 147.634 57.404C147.634 56.956 147.361 55.822 146.815 54.002C146.787 53.904 146.731 53.841 146.647 53.813C146.577 53.785 146.444 53.771 146.248 53.771H142.279C142.125 53.771 142.006 53.897 141.922 54.149C141.768 54.597 141.586 55.185 141.376 55.913C141.166 56.627 141.061 57.047 141.061 57.173C141.061 57.467 141.173 57.719 141.397 57.929C141.635 58.139 141.929 58.286 142.279 58.37C142.531 58.44 142.706 58.503 142.804 58.559C142.916 58.615 142.972 58.692 142.972 58.79C142.972 58.944 142.769 59.021 142.363 59.021C142.111 59.021 141.901 59.014 141.733 59L140.452 58.979C140.214 58.979 139.948 58.986 139.654 59C139.374 59.028 139.164 59.042 139.024 59.042C138.632 59.084 138.268 59.105 137.932 59.105ZM146.101 53.078C146.185 53.078 146.255 53.071 146.311 53.057C146.367 53.043 146.395 53.015 146.395 52.973L146.353 52.763L144.715 47.639C144.631 47.387 144.568 47.261 144.526 47.261C144.498 47.261 144.442 47.38 144.358 47.618L142.447 52.763L142.405 52.931C142.405 53.001 142.433 53.043 142.489 53.057C142.559 53.071 142.678 53.078 142.846 53.078H146.101ZM154.41 59.105C154.004 59.105 153.801 59.028 153.801 58.874C153.801 58.776 153.857 58.699 153.969 58.643C154.081 58.587 154.256 58.538 154.494 58.496C155.04 58.398 155.446 58.223 155.712 57.971C155.992 57.719 156.132 57.348 156.132 56.858V48.71C156.132 47.772 156.097 47.142 156.027 46.82C155.971 46.484 155.859 46.302 155.691 46.274C155.509 46.232 155.292 46.211 155.04 46.211C154.802 46.197 154.522 46.19 154.2 46.19H153.213C152.849 46.19 152.506 46.26 152.184 46.4C151.862 46.54 151.631 46.743 151.491 47.009C151.407 47.177 151.274 47.352 151.092 47.534C150.924 47.716 150.77 47.807 150.63 47.807C150.532 47.807 150.483 47.716 150.483 47.534C150.483 47.394 150.518 47.254 150.588 47.114C150.784 46.736 150.924 46.393 151.008 46.085C151.092 45.763 151.169 45.371 151.239 44.909C151.281 44.587 151.4 44.426 151.596 44.426C151.638 44.426 151.715 44.503 151.827 44.657C151.953 44.811 152.051 44.958 152.121 45.098C152.205 45.238 152.387 45.343 152.667 45.413C152.961 45.483 153.269 45.518 153.591 45.518H160.983C161.851 45.518 162.516 45.413 162.978 45.203C163.062 45.161 163.181 45.084 163.335 44.972C163.503 44.846 163.657 44.783 163.797 44.783C163.839 44.783 163.874 44.839 163.902 44.951C163.93 45.049 163.944 45.154 163.944 45.266C163.944 45.322 163.916 45.518 163.86 45.854L163.734 46.484C163.678 46.652 163.65 46.855 163.65 47.093V47.345C163.65 47.485 163.615 47.632 163.545 47.786C163.489 47.94 163.412 48.017 163.314 48.017C163.216 48.017 163.139 47.954 163.083 47.828C163.027 47.688 162.971 47.464 162.915 47.156C162.859 46.848 162.684 46.61 162.39 46.442C162.096 46.274 161.627 46.19 160.983 46.19H158.862C158.512 46.19 158.267 46.232 158.127 46.316C158.001 46.4 157.917 46.603 157.875 46.925C157.833 47.233 157.812 47.793 157.812 48.605V56.858C157.812 57.348 157.952 57.719 158.232 57.971C158.512 58.223 158.925 58.398 159.471 58.496C159.709 58.538 159.884 58.587 159.996 58.643C160.108 58.699 160.164 58.776 160.164 58.874C160.164 59.028 159.961 59.105 159.555 59.105C159.037 59.105 158.589 59.084 158.211 59.042C157.763 59.014 157.392 59 157.098 59C156.748 59 156.321 59.014 155.817 59.042C155.397 59.084 154.928 59.105 154.41 59.105ZM164.992 59.105C164.586 59.105 164.383 59.028 164.383 58.874C164.383 58.776 164.439 58.699 164.551 58.643C164.663 58.587 164.838 58.538 165.076 58.496C165.636 58.398 166.049 58.237 166.315 58.013C166.581 57.775 166.714 57.418 166.714 56.942V47.45C166.714 46.96 166.609 46.61 166.399 46.4C166.203 46.19 165.839 46.036 165.307 45.938C164.845 45.854 164.614 45.714 164.614 45.518C164.614 45.364 164.817 45.287 165.223 45.287C165.615 45.287 166.063 45.301 166.567 45.329L167.68 45.35L168.688 45.329C169.136 45.301 169.563 45.287 169.969 45.287C170.375 45.287 170.578 45.364 170.578 45.518C170.578 45.714 170.347 45.854 169.885 45.938C169.339 46.036 168.954 46.197 168.73 46.421C168.506 46.631 168.394 46.974 168.394 47.45V56.942C168.394 57.418 168.527 57.775 168.793 58.013C169.073 58.237 169.493 58.398 170.053 58.496C170.291 58.538 170.466 58.587 170.578 58.643C170.69 58.699 170.746 58.776 170.746 58.874C170.746 59.028 170.543 59.105 170.137 59.105C169.619 59.105 169.171 59.084 168.793 59.042C168.345 59.014 167.974 59 167.68 59C167.33 59 166.903 59.014 166.399 59.042C165.979 59.084 165.51 59.105 164.992 59.105ZM179.038 59.294C177.806 59.294 176.651 59.007 175.573 58.433C174.509 57.845 173.655 57.026 173.011 55.976C172.381 54.926 172.066 53.729 172.066 52.385C172.066 51.097 172.346 49.893 172.906 48.773C173.466 47.653 174.285 46.757 175.363 46.085C176.441 45.399 177.729 45.056 179.227 45.056C180.459 45.056 181.607 45.35 182.671 45.938C183.749 46.512 184.603 47.324 185.233 48.374C185.877 49.424 186.199 50.621 186.199 51.965C186.199 53.253 185.919 54.457 185.359 55.577C184.799 56.697 183.98 57.6 182.902 58.286C181.824 58.958 180.536 59.294 179.038 59.294ZM179.353 58.454C180.921 58.454 182.118 57.971 182.944 57.005C183.77 56.025 184.183 54.688 184.183 52.994C184.183 51.664 183.98 50.467 183.574 49.403C183.168 48.339 182.566 47.499 181.768 46.883C180.984 46.253 180.025 45.938 178.891 45.938C177.337 45.938 176.147 46.421 175.321 47.387C174.495 48.339 174.082 49.655 174.082 51.335C174.082 52.665 174.278 53.869 174.67 54.947C175.076 56.025 175.671 56.879 176.455 57.509C177.253 58.139 178.219 58.454 179.353 58.454ZM201.166 59.357C200.998 59.357 200.725 59.238 200.347 59C199.983 58.762 199.654 58.44 199.36 58.034C199.248 57.866 198.429 56.886 196.903 55.094C195.391 53.302 194.292 51.993 193.606 51.167C192.486 49.851 191.828 49.074 191.632 48.836C191.45 48.612 191.303 48.5 191.191 48.5C191.121 48.5 191.072 48.549 191.044 48.647C191.016 48.731 191.002 48.829 191.002 48.941C190.932 52.399 190.897 55.024 190.897 56.816C190.897 57.768 191.345 58.328 192.241 58.496C192.479 58.538 192.654 58.587 192.766 58.643C192.878 58.699 192.934 58.776 192.934 58.874C192.934 59.028 192.731 59.105 192.325 59.105C191.807 59.105 191.408 59.084 191.128 59.042C190.848 59.014 190.589 59 190.351 59C190.141 59 189.896 59.014 189.616 59.042C189.07 59.084 188.678 59.105 188.44 59.105C188.034 59.105 187.831 59.028 187.831 58.874C187.831 58.79 187.88 58.72 187.978 58.664C188.09 58.608 188.272 58.545 188.524 58.475C189.238 58.279 189.644 57.705 189.742 56.753C189.84 55.843 189.924 54.618 189.994 53.078C190.078 51.524 190.12 49.949 190.12 48.353C190.12 47.667 189.945 47.156 189.595 46.82C189.259 46.484 188.741 46.204 188.041 45.98C187.915 45.938 187.775 45.875 187.621 45.791C187.467 45.693 187.39 45.588 187.39 45.476C187.39 45.364 187.439 45.287 187.537 45.245C187.649 45.203 187.761 45.182 187.873 45.182L189.343 45.245C190.015 45.273 190.603 45.287 191.107 45.287C191.219 45.287 191.303 45.315 191.359 45.371C191.429 45.413 191.513 45.504 191.611 45.644C191.779 45.882 192.962 47.338 195.16 50.012C197.358 52.686 198.926 54.59 199.864 55.724C200.102 56.004 200.277 56.144 200.389 56.144C200.515 56.144 200.585 55.997 200.599 55.703C200.627 54.639 200.641 51.79 200.641 47.156C200.627 46.904 200.48 46.659 200.2 46.421C199.934 46.183 199.675 46.043 199.423 46.001C198.793 45.889 198.478 45.749 198.478 45.581C198.478 45.511 198.569 45.455 198.751 45.413C198.933 45.371 199.129 45.35 199.339 45.35H200.536L201.586 45.329C202.034 45.301 202.489 45.287 202.951 45.287C203.357 45.287 203.56 45.364 203.56 45.518C203.56 45.714 203.329 45.854 202.867 45.938C202.349 46.036 202.006 46.162 201.838 46.316C201.67 46.47 201.572 46.722 201.544 47.072C201.516 47.576 201.502 50.817 201.502 56.795C201.502 57.355 201.53 57.887 201.586 58.391L201.607 58.832C201.607 59.182 201.46 59.357 201.166 59.357ZM79.903 77.063C79.735 77.063 79.609 77.035 79.525 76.979C79.455 76.923 79.42 76.846 79.42 76.748C79.42 76.622 79.483 76.545 79.609 76.517C79.735 76.475 79.861 76.426 79.987 76.37C80.309 76.244 80.589 76.041 80.827 75.761C81.079 75.481 81.233 75.131 81.289 74.711C81.359 74.193 81.436 73.486 81.52 72.59C81.604 71.68 81.695 70.672 81.793 69.566C81.891 68.446 81.989 67.312 82.087 66.164C82.101 66.094 82.108 65.996 82.108 65.87C82.108 65.744 82.108 65.604 82.108 65.45C82.108 65.17 82.059 64.953 81.961 64.799C81.877 64.645 81.744 64.519 81.562 64.421C81.408 64.337 81.24 64.26 81.058 64.19C80.876 64.106 80.68 64.036 80.47 63.98C80.302 63.938 80.162 63.882 80.05 63.812C79.952 63.742 79.903 63.644 79.903 63.518C79.903 63.392 79.952 63.308 80.05 63.266C80.162 63.21 80.295 63.182 80.449 63.182C80.673 63.182 80.939 63.189 81.247 63.203C81.569 63.217 81.919 63.231 82.297 63.245C82.675 63.245 83.06 63.252 83.452 63.266C83.858 63.28 84.25 63.287 84.628 63.287C84.74 63.287 84.845 63.329 84.943 63.413C85.041 63.497 85.104 63.581 85.132 63.665C85.244 63.945 85.342 64.204 85.426 64.442C85.51 64.666 85.608 64.918 85.72 65.198L88.744 72.317C88.772 72.373 88.8 72.401 88.828 72.401C88.87 72.401 88.898 72.373 88.912 72.317L91.663 65.702C91.775 65.156 91.859 64.729 91.915 64.421C91.985 64.099 92.048 63.854 92.104 63.686C92.16 63.504 92.279 63.413 92.461 63.413H93.406C94.022 63.385 94.666 63.343 95.338 63.287C96.024 63.217 96.563 63.182 96.955 63.182C97.109 63.182 97.235 63.21 97.333 63.266C97.445 63.308 97.501 63.392 97.501 63.518C97.501 63.644 97.452 63.735 97.354 63.791C97.256 63.847 97.144 63.896 97.018 63.938C96.962 63.952 96.885 63.98 96.787 64.022C96.703 64.064 96.633 64.099 96.577 64.127C96.157 64.323 95.849 64.54 95.653 64.778C95.471 65.016 95.394 65.401 95.422 65.933C95.464 66.955 95.506 67.83 95.548 68.558C95.59 69.286 95.625 69.958 95.653 70.574C95.695 71.19 95.737 71.841 95.779 72.527C95.835 73.199 95.891 74.004 95.947 74.942C95.975 75.292 96.129 75.579 96.409 75.803C96.689 76.013 97.039 76.174 97.459 76.286C97.585 76.328 97.69 76.377 97.774 76.433C97.872 76.489 97.921 76.587 97.921 76.727C97.921 76.825 97.879 76.902 97.795 76.958C97.725 77.014 97.634 77.042 97.522 77.042C97.228 77.042 96.864 77.035 96.43 77.021C96.01 77.007 95.59 76.993 95.17 76.979C94.75 76.965 94.4 76.958 94.12 76.958C93.84 76.958 93.511 76.965 93.133 76.979C92.769 76.993 92.391 77.007 91.999 77.021C91.621 77.049 91.278 77.063 90.97 77.063C90.858 77.063 90.753 77.035 90.655 76.979C90.571 76.923 90.529 76.846 90.529 76.748C90.529 76.622 90.571 76.524 90.655 76.454C90.753 76.37 90.865 76.314 90.991 76.286C91.523 76.174 91.894 76.034 92.104 75.866C92.314 75.684 92.405 75.383 92.377 74.963C92.335 74.123 92.3 73.269 92.272 72.401C92.244 71.533 92.216 70.679 92.188 69.839C92.174 68.985 92.146 68.18 92.104 67.424C92.104 67.34 92.083 67.305 92.041 67.319C91.999 67.319 91.957 67.368 91.915 67.466L88.093 76.937C88.009 77.161 87.89 77.252 87.736 77.21C87.596 77.168 87.498 77.091 87.442 76.979C86.714 75.355 85.965 73.752 85.195 72.17C84.425 70.588 83.739 69.055 83.137 67.571C83.081 67.431 83.004 67.382 82.906 67.424C82.822 67.466 82.773 67.578 82.759 67.76C82.731 68.39 82.71 69.125 82.696 69.965C82.696 70.805 82.703 71.652 82.717 72.506C82.731 73.36 82.738 74.13 82.738 74.816C82.738 75.208 82.864 75.516 83.116 75.74C83.368 75.964 83.774 76.146 84.334 76.286C84.46 76.314 84.586 76.363 84.712 76.433C84.838 76.489 84.901 76.587 84.901 76.727C84.901 76.825 84.845 76.902 84.733 76.958C84.621 77.014 84.509 77.042 84.397 77.042C84.019 77.042 83.725 77.035 83.515 77.021C83.305 77.007 83.109 77 82.927 77C82.759 76.986 82.528 76.979 82.234 76.979C81.912 76.979 81.569 76.986 81.205 77C80.841 77.014 80.533 77.028 80.281 77.042C80.029 77.056 79.903 77.063 79.903 77.063ZM98.9059 77.105C98.7239 77.105 98.5769 77.077 98.4649 77.021C98.3529 76.979 98.2969 76.916 98.2969 76.832C98.2969 76.65 98.5279 76.489 98.9899 76.349C99.3959 76.223 99.7459 76.048 100.04 75.824C100.334 75.586 100.586 75.222 100.796 74.732C101.538 73.024 102.182 71.477 102.728 70.091C103.288 68.691 103.953 66.948 104.723 64.862C104.877 64.428 104.975 64.022 105.017 63.644C105.059 63.63 105.157 63.602 105.311 63.56C105.479 63.504 105.633 63.427 105.773 63.329C105.885 63.245 105.969 63.119 106.025 62.951C106.095 62.783 106.144 62.671 106.172 62.615C106.186 62.601 106.2 62.601 106.214 62.615C106.242 62.615 106.263 62.622 106.277 62.636C106.305 62.706 106.326 62.783 106.34 62.867C106.368 62.951 106.396 63.028 106.424 63.098C107.46 66.36 108.706 70.098 110.162 74.312C110.428 75.082 110.722 75.607 111.044 75.887C111.366 76.153 111.779 76.328 112.283 76.412C112.507 76.454 112.675 76.524 112.787 76.622C112.913 76.706 112.976 76.797 112.976 76.895C112.976 77.035 112.773 77.105 112.367 77.105L111.233 77.063C110.449 77.007 109.854 76.979 109.448 76.979L107.243 77C106.837 77 106.634 76.916 106.634 76.748C106.634 76.664 106.697 76.587 106.823 76.517C106.963 76.433 107.131 76.377 107.327 76.349C108.181 76.209 108.608 75.894 108.608 75.404C108.608 74.956 108.335 73.822 107.789 72.002C107.761 71.904 107.705 71.841 107.621 71.813C107.551 71.785 107.418 71.771 107.222 71.771H103.253C103.099 71.771 102.98 71.897 102.896 72.149C102.742 72.597 102.56 73.185 102.35 73.913C102.14 74.627 102.035 75.047 102.035 75.173C102.035 75.467 102.147 75.719 102.371 75.929C102.609 76.139 102.903 76.286 103.253 76.37C103.505 76.44 103.68 76.503 103.778 76.559C103.89 76.615 103.946 76.692 103.946 76.79C103.946 76.944 103.743 77.021 103.337 77.021C103.085 77.021 102.875 77.014 102.707 77L101.426 76.979C101.188 76.979 100.922 76.986 100.628 77C100.348 77.028 100.138 77.042 99.9979 77.042C99.6059 77.084 99.2419 77.105 98.9059 77.105ZM107.075 71.078C107.159 71.078 107.229 71.071 107.285 71.057C107.341 71.043 107.369 71.015 107.369 70.973L107.327 70.763L105.689 65.639C105.605 65.387 105.542 65.261 105.5 65.261C105.472 65.261 105.416 65.38 105.332 65.618L103.421 70.763L103.379 70.931C103.379 71.001 103.407 71.043 103.463 71.057C103.533 71.071 103.652 71.078 103.82 71.078H107.075ZM114.034 77.105C113.852 77.105 113.705 77.077 113.593 77.021C113.495 76.979 113.446 76.923 113.446 76.853C113.446 76.685 113.6 76.566 113.908 76.496C114.482 76.384 114.909 76.216 115.189 75.992C115.469 75.768 115.609 75.432 115.609 74.984V65.24C115.609 64.904 115.574 64.659 115.504 64.505C115.434 64.337 115.315 64.218 115.147 64.148C114.993 64.078 114.72 64.008 114.328 63.938C113.866 63.854 113.635 63.714 113.635 63.518C113.635 63.364 113.838 63.287 114.244 63.287C114.664 63.287 115.098 63.301 115.546 63.329L116.596 63.35L117.856 63.329C118.388 63.301 118.85 63.287 119.242 63.287C119.648 63.287 119.851 63.364 119.851 63.518C119.851 63.714 119.62 63.854 119.158 63.938C118.5 64.064 118.024 64.197 117.73 64.337C117.436 64.477 117.289 64.729 117.289 65.093V74.984C117.289 75.446 117.394 75.775 117.604 75.971C117.814 76.167 118.248 76.265 118.906 76.265H121.51C121.86 76.265 122.182 76.209 122.476 76.097C122.77 75.985 122.994 75.859 123.148 75.719C123.428 75.481 123.631 75.271 123.757 75.089C123.897 74.893 124.058 74.606 124.24 74.228C124.296 74.088 124.366 73.948 124.45 73.808C124.534 73.668 124.618 73.598 124.702 73.598C124.786 73.598 124.849 73.64 124.891 73.724C124.933 73.794 124.954 73.878 124.954 73.976L124.933 74.081C124.751 74.753 124.618 75.271 124.534 75.635C124.464 75.985 124.408 76.356 124.366 76.748C124.338 76.986 124.24 77.105 124.072 77.105C122.574 77.105 121.195 77.084 119.935 77.042C118.507 77.014 117.485 77 116.869 77C116.435 77 115.903 77.014 115.273 77.042C114.643 77.07 114.23 77.091 114.034 77.105ZM125.71 77.105C125.528 77.105 125.381 77.077 125.269 77.021C125.157 76.979 125.101 76.916 125.101 76.832C125.101 76.65 125.332 76.489 125.794 76.349C126.2 76.223 126.55 76.048 126.844 75.824C127.138 75.586 127.39 75.222 127.6 74.732C128.342 73.024 128.986 71.477 129.532 70.091C130.092 68.691 130.757 66.948 131.527 64.862C131.681 64.428 131.779 64.022 131.821 63.644C131.863 63.63 131.961 63.602 132.115 63.56C132.283 63.504 132.437 63.427 132.577 63.329C132.689 63.245 132.773 63.119 132.829 62.951C132.899 62.783 132.948 62.671 132.976 62.615C132.99 62.601 133.004 62.601 133.018 62.615C133.046 62.615 133.067 62.622 133.081 62.636C133.109 62.706 133.13 62.783 133.144 62.867C133.172 62.951 133.2 63.028 133.228 63.098C134.264 66.36 135.51 70.098 136.966 74.312C137.232 75.082 137.526 75.607 137.848 75.887C138.17 76.153 138.583 76.328 139.087 76.412C139.311 76.454 139.479 76.524 139.591 76.622C139.717 76.706 139.78 76.797 139.78 76.895C139.78 77.035 139.577 77.105 139.171 77.105L138.037 77.063C137.253 77.007 136.658 76.979 136.252 76.979L134.047 77C133.641 77 133.438 76.916 133.438 76.748C133.438 76.664 133.501 76.587 133.627 76.517C133.767 76.433 133.935 76.377 134.131 76.349C134.985 76.209 135.412 75.894 135.412 75.404C135.412 74.956 135.139 73.822 134.593 72.002C134.565 71.904 134.509 71.841 134.425 71.813C134.355 71.785 134.222 71.771 134.026 71.771H130.057C129.903 71.771 129.784 71.897 129.7 72.149C129.546 72.597 129.364 73.185 129.154 73.913C128.944 74.627 128.839 75.047 128.839 75.173C128.839 75.467 128.951 75.719 129.175 75.929C129.413 76.139 129.707 76.286 130.057 76.37C130.309 76.44 130.484 76.503 130.582 76.559C130.694 76.615 130.75 76.692 130.75 76.79C130.75 76.944 130.547 77.021 130.141 77.021C129.889 77.021 129.679 77.014 129.511 77L128.23 76.979C127.992 76.979 127.726 76.986 127.432 77C127.152 77.028 126.942 77.042 126.802 77.042C126.41 77.084 126.046 77.105 125.71 77.105ZM133.879 71.078C133.963 71.078 134.033 71.071 134.089 71.057C134.145 71.043 134.173 71.015 134.173 70.973L134.131 70.763L132.493 65.639C132.409 65.387 132.346 65.261 132.304 65.261C132.276 65.261 132.22 65.38 132.136 65.618L130.225 70.763L130.183 70.931C130.183 71.001 130.211 71.043 130.267 71.057C130.337 71.071 130.456 71.078 130.624 71.078H133.879ZM141.926 77.105C141.52 77.105 141.317 77.028 141.317 76.874C141.317 76.776 141.373 76.699 141.485 76.643C141.597 76.587 141.772 76.538 142.01 76.496C143.102 76.3 143.648 75.712 143.648 74.732V71.624C143.648 71.386 143.585 71.12 143.459 70.826C143.347 70.518 143.235 70.266 143.123 70.07L140.666 66.038C139.896 64.806 139.273 64.12 138.797 63.98C138.559 63.896 138.384 63.819 138.272 63.749C138.16 63.679 138.104 63.602 138.104 63.518C138.104 63.364 138.307 63.287 138.713 63.287L139.679 63.308C140.295 63.336 140.792 63.35 141.17 63.35L142.178 63.329C142.346 63.315 142.57 63.308 142.85 63.308C143.256 63.308 143.459 63.385 143.459 63.539C143.459 63.707 143.228 63.847 142.766 63.959C142.528 64.015 142.353 64.085 142.241 64.169C142.143 64.239 142.094 64.344 142.094 64.484C142.094 64.666 142.185 64.918 142.367 65.24L144.299 68.81C144.579 69.342 144.775 69.608 144.887 69.608C144.971 69.608 145.055 69.559 145.139 69.461C145.223 69.349 145.37 69.132 145.58 68.81C146 68.138 146.462 67.354 146.966 66.458C147.022 66.346 147.148 66.122 147.344 65.786C147.596 65.366 147.722 65.009 147.722 64.715C147.722 64.309 147.435 64.064 146.861 63.98C146.707 63.952 146.553 63.896 146.399 63.812C146.245 63.728 146.168 63.644 146.168 63.56C146.168 63.406 146.371 63.329 146.777 63.329L148.352 63.35C148.744 63.35 149.206 63.336 149.738 63.308L150.536 63.287C150.942 63.287 151.145 63.364 151.145 63.518C151.145 63.602 151.047 63.686 150.851 63.77C150.669 63.854 150.396 63.945 150.032 64.043C149.696 64.141 149.409 64.316 149.171 64.568C148.947 64.82 148.618 65.282 148.184 65.954C147.442 67.102 146.665 68.334 145.853 69.65C145.601 70.07 145.447 70.378 145.391 70.574C145.349 70.77 145.328 71.092 145.328 71.54V74.732C145.328 75.208 145.468 75.6 145.748 75.908C146.042 76.202 146.455 76.398 146.987 76.496C147.225 76.538 147.4 76.587 147.512 76.643C147.624 76.699 147.68 76.776 147.68 76.874C147.68 77.028 147.477 77.105 147.071 77.105C146.553 77.105 146.105 77.084 145.727 77.042C145.279 77.014 144.908 77 144.614 77C144.264 77 143.837 77.014 143.333 77.042C142.913 77.084 142.444 77.105 141.926 77.105ZM154.528 77.336C153.352 77.336 152.365 77 151.567 76.328C151.413 76.174 151.322 76.034 151.294 75.908C151.238 75.656 151.175 75.075 151.105 74.165L151.084 73.703C151.084 73.605 151.119 73.535 151.189 73.493C151.273 73.437 151.378 73.409 151.504 73.409C151.686 73.409 151.798 73.486 151.84 73.64C152.092 74.662 152.484 75.418 153.016 75.908C153.562 76.398 154.164 76.643 154.822 76.643C155.55 76.643 156.152 76.412 156.628 75.95C157.104 75.474 157.342 74.851 157.342 74.081C157.342 73.535 157.251 73.087 157.069 72.737C156.901 72.373 156.663 72.072 156.355 71.834C156.047 71.582 155.585 71.267 154.969 70.889L154.549 70.637C153.863 70.217 153.324 69.853 152.932 69.545C152.54 69.237 152.204 68.859 151.924 68.411C151.644 67.963 151.504 67.452 151.504 66.878C151.504 65.758 151.882 64.841 152.638 64.127C153.394 63.413 154.479 63.056 155.893 63.056C156.607 63.056 157.342 63.21 158.098 63.518C158.196 63.56 158.287 63.63 158.371 63.728C158.455 63.826 158.511 63.931 158.539 64.043C158.679 64.533 158.784 64.932 158.854 65.24C158.924 65.534 158.959 65.828 158.959 66.122C158.959 66.276 158.854 66.353 158.644 66.353C158.518 66.353 158.392 66.325 158.266 66.269C158.154 66.213 158.084 66.143 158.056 66.059C157.748 65.289 157.391 64.715 156.985 64.337C156.593 63.959 156.11 63.77 155.536 63.77C154.836 63.77 154.255 63.966 153.793 64.358C153.345 64.736 153.121 65.338 153.121 66.164C153.121 66.556 153.247 66.92 153.499 67.256C153.751 67.592 154.066 67.9 154.444 68.18C154.836 68.46 155.375 68.81 156.061 69.23C156.719 69.636 157.251 70 157.657 70.322C158.063 70.644 158.406 71.043 158.686 71.519C158.966 71.995 159.106 72.562 159.106 73.22C159.106 74.466 158.686 75.467 157.846 76.223C157.006 76.965 155.9 77.336 154.528 77.336ZM161.014 77.105C160.608 77.105 160.405 77.028 160.405 76.874C160.405 76.776 160.461 76.699 160.573 76.643C160.685 76.587 160.86 76.538 161.098 76.496C161.658 76.398 162.071 76.237 162.337 76.013C162.603 75.775 162.736 75.418 162.736 74.942V65.45C162.736 64.96 162.631 64.61 162.421 64.4C162.225 64.19 161.861 64.036 161.329 63.938C160.867 63.854 160.636 63.714 160.636 63.518C160.636 63.364 160.839 63.287 161.245 63.287C161.637 63.287 162.085 63.301 162.589 63.329L163.702 63.35L164.71 63.329C165.158 63.301 165.585 63.287 165.991 63.287C166.397 63.287 166.6 63.364 166.6 63.518C166.6 63.714 166.369 63.854 165.907 63.938C165.361 64.036 164.976 64.197 164.752 64.421C164.528 64.631 164.416 64.974 164.416 65.45V74.942C164.416 75.418 164.549 75.775 164.815 76.013C165.095 76.237 165.515 76.398 166.075 76.496C166.313 76.538 166.488 76.587 166.6 76.643C166.712 76.699 166.768 76.776 166.768 76.874C166.768 77.028 166.565 77.105 166.159 77.105C165.641 77.105 165.193 77.084 164.815 77.042C164.367 77.014 163.996 77 163.702 77C163.352 77 162.925 77.014 162.421 77.042C162.001 77.084 161.532 77.105 161.014 77.105ZM167.71 77.105C167.528 77.105 167.381 77.077 167.269 77.021C167.157 76.979 167.101 76.916 167.101 76.832C167.101 76.65 167.332 76.489 167.794 76.349C168.2 76.223 168.55 76.048 168.844 75.824C169.138 75.586 169.39 75.222 169.6 74.732C170.342 73.024 170.986 71.477 171.532 70.091C172.092 68.691 172.757 66.948 173.527 64.862C173.681 64.428 173.779 64.022 173.821 63.644C173.863 63.63 173.961 63.602 174.115 63.56C174.283 63.504 174.437 63.427 174.577 63.329C174.689 63.245 174.773 63.119 174.829 62.951C174.899 62.783 174.948 62.671 174.976 62.615C174.99 62.601 175.004 62.601 175.018 62.615C175.046 62.615 175.067 62.622 175.081 62.636C175.109 62.706 175.13 62.783 175.144 62.867C175.172 62.951 175.2 63.028 175.228 63.098C176.264 66.36 177.51 70.098 178.966 74.312C179.232 75.082 179.526 75.607 179.848 75.887C180.17 76.153 180.583 76.328 181.087 76.412C181.311 76.454 181.479 76.524 181.591 76.622C181.717 76.706 181.78 76.797 181.78 76.895C181.78 77.035 181.577 77.105 181.171 77.105L180.037 77.063C179.253 77.007 178.658 76.979 178.252 76.979L176.047 77C175.641 77 175.438 76.916 175.438 76.748C175.438 76.664 175.501 76.587 175.627 76.517C175.767 76.433 175.935 76.377 176.131 76.349C176.985 76.209 177.412 75.894 177.412 75.404C177.412 74.956 177.139 73.822 176.593 72.002C176.565 71.904 176.509 71.841 176.425 71.813C176.355 71.785 176.222 71.771 176.026 71.771H172.057C171.903 71.771 171.784 71.897 171.7 72.149C171.546 72.597 171.364 73.185 171.154 73.913C170.944 74.627 170.839 75.047 170.839 75.173C170.839 75.467 170.951 75.719 171.175 75.929C171.413 76.139 171.707 76.286 172.057 76.37C172.309 76.44 172.484 76.503 172.582 76.559C172.694 76.615 172.75 76.692 172.75 76.79C172.75 76.944 172.547 77.021 172.141 77.021C171.889 77.021 171.679 77.014 171.511 77L170.23 76.979C169.992 76.979 169.726 76.986 169.432 77C169.152 77.028 168.942 77.042 168.802 77.042C168.41 77.084 168.046 77.105 167.71 77.105ZM175.879 71.078C175.963 71.078 176.033 71.071 176.089 71.057C176.145 71.043 176.173 71.015 176.173 70.973L176.131 70.763L174.493 65.639C174.409 65.387 174.346 65.261 174.304 65.261C174.276 65.261 174.22 65.38 174.136 65.618L172.225 70.763L172.183 70.931C172.183 71.001 172.211 71.043 172.267 71.057C172.337 71.071 172.456 71.078 172.624 71.078H175.879Z" fill="white"/>
</svg>