<svg xmlns:xlink="http://www.w3.org/1999/xlink" xmlns="http://www.w3.org/2000/svg" width="203" height="142" viewBox="0 0 203 142" fill="none">
<path d="M59.2604 16.9382C57.7025 17.1 56.0406 17.6661 54.875 18.4287C53.9402 19.0295 52.59 20.4276 51.8398 21.5483C50.8473 23.0388 49.8202 25.2225 49.8087 25.8695C49.7971 26.7014 50.3049 27.6258 51.3666 28.6541C52.3361 29.6015 52.3361 29.59 52.4399 31.1844C52.4861 31.8777 52.5669 32.155 52.8554 32.6056C53.467 33.6108 53.3055 33.9112 51.9321 34.2578C50.0856 34.72 49.751 34.9857 49.6586 36.0256C49.624 36.4069 49.6355 36.973 49.6817 37.2734C49.751 37.7703 49.8548 37.9205 50.5473 38.5906C51.4359 39.4341 51.5975 39.8038 51.3205 40.3815C51.1012 40.8321 50.6857 40.9245 49.3355 40.8321L48.4122 40.7628L47.9852 41.1787C47.5698 41.5831 47.5467 41.6409 47.5467 42.3457C47.5467 43.0158 47.6044 43.2007 48.1237 44.1944C48.4353 44.7952 48.7469 45.5 48.8046 45.7542C48.8969 46.1817 48.8854 46.2394 48.5854 46.4936C48.2853 46.7363 47.9391 46.8518 46.3003 47.2562C45.7348 47.3948 45.5848 47.6606 45.5848 48.4578C45.5848 49.1511 45.7579 49.5901 46.4734 50.7224C47.3851 52.1667 47.5121 52.9524 46.935 53.507C46.5773 53.8536 46.2888 53.946 44.9385 54.1309C44.2807 54.2233 43.5652 54.3735 43.3344 54.466L42.9304 54.6393V55.4827C42.9304 55.9449 43.0343 56.719 43.1612 57.1927C43.2882 57.6664 43.3921 58.1402 43.3921 58.2441C43.3921 58.4868 42.3072 58.9489 40.403 59.5151C39.1566 59.8848 38.8912 60.0119 38.5796 60.3585C38.2218 60.7514 38.1988 60.8092 38.1988 61.6873C38.1988 62.6 38.1988 62.6116 38.6719 63.1546C39.4798 64.0905 39.122 64.622 37.4255 64.9686C35.8329 65.2806 35.6598 65.4424 35.6598 66.4822C35.6598 67.0715 35.9253 67.6145 36.6177 68.4349C37.3678 69.3014 37.5525 69.7867 37.3448 70.2951C37.1832 70.6879 36.8254 70.9074 35.6021 71.3465C34.6789 71.6931 34.5058 71.9358 34.5058 72.9525C34.5058 73.4262 34.5635 73.9577 34.6442 74.1195C34.7135 74.2812 35.0713 74.5932 35.4406 74.8243C36.4446 75.4251 36.4561 75.8064 35.4867 76.4996C34.8866 76.9271 34.6789 77.4355 34.7827 78.1403C34.9097 78.8798 35.1867 79.238 36.2022 79.9081C37.414 80.7053 37.9449 81.4217 37.4486 81.6066C37.3563 81.6528 37.1486 81.9416 36.987 82.2536C36.6754 82.8891 36.3984 83.1779 35.9137 83.4321C35.7406 83.513 35.4059 83.7094 35.1751 83.848L34.7366 84.1138V84.9688C34.7366 85.9625 34.9443 86.3206 35.6367 86.5517C36.283 86.7597 36.5715 86.9908 36.8254 87.476C37.2294 88.2848 37.0909 88.6777 36.1907 89.2554C35.4867 89.706 35.3944 89.9717 35.556 91.0463C35.6367 91.5777 35.7291 91.7511 36.0984 92.0861C37.1024 92.9989 37.1139 93.3917 36.1445 93.8539C35.6021 94.1196 35.579 94.1543 35.7291 94.7667C35.7868 95.0324 35.7521 95.1017 35.5098 95.2173C35.2674 95.3213 35.0713 95.3213 34.5288 95.1595C34.1595 95.0555 33.7441 94.9747 33.6056 94.9747C33.2363 94.9747 33.0863 95.4484 33.1901 96.338L33.2594 97.0659L32.9016 97.2046C32.4515 97.3664 32.4515 97.5974 32.8901 98.152C33.2132 98.568 33.3863 99.3652 33.144 99.3652C33.0978 99.3652 32.867 99.1803 32.6477 98.9493C31.9322 98.1867 31.0205 97.921 30.3627 98.2676C29.9587 98.4755 29.8664 98.8799 29.9587 100.07C30.0049 100.555 30.0049 101.098 29.9587 101.272C29.8895 101.537 29.8549 101.56 29.6933 101.422C29.5894 101.341 29.3355 101.006 29.1394 100.694C28.5739 99.8274 28.3431 99.6541 27.6968 99.6541C26.8428 99.6541 26.8081 99.7118 26.4619 101.676C26.3811 102.15 26.335 102.208 25.8964 102.358C25.1117 102.635 24.9963 102.519 25.1001 101.503C25.1925 100.44 25.1348 100.22 24.65 100.058C24.1076 99.8852 23.7383 100.058 23.0113 100.809C22.5381 101.318 22.3304 101.445 22.0534 101.445C21.5341 101.445 21.2686 100.948 21.1763 99.8389C21.0494 98.3947 21.0032 98.2676 20.507 98.2329C20.1607 98.1982 19.9876 98.2791 19.4452 98.7182C19.0875 99.007 18.7182 99.2497 18.6258 99.2497C18.3258 99.2497 17.5525 98.7875 17.3564 98.4987C17.1602 98.1982 17.1717 97.609 17.3794 96.2803C17.4487 95.8643 17.4141 95.7603 17.1602 95.5061C16.7793 95.1249 16.3639 95.1249 15.1983 95.4946C14.702 95.6563 14.1481 95.7834 13.9634 95.7834C13.6518 95.7834 13.6172 95.7488 13.6172 95.4253C13.6172 95.1942 13.7672 94.8591 14.0211 94.524C14.7713 93.4842 14.8059 92.9527 14.125 92.5598C13.7326 92.3288 13.7326 92.3172 13.9057 91.9821C14.125 91.5431 14.125 90.8845 13.9057 90.6534C13.7326 90.4801 13.0286 90.2375 12.717 90.2375C12.6362 90.2375 12.3823 90.1566 12.14 90.0526L11.713 89.8793L12.1861 89.6713C12.9017 89.3478 13.3864 88.5044 13.3864 87.6147C13.3864 87.0716 13.2479 86.8406 12.3939 85.9393C11.3091 84.8186 11.3783 84.4373 12.7055 84.2871C14.0442 84.1253 14.1134 84.0791 14.5404 83.1895C15.2213 81.7799 15.0482 81.0173 13.9403 80.3818C13.698 80.2547 13.5018 80.0583 13.5018 79.9543C13.5018 79.8503 13.6749 79.5615 13.8826 79.3073C14.4135 78.6949 14.5058 78.4985 14.5866 77.8168C14.7597 76.465 14.7366 76.5227 15.4521 76.0375C16.0292 75.6446 16.2715 75.3789 16.2715 75.1478C16.2715 75.1131 16.0869 75.0092 15.8561 74.9167C15.0482 74.5817 13.9519 74.8705 12.717 75.7602C11.6668 76.4996 10.9282 77.4702 9.72799 79.6886C8.62009 81.7452 8.17 82.7273 7.90457 83.7787C7.60451 84.911 7.47756 87.5685 7.55835 90.6996C7.60451 92.6407 7.59297 94.0503 7.51218 94.8129C7.38524 95.9336 7.39678 96.0607 7.73146 97.7476C8.00843 99.0995 8.06613 99.6656 8.00843 100.174C7.95073 100.682 7.98535 100.925 8.12384 101.168C8.2277 101.353 8.41235 101.792 8.5393 102.138C9.33561 104.345 11.0436 105.755 14.829 107.314C15.5906 107.638 16.6178 108.077 17.1025 108.297C18.1642 108.793 18.4181 108.863 20.4262 109.232C21.2802 109.394 22.3188 109.66 22.7343 109.833C24.3038 110.457 24.8001 110.584 26.3581 110.746C27.2467 110.85 28.1469 110.966 28.3777 111.035C28.6085 111.093 29.5202 111.243 30.4204 111.381C31.886 111.601 32.2784 111.613 34.425 111.52L36.7908 111.428L37.991 110.827C38.6373 110.503 39.5029 110.053 39.9068 109.833C40.3107 109.625 40.8993 109.336 41.2109 109.198C41.6494 109.013 41.8225 108.874 41.9495 108.562C42.2495 107.857 42.9304 107.58 43.3113 108.008C43.5767 108.297 43.5536 108.458 43.1612 109.128C42.8612 109.625 42.815 109.822 42.815 110.55C42.815 111.589 42.7112 111.797 41.6494 112.826C40.7839 113.669 40.403 114.305 40.3915 114.929C40.3915 115.506 40.5992 115.61 41.8225 115.703C42.4342 115.737 43.3344 115.853 43.8191 115.945C44.3153 116.026 44.9962 116.142 45.3424 116.176C45.781 116.234 46.4272 116.5 47.5351 117.066L49.1047 117.875L49.9241 117.829C50.6396 117.782 50.8127 117.806 51.1935 118.048C51.6782 118.337 52.2784 118.406 52.2784 118.164C52.2784 117.886 51.7244 116.858 51.4013 116.535C50.8819 116.026 50.6396 115.899 49.901 115.772C49.047 115.622 48.62 115.449 48.5392 115.241C48.4469 115.009 48.7585 115.033 49.6355 115.31C50.4665 115.576 50.9512 115.841 52.5322 116.951L53.6402 117.736H54.7019C55.7521 117.736 55.7636 117.736 56.0637 118.106C56.6176 118.765 57.1023 119.238 57.2293 119.238C57.4024 119.238 57.3909 118.383 57.2062 117.933C56.9523 117.355 56.4907 116.87 55.3828 116.038C54.2749 115.229 53.9864 114.882 54.2518 114.721C54.6211 114.49 54.9789 114.651 55.8213 115.437C56.306 115.888 56.5022 116.003 56.8254 116.003C57.2062 116.003 57.2293 115.98 57.2639 115.564C57.3101 115.009 57.5871 114.963 58.4064 115.368C58.7411 115.541 59.3066 115.726 59.6644 115.772C60.126 115.841 60.5184 115.992 60.9685 116.292C61.534 116.662 61.7532 116.743 62.5842 116.823C63.115 116.881 63.6921 116.974 63.8652 117.043C64.3153 117.205 64.3614 117.193 64.4422 116.87C64.5114 116.581 64.5345 116.581 65.3193 116.65L66.1156 116.731L66.2425 116.396C66.4849 115.726 66.508 115.714 66.5888 116.176C66.6926 116.696 67.212 117.205 67.7774 117.32C68.216 117.413 68.3429 117.239 68.2391 116.696C68.089 115.841 67.6274 115.391 65.7463 114.258C64.9961 113.808 64.2114 113.288 64.0152 113.103L63.6459 112.756L65.3193 112.791C67.3851 112.849 67.6159 112.93 68.2968 113.981C68.8392 114.825 69.1854 115.09 69.7278 115.125L70.1087 115.137L70.1433 114.339C70.1779 113.635 70.1433 113.496 69.8548 113.08C69.4162 112.433 68.8276 112.029 67.3158 111.312C64.1421 109.81 62.8034 109.521 61.13 109.983C59.5605 110.411 59.5143 110.342 60.2645 108.782C60.703 107.857 60.7492 107.684 60.8184 106.494C60.8646 105.778 61.0146 104.784 61.1531 104.276C61.4416 103.213 61.407 102.647 61.0146 102.115C60.5992 101.549 59.4566 100.763 58.2333 100.197L57.1023 99.6656L57.1716 99.111C57.2178 98.7991 57.2985 97.8863 57.3562 97.0775C57.4716 95.4484 57.6332 94.524 58.2333 92.2017C58.4526 91.3467 58.7065 90.0873 58.7988 89.4056C58.9027 88.6661 59.0643 87.9729 59.2027 87.684C59.3412 87.4183 59.5028 86.8868 59.5605 86.5055C59.6297 86.1127 59.8259 85.431 60.0221 84.9804C60.8877 82.9237 62.2033 77.1813 62.2033 75.4598C62.2033 74.9745 62.2841 74.8705 63.5882 73.9115C64.5461 73.2067 64.6153 72.317 63.819 70.5955C63.5651 70.0409 63.3574 69.5556 63.3574 69.5094C63.3574 69.4632 63.5997 69.4401 63.8998 69.4632L64.4422 69.4978L64.7538 71.1501C65.2962 73.9577 65.8963 75.3789 66.808 75.9913C67.1081 76.1992 67.362 76.257 67.8813 76.257C68.6892 76.257 68.92 76.153 70.0394 75.2287C71.355 74.1657 71.8282 74.0039 72.8322 74.3159L73.2823 74.443V75.61C73.2823 77.4702 73.2131 77.5973 71.2627 79.3766C70.9396 79.6655 70.5703 80.0352 70.4433 80.1854C70.3048 80.3472 70.0856 80.5551 69.9586 80.6476C69.6817 80.8555 69.5547 81.2253 69.6932 81.4332C69.7509 81.5372 70.2356 81.6181 71.1589 81.6874C72.6245 81.7914 73.0631 81.9185 73.3285 82.3229C73.5593 82.6811 74.1479 82.762 74.8749 82.554C75.3366 82.4153 75.4866 82.3114 75.5443 82.0918C75.6251 81.7683 75.452 81.1906 75.0711 80.4974C74.9211 80.2316 74.6095 79.4921 74.3787 78.8567C74.0209 77.9092 73.9286 77.5048 73.8824 76.5921C73.8132 75.1478 73.9748 74.4199 74.4364 74.1542C74.6095 74.0502 74.8519 73.8191 74.9673 73.6342C75.3827 72.9756 75.7405 72.6752 76.1098 72.6752C76.6407 72.6752 76.8484 72.3633 77.033 71.3234C77.5985 68.1691 76.8022 65.8699 74.8057 64.8762C74.0325 64.4834 73.3516 64.4256 71.5512 64.5642C70.7549 64.622 69.0815 64.6451 67.8236 64.6105L65.5501 64.5527L65.4693 64.2523C65.3308 63.7555 65.4001 61.9415 65.5963 60.8323C65.9309 58.9374 66.0002 58.1979 66.1848 54.7664C66.2887 52.8946 66.4272 50.9188 66.508 50.3758L66.6465 49.3937L70.9165 49.4053C75.452 49.4284 78.3025 49.567 80.0913 49.8674C80.6914 49.9714 82.4918 50.0985 84.0728 50.1563C85.6655 50.214 87.3619 50.2949 87.8466 50.3296C88.3429 50.3642 89.1161 50.3296 89.5777 50.2603C91.1703 50.0061 91.9436 49.9483 92.509 50.0407C92.8206 50.0985 93.9632 50.1909 95.0365 50.2603C96.2482 50.3296 97.2407 50.4451 97.6331 50.5607C98.1755 50.734 98.868 50.7686 102.249 50.7917C104.442 50.8033 107.096 50.8726 108.147 50.9535C110.293 51.1037 110.639 51.0575 111.609 50.4798C111.932 50.2949 112.359 50.0754 112.567 49.983C112.913 49.8443 112.971 49.7403 113.248 48.7467C113.409 48.1459 113.744 46.7016 113.986 45.5346L114.413 43.4087L114.909 42.9465C115.36 42.519 115.406 42.4381 115.406 41.9182C115.406 41.2596 115.025 40.4277 114.413 39.746C113.882 39.1568 113.398 38.8679 112.786 38.7639C112.509 38.7177 112.082 38.5906 111.828 38.4635C111.09 38.1053 110.328 38.0129 108.077 38.0129C105.781 38.0129 105.515 37.9782 102.653 37.3197C100.357 36.7882 98.9949 36.5686 96.7675 36.3953C93.1322 36.1065 90.3394 35.7021 86.9003 34.9511C84.0151 34.3156 83.0919 34.2116 79.3989 34.0267C75.9598 33.865 74.9326 33.7263 72.9938 33.2064C72.4283 33.0562 71.0781 32.7673 69.9932 32.5709C68.92 32.3861 67.6736 32.1434 67.2235 32.0394C66.5311 31.8892 66.4503 31.843 66.6349 31.7275C66.7619 31.6581 67.0273 31.4502 67.2466 31.2653C67.7197 30.8609 67.7313 30.5605 67.3389 29.3127C67.1773 28.8158 67.0504 28.2035 67.0504 27.9377C67.0504 27.672 66.935 27.2329 66.808 26.9441C66.5657 26.4588 65.6655 25.6269 65.227 25.4883C65.0654 25.4305 65.0192 25.2803 65.0077 24.7488C64.9961 24.3791 64.9269 23.94 64.8692 23.7551C64.673 23.2699 64.7192 21.8603 64.9615 20.5431C65.3654 18.3594 65.3654 18.4287 64.9615 18.0821C64.4884 17.6892 63.7844 17.331 63.0689 17.1346C62.4918 16.9729 60.1145 16.8458 59.2604 16.9382ZM61.7994 18.3363C62.6419 18.5442 63.7498 19.1219 64.0614 19.5032C64.3383 19.8614 64.3383 20.0578 64.0383 21.1208C63.8421 21.814 63.8075 22.1953 63.8536 23.0965C63.8882 23.7089 63.9459 24.3444 63.9921 24.5293C64.0614 24.8066 64.0498 24.8297 63.8652 24.7719C63.7382 24.7257 63.5074 24.587 63.3343 24.4715C63.115 24.3213 62.8265 24.2635 62.2264 24.2635C61.4301 24.2635 61.4185 24.2635 60.9569 24.7719C60.6222 25.1416 60.4145 25.5229 60.1722 26.2508L59.8606 27.2329L59.3874 27.0365C59.122 26.9325 58.6719 26.7477 58.3718 26.6437C58.0718 26.5397 57.5986 26.2624 57.3101 26.0428C56.5946 25.4998 56.283 25.3958 55.2789 25.3958C54.0556 25.4074 53.9979 25.4998 54.0325 27.2791C54.0672 28.4345 54.0325 28.6772 53.871 28.8389C53.6979 29.0238 53.6171 28.9891 52.6823 28.3537C51.2859 27.4062 50.8358 27.0018 50.5588 26.4241C50.2472 25.7771 50.2587 25.4651 50.605 24.899C50.755 24.6448 50.8935 24.3675 50.8935 24.2982C50.8935 24.1133 51.5282 23.1081 52.1629 22.2993C53.2016 20.959 54.448 19.9885 56.1906 19.1104C58.2679 18.0821 59.8836 17.8625 61.7994 18.3363ZM65.3539 26.5512C65.7925 26.9556 66.0233 27.4293 66.4734 28.8389C66.9119 30.1792 66.8888 30.4681 66.3002 30.9187C65.7463 31.3462 64.9384 31.4155 64.4191 31.092C63.6459 30.5952 62.965 29.3127 62.8496 28.1226C62.7226 26.8863 63.3228 25.7887 63.7844 26.4126C63.9459 26.6206 63.9575 26.6206 64.1768 26.3201C64.3845 26.0428 64.4422 26.0197 64.7192 26.1237C64.8923 26.193 65.1808 26.3779 65.3539 26.5512ZM56.6292 27.5218L56.9062 27.776L57.4139 27.4987C57.8294 27.2676 57.9794 27.2445 58.2449 27.3369C58.8681 27.5564 59.3874 28.7003 59.5143 30.1792C59.6297 31.5195 59.3066 31.8892 58.0256 31.8892C56.6984 31.8892 55.8675 31.2191 55.6367 29.9597C55.5097 29.3011 55.6136 28.3652 55.9021 27.6951C56.0983 27.1983 56.2483 27.1636 56.6292 27.5218ZM58.9604 40.6241C59.0989 40.7974 59.2027 41.0632 59.2027 41.2134C59.2027 41.4676 59.1681 41.4907 58.8911 41.4214C58.3141 41.2827 57.8525 40.6703 58.1295 40.4046C58.3026 40.2197 58.7411 40.3468 58.9604 40.6241ZM59.976 40.8552C59.8721 40.9592 59.6528 40.7859 59.7336 40.6472C59.7798 40.5779 59.849 40.5779 59.9298 40.6588C59.999 40.7281 60.0221 40.809 59.976 40.8552ZM62.3649 40.9708C62.4687 41.0054 62.5495 41.1094 62.5495 41.1903C62.5495 41.3751 62.111 41.9413 61.961 41.9413C61.834 41.9413 61.3955 41.2481 61.3955 41.0401C61.3955 40.8899 62.0417 40.8437 62.3649 40.9708ZM65.7117 41.0863C66.231 41.1672 66.2425 41.1672 66.2425 41.5947C66.2425 42.0453 65.9886 42.7963 65.7925 42.9234C65.6655 42.9927 65.2154 42.4266 64.8807 41.7564C64.6961 41.3983 64.673 41.2481 64.7769 41.1441C64.9269 40.9939 64.9846 40.9939 65.7117 41.0863ZM64.1191 41.6756C64.4191 41.9991 64.9731 43.0389 64.9731 43.2931C64.9731 43.374 64.8461 43.4433 64.673 43.4433C64.2345 43.4433 62.7919 43.0967 62.7111 42.9696C62.6188 42.8194 63.5882 41.3636 63.7728 41.3636C63.7959 41.3636 63.9459 41.5022 64.1191 41.6756ZM68.3891 41.6524C68.6661 41.8258 68.6776 41.8835 68.6084 42.4381C68.5622 42.7732 68.5045 43.062 68.493 43.0736C68.4699 43.0967 68.2968 43.0043 68.1121 42.8656C67.8121 42.6345 67.1658 41.6524 67.1658 41.4214C67.1658 41.2712 68.0775 41.4445 68.3891 41.6524ZM61.1531 41.9644C61.3147 42.4035 61.2454 42.4843 60.8761 42.311C60.6915 42.2186 60.5876 42.0799 60.5876 41.9066C60.5876 41.3636 60.9569 41.3983 61.1531 41.9644ZM70.9742 42.0337C71.1704 42.1839 71.2743 42.3804 71.2973 42.6923C71.3435 43.27 71.1935 43.4202 70.8011 43.166C70.4549 42.935 69.8201 42.0915 69.8201 41.8489C69.8201 41.6178 70.5703 41.7449 70.9742 42.0337ZM73.744 42.1839C74.1017 42.311 74.1133 42.3457 74.0671 42.8079C74.0325 43.0852 73.9286 43.4202 73.8247 43.5589L73.6401 43.8246L73.3516 43.5127C73.0054 43.1314 72.5784 42.2879 72.6591 42.1493C72.7399 42.0106 73.2939 42.0337 73.744 42.1839ZM76.6407 42.4035C78.3487 42.5768 78.291 42.5421 78.1986 43.2469C78.1063 43.9517 77.8409 44.5987 77.6678 44.5987C77.587 44.5987 77.3677 44.4832 77.1715 44.3446C76.6984 44.0095 75.1288 42.5074 75.1288 42.3804C75.1288 42.2648 75.1981 42.2648 76.6407 42.4035ZM67.2466 42.8887C67.789 43.4895 67.8928 44.021 67.4658 44.021C66.9927 44.021 66.4734 43.8824 66.4734 43.7553C66.4734 43.5473 66.8427 42.6345 66.935 42.6345C66.9696 42.6345 67.1196 42.7501 67.2466 42.8887ZM70.3395 43.7322C70.4664 43.9402 70.5126 44.1944 70.4664 44.3099C70.4087 44.4832 70.3048 44.5063 69.7971 44.4485C69.4739 44.4023 69.1854 44.3446 69.1392 44.3099C69.0238 44.1944 69.0931 43.3509 69.2431 42.9812L69.3931 42.623L69.7624 42.9812C69.9702 43.1891 70.2356 43.5242 70.3395 43.7322ZM81.0838 42.7501C81.3031 42.7501 81.3608 42.8079 81.3608 43.0389C81.3608 43.4433 80.4837 44.2521 80.2183 44.0904C80.0567 43.9864 79.7336 42.9465 79.8259 42.8541C79.9413 42.7501 80.4491 42.6577 80.6453 42.7039C80.7376 42.727 80.9338 42.7501 81.0838 42.7501ZM72.8784 44.0673C72.9707 44.3792 73.0515 44.6912 73.0515 44.7489C73.0515 44.8991 72.1629 44.7721 71.9436 44.5872C71.7359 44.4254 71.7705 43.7784 72.0129 43.1429L72.1514 42.8079L72.4283 43.1545C72.5784 43.3393 72.7861 43.7553 72.8784 44.0673ZM79.5143 44.2752C79.6643 44.9916 79.9067 45.292 80.3106 45.292C80.8068 45.292 81.6839 44.5987 82.2956 43.6975C82.4918 43.4318 82.7341 43.2122 82.8495 43.2122C83.3342 43.2122 84.0844 44.2983 84.3844 45.4422C84.5114 45.9159 84.4998 46.0083 84.3614 46.1008C84.0844 46.2856 82.9303 46.2279 81.7878 45.9968C81.2108 45.8697 80.3568 45.7079 79.8951 45.6502C78.7988 45.4884 78.4872 45.3613 78.5333 45.0956C78.5564 44.98 78.6718 44.5063 78.7757 44.0326C78.9719 43.1776 78.9719 43.1776 79.1796 43.4202C79.2835 43.5589 79.4335 43.9517 79.5143 44.2752ZM84.7999 43.2816C85.0769 43.3393 85.1577 43.4202 85.2038 43.7437C85.2384 43.9517 85.2154 44.3214 85.1577 44.541C85.0423 44.9454 85.0307 44.9569 84.823 44.7721C84.5575 44.5294 84.1305 43.686 84.1305 43.4087C84.1305 43.2007 84.2575 43.1776 84.7999 43.2816ZM75.6251 43.8593C76.2829 44.2983 76.8599 45.0956 76.6176 45.2342C76.306 45.4306 74.5749 45.0378 74.3787 44.7258C74.2748 44.541 74.6557 43.4433 74.8288 43.4433C74.9096 43.4433 75.2673 43.6282 75.6251 43.8593ZM87.9736 43.5704C88.366 43.6744 88.4006 43.7206 88.4006 44.1135C88.4006 44.5525 88.2044 45.4075 88.1005 45.4075C87.7543 45.4075 86.4618 43.8015 86.6118 43.5589C86.7041 43.4087 87.4196 43.4087 87.9736 43.5704ZM101.349 43.6744C101.915 43.8362 102.042 44.2637 101.995 45.8697L101.961 47.0829L101.418 46.5398C100.945 46.0546 100.195 44.7605 99.9989 44.0441C99.8835 43.6282 100.518 43.4433 101.349 43.6744ZM105.135 43.686C105.7 43.8131 105.712 43.8131 105.712 44.2521C105.712 44.8183 105.492 45.396 104.927 46.3781L104.454 47.1638L104.211 46.6669C103.819 45.9159 103.438 44.8298 103.311 44.1597L103.207 43.5589H103.877C104.246 43.5589 104.811 43.6166 105.135 43.686ZM98.187 44.3099C98.1293 44.98 97.5869 46.043 97.2869 46.043C96.9522 46.043 96.1097 43.8708 96.4098 43.7437C96.479 43.7206 96.9176 43.686 97.3907 43.686L98.2332 43.6744L98.187 44.3099ZM108.943 43.7437L109.312 43.8246L109.266 44.7605C109.231 45.5231 109.151 45.8581 108.839 46.5052L108.458 47.314L108.239 46.8518C108.031 46.4127 107.547 44.8876 107.396 44.2175C107.339 43.9633 107.373 43.8824 107.581 43.79C107.904 43.6629 108.435 43.6513 108.943 43.7437ZM90.9164 43.9633C91.2511 44.0673 91.5166 44.1944 91.5166 44.2406C91.5166 44.2983 91.4358 44.7143 91.3319 45.1765C91.1126 46.147 91.1473 46.1585 90.3394 44.7836C89.9701 44.1597 89.9124 43.9748 90.0278 43.8939C90.2355 43.7668 90.224 43.7668 90.9164 43.9633ZM113.028 43.9055C113.305 44.0095 113.328 44.0673 113.328 44.7374C113.328 45.3613 113.109 46.3665 112.567 48.1574C112.417 48.6542 111.69 47.1638 111.24 45.4884C110.766 43.6744 110.732 43.79 111.817 43.79C112.324 43.79 112.867 43.8362 113.028 43.9055ZM94.7249 44.4832C94.7479 44.7721 94.7133 45.1996 94.6325 45.4422L94.5056 45.8697L94.1594 45.6155C93.8247 45.3613 93.0168 44.3677 93.0168 44.2059C93.0168 44.0441 93.5592 43.9171 94.1132 43.9402L94.6902 43.9633L94.7249 44.4832ZM86.5541 44.7374C87.0619 45.2458 87.6389 46.2856 87.5119 46.4821C87.4196 46.6323 86.3002 46.5052 85.8963 46.3088C85.5962 46.1585 85.5731 46.1008 85.6077 45.5808C85.6424 44.9454 85.827 44.2521 85.977 44.2521C86.0232 44.2521 86.2886 44.4716 86.5541 44.7374ZM96.0982 45.2689C96.3175 45.7426 96.5252 46.4012 96.5598 46.7363C96.6175 47.2793 96.5944 47.3486 96.3867 47.3948C96.2482 47.4295 95.902 47.4064 95.6019 47.3486L95.0595 47.2331L95.1288 46.3434C95.2211 45.1649 95.4288 44.229 95.5789 44.3214C95.6481 44.3677 95.8789 44.7836 96.0982 45.2689ZM99.4219 44.4485C99.4565 44.5641 99.7681 45.1187 100.103 45.6964C100.714 46.7363 101.176 47.7877 101.072 47.8917C101.015 47.961 99.5258 47.7761 98.591 47.5913C98.164 47.5104 97.9793 47.4179 97.9793 47.2908C97.9793 47.1406 98.3948 46.043 98.9718 44.6565C99.1565 44.2059 99.295 44.1481 99.4219 44.4485ZM89.7739 44.9107C90.1201 45.3267 90.4779 46.1817 90.4779 46.5861C90.4779 46.9211 89.7508 46.9904 88.8391 46.7247C88.6429 46.6669 88.6429 46.3203 88.8737 45.084C89.0238 44.3446 89.2661 44.2868 89.7739 44.9107ZM103.346 46.2741C103.507 46.9096 103.738 47.5566 103.854 47.7184C104.096 48.0534 104.708 48.169 104.984 47.9263C105.158 47.7877 105.792 46.5167 106.346 45.1996C106.462 44.9338 106.589 44.7143 106.635 44.7143C106.866 44.7143 107.673 47.0713 107.673 47.753C107.673 47.9957 107.593 48.0534 107.143 48.169C106.854 48.2383 106.092 48.3538 105.458 48.4116C103.623 48.5849 102.953 48.4116 102.642 47.6606C102.469 47.2446 102.422 45.731 102.549 45.0609C102.63 44.7027 102.63 44.7027 102.838 44.9107C102.953 45.0262 103.184 45.6386 103.346 46.2741ZM93.5131 46.0199C94.044 46.8287 94.1709 47.0944 94.0901 47.1869C93.9978 47.2793 93.0861 47.2793 92.3821 47.1869L91.8397 47.106L91.8859 46.2856C91.9089 45.7426 92.0013 45.3613 92.1397 45.1533L92.3475 44.8298L92.7399 45.1302C92.9476 45.292 93.3054 45.6964 93.5131 46.0199ZM110.443 45.3035C110.743 45.8697 111.136 47.3717 111.136 47.9032C111.136 48.504 110.432 48.712 109.532 48.4C109.174 48.2729 109.162 48.2383 109.231 47.8455C109.312 47.3833 110.109 44.8298 110.166 44.8298C110.189 44.8298 110.316 45.0378 110.443 45.3035ZM65.2847 49.3359C65.6078 49.4515 65.654 49.5323 65.7232 50.0061C65.804 50.6646 65.6309 53.1141 65.3308 55.3672C65.0885 57.1234 64.6846 60.6358 64.523 62.4383C64.4076 63.663 64.1768 64.2638 63.7613 64.4487C63.0919 64.7607 62.6996 64.2754 62.388 62.7618C62.0648 61.1789 62.0533 60.7514 62.3418 59.6537C62.5957 58.6832 62.6072 58.4521 62.6072 54.2464C62.6188 49.0933 62.6072 49.2551 62.8727 49.1742C63.1843 49.0817 64.8807 49.1973 65.2847 49.3359ZM69.0931 69.648C69.4047 69.8445 69.8548 70.2026 70.0856 70.4453C70.4433 70.7919 70.5126 70.9421 70.5126 71.3581C70.5126 71.6238 70.5472 71.9242 70.5818 72.0282C70.6395 72.1784 70.5587 72.2131 70.0625 72.2131C69.5893 72.2131 69.4162 72.1553 69.1046 71.8895C68.6315 71.4852 68.1814 71.1732 68.066 71.1732C67.9159 71.1732 67.9621 72.086 68.1352 72.5019C68.2275 72.7214 68.5507 73.1605 68.8507 73.484C69.1739 73.8306 69.3585 74.1195 69.3239 74.2235C69.2777 74.3275 69.0354 74.5585 68.7699 74.755C67.7774 75.4713 67.1081 75.1247 66.3118 73.4378C65.7232 72.2246 65.4347 71.1501 65.4347 70.2142C65.4347 69.4632 65.4116 69.4863 66.4156 69.3361C67.6736 69.1397 68.4353 69.2321 69.0931 69.648ZM73.8363 79.5384C73.8709 79.677 73.8247 79.7348 73.7209 79.7001C73.6401 79.6655 73.5478 79.5499 73.5362 79.4459C73.5016 79.3073 73.5478 79.2495 73.6516 79.2842C73.7324 79.3188 73.8247 79.4344 73.8363 79.5384ZM73.5939 80.428C74.0325 80.5898 74.5518 81.0982 74.5518 81.3639C74.5518 81.5603 74.5287 81.5603 74.2979 81.4101C74.1479 81.3177 73.7324 81.1328 73.3747 80.9942C72.6707 80.7284 72.5784 80.6129 72.913 80.428C73.1669 80.2778 73.2015 80.2778 73.5939 80.428ZM54.8865 104.322C55.429 104.657 55.856 105.269 55.856 105.732C55.856 106.228 55.6021 106.771 54.7827 108.065C54.4249 108.632 53.9748 109.521 53.7786 110.03C53.5709 110.55 53.2824 111.208 53.1208 111.474C52.8669 111.925 52.7977 111.971 52.5322 111.913C52.3591 111.878 51.5975 111.763 50.8358 111.67C48.8739 111.416 49.0124 111.509 49.324 110.596C49.474 110.168 49.901 109.14 50.2934 108.32C50.6742 107.488 51.0897 106.575 51.2166 106.286C51.4128 105.836 51.5167 105.732 51.8283 105.662C52.4053 105.535 52.7284 105.339 53.4093 104.692C54.0902 104.045 54.3326 103.987 54.8865 104.322Z" fill="white"/>
<path d="M64.7654 27.8685C64.6962 27.9379 64.627 28.0996 64.627 28.2267C64.627 28.4 64.6962 28.4347 65.0655 28.4C65.4348 28.3654 65.4925 28.3307 65.4925 28.0765C65.4925 27.857 65.4233 27.7761 65.204 27.753C65.0424 27.7299 64.8462 27.7877 64.7654 27.8685Z" fill="white"/>
<path d="M57.5534 28.6313C57.288 28.9317 57.2995 29.3477 57.5765 29.3477C57.9458 29.3477 58.5113 29.105 58.5113 28.9433C58.5113 28.7237 58.1881 28.4233 57.9458 28.4233C57.8304 28.4233 57.6573 28.5158 57.5534 28.6313Z" fill="white"/>
<path d="M116.872 54.8349C116.826 54.8811 116.791 55.3433 116.791 55.8748C116.791 56.8915 116.837 56.9608 117.437 56.9608C117.622 56.9608 117.726 57.0417 117.772 57.215C117.807 57.3652 117.818 60.1036 117.807 63.3156L117.772 69.1504L117.368 69.2082L116.964 69.266V70.3058V71.3457L121.292 71.311C123.669 71.2995 125.654 71.2417 125.712 71.1839C125.862 71.0337 126.312 67.3364 126.22 67.0938C126.15 66.9205 126.012 66.8974 125.193 66.9205L124.235 66.9551L124.108 67.5906C123.946 68.4341 123.785 68.6998 123.335 68.9309C122.827 69.1966 120.934 69.3006 120.749 69.0811C120.657 68.9656 120.599 67.1631 120.53 63.0267C120.438 56.5796 120.415 56.9031 121.119 56.8222L121.465 56.7875V55.8054V54.8233L119.203 54.7887C117.968 54.7771 116.918 54.8002 116.872 54.8349Z" fill="white"/>
<path d="M107.234 55.1134C107.015 55.1596 106.796 55.252 106.749 55.2982C106.645 55.4138 105.145 61.7685 104.268 65.8009C103.98 67.1297 103.714 68.3428 103.691 68.4815C103.656 68.6432 103.541 68.7472 103.426 68.7472C103.31 68.7472 103.126 68.8166 103.01 68.8974C102.837 69.0245 102.826 69.1285 102.941 69.8449C103.01 70.2955 103.137 70.723 103.206 70.7923C103.322 70.9078 103.737 70.8732 105.214 70.619C106.242 70.4457 107.119 70.2608 107.165 70.2146C107.246 70.1337 107.026 68.5739 106.911 68.3775C106.876 68.3313 106.692 68.2851 106.507 68.2851C106.322 68.2851 106.138 68.2157 106.103 68.1233C106.034 67.9269 106.369 66.0782 106.507 65.9396C106.553 65.8934 107.615 65.6738 108.873 65.4659C110.546 65.1886 111.181 65.1192 111.296 65.2117C111.469 65.3503 112.37 66.679 112.474 66.9332C112.508 67.0372 112.381 67.1874 112.139 67.3376L111.746 67.5687L111.885 68.3891C111.966 68.8512 112.07 69.2672 112.127 69.3249C112.254 69.452 116.744 68.7241 116.917 68.5508C117.055 68.4122 116.836 66.9332 116.651 66.7022C116.582 66.6213 116.374 66.5635 116.167 66.5866C115.751 66.6097 115.993 66.9679 111.216 59.5386C108.434 55.1943 108.296 55.0094 107.961 55.0094C107.776 55.0209 107.442 55.0672 107.234 55.1134ZM109.034 61.2486C109.565 62.069 109.981 62.8431 109.958 62.9471C109.935 63.0857 109.646 63.1781 108.827 63.3399C108.227 63.4439 107.534 63.5363 107.303 63.5363C106.749 63.5479 106.749 63.5017 107.211 61.3873C107.546 59.8737 107.673 59.5848 107.95 59.6888C108.019 59.7119 108.504 60.4167 109.034 61.2486Z" fill="white"/>
<path d="M129.485 55.5295C127.927 55.622 126.588 55.7259 126.519 55.749C126.415 55.7837 126.369 56.0726 126.369 56.6618C126.369 57.8403 126.392 57.8866 127.073 57.8866C127.558 57.8866 127.662 57.9212 127.742 58.1407C127.858 58.4874 128.389 68.3315 128.296 68.5625C128.25 68.6896 128.077 68.7474 127.789 68.7474C127.073 68.7474 127.027 68.8398 127.085 69.8335C127.119 70.3303 127.2 70.7809 127.258 70.8387C127.385 70.9658 133.467 70.6654 134.505 70.4805C138.014 69.8682 140.564 66.737 140.564 63.0628C140.564 59.585 138.591 56.708 135.555 55.7375C134.332 55.3562 133.12 55.31 129.485 55.5295ZM134.194 57.8288C136.052 58.3834 137.367 60.3707 137.529 62.8548C137.714 65.8127 136.098 68.0195 133.467 68.4008C132.382 68.551 131.597 68.5394 131.493 68.3777C131.389 68.2159 130.858 59.1113 130.893 58.2909L130.928 57.7132L131.62 57.6439C132.497 57.5515 133.478 57.6208 134.194 57.8288Z" fill="white"/>
<path d="M82.977 56.2568C82.8155 56.5687 82.827 57.805 83.0117 58.0361C83.104 58.1632 83.3579 58.2325 83.8426 58.2556L84.535 58.2903L84.5696 63.6514C84.5927 67.8686 84.5696 69.0356 84.4542 69.1165C84.3735 69.1627 84.0157 69.2089 83.6579 69.2089C82.8847 69.2089 82.8616 69.2436 82.8616 70.3065C82.8616 71.4388 82.7693 71.4042 85.8391 71.4042C87.2817 71.4042 88.5281 71.358 88.6089 71.3002C88.7127 71.2424 88.7474 70.942 88.7243 70.2372L88.6897 69.2667L88.1703 69.232C87.8934 69.2089 87.5933 69.1396 87.5125 69.0703C87.2932 68.8969 87.3048 64.7837 87.5125 64.6104C87.6048 64.5295 87.8126 64.5179 88.0549 64.5757C89.7976 64.9685 90.9747 66.5052 91.1709 68.6196C91.2863 69.8444 91.6671 70.6878 92.325 71.1269C92.6827 71.3811 92.8443 71.4042 93.9407 71.4042C94.61 71.4042 95.2217 71.358 95.3025 71.3002C95.4063 71.2424 95.4409 70.942 95.4179 70.2372L95.3832 69.2782L94.8639 69.1858C94.0791 69.0471 93.9291 68.8276 93.8137 67.626C93.7098 66.4706 93.4444 65.6387 92.8443 64.645L92.4404 63.9749L92.902 63.3741C93.6291 62.4266 93.8483 61.6525 93.8022 60.1967C93.7445 58.764 93.5137 58.1054 92.752 57.3313C91.6556 56.199 90.9055 56.0372 86.4739 56.0372C83.254 56.0372 83.0924 56.0488 82.977 56.2568ZM89.8668 58.3596C90.5708 58.6253 91.1594 59.515 91.1709 60.3007C91.1709 60.9477 90.7554 61.6641 90.1784 61.9991C89.6475 62.3111 88.2742 62.496 87.6625 62.3458L87.3625 62.2764V60.3238C87.3625 59.2608 87.3971 58.348 87.4433 58.3134C87.5587 58.1863 89.509 58.2209 89.8668 58.3596Z" fill="white"/>
<path d="M98.3259 56.1992C96.5025 56.6036 95.233 57.9901 94.7944 60.0583C94.1251 63.2357 95.5446 65.6505 98.4182 66.2051C100.069 66.5402 101.673 66.078 102.688 65.0035C103.554 64.0791 103.888 63.3397 104.096 61.8261C104.489 58.9838 102.942 56.6383 100.357 56.1646C99.5146 56.0144 99.1453 56.0144 98.3259 56.1992ZM100.496 58.4407C101.026 58.822 101.257 59.4228 101.303 60.5667C101.35 61.6874 101.153 62.5887 100.68 63.3397C99.7915 64.7493 97.9912 64.4604 97.4488 62.8197C97.218 62.1265 97.2757 60.6707 97.5642 59.8388C97.795 59.1917 98.372 58.4869 98.8337 58.279C99.3068 58.0594 100.069 58.1403 100.496 58.4407Z" fill="white"/>
<path d="M136.19 72.7791C136.098 72.8369 136.051 72.9871 136.086 73.1142C136.155 73.3568 136.155 73.3568 135.74 73.1258C135.232 72.86 134.909 72.8485 134.124 73.0796C133.466 73.276 132.797 73.7959 132.532 74.3043C132.301 74.7664 132.324 75.6677 132.589 76.0952C132.889 76.5804 133.582 76.8924 134.99 77.1697C136.294 77.4354 136.617 77.5741 136.709 77.9554C136.802 78.302 136.686 78.4407 136.132 78.6948C135.151 79.1455 134.02 78.8104 133.859 78.0363C133.824 77.8398 133.755 77.6203 133.72 77.5625C133.639 77.4354 132.728 77.4932 132.566 77.6319C132.52 77.6781 132.566 78.302 132.658 79.0299C132.751 79.7463 132.832 80.3817 132.832 80.4395C132.832 80.5551 133.236 80.5551 133.743 80.4626C134.043 80.4048 134.101 80.3355 134.101 80.0582V79.7347L134.517 79.9773C134.851 80.1738 135.047 80.2084 135.763 80.1622C137.413 80.0582 138.256 79.3534 138.256 78.0825C138.256 76.6382 137.598 76.0258 135.682 75.6792C135.013 75.5637 134.366 75.4135 134.228 75.3442C133.916 75.1708 133.916 74.8589 134.251 74.5469C134.805 74.0154 136.132 74.3043 136.351 74.9975C136.421 75.2171 136.49 75.2286 136.963 75.1593C137.263 75.1131 137.54 75.0437 137.586 75.0091C137.621 74.9629 137.598 74.4314 137.529 73.8306L137.39 72.7329L136.871 72.6983C136.582 72.6867 136.282 72.7214 136.19 72.7791Z" fill="white"/>
<path d="M120.507 73.2982C119.491 73.3906 119.053 73.4715 118.972 73.5986C118.833 73.8066 118.937 75.2046 119.122 75.4126C119.191 75.4935 119.364 75.5628 119.514 75.5628C119.803 75.5628 119.826 75.6668 119.964 77.423L120.034 78.3011L118.049 78.4513C116.941 78.5322 116.041 78.5553 115.983 78.4975C115.937 78.4398 115.867 77.839 115.821 77.1457C115.752 75.9787 115.752 75.9094 115.96 75.9094C116.352 75.9094 116.502 75.5859 116.468 74.8349C116.41 73.8297 116.329 73.7141 115.602 73.7141C114.575 73.7141 112.486 73.9452 112.324 74.0839C112.001 74.3496 112.221 75.9094 112.601 76.0827C112.913 76.2098 112.901 76.1289 113.225 80.7506L113.455 84.1359L113.202 84.3208C112.982 84.471 112.959 84.5635 113.005 85.2914C113.098 86.493 113.075 86.4814 115.198 86.3081C116.167 86.2272 117.033 86.1117 117.114 86.0539C117.287 85.9037 117.298 84.5403 117.137 84.2168C117.056 84.0782 116.895 83.9973 116.687 83.9973H116.352L116.248 82.5761C116.202 81.802 116.156 81.0857 116.156 80.9932C116.156 80.8546 116.479 80.7968 117.887 80.6813C118.845 80.6119 119.757 80.5426 119.918 80.5426L120.218 80.5311L120.322 82.0909C120.414 83.4889 120.403 83.6507 120.241 83.6507C120.137 83.6507 119.964 83.7547 119.849 83.8818C119.676 84.0782 119.653 84.2284 119.722 84.887C119.768 85.326 119.849 85.7189 119.907 85.7766C120.137 86.0077 123.703 85.7073 123.911 85.4416C124.119 85.1527 123.969 83.8702 123.703 83.6276C123.577 83.5236 123.438 83.4196 123.38 83.3965C123.334 83.3734 123.173 81.698 123.034 79.6645C122.896 77.631 122.757 75.8285 122.734 75.6437C122.699 75.4241 122.734 75.3317 122.849 75.3317C122.942 75.3317 123.069 75.2393 123.126 75.1122C123.288 74.8118 123.115 73.3791 122.896 73.2404C122.699 73.1249 122.376 73.1249 120.507 73.2982Z" fill="white"/>
<path d="M130.178 73.3905C130.051 73.5292 129.947 73.7487 129.935 73.8758C129.912 74.3264 129.97 74.6961 130.085 74.8463C130.178 74.9503 130.143 75.0659 129.958 75.2507C129.681 75.5627 129.67 75.6667 129.854 76.0826C130.027 76.4639 130.178 76.4524 130.928 75.9671C131.678 75.4934 131.909 75.089 131.909 74.2571C131.909 73.7602 131.851 73.5869 131.643 73.3905C131.274 73.0439 130.501 73.0439 130.178 73.3905Z" fill="white"/>
<path d="M85.7574 73.9338C85.5843 74.2458 85.5958 75.4821 85.7805 75.7131C85.8613 75.8287 86.1267 75.9096 86.4383 75.9327L86.9576 75.9673V81.34V86.7127L86.4383 86.7473C85.7689 86.7935 85.6305 86.9899 85.6305 87.8681C85.6305 89.0581 85.3535 88.9888 89.7274 88.9426L93.5358 88.9079L94.4591 88.5844C95.6708 88.1569 96.5133 87.6254 97.3327 86.7935C98.1867 85.9154 98.5906 85.2915 99.0061 84.2285C99.5023 82.9691 99.6639 81.6288 99.4908 80.2886C99.1099 77.2961 97.3673 75.0777 94.6091 74.084C93.7666 73.7836 93.7435 73.7836 89.8197 73.7374C85.9767 73.7027 85.8728 73.7027 85.7574 73.9338ZM93.1434 76.1406C94.0551 76.4179 94.8976 77.0534 95.4631 77.8622C96.144 78.8443 96.3863 79.6069 96.4556 80.9934C96.5133 82.403 96.3748 83.2002 95.9132 84.1823C95.0592 85.9963 93.5704 86.8166 91.2623 86.7473L90.189 86.7127L90.1544 81.4555C90.1429 78.567 90.1544 76.1291 90.189 76.0482C90.2813 75.8056 92.2779 75.8633 93.1434 76.1406Z" fill="white"/>
<path d="M106.507 73.9108C106.403 74.0264 105.919 74.8467 105.422 75.7364C104.926 76.6261 103.68 78.856 102.653 80.7047C101.625 82.5418 100.564 84.4828 100.298 85.0028C99.8482 85.9156 99.802 85.9618 99.4327 85.9618C99.225 85.9618 98.9942 86.0311 98.9365 86.1004C98.7287 86.3546 98.6364 87.8682 98.8095 88.0068C99.0172 88.1686 102.699 88.5614 102.826 88.4343C102.872 88.3766 102.953 87.926 102.999 87.4291L103.08 86.5395L102.722 86.4124C102.249 86.2391 102.26 86.0195 102.837 84.9797C103.241 84.2402 103.357 84.1131 103.61 84.1131C103.784 84.1131 104.868 84.2171 106.034 84.3557C108.434 84.6446 108.227 84.5175 108.654 85.9156C108.942 86.8399 108.885 87.1172 108.411 87.1172C108.077 87.1172 107.973 87.3483 107.869 88.2841C107.811 88.7463 107.834 88.9774 107.938 89.0583C108.1 89.1969 112.012 89.6937 112.554 89.636C112.924 89.6013 112.924 89.6013 113.016 88.7579C113.131 87.7758 113.085 87.5793 112.716 87.5793C112.554 87.5793 112.381 87.51 112.312 87.4291C112.185 87.2789 111.193 84.0784 109.335 77.793C108.711 75.6786 108.146 73.9339 108.065 73.8993C107.996 73.8762 107.661 73.8184 107.315 73.7722C106.784 73.7029 106.657 73.726 106.507 73.9108ZM106.611 78.5325C106.669 78.648 106.934 79.4915 107.211 80.4042C107.603 81.7792 107.661 82.0911 107.534 82.2182C107.407 82.3453 107.153 82.3338 106.057 82.1951C104.488 81.9987 104.441 81.9872 104.441 81.733C104.441 81.5597 105.422 79.6186 105.965 78.7058C106.219 78.2898 106.461 78.2321 106.611 78.5325Z" fill="white"/>
<path d="M124.454 73.8643C124.42 73.9567 124.408 74.4073 124.431 74.881L124.466 75.736L124.835 75.7707C125.031 75.7938 125.251 75.8747 125.308 75.944C125.435 76.0942 125.32 86.4698 125.193 86.6085C125.147 86.6431 124.939 86.7124 124.731 86.7587C124.304 86.8511 124.212 87.0706 124.189 88.0643C124.166 88.9771 123.958 88.9308 128.874 88.9886C131.886 89.0233 133.283 89.0002 133.375 88.9077C133.548 88.7691 134.275 84.2052 134.172 83.9395C134.114 83.7893 133.941 83.7661 133.156 83.7893L132.198 83.8239L132.094 84.2861C131.829 85.5455 131.333 86.3658 130.663 86.6431C130.467 86.724 129.878 86.7702 129.186 86.7471L128.043 86.7124L128.078 81.5131C128.101 78.6477 128.147 76.2213 128.17 76.1173C128.205 75.9902 128.378 75.9093 128.655 75.8862L129.082 75.8516V74.8117V73.7718L126.797 73.7372C124.962 73.7141 124.512 73.7372 124.454 73.8643Z" fill="white"/>
<path d="M146.716 81.6865C146.67 81.8367 146.554 81.9176 146.37 81.9176C145.966 81.9176 145.527 82.4375 145.596 82.8304C145.643 83.0384 145.596 83.2001 145.481 83.2925C145.25 83.489 144.835 84.4017 144.835 84.7137C144.835 84.8292 144.754 85.0834 144.662 85.2799C144.558 85.4647 144.512 85.6727 144.546 85.7189C144.581 85.7767 144.546 85.846 144.465 85.8691C144.373 85.9038 144.327 86.1118 144.338 86.4353C144.35 86.7241 144.292 87.0592 144.188 87.2094C144.096 87.348 144.05 87.5214 144.096 87.5907C144.131 87.66 144.061 87.8218 143.935 87.9604C143.773 88.1337 143.692 88.3648 143.704 88.6768C143.704 88.931 143.6 89.37 143.461 89.6589C143.196 90.2366 143.161 90.5948 143.334 90.7681C143.415 90.8489 143.392 91.1147 143.265 91.5653C143.173 91.9466 143.115 92.4087 143.15 92.6052C143.184 92.79 143.138 93.5179 143.034 94.2227C142.93 94.916 142.827 95.7479 142.815 96.0714C142.792 96.3834 142.746 96.9957 142.711 97.4232C142.677 97.8623 142.7 98.232 142.769 98.2667C142.827 98.3129 142.838 98.4631 142.804 98.6249C142.757 98.7982 142.804 99.0177 142.93 99.2026C143.081 99.4336 143.092 99.5261 142.988 99.5954C142.861 99.6763 142.873 100.092 143.057 102.022C143.104 102.426 143.231 102.935 143.346 103.143C143.473 103.362 143.565 103.686 143.565 103.87C143.565 104.102 143.623 104.217 143.738 104.217C143.842 104.217 143.969 104.344 144.027 104.494C144.085 104.645 144.188 104.806 144.246 104.853C144.315 104.887 144.373 105.037 144.373 105.188C144.373 105.396 144.5 105.5 145.008 105.708C145.562 105.939 145.723 105.962 146.277 105.869C146.623 105.8 146.958 105.8 147.039 105.846C147.12 105.892 147.258 105.892 147.362 105.835C147.466 105.788 147.766 105.673 148.031 105.592C148.32 105.511 148.551 105.361 148.585 105.234C148.632 105.118 148.712 105.026 148.77 105.026C148.978 105.026 149.566 104.529 149.866 104.078C150.097 103.743 150.259 103.639 150.501 103.639C150.744 103.639 150.882 103.535 151.067 103.235C151.205 103.015 151.355 102.831 151.413 102.831C151.667 102.831 151.874 102.992 151.874 103.177C151.874 103.304 151.932 103.431 152.001 103.478C152.071 103.512 152.105 103.674 152.071 103.824C152.036 104.021 152.105 104.148 152.29 104.275C152.44 104.379 152.567 104.529 152.567 104.61C152.567 104.691 152.648 104.829 152.74 104.91C152.832 104.98 152.902 105.084 152.89 105.118C152.867 105.384 152.971 105.5 153.444 105.708C153.883 105.904 154.136 105.939 154.91 105.892C155.429 105.858 155.879 105.835 155.914 105.823C155.948 105.812 156.052 105.812 156.168 105.823C156.271 105.835 156.387 105.788 156.433 105.719C156.468 105.661 156.606 105.604 156.745 105.604C156.872 105.604 156.999 105.511 157.033 105.396C157.056 105.292 157.276 105.095 157.506 104.968C157.737 104.841 158.106 104.506 158.314 104.217C158.603 103.836 158.799 103.697 159.007 103.697C159.214 103.697 159.387 103.582 159.584 103.293C159.734 103.073 159.93 102.9 160.022 102.9C160.115 102.911 160.184 102.831 160.184 102.715C160.184 102.472 159.607 102.322 159.226 102.484C159.087 102.542 158.799 102.773 158.58 102.992C158.36 103.223 158.083 103.408 157.945 103.408C157.806 103.408 157.599 103.478 157.472 103.57C157.345 103.651 156.849 103.79 156.375 103.87C155.902 103.951 155.256 104.09 154.956 104.182C154.252 104.402 154.102 104.333 154.01 103.79C153.917 103.27 153.744 102.854 153.479 102.542C153.225 102.241 152.752 99.9305 152.844 99.4452C152.89 99.2372 152.913 98.8675 152.902 98.6133C152.821 97.0304 153.202 95.5399 153.721 95.3782C153.848 95.3435 153.952 95.228 153.952 95.1471C153.952 94.9275 154.402 94.6271 154.737 94.6271C155.337 94.6271 155.764 93.8877 156.145 92.2008C156.225 91.8541 156.422 91.3342 156.583 91.0454C157.16 90.0633 157.229 89.7397 157.518 86.7472C157.529 86.701 157.633 86.6432 157.749 86.597C157.864 86.5624 158.037 86.3775 158.118 86.1811C158.233 85.8807 158.233 85.7767 158.072 85.5109C157.956 85.303 157.922 85.1412 157.991 85.0372C158.176 84.7484 157.979 83.6623 157.633 83.0384C157.449 82.7033 157.241 82.3104 157.172 82.1487C157.102 81.9869 156.849 81.779 156.618 81.6865C156.11 81.4786 155.221 81.5479 155.117 81.8021C155.083 81.8945 154.921 81.9869 154.771 82.01C154.621 82.0216 154.379 82.1602 154.24 82.3104C154.044 82.5184 154.021 82.634 154.113 82.8304C154.194 83.0153 154.171 83.1308 153.998 83.3388C153.709 83.6623 153.375 84.4017 153.375 84.6906C153.375 84.8177 153.236 85.199 153.075 85.5572C152.867 85.9847 152.798 86.2851 152.844 86.4815C152.89 86.6664 152.844 86.9436 152.729 87.1863C152.625 87.4058 152.567 87.6253 152.613 87.66C152.648 87.7062 152.578 87.8564 152.44 87.9951C152.278 88.1684 152.186 88.4341 152.175 88.8154C152.151 89.1158 152.036 89.6126 151.921 89.9131C151.748 90.3521 151.736 90.5139 151.84 90.6872C151.944 90.8605 151.932 91.0685 151.805 91.6346C151.713 92.039 151.667 92.4896 151.701 92.6283C151.759 92.8594 151.644 93.8877 151.447 94.916C151.413 95.1009 151.367 95.5515 151.355 95.8981C151.332 96.2447 151.286 96.938 151.251 97.4232C151.217 97.9085 151.228 98.336 151.286 98.3822C151.344 98.4169 151.367 98.544 151.332 98.6595C151.297 98.7866 151.355 99.0524 151.447 99.2372C151.551 99.4452 151.574 99.5954 151.505 99.5954C151.39 99.5954 151.471 101.687 151.598 102.149C151.644 102.299 151.54 102.345 151.113 102.403C150.686 102.449 150.49 102.553 150.097 102.935C149.832 103.189 149.52 103.408 149.416 103.408C149.301 103.408 149.07 103.478 148.897 103.558C148.724 103.651 148.193 103.79 147.72 103.87C147.247 103.951 146.612 104.078 146.312 104.171C145.689 104.344 145.573 104.263 145.458 103.628C145.366 103.177 145.089 102.599 144.892 102.426C144.812 102.357 144.627 101.698 144.477 100.947C144.269 99.8727 144.246 99.503 144.338 99.2488C144.419 99.0293 144.431 98.7288 144.362 98.3591C144.292 98.024 144.292 97.689 144.362 97.5157C144.419 97.3539 144.488 96.9842 144.523 96.6953C144.581 96.0252 144.823 95.5284 145.158 95.3782C145.296 95.3204 145.412 95.2048 145.412 95.1355C145.412 94.9275 145.816 94.6271 146.093 94.6271C146.485 94.6271 146.981 94.2227 147.177 93.7375C147.27 93.4948 147.466 92.8362 147.604 92.2585C147.743 91.6924 147.974 91.0685 148.112 90.872C148.528 90.2943 148.666 89.786 148.839 88.2262C148.989 86.8281 149.024 86.7241 149.336 86.4237C149.716 86.0655 149.786 85.6149 149.509 85.3838C149.359 85.2567 149.359 85.2105 149.509 84.9217C149.601 84.7368 149.636 84.5635 149.578 84.5288C149.428 84.4364 149.359 83.9049 149.474 83.7894C149.532 83.7316 149.474 83.5583 149.336 83.3965C149.209 83.2232 149.105 83.0384 149.105 82.9806C149.105 82.7148 148.366 81.6865 148.181 81.6865C148.078 81.6865 147.951 81.6519 147.905 81.6056C147.87 81.5594 147.593 81.5132 147.304 81.4901C146.854 81.467 146.762 81.5017 146.716 81.6865ZM147.801 83.8471C147.962 84.0436 148.055 84.2631 148.02 84.3902C147.985 84.5057 148.043 84.7599 148.135 84.9448C148.285 85.2336 148.285 85.4878 148.181 86.6895C148.112 87.4636 148.031 88.1799 148.008 88.2724C147.985 88.3648 147.939 88.6537 147.893 88.8963C147.858 89.1505 147.789 89.4047 147.731 89.474C147.685 89.5433 147.604 89.7744 147.558 89.9939C147.524 90.2135 147.385 90.4561 147.27 90.5485C147.143 90.6294 147.027 90.8489 147.004 91.0223C146.981 91.2418 146.912 91.3227 146.774 91.2996C146.612 91.2764 146.566 91.3458 146.566 91.6693C146.566 92.2354 146.473 92.4203 146.081 92.6167C145.896 92.7092 145.666 92.9633 145.585 93.1713C145.412 93.5757 144.858 93.8992 144.546 93.7721C144.408 93.7259 144.385 93.4948 144.419 92.4087C144.442 91.6924 144.488 91.0223 144.523 90.9298C144.592 90.7681 144.719 89.7282 144.731 89.2891C144.731 89.1851 144.812 89.0812 144.915 89.0581C145.135 89.0118 145.469 87.8449 145.308 87.6485C145.239 87.5676 145.262 87.348 145.377 87.0592C145.469 86.805 145.562 86.4699 145.585 86.3082C145.608 86.1464 145.735 85.8113 145.862 85.5572C146 85.3145 146.104 85.0372 146.104 84.9563C146.104 84.887 146.312 84.6444 146.566 84.448C146.82 84.24 147.027 84.0205 147.027 83.9396C147.027 83.7894 147.258 83.5352 147.408 83.5352C147.466 83.5352 147.639 83.6738 147.801 83.8471ZM156.352 83.9858C156.491 84.2284 156.572 84.4595 156.525 84.4942C156.491 84.5404 156.548 84.783 156.664 85.0257C156.791 85.3261 156.837 85.6265 156.802 85.8691C156.768 86.0771 156.71 86.6201 156.675 87.0707C156.618 88.0413 156.387 89.3238 156.248 89.474C156.191 89.5433 156.145 89.7282 156.145 89.9131C156.145 90.0864 156.052 90.3175 155.925 90.433C155.637 90.7103 155.429 91.1378 155.51 91.2764C155.544 91.3458 155.475 91.392 155.348 91.392C155.152 91.392 155.106 91.4613 155.106 91.7733C155.106 92.2123 154.979 92.3972 154.448 92.7669C154.24 92.9056 154.067 93.1135 154.067 93.2291C154.067 93.645 153.271 94.0494 153.029 93.7606C152.902 93.6104 152.936 91.2764 153.063 90.9298C153.132 90.7681 153.259 89.7282 153.271 89.2776C153.271 89.162 153.363 89.0812 153.502 89.0812C153.652 89.0812 153.721 89.0003 153.721 88.8039C153.721 88.6421 153.779 88.3764 153.836 88.203C153.917 87.9951 153.917 87.8449 153.848 87.7755C153.721 87.6485 153.813 86.9783 153.975 86.8743C154.044 86.8397 154.102 86.6317 154.125 86.4122C154.148 86.1926 154.275 85.8113 154.402 85.5572C154.54 85.3145 154.644 85.0372 154.644 84.9679C154.644 84.887 154.852 84.6559 155.106 84.4595C155.36 84.2631 155.568 84.032 155.568 83.9511C155.568 83.7778 155.798 83.5352 155.971 83.5352C156.041 83.5352 156.214 83.7316 156.352 83.9858Z" fill="white"/>
<path d="M81.4535 89.8685C81.2688 90.0418 81.1303 90.2266 81.1303 90.2729C81.1303 90.5155 80.6341 91.4167 80.4379 91.5438C80.311 91.6131 80.2071 91.7633 80.2071 91.8558C80.2071 91.9482 80.0109 92.2717 79.7685 92.5721C79.5146 92.8725 79.2492 93.2654 79.1684 93.4618C79.0876 93.6582 78.9838 93.82 78.9261 93.82C78.8684 93.82 78.7414 94.0048 78.6491 94.2359C78.5568 94.467 78.326 94.8367 78.1298 95.0447C77.9451 95.2642 77.7835 95.53 77.7835 95.6224C77.7835 95.7264 77.6797 95.9344 77.5527 96.0961C77.4258 96.2579 77.3219 96.4659 77.3219 96.5467C77.3219 96.6276 77.195 96.7894 77.0334 96.9165C76.8718 97.0436 76.7449 97.1938 76.7449 97.2631C76.7449 97.3209 76.6641 97.448 76.5602 97.5288C76.4564 97.6213 76.1679 98.0026 75.9255 98.3838C75.6831 98.7651 75.3254 99.2042 75.1407 99.3428C74.9445 99.4815 74.783 99.6779 74.783 99.7588C74.783 99.8512 74.5291 100.186 74.2059 100.521C73.8943 100.856 73.6289 101.191 73.6289 101.272C73.6289 101.342 73.525 101.503 73.3866 101.631C73.2481 101.746 73.0634 102 72.9711 102.197C72.8788 102.382 72.5903 102.763 72.3248 103.029C72.0709 103.294 71.7939 103.71 71.7132 103.941C71.5747 104.334 71.5978 104.427 71.9209 105.108C72.1632 105.594 72.3479 105.836 72.4864 105.836C72.6018 105.836 72.7172 105.882 72.7518 105.94C72.8788 106.148 73.525 106.183 73.8713 105.998C74.3444 105.755 74.8868 105.143 74.8984 104.843C74.8984 104.715 74.9792 104.508 75.0715 104.38C75.1638 104.265 75.2446 104.022 75.2446 103.86C75.2446 103.687 75.3831 103.433 75.5908 103.237C75.787 103.052 75.937 102.832 75.937 102.751C75.937 102.67 76.0409 102.543 76.1679 102.462C76.2948 102.382 76.4795 102.035 76.5833 101.677C76.6756 101.33 76.8141 100.949 76.8718 100.845C76.9295 100.729 76.9757 100.533 76.9757 100.406C76.9757 100.279 77.0219 100.175 77.0796 100.175C77.1373 100.175 77.2065 100.059 77.2296 99.909C77.2527 99.7703 77.3796 99.6086 77.5297 99.5393C77.6681 99.4815 77.7835 99.389 77.7835 99.3428C77.7835 99.2966 77.9336 99.0078 78.1182 98.6958C78.3029 98.3838 78.4875 97.9563 78.5337 97.7368C78.5799 97.5288 78.753 97.1476 78.903 96.9049C79.0646 96.6507 79.2146 96.2694 79.2492 96.0499C79.2838 95.8304 79.3877 95.6224 79.4685 95.5877C79.5608 95.5531 79.6301 95.4607 79.6301 95.3682C79.6301 95.2873 79.757 95.0794 79.9186 94.9061C80.0801 94.7327 80.2071 94.5594 80.2071 94.5248C80.2071 94.4901 80.334 94.363 80.4841 94.259C80.761 94.0626 80.7726 94.0626 80.9919 94.4439C81.188 94.779 81.4073 96.0499 81.3727 96.6507C81.2804 98.1065 81.2919 98.6611 81.4189 98.9615C81.4996 99.1464 81.6266 99.6086 81.6958 99.9668C81.7766 100.325 81.892 100.637 81.9613 100.66C82.0536 100.695 82.0882 101.145 82.0767 102.035C82.0651 102.763 82.0651 103.56 82.0767 103.814C82.0882 104.068 82.0882 104.554 82.0882 104.877C82.0882 105.212 82.1344 105.49 82.1921 105.49C82.2613 105.49 82.2729 105.57 82.2382 105.674C82.1575 105.882 82.4344 106.784 82.6999 107.188C82.7922 107.338 82.9422 107.454 83.0461 107.454C83.1384 107.454 83.2423 107.523 83.2769 107.604C83.3461 107.777 83.9809 107.777 84.3156 107.592C84.4541 107.523 84.5925 107.5 84.6387 107.535C84.6733 107.569 84.7079 107.535 84.7079 107.431C84.7079 107.338 84.8118 107.165 84.9388 107.049C85.0657 106.934 85.2734 106.553 85.4004 106.194C85.7235 105.316 85.8274 105.074 86.2198 104.311C86.4044 103.953 86.5545 103.56 86.5545 103.456C86.5545 103.341 86.6929 103.133 86.866 102.994C87.2007 102.728 87.3277 102.046 87.1199 101.642C87.0161 101.457 87.0507 101.365 87.2931 101.134C87.4546 100.984 87.5931 100.799 87.5931 100.729C87.5931 100.544 88.1471 99.389 88.2855 99.3082C88.3548 99.2735 88.401 99.1118 88.401 98.95C88.401 98.7998 88.4587 98.6727 88.5164 98.6727C88.5856 98.6727 88.6318 98.5803 88.6318 98.4647C88.6318 98.3607 88.7126 98.1181 88.8049 97.9332C88.9087 97.7484 88.9664 97.5288 88.9318 97.4364C88.8972 97.3555 88.9434 97.2169 89.0357 97.1244C89.128 97.032 89.2088 96.8818 89.2088 96.8009C89.2088 96.72 89.3127 96.5005 89.4281 96.3272C89.5435 96.1423 89.6127 95.8997 89.5896 95.7726C89.5435 95.634 89.6012 95.53 89.7397 95.4722C89.8666 95.426 90.0166 95.3336 90.0744 95.2642C90.1436 95.1834 90.3629 95.0563 90.5706 94.9754C90.8822 94.8483 90.9976 94.8598 91.24 94.9754C91.39 95.0563 91.5169 95.2065 91.5169 95.2989C91.5169 95.3798 91.5862 95.5993 91.6785 95.7611C91.9209 96.2117 92.1286 97.0089 92.0709 97.1822C92.0363 97.2746 92.0709 97.4711 92.1517 97.6328C92.2325 97.7946 92.3363 98.2567 92.3709 98.6727C92.4171 99.0886 92.5094 99.4815 92.5787 99.5624C92.6825 99.6895 92.7979 100.914 92.7749 101.677C92.7749 101.839 92.7749 102.093 92.7749 102.254C92.7864 102.416 92.7864 103.029 92.7864 103.629C92.7864 104.219 92.821 104.762 92.8672 104.831C92.9018 104.9 92.948 105.085 92.9711 105.247C93.0634 106.368 93.1442 106.795 93.4096 107.5C93.5827 107.951 93.6866 108.39 93.6404 108.517C93.5943 108.655 93.652 108.829 93.7904 108.967C94.8983 110.1 94.8868 110.088 95.3138 110.03C95.5562 109.996 95.7985 109.869 95.9024 109.73C95.9947 109.591 96.1794 109.383 96.2948 109.256C96.5487 109.002 96.5833 108.124 96.3525 107.847C96.2486 107.72 96.2486 107.639 96.3409 107.546C96.6987 107.188 96.4102 106.252 95.6831 105.467C95.0253 104.75 94.9791 104.623 95.1061 103.941C95.1869 103.479 95.1638 103.306 94.9676 102.867C94.5983 102.046 94.4483 100.949 94.4713 99.0771C94.4944 97.1938 94.2752 95.2758 93.9982 94.9754C93.9058 94.8714 93.8251 94.6865 93.8251 94.5594C93.8251 94.4323 93.6866 94.2013 93.5135 94.0279C93.3288 93.8662 93.0634 93.5658 92.9134 93.3809C92.7633 93.1845 92.4863 92.9881 92.3132 92.9534C92.1401 92.9072 91.9324 92.8032 91.8516 92.7108C91.7824 92.6183 91.6323 92.549 91.5285 92.549C91.4246 92.549 91.2746 92.4912 91.2053 92.4219C91.113 92.3295 90.8937 92.341 90.4321 92.4566C89.705 92.6183 89.3935 92.965 89.0472 93.9702C88.8626 94.5248 88.8049 94.6519 88.4817 95.2873C88.3779 95.4953 88.2163 95.8073 88.124 95.9806C88.0317 96.1655 87.9162 96.4312 87.847 96.593C87.7893 96.7547 87.6162 97.1938 87.4777 97.5751C87.3046 98.0141 87.0392 98.4185 86.7622 98.6727C86.5198 98.9038 86.3236 99.1464 86.3236 99.2273C86.3236 99.3082 86.2198 99.6663 86.0928 100.025C85.9659 100.394 85.862 100.833 85.862 101.007C85.862 101.538 85.562 102.093 84.9965 102.659C84.6964 102.936 84.4887 103.225 84.5348 103.294C84.5695 103.352 84.5579 103.41 84.4887 103.41C84.3848 103.41 84.3386 103.248 84.1771 102.335C84.1425 102.104 84.0617 101.873 84.004 101.839C83.9463 101.804 83.9347 101.654 83.9693 101.492C84.004 101.342 83.9924 101.215 83.9347 101.215C83.7847 101.215 83.8655 99.7241 84.027 99.5277C84.0963 99.4353 84.1194 99.2851 84.0617 99.1695C83.8539 98.6842 83.7039 97.9679 83.8078 97.9101C83.8655 97.8755 83.8886 97.7715 83.8539 97.6906C83.8309 97.6097 83.8424 97.344 83.9001 97.1013C83.9693 96.824 83.9578 96.6045 83.9001 96.5467C83.8309 96.4774 83.7847 96.2694 83.7847 96.0846C83.7847 95.8882 83.6693 95.3336 83.5423 94.8598C83.2538 93.8546 83.2192 93.3925 83.3692 93.069C83.6 92.5721 83.6693 91.3012 83.4731 90.9083C83.3923 90.735 83.3231 90.5039 83.3231 90.4C83.3231 90.2844 83.1846 90.0418 83.0115 89.8685C82.5845 89.4294 81.9036 89.4294 81.4535 89.8685Z" fill="white"/>
<path d="M164.558 93.2074C164.304 93.4385 164.016 93.7735 163.924 93.9584C163.831 94.1317 163.577 94.3512 163.37 94.4437C163.058 94.5708 162.896 94.7672 162.643 95.2871C162.412 95.7724 162.25 95.9688 162.054 95.9919C161.881 96.015 161.8 96.1075 161.812 96.223C161.823 96.327 161.731 96.6505 161.604 96.9394C161.477 97.2282 161.338 97.7597 161.304 98.1294C161.269 98.4992 161.131 98.9729 161.004 99.1924C160.704 99.7124 160.6 100.648 160.761 101.619C160.923 102.636 161.108 103.179 161.304 103.179C161.396 103.179 161.454 103.317 161.454 103.525C161.454 103.745 161.546 103.953 161.708 104.08C161.835 104.184 162.135 104.438 162.366 104.634C163.058 105.235 163.727 105.524 164.304 105.455C164.604 105.42 164.928 105.293 165.078 105.154C165.274 104.969 165.482 104.912 165.909 104.912C166.232 104.912 166.739 104.831 167.039 104.727C167.501 104.565 167.617 104.461 167.836 104.01C168.044 103.56 168.159 103.444 168.551 103.34C168.955 103.236 169.013 103.167 169.048 102.855C169.071 102.601 169.209 102.393 169.521 102.15C169.855 101.885 169.982 101.688 170.04 101.33C170.086 101.064 170.19 100.833 170.294 100.787C170.432 100.741 170.456 100.625 170.409 100.348C170.34 100.024 170.386 99.9203 170.686 99.6661C170.883 99.5044 171.113 99.3311 171.206 99.2848C171.344 99.204 171.344 99.1231 171.206 98.6956C171.079 98.3259 171.067 98.141 171.148 97.9677C171.229 97.829 171.24 97.4709 171.194 97.0665C171.125 96.431 171.09 96.3732 170.675 96.1421C170.294 95.9226 170.225 95.8302 170.225 95.4951C170.225 95.1485 170.167 95.0676 169.798 94.8712C169.555 94.7441 169.151 94.4668 168.898 94.2357C168.644 94.0046 168.321 93.8198 168.17 93.8198C168.032 93.8198 167.882 93.7389 167.847 93.6464C167.743 93.3807 167.12 93.1265 166.128 92.9416C165.62 92.8492 165.17 92.7799 165.124 92.7799C165.066 92.7799 164.824 92.9763 164.558 93.2074ZM167.351 95.1485C167.778 95.4373 168.182 95.6684 168.263 95.6684C168.332 95.6684 168.54 95.7493 168.736 95.8417C169.024 96.0035 169.071 96.0844 169.048 96.431C169.024 96.7545 169.094 96.8932 169.394 97.1704C169.671 97.4131 169.752 97.5864 169.717 97.7713C169.682 97.9215 169.636 98.349 169.59 98.7187C169.555 99.1 169.463 99.4466 169.382 99.5044C169.301 99.5506 169.244 99.8279 169.244 100.14C169.244 100.614 169.209 100.694 168.967 100.752C168.782 100.787 168.644 100.949 168.563 101.18C168.413 101.63 167.755 102.277 167.132 102.589C166.878 102.716 166.647 102.913 166.601 103.017C166.543 103.167 166.428 103.19 165.966 103.121C165.458 103.051 165.378 103.075 165.262 103.283C165.112 103.571 164.824 103.595 164.501 103.352C164.385 103.259 164.085 103.179 163.854 103.179C163.45 103.179 163.427 103.167 163.312 102.612C163.243 102.3 163.081 101.769 162.954 101.422C162.677 100.694 162.654 99.643 162.885 99.0769C162.977 98.8573 163.035 98.5454 163 98.3952C162.977 98.2334 163.023 98.037 163.127 97.933C163.22 97.8406 163.3 97.6673 163.3 97.5402C163.3 97.4131 163.462 97.1704 163.647 97.0087C163.854 96.8469 164.027 96.5581 164.074 96.3386C164.166 95.8302 164.304 95.6684 164.916 95.4027C165.193 95.2756 165.528 95.056 165.643 94.9058C165.978 94.4783 166.451 94.5477 167.351 95.1485Z" fill="white"/>
<path d="M111.113 93.784C110.94 93.8995 110.743 94.119 110.674 94.2808C110.513 94.6736 110.559 95.702 110.755 96.5339C110.893 97.0884 110.917 97.7932 110.87 99.9539C110.836 101.595 110.755 102.785 110.686 102.923C110.501 103.27 110.524 104.287 110.732 104.679C110.917 105.038 111.563 105.488 111.909 105.488C112.394 105.488 112.89 104.622 112.521 104.391C112.336 104.275 112.382 103.998 112.705 103.362C112.948 102.889 113.017 102.577 113.04 101.699C113.075 100.74 113.121 100.589 113.432 100.104C113.629 99.8152 113.79 99.5379 113.79 99.4917C113.79 99.4339 113.871 99.2375 113.963 99.0642C114.056 98.8793 114.136 98.6483 114.136 98.5558C114.136 98.4634 114.286 98.1745 114.46 97.9203C114.713 97.5622 114.875 97.4466 115.21 97.3889C115.867 97.2849 116.156 97.6893 116.26 98.8562C116.352 99.8383 116.571 100.393 116.883 100.416C118.037 100.508 118.037 100.508 118.083 100.254C118.106 100.116 118.129 99.4801 118.118 98.8447C118.095 97.5391 117.979 97.2502 116.987 96.2103C116.571 95.7713 116.387 95.6557 116.133 95.6788C115.96 95.6904 115.683 95.6673 115.521 95.6211C115.094 95.5055 114.39 95.8406 113.744 96.4876C113.432 96.7996 113.086 97.0538 112.971 97.0538C112.775 97.0538 112.752 96.9382 112.752 95.6904C112.74 94.2115 112.648 93.9457 112.001 93.7031C111.597 93.5529 111.482 93.5644 111.113 93.784Z" fill="white"/>
<path d="M119.826 93.7613C119.688 93.8538 119.468 94.1195 119.33 94.3391C119.122 94.6857 119.099 94.8012 119.203 95.0901C119.261 95.2865 119.48 95.5753 119.676 95.7371C119.918 95.9451 120.022 96.1415 120.022 96.3726C120.022 96.6037 120.138 96.8232 120.357 97.0312C120.565 97.216 120.726 97.5164 120.772 97.7706C120.819 98.0133 120.899 98.2097 120.957 98.2097C121.015 98.2097 121.061 98.4177 121.061 98.6718C121.061 98.9838 121.142 99.2149 121.292 99.3651C121.419 99.4922 121.522 99.7348 121.522 99.9081C121.522 100.289 121.88 101.687 122.215 102.646C122.342 103.028 122.446 103.444 122.446 103.571C122.446 103.709 122.55 103.964 122.677 104.16C122.804 104.345 122.907 104.611 122.907 104.749C122.907 105.235 123.311 105.431 124.292 105.419C125.123 105.408 125.216 105.385 125.492 105.084C125.654 104.911 125.839 104.599 125.908 104.391C125.977 104.183 126.116 103.975 126.208 103.941C126.323 103.894 126.37 103.733 126.346 103.386C126.323 103.016 126.358 102.889 126.485 102.878C126.577 102.878 126.716 102.854 126.797 102.854C126.877 102.843 127.108 102.589 127.304 102.277C127.512 101.976 127.72 101.711 127.778 101.699C127.824 101.676 127.87 101.468 127.87 101.237C127.87 100.856 127.928 100.775 128.331 100.52C128.655 100.313 128.793 100.151 128.793 99.9659C128.793 99.5962 129.139 99.03 129.405 98.9491C129.52 98.9145 130.005 98.4985 130.466 98.0248C131.113 97.3662 131.332 97.0774 131.355 96.7885C131.39 96.465 131.447 96.4072 131.863 96.3032C132.117 96.2339 132.521 96.0144 132.763 95.818L133.179 95.4367L132.902 94.8705C132.578 94.2582 132.451 94.1657 131.794 94.1657C131.471 94.1657 131.228 94.2697 130.893 94.5355C130.49 94.859 130.397 95.0207 130.27 95.5869C130.143 96.2108 130.039 96.361 129.059 97.4124C128.355 98.1635 127.985 98.6487 127.985 98.822C127.985 99.1456 127.685 99.5962 127.466 99.5962C127.374 99.5962 127.224 99.7348 127.131 99.9081C127.039 100.093 126.647 100.532 126.266 100.89C125.873 101.26 125.562 101.607 125.562 101.676C125.562 101.791 124.523 102.311 124.465 102.231C124.315 102.046 124.177 101.63 124.177 101.364C124.177 100.983 123.958 100.232 123.611 99.446C123.473 99.134 123.369 98.7412 123.369 98.5794C123.369 98.4061 123.207 97.8746 123.011 97.4009C122.815 96.9272 122.573 96.3032 122.48 96.0144C122.273 95.4136 121.857 94.7781 121.211 94.0733C120.703 93.5418 120.276 93.4378 119.826 93.7613Z" fill="white"/>
<path d="M106.37 94.0264C106.128 94.0611 105.943 94.2228 105.643 94.685C105.181 95.3898 104.985 95.4707 104.004 95.3667C103.393 95.3089 103.254 95.332 102.873 95.5862C102.619 95.748 102.204 95.9097 101.95 95.9559C101.638 96.0022 101.361 96.1524 101.142 96.3719C100.969 96.5568 100.646 96.7416 100.438 96.7763C100.15 96.8341 99.965 96.9727 99.7688 97.2847C99.6188 97.5273 99.388 97.7584 99.2726 97.793C99.111 97.8508 99.0071 98.0935 98.8571 98.7636C98.7417 99.2489 98.5801 99.8959 98.4878 100.196C98.3955 100.485 98.3609 100.809 98.3955 100.901C98.4301 100.994 98.3493 101.305 98.2224 101.594C97.8069 102.519 97.98 104.252 98.5686 105.037C98.7648 105.292 98.7994 105.303 99.5034 105.176C100.646 104.991 101.385 104.564 102.481 103.501C103.023 102.969 103.612 102.345 103.785 102.103C104.05 101.756 104.177 101.675 104.489 101.675C104.904 101.675 105.02 101.825 105.02 102.334C105.02 102.519 105.101 102.646 105.251 102.68C105.378 102.715 105.481 102.831 105.493 102.935C105.505 103.293 105.562 103.582 105.655 103.87C105.77 104.24 106.485 105.118 106.728 105.188C107.247 105.338 107.559 105.349 107.686 105.188C107.755 105.095 107.917 105.026 108.032 105.026C108.632 105.026 108.874 104.055 108.32 103.917C107.963 103.836 107.674 103.281 107.628 102.646C107.616 102.357 107.536 102.08 107.466 102.033C107.178 101.86 107.363 98.7289 107.743 97.25C107.836 96.8918 107.882 96.5221 107.836 96.4528C107.778 96.3719 107.732 96.0715 107.72 95.7826C107.697 95.0432 107.57 94.3846 107.443 94.2113C107.305 94.0495 106.843 93.9686 106.37 94.0264ZM104.397 96.7994C104.697 96.9958 104.858 98.5556 104.662 99.2835C104.57 99.6186 104.466 99.7572 104.2 99.8497C104.016 99.919 103.866 100.046 103.866 100.162C103.866 100.462 103.543 100.843 103.254 100.89C103.093 100.913 102.919 101.086 102.792 101.352C102.619 101.71 102.515 101.791 102.25 101.791C102.008 101.791 101.869 101.883 101.731 102.114C101.408 102.657 100.127 103.385 99.7457 103.235C99.6419 103.2 99.6072 102.808 99.6303 101.745C99.6534 100.45 99.6765 100.277 99.9073 100.035C100.034 99.8843 100.207 99.5493 100.277 99.272C100.357 99.0062 100.461 98.7867 100.53 98.7867C100.588 98.7867 100.704 98.6249 100.761 98.4401C100.831 98.2437 100.934 98.0935 100.981 98.0935C101.038 98.0935 101.281 97.897 101.523 97.666C102.181 97.0305 103.947 96.499 104.397 96.7994Z" fill="white"/>
<path d="M190.397 94.108C189.6 94.2697 188.966 94.6972 188.169 95.61L187.592 96.2686V97.216V98.1519L188.435 99.4113C190.327 102.231 190.454 102.935 189.254 104.102C188.746 104.588 187.904 104.865 187.269 104.749C187.061 104.715 186.819 104.668 186.727 104.645C186.634 104.634 186.392 104.507 186.184 104.356C185.988 104.218 185.792 104.102 185.757 104.102C185.723 104.102 185.365 103.86 184.95 103.571C184.084 102.97 183.669 102.82 182.884 102.82C182.353 102.82 181.96 103.005 181.383 103.536C181.268 103.64 180.98 103.756 180.749 103.802C180.379 103.86 180.287 103.825 180.068 103.559C179.929 103.397 179.791 103.074 179.745 102.843C179.699 102.612 179.583 102.334 179.479 102.219C179.306 102.034 179.318 101.988 179.491 101.687C179.606 101.479 179.687 101.11 179.687 100.717C179.687 100.359 179.733 100.047 179.791 100.001C179.929 99.9197 180.102 98.7412 180.045 98.2675C179.976 97.632 179.733 97.216 179.295 97.0081C178.452 96.6037 177.725 97.1236 177.725 98.1172C177.725 98.3945 177.621 98.8452 177.494 99.1109C177.367 99.3651 177.263 99.6886 177.263 99.8157C177.263 99.9543 177.09 100.232 176.883 100.451C176.686 100.671 176.363 101.214 176.167 101.641C175.821 102.45 175.452 103.074 175.128 103.444C174.955 103.64 174.921 103.64 174.736 103.478C174.436 103.201 174.494 101.399 174.828 100.544C174.967 100.197 175.071 99.7348 175.059 99.5037C175.048 99.2727 175.094 98.7874 175.163 98.4408C175.232 98.0941 175.255 97.6782 175.221 97.5164C175.186 97.3085 175.244 97.1467 175.405 97.0081C175.74 96.7076 175.717 96.2108 175.359 95.8411C175.117 95.61 174.944 95.5522 174.494 95.5522C173.997 95.5522 173.905 95.5869 173.663 95.922C173.42 96.2686 173.397 96.465 173.328 98.1172C173.293 99.1225 173.201 100.001 173.132 100.081C172.843 100.428 172.693 101.653 172.693 103.455L172.705 105.304L173.34 105.627C174.251 106.113 174.621 106.02 175.521 105.084C176.052 104.541 176.294 104.183 176.467 103.675C176.594 103.305 176.802 102.924 176.917 102.831C177.033 102.739 177.148 102.566 177.171 102.45C177.24 102.08 177.425 102.219 177.621 102.797C178.083 104.16 178.683 104.934 179.364 105.084C180.102 105.246 181.049 105.177 181.314 104.934C181.441 104.807 181.695 104.68 181.857 104.645C182.03 104.622 182.249 104.564 182.353 104.518C182.457 104.472 182.641 104.553 182.849 104.738C183.495 105.339 185.284 105.905 186.069 105.755C186.3 105.708 186.473 105.766 186.646 105.928C187.073 106.332 188.054 106.263 188.977 105.778C189.416 105.535 189.9 105.373 190.131 105.373C190.662 105.373 191.285 104.761 191.782 103.756C192.082 103.155 192.151 102.889 192.151 102.265C192.139 101.017 191.678 99.9428 190.766 99.0878C190.189 98.5447 190.062 98.2559 190.004 97.32C189.924 96.1068 190.108 95.8989 191.447 95.6447C192.151 95.5176 192.832 95.7024 193.513 96.2108C193.824 96.4535 193.986 96.4881 194.344 96.4303C195.094 96.3148 195.348 96.1646 195.44 95.818C195.509 95.5291 195.452 95.4367 194.955 94.9976C194.067 94.212 193.64 94.0502 192.255 94.0155C191.597 93.9924 190.754 94.0271 190.397 94.108Z" fill="white"/>
<path d="M137.229 94.9869C137.079 95.1025 136.86 95.2065 136.745 95.2065C136.075 95.2065 135.002 96.073 134.54 96.9742C134.413 97.2284 133.998 97.7599 133.617 98.1759C133.063 98.7767 132.936 98.9731 133.006 99.1695C133.052 99.3082 133.156 100.163 133.248 101.076C133.329 101.977 133.467 102.844 133.548 102.994C133.94 103.722 134.39 104.404 134.54 104.496C134.644 104.554 134.898 104.773 135.106 104.993C135.325 105.201 135.614 105.374 135.764 105.374C135.914 105.374 136.225 105.455 136.445 105.547C136.687 105.651 137.218 105.721 137.679 105.721C138.58 105.721 138.926 105.547 139.988 104.588C140.403 104.219 140.472 104.092 140.415 103.849C140.276 103.317 139.226 103.364 138.603 103.93C138.349 104.161 137.956 104.172 137.414 103.999C137.102 103.895 136.802 103.629 136.318 103.029C135.671 102.208 135.66 102.185 135.671 101.48C135.694 100.833 135.729 100.718 136.11 100.267C136.572 99.7241 137.033 99.5046 137.703 99.493C137.933 99.4815 138.28 99.4237 138.453 99.3544C138.626 99.2851 138.88 99.1811 139.007 99.1349C139.999 98.7651 140.265 98.5918 140.518 98.199C140.669 97.9563 140.842 97.7368 140.911 97.6906C140.98 97.6559 141.142 97.4017 141.269 97.1476C141.661 96.385 141.373 95.6686 140.507 95.2527C140.322 95.1602 140.034 95.01 139.872 94.9176C139.676 94.8021 139.261 94.7559 138.545 94.7559C137.703 94.7674 137.46 94.8021 137.229 94.9869ZM138.937 96.7778C139.076 96.9049 138.637 97.4711 138.199 97.7137C137.679 98.0026 136.999 98.1528 136.849 98.0026C136.699 97.8524 137.356 97.0089 137.806 96.7894C138.164 96.6045 138.764 96.6045 138.937 96.7778Z" fill="white"/>
<path d="M92.036 110.296C91.7244 110.377 91.3205 110.481 91.1474 110.515C90.8588 110.573 90.8242 110.631 90.8242 111.035C90.8242 111.451 90.8473 111.486 91.2051 111.521L91.5744 111.555L91.609 113.97C91.6436 116.535 91.609 116.697 91.1012 116.697C90.8588 116.697 90.8242 116.755 90.8242 117.159V117.621H92.3245H93.8248V117.17C93.8248 116.789 93.7786 116.708 93.5709 116.674C93.317 116.639 93.3054 116.593 93.2708 115.356L93.2362 114.074L93.617 113.878C93.8363 113.762 94.171 113.693 94.4018 113.716L94.8057 113.75V115.195C94.8057 116.604 94.7942 116.639 94.5518 116.674C94.3326 116.708 94.2864 116.789 94.2864 117.17V117.621H95.7867H97.2869V117.159C97.2869 116.743 97.2523 116.697 96.9984 116.697C96.5599 116.697 96.4791 116.373 96.4791 114.767C96.4791 113.577 96.4445 113.231 96.2945 113.011C95.879 112.422 94.7365 112.248 93.8363 112.653C93.5593 112.78 93.317 112.884 93.2939 112.884C93.2708 112.884 93.2477 112.26 93.2477 111.497V110.111L92.9361 110.122C92.7515 110.134 92.3591 110.203 92.036 110.296Z" fill="white"/>
<path d="M98.9719 110.353C98.7411 110.538 98.6719 110.688 98.6719 111.023C98.6719 111.878 99.6298 112.283 100.23 111.67C101.072 110.839 99.9067 109.614 98.9719 110.353Z" fill="white"/>
<path d="M102.884 110.296C102.572 110.377 102.168 110.481 101.995 110.515C101.706 110.573 101.672 110.631 101.672 111.035C101.672 111.451 101.695 111.486 102.053 111.521L102.422 111.555L102.457 113.97C102.491 116.535 102.457 116.697 101.949 116.697C101.706 116.697 101.672 116.755 101.672 117.159V117.621H103.288H104.903V117.159C104.903 116.778 104.869 116.697 104.684 116.697C104.072 116.697 104.095 116.801 104.095 113.335V110.111L103.784 110.122C103.599 110.134 103.207 110.203 102.884 110.296Z" fill="white"/>
<path d="M109.752 110.249C109.59 110.307 109.232 110.399 108.944 110.434C108.424 110.515 108.424 110.527 108.39 111.012C108.355 111.486 108.367 111.497 108.701 111.497C109.059 111.497 109.059 111.497 109.059 112.133V112.78L108.713 112.595C108.217 112.341 107.351 112.375 106.751 112.676C105.054 113.542 105.066 116.685 106.763 117.563C107.236 117.817 108.228 117.783 108.771 117.505C109.025 117.378 109.244 117.274 109.255 117.274C109.278 117.274 109.29 117.378 109.29 117.505C109.29 117.713 109.371 117.736 110.202 117.736C111.402 117.736 111.483 117.702 111.483 117.147C111.483 116.754 111.448 116.696 111.217 116.696C110.686 116.696 110.675 116.604 110.675 113.265V110.111L110.363 110.122C110.179 110.122 109.913 110.18 109.752 110.249ZM108.851 113.773C109.025 113.923 109.059 114.143 109.059 115.09V116.223L108.701 116.408C107.997 116.777 107.409 116.384 107.259 115.437C107.097 114.397 107.513 113.577 108.217 113.577C108.447 113.577 108.736 113.658 108.851 113.773Z" fill="white"/>
<path d="M130.12 110.399C129.716 110.792 129.727 111.392 130.143 111.716C130.316 111.866 130.535 111.935 130.662 111.901C131.02 111.785 130.893 112.051 130.328 112.663L129.785 113.241L130.085 113.541L130.385 113.842L130.743 113.588C130.939 113.449 131.262 113.091 131.47 112.79C131.77 112.351 131.851 112.109 131.886 111.531C131.932 110.861 131.909 110.792 131.585 110.456C131.135 110.006 130.524 109.983 130.12 110.399Z" fill="white"/>
<path d="M149.393 110.296C149.082 110.377 148.678 110.481 148.505 110.515C148.216 110.573 148.182 110.631 148.182 111.035C148.182 111.451 148.205 111.486 148.562 111.521L148.932 111.555L148.966 114.028C149.001 116.662 148.989 116.697 148.447 116.697C148.216 116.697 148.182 116.755 148.182 117.159V117.621H149.682H151.182V117.182C151.182 116.847 151.125 116.731 150.928 116.639C150.686 116.535 150.663 116.443 150.628 115.345L150.594 114.155L150.974 113.924C151.217 113.774 151.505 113.704 151.759 113.716L152.163 113.75V115.195C152.163 116.604 152.152 116.639 151.909 116.674C151.69 116.708 151.644 116.789 151.644 117.17V117.621H153.202H154.76V117.17C154.76 116.743 154.737 116.708 154.391 116.674L154.01 116.639L153.952 115.021C153.906 113.704 153.848 113.335 153.687 113.069C153.26 112.422 152.129 112.237 151.194 112.653C150.917 112.78 150.674 112.884 150.651 112.884C150.628 112.884 150.605 112.26 150.605 111.497V110.111L150.294 110.122C150.109 110.134 149.717 110.203 149.393 110.296Z" fill="white"/>
<path d="M167.28 110.399C166.692 110.977 167.084 111.959 167.903 111.959C168.469 111.959 168.838 111.589 168.838 111.023C168.838 110.191 167.869 109.798 167.28 110.399Z" fill="white"/>
<path d="M85.3422 110.55C84.4767 110.827 83.438 111.913 83.1611 112.814C82.7456 114.155 83.1264 115.795 84.0728 116.754C84.7537 117.425 85.5615 117.748 86.5886 117.748C87.8581 117.748 88.6198 117.425 89.543 116.489L90.2816 115.726L89.9008 115.414L89.52 115.091L88.8391 115.715C87.6504 116.812 86.554 116.858 85.6654 115.842C84.4075 114.409 84.9614 111.798 86.5771 111.543C86.8079 111.497 87.1426 111.497 87.3042 111.543C87.6965 111.647 88.4582 112.341 88.7698 112.895C88.9314 113.184 89.0814 113.334 89.1853 113.288C89.2776 113.253 89.4738 113.196 89.6238 113.161C89.97 113.069 89.97 112.988 89.5892 111.601L89.2661 110.457H88.8852C88.6775 110.457 88.4813 110.527 88.4467 110.608C88.4005 110.735 88.2736 110.723 87.7889 110.561C87.0503 110.296 86.1039 110.296 85.3422 110.55Z" fill="white"/>
<path d="M142.93 110.492C141.845 110.862 141.095 111.509 140.656 112.479C140.46 112.93 140.402 113.265 140.402 114.039C140.402 115.229 140.633 115.83 141.429 116.685C142.122 117.425 142.861 117.748 143.888 117.748C144.822 117.748 145.18 117.679 145.884 117.321C146.346 117.089 147.604 115.888 147.604 115.68C147.604 115.634 147.431 115.483 147.223 115.356L146.842 115.102L146.357 115.599C145.215 116.778 143.899 116.893 143.057 115.876C142.549 115.275 142.376 114.767 142.376 113.854C142.387 111.416 144.672 110.642 145.965 112.641C146.196 112.999 146.38 113.3 146.392 113.311C146.392 113.323 146.611 113.265 146.888 113.196C147.234 113.103 147.361 113.022 147.327 112.884C147.292 112.791 147.131 112.202 146.957 111.578L146.646 110.457H146.277C146.046 110.457 145.873 110.527 145.826 110.631C145.769 110.792 145.723 110.792 145.399 110.619C144.915 110.377 143.518 110.296 142.93 110.492Z" fill="white"/>
<path d="M171.366 111.231C171.169 111.843 170.835 112.259 170.373 112.478C170.038 112.64 169.992 112.709 169.992 113.114C169.992 113.564 170.004 113.576 170.396 113.576H170.8V115.009C170.8 115.783 170.858 116.58 170.915 116.765C170.985 116.95 171.227 117.227 171.458 117.389C171.816 117.632 172.012 117.678 172.75 117.678C173.235 117.678 173.801 117.608 174.008 117.516C174.355 117.377 174.378 117.32 174.378 116.8V116.245L174.066 116.418C173.651 116.626 172.935 116.626 172.716 116.407C172.497 116.176 172.393 115.459 172.439 114.443L172.473 113.634L173.316 113.599L174.147 113.564V113.056V112.536H173.281H172.416V111.67V110.803H171.966C171.539 110.803 171.504 110.838 171.366 111.231Z" fill="white"/>
<path d="M99.3057 112.607C99.0518 112.687 98.6479 112.78 98.4171 112.826C98.0016 112.895 97.9785 112.919 97.9785 113.346C97.9785 113.797 97.9901 113.808 98.3824 113.808H98.7979L98.7633 115.218L98.7287 116.639L98.3594 116.674C98.0016 116.708 97.9785 116.743 97.9785 117.17V117.621H99.5942H101.21V117.17C101.21 116.743 101.187 116.708 100.841 116.674L100.46 116.639L100.425 114.525L100.402 112.422L100.079 112.433C99.9058 112.445 99.5596 112.514 99.3057 112.607Z" fill="white"/>
<path d="M113.328 112.595C113.109 112.676 112.751 112.757 112.555 112.757C112.185 112.768 112.174 112.78 112.174 113.277C112.174 113.774 112.185 113.797 112.555 113.831L112.924 113.866L112.959 115.125C112.993 116.466 112.924 116.697 112.451 116.697C112.208 116.697 112.174 116.755 112.174 117.159V117.621H113.789H115.405V117.17C115.405 116.743 115.382 116.708 115.036 116.674L114.655 116.639V115.368V114.097H115.44C116.34 114.097 116.559 113.935 116.559 113.265C116.559 112.445 115.705 112.168 114.897 112.711C114.667 112.872 114.447 112.999 114.424 112.999C114.39 112.999 114.367 112.872 114.367 112.711C114.367 112.468 114.309 112.422 114.055 112.433C113.87 112.433 113.547 112.514 113.328 112.595Z" fill="white"/>
<path d="M118.637 112.605C117.552 113.079 117.021 113.888 117.021 115.089C117.021 115.979 117.437 116.799 118.118 117.273C118.718 117.689 118.96 117.758 119.814 117.747C120.622 117.747 121.499 117.377 122.042 116.811L122.376 116.464L122.03 116.106L121.672 115.76L121.326 116.048C120.611 116.661 119.884 116.742 119.341 116.28C119.006 116.002 118.718 115.367 118.833 115.159C118.856 115.113 119.63 115.078 120.553 115.078H122.215V114.616C122.215 113.772 121.638 112.952 120.807 112.594C120.264 112.374 119.168 112.374 118.637 112.605ZM120.403 113.715C120.784 114.165 120.668 114.269 119.734 114.269C119.26 114.269 118.868 114.234 118.868 114.177C118.868 113.992 119.249 113.553 119.491 113.46C119.814 113.333 120.149 113.426 120.403 113.715Z" fill="white"/>
<path d="M124.004 112.641L123.196 112.849L123.162 113.323L123.127 113.808H123.542H123.958L123.923 115.218L123.889 116.639L123.519 116.674C123.162 116.708 123.138 116.743 123.138 117.17V117.621H124.639H126.139V117.182C126.139 116.847 126.081 116.731 125.885 116.639C125.643 116.535 125.62 116.443 125.585 115.345L125.55 114.155L125.931 113.924C126.174 113.774 126.462 113.704 126.716 113.716L127.12 113.75V115.195C127.12 116.604 127.108 116.639 126.866 116.674C126.647 116.708 126.601 116.789 126.601 117.17V117.621H128.101H129.601V117.17C129.601 116.755 129.567 116.708 129.29 116.674L128.967 116.639L128.909 115.021C128.863 114.028 128.793 113.3 128.701 113.138C128.286 112.399 127.12 112.214 126.058 112.711L125.447 112.988V112.711C125.447 112.364 125.204 112.352 124.004 112.641Z" fill="white"/>
<path d="M133.062 112.641C132.266 113.057 131.943 113.901 132.3 114.605C132.531 115.044 132.797 115.206 134.182 115.715C134.839 115.957 135.393 116.234 135.428 116.338C135.509 116.546 135.197 116.812 134.862 116.812C134.459 116.801 133.72 116.408 133.316 115.969L132.924 115.564L132.474 115.761C132.231 115.865 132.023 115.98 132.023 116.015C132.023 116.061 132.15 116.419 132.3 116.824C132.566 117.529 132.589 117.563 132.993 117.598C133.224 117.621 133.408 117.586 133.408 117.517C133.408 117.448 133.581 117.471 133.835 117.575C134.066 117.679 134.562 117.748 134.932 117.748C136.444 117.748 137.413 116.535 136.755 115.46C136.501 115.044 136.063 114.79 134.793 114.34C133.605 113.912 133.397 113.716 133.881 113.461C134.228 113.265 134.759 113.438 135.266 113.901C135.705 114.293 135.74 114.305 136.178 114.166C136.697 114.016 136.709 114.005 136.455 113.161C136.282 112.56 136.259 112.537 135.878 112.537C135.659 112.537 135.486 112.583 135.486 112.641C135.486 112.71 135.301 112.676 135.082 112.583C134.528 112.352 133.547 112.375 133.062 112.641Z" fill="white"/>
<path d="M156.79 112.584C155.774 112.965 155.347 113.623 155.728 114.213C155.89 114.467 156.005 114.513 156.352 114.478C156.686 114.455 156.825 114.363 157.079 113.993C157.459 113.427 157.806 113.277 158.186 113.519C158.417 113.67 158.463 113.785 158.429 114.132L158.394 114.559L157.656 114.652C156.755 114.767 155.867 115.125 155.567 115.518C155.417 115.703 155.336 115.98 155.336 116.304C155.336 117.563 156.767 118.106 158.21 117.413L158.729 117.159L158.983 117.402C159.271 117.667 160.091 117.818 160.575 117.69C160.841 117.621 160.875 117.552 160.875 117.113C160.875 116.662 160.852 116.604 160.645 116.662C160.16 116.789 160.068 116.535 160.068 115.079C160.068 113.473 159.964 113.092 159.41 112.757C158.879 112.422 157.459 112.341 156.79 112.584ZM158.452 115.9C158.452 116.327 158.417 116.373 158.025 116.535C157.494 116.766 157.067 116.604 157.067 116.188C157.067 115.876 157.263 115.68 157.725 115.541C158.371 115.345 158.452 115.391 158.452 115.9Z" fill="white"/>
<path d="M162.722 112.595C162.503 112.676 162.145 112.757 161.949 112.757C161.58 112.768 161.568 112.78 161.568 113.288C161.568 113.785 161.58 113.808 161.915 113.808H162.272L162.238 115.218L162.203 116.639L161.891 116.674C161.603 116.708 161.568 116.755 161.568 117.17V117.621H163.126H164.684V117.17C164.684 116.755 164.65 116.708 164.373 116.674L164.05 116.639V115.368V114.097L164.73 114.132C165.308 114.155 165.458 114.12 165.688 113.901C166.023 113.589 166.035 113.127 165.711 112.722C165.365 112.283 164.765 112.306 164.188 112.78L163.761 113.127V112.78C163.761 112.468 163.726 112.422 163.449 112.433C163.265 112.433 162.942 112.514 162.722 112.595Z" fill="white"/>
<path d="M167.801 112.595C167.582 112.676 167.258 112.757 167.085 112.757C166.531 112.78 166.416 112.884 166.416 113.358C166.416 113.785 166.439 113.808 166.762 113.808H167.12L167.085 115.218L167.051 116.639L166.739 116.674C166.451 116.708 166.416 116.755 166.416 117.17V117.621H167.974H169.532V117.159C169.532 116.755 169.497 116.697 169.267 116.697C168.759 116.697 168.724 116.535 168.724 114.421C168.724 112.422 168.724 112.422 168.47 112.433C168.32 112.433 168.02 112.514 167.801 112.595Z" fill="white"/>
<path d="M174.725 112.999C174.725 113.392 174.759 113.461 175.025 113.53C175.244 113.588 175.394 113.761 175.59 114.201C175.74 114.524 176.167 115.437 176.548 116.234L177.24 117.678L177.033 118.094C176.698 118.753 176.502 118.857 176.19 118.556C175.509 117.921 174.517 118.66 174.955 119.481C175.348 120.197 176.894 120.22 177.517 119.515C177.667 119.331 179.514 115.714 180.31 114.016C180.437 113.75 180.61 113.577 180.76 113.554C180.968 113.53 181.026 113.426 181.049 113.022L181.084 112.537H179.699H178.302V112.987C178.302 113.392 178.337 113.438 178.648 113.496C178.856 113.542 178.995 113.646 178.995 113.75C178.995 113.923 178.325 115.518 178.187 115.691C178.141 115.737 177.91 115.31 177.667 114.72C177.217 113.623 177.229 113.473 177.76 113.461C177.91 113.461 177.956 113.357 177.956 112.999V112.537H176.34H174.725V112.999Z" fill="white"/>
</svg>