<svg xmlns:xlink="http://www.w3.org/1999/xlink" xmlns="http://www.w3.org/2000/svg" width="164" height="63" viewBox="0 0 164 63" fill="none">
<g clip-path="url(#clip0_1512_1926)">
<path d="M22.766 50.6598L0 30.877V42.895L22.766 62.9994L45.532 42.895V30.877L22.766 50.6598Z" fill="white"/>
<path d="M45.532 0L22.766 19.7828L0 0V28.3879L8.40297 35.691L8.39781 19.4353L22.766 32.1172L37.1342 19.4353L37.1291 35.691L45.532 28.3879V0Z" fill="white"/>
<path d="M61.4033 22.1266H60.9695L54.4877 12.2404V27.1164H53.1914V10.2383H54.5342L61.1605 20.1971L67.6887 10.2383H69.109V27.1164H67.8333V12.2404L61.4033 22.1266Z" fill="white"/>
<path d="M74.0986 10.2383H72.8281V27.1164H74.0986V10.2383Z" fill="white"/>
<path d="M85.6468 27.3549C80.007 27.3549 76.9805 23.3299 76.9805 18.7498C76.9805 14.2632 79.883 9.99435 85.6468 9.99435C86.7462 9.98643 87.8355 10.2051 88.8474 10.637C89.8592 11.0688 90.772 11.7045 91.5294 12.5048L90.7599 13.2777C90.0944 12.5971 89.2978 12.0599 88.4187 11.6987C87.5396 11.3376 86.5965 11.16 85.6468 11.177C80.7249 11.177 78.2768 14.6729 78.2768 18.7498C78.2768 22.7022 80.7972 26.1515 85.6468 26.1515C86.6202 26.1597 87.5855 25.9741 88.487 25.6055C89.3885 25.237 90.2084 24.6927 90.8993 24.0041L91.767 24.8237C90.9632 25.6311 90.0079 26.2705 88.9566 26.7049C87.9052 27.1394 86.7786 27.3603 85.6417 27.3549" fill="white"/>
<path d="M106.507 19.2064H95.8003V27.1164H94.5039V10.2383H95.8003V18.0238H106.507V10.2383H107.803V27.1164H106.507V19.2064Z" fill="white"/>
<path d="M112.864 10.2383H111.594V27.1164H112.864V10.2383Z" fill="white"/>
<path d="M124.393 11.1768C119.45 11.1768 116.976 14.8076 116.976 18.6978C116.976 22.588 119.497 26.1254 124.393 26.1254C126.3 26.1655 128.149 25.4672 129.558 24.1751V19.424H123.649V18.288H130.73V24.6316C129.919 25.5019 128.937 26.1934 127.847 26.6622C126.756 27.131 125.579 27.3668 124.393 27.3547C118.712 27.3547 115.727 23.3556 115.727 18.6978C115.727 13.4435 119.254 9.99418 124.393 9.99418C126.695 9.9869 128.905 10.8973 130.539 12.5254L129.795 13.3449C128.341 11.9481 126.405 11.171 124.393 11.1768Z" fill="white"/>
<path d="M145.495 22.9669H135.46L133.631 27.1164H132.242L139.778 10.2383H141.198L148.743 27.1164H147.354L145.495 22.9669ZM140.48 11.4883L135.961 21.7843H144.989L140.48 11.4883Z" fill="white"/>
<path d="M162.637 24.8238V10.2383H163.907V27.1164H162.849L152.07 12.5776V27.1164H150.773V10.2383H151.806L162.637 24.8238Z" fill="white"/>
<path d="M60.4117 48.0463L53.1914 30.582H57.5194L62.3949 43.4248L67.2652 30.582H71.5932L64.3936 48.0463H60.4117Z" fill="white"/>
<path d="M77.7756 30.582H73.9434V47.9737H77.7756V30.582Z" fill="white"/>
<path d="M91.9741 47.9744L87.5479 42.2688H84.7538V47.9744H80.8906V30.6035H89.1077C93.2859 30.6035 95.5119 33.4096 95.5119 36.4647C95.5119 38.7262 94.794 40.7387 91.5041 41.9317L96.2556 47.6943V47.9952L91.9741 47.9744ZM84.7435 38.9803H89.1438C89.4729 39.0003 89.8025 38.952 90.1122 38.8384C90.4219 38.7249 90.705 38.5485 90.9439 38.3203C91.1827 38.0921 91.3722 37.8169 91.5006 37.512C91.629 37.207 91.6935 36.8788 91.69 36.5477C91.7005 36.2023 91.6412 35.8584 91.5157 35.5367C91.3902 35.2149 91.201 34.9221 90.9597 34.6759C90.7183 34.4296 90.4298 34.235 90.1115 34.1038C89.7932 33.9727 89.4517 33.9077 89.1077 33.9128H84.7538L84.7435 38.9803Z" fill="white"/>
<path d="M97.0664 34.0365V30.582H111.44V34.0365H106.172V47.9737H102.334V34.0365H97.0664Z" fill="white"/>
<path d="M129.567 40.3237C129.567 45.5884 126.55 48.3946 121.819 48.3946C117.445 48.3946 113.783 45.8374 113.783 40.3237V30.6035H117.615V40.3237C117.615 43.327 119.201 44.9193 121.871 44.9193C124.738 44.9193 125.729 42.9794 125.729 40.3237V30.6035H129.561L129.567 40.3237Z" fill="white"/>
<path d="M135.082 44.992L133.822 47.9744H129.664L137.432 30.6035H141.636L149.383 47.9952H145.205L143.939 45.0127L135.082 44.992ZM136.543 41.5634H142.504L139.534 34.5092L136.543 41.5634Z" fill="white"/>
<path d="M155.339 44.4207H164V47.9737H151.48V30.582H155.339V44.4207Z" fill="white"/>
</g>
<defs>
<clipPath id="clip0_1512_1926">
<rect width="164" height="63" fill="white"/>
</clipPath>
</defs>
</svg>