<svg xmlns:xlink="http://www.w3.org/1999/xlink" xmlns="http://www.w3.org/2000/svg" width="183" height="39" viewBox="0 0 183 39" fill="none">
<path d="M76.1053 7.79974V31.1997H72.0398V12.8372H71.9856L64.722 31.1997H62.0117L54.5854 12.8372H54.5312V31.1997H50.791V7.79974H56.6453L63.3668 25.1331H63.4753L70.5763 7.79974H76.1053V7.79974ZM79.4661 9.58724C79.4661 8.93724 79.6829 8.39557 80.1708 7.96224C80.6586 7.52891 81.2007 7.31224 81.8511 7.31224C82.5558 7.31224 83.1521 7.52891 83.5857 7.96224C84.0194 8.39557 84.2904 8.93724 84.2904 9.58724C84.2904 10.2372 84.0736 10.7789 83.5857 11.2122C83.0979 11.6456 82.5558 11.8622 81.8511 11.8622C81.1465 11.8622 80.6044 11.6456 80.1708 11.2122C79.7371 10.7247 79.4661 10.1831 79.4661 9.58724ZM83.8568 14.4081V31.1997H79.8997V14.4081H83.8568ZM95.8363 28.3289C96.4326 28.3289 97.0831 28.2206 97.7878 27.8956C98.4924 27.6247 99.1429 27.2456 99.7392 26.8122V30.4956C99.0887 30.8747 98.384 31.1456 97.5709 31.3081C96.7578 31.4706 95.8905 31.5789 94.9148 31.5789C92.4214 31.5789 90.4157 30.8206 88.8979 29.2497C87.326 27.6789 86.5671 25.6747 86.5671 23.2914C86.5671 20.5831 87.3802 18.3622 88.9522 16.6289C90.5241 14.8956 92.7466 14.0289 95.6737 14.0289C96.4326 14.0289 97.1915 14.1372 97.8962 14.2997C98.6551 14.4622 99.2513 14.7331 99.685 14.9497V18.7414C99.0887 18.3081 98.4382 17.9289 97.842 17.7122C97.1915 17.4956 96.541 17.3331 95.8905 17.3331C94.3186 17.3331 93.0718 17.8206 92.0961 18.8497C91.1204 19.8789 90.6868 21.2331 90.6868 22.9664C90.6868 24.6456 91.1746 25.9997 92.0961 26.9206C93.0176 27.8414 94.2644 28.3289 95.8363 28.3289ZM110.96 14.1372C111.285 14.1372 111.556 14.1372 111.827 14.1914C112.098 14.2456 112.315 14.2997 112.478 14.3539V18.3622C112.261 18.1997 111.99 18.0372 111.556 17.9289C111.122 17.8206 110.689 17.7122 110.093 17.7122C109.117 17.7122 108.304 18.1456 107.653 18.9581C107.003 19.7706 106.623 21.0164 106.623 22.7497V31.1997H102.666V14.4081H106.623V17.0622H106.678C107.057 16.1414 107.599 15.4372 108.304 14.8956C109.063 14.4081 109.93 14.1372 110.96 14.1372ZM112.694 23.0747C112.694 20.3122 113.508 18.0914 115.025 16.4664C116.597 14.8414 118.766 14.0289 121.53 14.0289C124.132 14.0289 126.192 14.7872 127.655 16.3581C129.119 17.9289 129.878 20.0414 129.878 22.6956C129.878 25.4039 129.065 27.5706 127.547 29.1956C125.975 30.8206 123.861 31.6331 121.151 31.6331C118.549 31.6331 116.489 30.8747 114.971 29.3581C113.453 27.7872 112.694 25.6747 112.694 23.0747ZM116.814 22.9122C116.814 24.6456 117.194 25.9997 118.007 26.9206C118.82 27.8414 119.958 28.3289 121.422 28.3289C122.831 28.3289 123.969 27.8956 124.728 26.9206C125.487 25.9997 125.867 24.6456 125.867 22.8039C125.867 21.0164 125.487 19.6622 124.728 18.6872C123.969 17.7664 122.831 17.2789 121.476 17.2789C120.012 17.2789 118.928 17.7664 118.115 18.7414C117.194 19.7706 116.814 21.1247 116.814 22.9122ZM135.786 18.8497C135.786 19.3914 135.949 19.8789 136.328 20.2039C136.708 20.5289 137.467 20.9081 138.713 21.3956C140.285 22.0456 141.424 22.7497 142.02 23.5081C142.67 24.3206 142.996 25.2414 142.996 26.3789C142.996 27.9497 142.399 29.1956 141.153 30.1706C139.96 31.1456 138.28 31.5789 136.22 31.5789C135.515 31.5789 134.756 31.4706 133.889 31.3081C133.022 31.1456 132.317 30.9289 131.721 30.6581V26.7581C132.425 27.2456 133.239 27.6789 134.052 27.9497C134.865 28.2206 135.624 28.3831 136.328 28.3831C137.196 28.3831 137.9 28.2747 138.28 28.0039C138.713 27.7331 138.93 27.3539 138.93 26.7581C138.93 26.2164 138.713 25.7831 138.28 25.3497C137.846 24.9706 136.979 24.5372 135.786 24.0497C134.323 23.4539 133.293 22.7497 132.697 21.9914C132.1 21.2331 131.775 20.2581 131.775 19.0664C131.775 17.5497 132.371 16.3039 133.564 15.3289C134.756 14.3539 136.328 13.8664 138.226 13.8664C138.822 13.8664 139.472 13.9206 140.177 14.0831C140.882 14.2456 141.532 14.4081 142.02 14.5706V18.4164C141.478 18.0914 140.882 17.7664 140.177 17.4956C139.472 17.2247 138.768 17.1164 138.117 17.1164C137.358 17.1164 136.762 17.2789 136.383 17.5497C136.003 17.9289 135.786 18.3081 135.786 18.8497ZM144.676 23.0747C144.676 20.3122 145.489 18.0914 147.007 16.4664C148.579 14.8414 150.747 14.0289 153.512 14.0289C156.114 14.0289 158.173 14.7872 159.637 16.3581C161.101 17.9289 161.859 20.0414 161.859 22.6956C161.859 25.4039 161.046 27.5706 159.529 29.1956C157.957 30.8206 155.843 31.6331 153.132 31.6331C150.53 31.6331 148.471 30.8747 146.953 29.3581C145.489 27.7872 144.676 25.6747 144.676 23.0747ZM148.796 22.9122C148.796 24.6456 149.175 25.9997 149.988 26.9206C150.801 27.8414 151.94 28.3289 153.403 28.3289C154.813 28.3289 155.951 27.8956 156.71 26.9206C157.469 25.9997 157.848 24.6456 157.848 22.8039C157.848 21.0164 157.469 19.6622 156.71 18.6872C155.951 17.7664 154.813 17.2789 153.457 17.2789C151.994 17.2789 150.91 17.7664 150.097 18.7414C149.229 19.7706 148.796 21.1247 148.796 22.9122ZM175.032 17.6581H169.123V31.1997H165.112V17.6581H162.293V14.4081H165.112V12.0789C165.112 10.3456 165.708 8.88307 166.846 7.74557C167.985 6.60807 169.448 6.06641 171.237 6.06641C171.725 6.06641 172.159 6.12057 172.538 6.12057C172.917 6.12057 173.243 6.22891 173.514 6.33724V9.74974C173.405 9.69557 173.134 9.58724 172.809 9.47891C172.484 9.37057 172.104 9.31641 171.671 9.31641C170.858 9.31641 170.207 9.58724 169.774 10.0747C169.34 10.5622 169.123 11.3747 169.123 12.3497V14.3539H175.032V10.5622L178.989 9.37057V14.3539H183V17.6039H178.989V25.4581C178.989 26.4872 179.205 27.1914 179.531 27.6247C179.91 28.0581 180.506 28.2747 181.319 28.2747C181.536 28.2747 181.807 28.2206 182.133 28.1122C182.458 28.0039 182.729 27.8956 182.946 27.7331V30.9831C182.675 31.1456 182.295 31.2539 181.699 31.3622C181.103 31.4706 180.561 31.5247 179.964 31.5247C178.284 31.5247 177.037 31.0914 176.224 30.2247C175.411 29.3581 174.977 28.0039 174.977 26.2164L175.032 17.6581Z" fill="white"/>
<path d="M18.5385 0H0V18.525H18.5385V0Z" fill="white"/>
<path d="M39.0287 0H20.4902V18.525H39.0287V0Z" fill="white"/>
<path d="M18.5385 20.4746H0V38.9996H18.5385V20.4746Z" fill="white"/>
<path d="M39.0287 20.4746H20.4902V38.9996H39.0287V20.4746Z" fill="white"/>
</svg>