<svg xmlns:xlink="http://www.w3.org/1999/xlink" xmlns="http://www.w3.org/2000/svg" width="232" height="56" viewBox="0 0 232 56" fill="none">
<g clip-path="url(#clip0_1512_2021)">
<path d="M231.8 28.4663L231.087 26.0238L230.419 23.7811C230.419 23.7811 228.303 16.9199 228.036 16.0095C227.702 14.8993 227.345 13.7669 227.034 12.6788L226.989 12.5012L231.666 6.88343L229.461 0L205.854 0.0222046L205.119 1.17684L204.829 0.0444092H181.066L180.487 1.35448L180.264 0.0444092L156.3 0.0666138L155.877 1.62094L155.721 0.0666138L131.534 0.0888184L131.312 2.64235L131.245 0.0888184L106.902 0.133228L106.813 2.46471L106.568 0.133228L82.4483 0.155432L82.2924 1.66535L81.8693 0.155432H70.2436L69.3083 6.61697L68.7737 5.28469L68.5288 5.26249L66.5021 0.155432L55.0101 0.177637L54.7874 1.42109L54.186 0.177637H42.8277L42.5382 1.33228L41.87 0.177637L30.6007 0.199841L29.2867 5.24029H26.2356L25.6565 7.43854L20.3337 0.199841L9.37621 0.222046L0 29.2435L9.95527 38.4362H20.8237L22.5385 31.9746L23.3849 32.9072H26.2801L31.113 38.4362H42.2709L42.4936 37.3925L43.2731 38.4362H54.5201L54.7206 37.3037L55.4332 38.4362H66.7916L67.6602 32.3743L70.5777 38.4362H82.0697L82.2033 37.0373L82.6933 38.4362H106.613L106.702 36.2379L106.969 38.4362H131.089L131.312 36.0159L131.401 38.4362H143.227L143.605 36.7486L143.717 38.4362H155.409L155.899 36.9707L156.033 38.4362H167.591L168.193 37.1483L168.371 38.4362H179.818L180.509 37.2593L180.709 38.4362H192.068L198.638 29.1102L198.326 27.6225H201.956L207.123 20.4948L211.533 38.414H222.668L231.978 29.1768L231.8 28.4663V28.4663ZM119.107 21.383L119.218 17.4306H130.599L130.688 16.1205L130.866 21.4052L119.107 21.383Z" fill="white"/>
<path d="M20.8458 6.79476L19.3314 12.0573H26.0573L27.4604 6.86138H30.5338L31.8478 1.79873H40.7118L34.4536 28.5775H24.8992L27.7722 17.2087H24.3201L22.828 22.7377H16.6366L18.1733 17.2087H14.699L11.3137 28.5775H1.9375L10.5565 1.82094H19.2423L17.8169 6.68374L20.8458 6.79476ZM52.9388 1.84314L47.6605 28.6441H38.1061L44.0748 1.86534L52.9388 1.84314ZM65.8561 19.9399L66.6579 14.4109L63.1836 14.3443L60.9119 28.5775H51.3352L56.3463 1.77653H65.2102L64.4307 6.72815L67.4819 6.81697L66.747 11.9906L70.1767 12.0351L71.6244 1.77653L80.5106 1.75432L77.3926 28.5553H67.816L69.0186 20.0287L65.8561 19.9399ZM104.118 23.0263L103.873 28.5553H81.0674L83.8959 1.75432L105.054 1.73212L104.853 6.4839H92.4035L92.0026 11.9684L104.608 11.9906L104.385 17.1643L91.5349 17.1865L91.1118 22.9819L104.118 23.0263ZM228.258 1.62109L229.773 6.37288H223.604L223.648 6.52831C223.893 7.57193 224.183 8.63775 224.472 9.70357C224.762 10.7916 225.096 11.8796 225.408 13.0121C225.742 14.1223 226.076 15.2769 226.432 16.4094C226.788 17.564 227.145 18.6964 227.479 19.8511C227.702 20.5616 227.902 21.25 228.125 21.9605C228.347 22.6711 228.57 23.4038 228.793 24.1143L229.461 26.3126C229.684 27.0454 229.884 27.7781 230.107 28.5109H220.463L214.406 6.37288H208.214L206.989 1.62109H228.258V1.62109ZM206.054 11.7908L207.368 17.1199H194.473L196.856 28.5109L187.235 28.5331L182.313 1.6655L203.56 1.6433L204.74 6.39508H192.223L193.359 11.7908H206.054ZM169.061 19.8733L170.242 28.5331H160.62L157.658 1.68771L178.883 1.6655L183.538 28.5331H173.916L172.669 19.8733H169.061V19.8733ZM175.297 9.32609L174.763 5.90658H170.553L170.932 9.03743L167.636 9.01522L167.213 5.92879H163.137L163.56 9.32609H167.302L167.48 10.5695H165.609L166.3 15.832H168.549L168.371 14.0557L171.712 14.0335L172.001 15.832H174.295L173.493 10.614H171.622L171.467 9.34829L175.297 9.32609V9.32609ZM152.38 14.633H155.543L156.946 28.5331H147.347L146.478 17.2087L142.915 17.1199L143.65 28.5331H134.051L133.049 1.70991L154.251 1.68771L155.253 11.6354H152.091L152.38 14.633V14.633ZM146.122 11.9684L145.699 6.43949H142.247L142.603 11.9684H146.122V11.9684ZM117.481 6.4617H129.775L129.641 1.70991L108.461 1.73212L107.548 28.5553H130.398L130.242 23.0263H117.191L117.481 6.4617Z" fill="#297E66"/>
<path d="M3.18448 28.5788C2.49407 28.5788 2.33817 28.9785 2.82814 29.4448L9.62088 35.9508C10.1109 36.4171 11.0908 36.8168 11.7812 36.8168H17.7722C18.4626 36.8168 18.6408 36.3949 18.1731 35.9064L12.1598 29.5114C11.6921 29.0007 10.7344 28.601 10.044 28.601L3.18448 28.5788V28.5788ZM26.1685 28.5788C25.478 28.5788 25.2776 29.0007 25.723 29.5336L31.0236 35.8397C31.469 36.3727 32.3821 36.7945 33.0726 36.7945H39.3531C40.0435 36.7945 40.2662 36.3505 39.8653 35.7953L35.2106 29.5558C34.7874 29.0007 33.8966 28.5566 33.2062 28.5566L26.1685 28.5788V28.5788Z" fill="white"/>
<path d="M17.884 22.7383C17.1935 22.7383 16.9931 23.1602 17.4608 23.6709L23.3627 30.3101C23.8304 30.8208 24.6544 31.2204 25.2112 31.1982C25.768 31.176 25.9016 30.6875 25.523 30.1324L25.1221 29.5551C24.7212 29 24.5431 28.0008 24.7435 27.3346L24.8549 26.9127C25.033 26.2466 24.8326 25.2696 24.4094 24.7367L23.6077 23.7375C23.1845 23.2046 22.2714 22.7605 21.581 22.7605L17.884 22.7383V22.7383ZM39.3535 28.6447C38.6631 28.6447 38.4404 29.0888 38.8412 29.6439L43.3846 35.7946C43.7855 36.3497 44.6986 36.7938 45.389 36.7938H51.5804C52.2708 36.7938 52.5381 36.3275 52.1595 35.728L48.3288 29.6883C47.9725 29.111 47.1039 28.6225 46.4135 28.6225L39.3535 28.6447V28.6447ZM52.5826 28.5781C51.8922 28.5781 51.625 29.0666 51.9813 29.6439L55.6561 35.6614C56.0124 36.2387 56.881 36.7272 57.5714 36.7272H63.6515C64.3419 36.7272 64.6537 36.2165 64.3419 35.5947L61.4466 29.6883C61.1348 29.0666 60.333 28.5559 59.6426 28.5559L52.5826 28.5781V28.5781ZM69.0634 28.5559C68.373 28.5559 68.0389 29.0666 68.3284 29.6883L71.0901 35.6614C71.3796 36.2831 72.1814 36.7938 72.8718 36.7938H79.1523C79.8427 36.7938 80.2213 36.2609 79.9763 35.6169L77.816 29.7105C77.571 29.0666 76.8138 28.5337 76.1234 28.5337L69.0634 28.5559V28.5559ZM82.3148 28.5559C81.6244 28.5559 81.2458 29.0888 81.4908 29.7327L83.5397 35.4393C83.7624 36.0832 84.5197 36.6162 85.2101 36.6162H103.784C104.475 36.6162 104.965 36.061 104.853 35.3727L104.052 29.7771C103.963 29.0888 103.317 28.5337 102.626 28.5337L82.3148 28.5559V28.5559ZM108.795 28.5559C108.105 28.5559 107.593 29.111 107.682 29.7993L108.305 35.5725C108.372 36.2609 108.996 36.816 109.686 36.816H128.171C128.862 36.816 129.485 36.2609 129.574 35.5725L130.265 29.7993C130.354 29.111 129.842 28.5559 129.151 28.5559H108.795ZM135.343 28.5337C134.652 28.5337 134.029 29.0888 133.94 29.7771L133.227 35.4615C133.138 36.1499 133.628 36.705 134.318 36.705H140.51C141.2 36.705 141.891 36.1499 142.046 35.4837L143.427 29.7327C143.583 29.0666 143.16 28.5115 142.47 28.5115L135.343 28.5337V28.5337ZM148.616 28.5337C147.926 28.5337 147.236 29.0888 147.08 29.7549L145.743 35.3949C145.588 36.061 146.011 36.6162 146.701 36.6162H152.893C153.583 36.6162 154.34 36.0832 154.563 35.4393L156.567 29.7105C156.79 29.0666 156.411 28.5337 155.721 28.5337H148.616V28.5337ZM161.89 28.5337C161.2 28.5337 160.443 29.0666 160.22 29.7105L158.149 35.5281C157.926 36.1721 158.304 36.705 158.973 36.705H165.142C165.832 36.705 166.634 36.1943 166.923 35.5725L169.685 29.6439C169.975 29.0222 169.663 28.5115 168.972 28.5115L161.89 28.5337V28.5337ZM175.186 28.5337C174.496 28.5337 173.694 29.0444 173.382 29.6661L170.487 35.5947C170.175 36.2165 170.509 36.7272 171.2 36.7272H177.569C178.26 36.7272 179.106 36.2387 179.44 35.6392L182.914 29.6217C183.271 29.0222 182.981 28.5337 182.291 28.5337H175.186V28.5337ZM188.482 28.5337C187.792 28.5337 186.923 29.0222 186.567 29.5995L182.87 35.6614C182.513 36.2387 182.781 36.7272 183.471 36.7272H189.752C190.442 36.7272 191.333 36.2609 191.734 35.7058L196.121 29.5551C196.522 29 196.277 28.5337 195.587 28.5337H188.482V28.5337ZM221.711 28.5115C221.02 28.5115 220.085 28.9334 219.617 29.4441L214.094 35.6836C213.626 36.1943 213.827 36.6162 214.517 36.6162H220.508C221.199 36.6162 222.156 36.2165 222.669 35.7502L229.216 29.3775C229.706 28.889 229.55 28.5115 228.86 28.5115H221.711V28.5115Z" fill="white"/>
<path d="M3.11766 28.4433C2.3159 28.4433 1.80366 28.5321 1.95956 28.6432C2.11546 28.7542 2.89495 28.843 3.69672 28.843H9.57634C10.3781 28.843 11.1576 28.732 11.3135 28.6209C11.4694 28.5099 10.9349 28.3989 10.1554 28.3989L3.11766 28.4433V28.4433ZM17.3936 22.5813C16.859 22.5813 16.525 22.6701 16.6141 22.7811C16.7254 22.8922 17.2377 22.981 17.7722 22.981H21.6919C22.2264 22.981 22.7387 22.87 22.85 22.7589C22.9614 22.6257 22.605 22.5369 22.0705 22.5369L17.3936 22.5813V22.5813ZM24.7431 17.0524C24.4536 17.0524 24.2531 17.1412 24.3199 17.2522C24.3867 17.3632 24.6763 17.452 24.9658 17.452H27.1484C27.4379 17.452 27.7274 17.341 27.7942 17.23C27.8611 17.0968 27.6606 17.0079 27.3711 17.0079L24.7431 17.0524V17.0524ZM15.0773 17.0524C14.7878 17.0524 14.5874 17.1412 14.6542 17.2522C14.721 17.3632 15.0105 17.452 15.3001 17.452H17.4826C17.7722 17.452 18.0617 17.341 18.1285 17.23C18.1953 17.0968 17.9949 17.0079 17.7054 17.0079L15.0773 17.0524V17.0524ZM63.6288 14.0325C63.3392 14.0325 63.1388 14.1213 63.2056 14.2324C63.2724 14.3434 63.5619 14.4322 63.8515 14.4322H66.034C66.3236 14.4322 66.6131 14.3212 66.6799 14.2102C66.7467 14.0769 66.5463 13.9881 66.2568 13.9881L63.6288 14.0325V14.0325ZM142.647 6.28312C142.358 6.28312 142.157 6.37194 142.224 6.48296C142.291 6.59398 142.58 6.6828 142.87 6.6828H145.053C145.342 6.6828 145.632 6.57178 145.698 6.46075C145.765 6.32753 145.565 6.23871 145.275 6.23871L142.647 6.28312V6.28312ZM143.249 17.0524C142.959 17.0524 142.759 17.1412 142.825 17.2522C142.892 17.3632 143.182 17.452 143.471 17.452H145.654C145.943 17.452 146.233 17.341 146.3 17.23C146.367 17.0968 146.166 17.0079 145.877 17.0079L143.249 17.0524V17.0524ZM169.596 19.7169C169.306 19.7169 169.106 19.8057 169.172 19.9167C169.239 20.0278 169.529 20.1166 169.818 20.1166H172.001C172.29 20.1166 172.58 20.0056 172.647 19.8945C172.714 19.7613 172.513 19.6725 172.224 19.6725L169.596 19.7169V19.7169ZM171.199 5.728C170.843 5.728 170.62 5.81682 170.687 5.92784C170.754 6.03887 171.088 6.12769 171.444 6.12769H174.005C174.339 6.12769 174.696 6.01666 174.762 5.90564C174.829 5.77241 174.607 5.68359 174.25 5.68359L171.199 5.728V5.728ZM163.738 5.728C163.382 5.728 163.159 5.81682 163.226 5.92784C163.293 6.03887 163.627 6.12769 163.983 6.12769H166.544C166.878 6.12769 167.235 6.01666 167.302 5.90564C167.368 5.77241 167.146 5.68359 166.789 5.68359L163.738 5.728V5.728ZM168.081 8.81444C167.792 8.81444 167.613 8.90326 167.68 9.01428C167.725 9.12531 168.014 9.21413 168.304 9.21413H170.397C170.687 9.21413 170.954 9.1031 170.999 8.99208C171.043 8.85885 170.865 8.77003 170.575 8.77003L168.081 8.81444ZM165.876 10.2577C165.72 10.2577 165.609 10.3466 165.653 10.4576C165.676 10.5686 165.832 10.6574 165.988 10.6574H167.146C167.302 10.6574 167.457 10.5464 167.48 10.4354C167.502 10.3022 167.413 10.2133 167.257 10.2133L165.876 10.2577ZM171.734 10.2577C171.578 10.2577 171.466 10.3466 171.511 10.4576C171.533 10.5686 171.689 10.6574 171.845 10.6574H173.003C173.159 10.6574 173.315 10.5464 173.337 10.4354C173.359 10.3022 173.27 10.2133 173.114 10.2133L171.734 10.2577ZM152.647 11.5678C152.38 11.5678 152.224 11.6566 152.268 11.7677C152.313 11.8787 152.58 11.9675 152.825 11.9675H154.741C155.008 11.9675 155.253 11.8565 155.297 11.7455C155.342 11.6122 155.186 11.5234 154.919 11.5234L152.647 11.5678V11.5678ZM66.279 19.9389C66.034 19.9389 65.8781 20.0278 65.9227 20.1388C65.9672 20.2498 66.2122 20.3386 66.4572 20.3386H68.2389C68.4839 20.3386 68.7066 20.2276 68.7734 20.1166C68.818 19.9834 68.6621 19.8945 68.4171 19.8945L66.279 19.9389V19.9389ZM26.0571 28.4433C25.2553 28.4433 24.7431 28.5321 24.899 28.6432C25.0549 28.7542 25.8344 28.843 26.6361 28.843H32.5158C33.3175 28.843 34.097 28.732 34.2529 28.6209C34.4088 28.4877 33.8743 28.3989 33.0948 28.3989L26.0571 28.4433V28.4433ZM39.2862 28.4433C38.4845 28.4433 37.9722 28.5321 38.1281 28.6432C38.284 28.7542 39.0635 28.843 39.8653 28.843H45.7672C46.5689 28.843 47.3484 28.732 47.5043 28.6209C47.6602 28.5099 47.1257 28.3989 46.3462 28.3989L39.2862 28.4433V28.4433ZM52.5154 28.4433C51.7136 28.4433 51.2014 28.5321 51.3573 28.6432C51.5132 28.7542 52.2927 28.843 53.0944 28.843H58.9963C59.7981 28.843 60.5776 28.732 60.7335 28.6209C60.8894 28.4877 60.3549 28.3989 59.5754 28.3989L52.5154 28.4433V28.4433ZM69.2188 28.4433C68.4171 28.4433 67.9048 28.5321 68.0607 28.6432C68.2166 28.7542 68.9961 28.843 69.7979 28.843H75.6998C76.5015 28.843 77.281 28.732 77.4369 28.6209C77.5928 28.5099 77.0583 28.3989 76.2788 28.3989L69.2188 28.4433V28.4433ZM93.0491 16.8303C91.9578 16.8303 91.2229 16.9191 91.4456 17.0301C91.6683 17.1412 92.7373 17.23 93.8286 17.23H101.98C103.071 17.23 104.162 17.119 104.363 17.0079C104.586 16.8747 103.851 16.7859 102.759 16.7859L93.0491 16.8303V16.8303ZM94.274 6.28312C93.2496 6.28312 92.5591 6.37194 92.7819 6.48296C92.9823 6.59398 93.9845 6.6828 95.009 6.6828H102.626C103.65 6.6828 104.652 6.57178 104.853 6.46075C105.053 6.32753 104.363 6.23871 103.338 6.23871L94.274 6.28312V6.28312ZM119.107 6.28312C118.082 6.28312 117.392 6.37194 117.614 6.48296C117.815 6.59398 118.817 6.6828 119.841 6.6828H127.458C128.483 6.6828 129.485 6.57178 129.685 6.46075C129.886 6.32753 129.195 6.23871 128.171 6.23871L119.107 6.28312V6.28312ZM208.971 6.28312C208.459 6.28312 208.103 6.37194 208.214 6.48296C208.325 6.59398 208.815 6.6828 209.35 6.6828H213.18C213.693 6.6828 214.205 6.57178 214.294 6.46075C214.405 6.32753 214.049 6.23871 213.537 6.23871L208.971 6.28312V6.28312ZM224.294 6.28312C223.782 6.28312 223.425 6.37194 223.537 6.48296C223.648 6.59398 224.138 6.6828 224.672 6.6828H228.503C229.015 6.6828 229.528 6.57178 229.617 6.46075C229.728 6.32753 229.372 6.23871 228.859 6.23871L224.294 6.28312V6.28312ZM193.938 6.28312C192.914 6.28312 192.223 6.37194 192.446 6.48296C192.646 6.59398 193.649 6.6828 194.673 6.6828H202.29C203.314 6.6828 204.316 6.57178 204.517 6.46075C204.717 6.32753 204.027 6.23871 203.002 6.23871L193.938 6.28312V6.28312ZM196.388 17.0524C195.363 17.0524 194.673 17.1412 194.896 17.2522C195.096 17.3632 196.098 17.452 197.123 17.452H204.74C205.764 17.452 206.766 17.341 206.967 17.23C207.167 17.0968 206.477 17.0079 205.452 17.0079L196.388 17.0524V17.0524ZM135.498 28.4433C134.696 28.4433 134.184 28.5321 134.34 28.6432C134.496 28.7542 135.275 28.843 136.077 28.843H141.979C142.781 28.843 143.56 28.732 143.716 28.6209C143.872 28.4877 143.338 28.3989 142.558 28.3989L135.498 28.4433V28.4433ZM148.616 28.4433C147.814 28.4433 147.302 28.5321 147.458 28.6432C147.614 28.7542 148.393 28.843 149.195 28.843H155.097C155.899 28.843 156.678 28.732 156.834 28.6209C156.99 28.4877 156.455 28.3989 155.676 28.3989L148.616 28.4433V28.4433ZM161.734 28.4433C160.932 28.4433 160.42 28.5321 160.576 28.6432C160.732 28.7542 161.511 28.843 162.313 28.843H168.215C169.016 28.843 169.796 28.732 169.952 28.6209C170.108 28.4877 169.573 28.3989 168.794 28.3989L161.734 28.4433V28.4433ZM175.275 28.4433C174.473 28.4433 173.961 28.5321 174.117 28.6432C174.272 28.7542 175.052 28.843 175.854 28.843H181.756C182.557 28.843 183.337 28.732 183.493 28.6209C183.649 28.4877 183.114 28.3989 182.335 28.3989L175.275 28.4433V28.4433ZM188.571 28.4433C187.769 28.4433 187.257 28.5321 187.413 28.6432C187.568 28.7542 188.348 28.843 189.15 28.843H195.052C195.853 28.843 196.633 28.732 196.789 28.6209C196.945 28.4877 196.41 28.3989 195.631 28.3989L188.571 28.4433V28.4433ZM221.844 28.4433C221.042 28.4433 220.53 28.5321 220.686 28.6432C220.842 28.7542 221.621 28.843 222.423 28.843H228.325C229.127 28.843 229.906 28.732 230.062 28.6209C230.218 28.4877 229.683 28.3989 228.904 28.3989L221.844 28.4433V28.4433ZM83.9624 28.4433C82.0248 28.4433 80.7554 28.5321 81.134 28.6432C81.5126 28.7542 83.4057 28.843 85.3433 28.843H99.7082C101.646 28.843 103.539 28.732 103.918 28.6209C104.296 28.5099 103.004 28.3989 101.067 28.3989L83.9624 28.4433V28.4433ZM110.421 28.4433C108.483 28.4433 107.214 28.5321 107.592 28.6432C107.971 28.7542 109.864 28.843 111.802 28.843H126.167C128.104 28.843 129.997 28.732 130.376 28.6209C130.754 28.5099 129.463 28.3989 127.525 28.3989L110.421 28.4433Z" fill="#297E66"/>
<path d="M181.645 56.0008C181.645 56.0008 182.135 56.0008 182.38 55.6455L186.01 49.6059L183.56 46.7637H47.5939L45.5449 49.517L49.0415 55.6455C49.3088 56.0008 49.7765 56.0008 49.7765 56.0008" fill="white"/>
<path d="M185.12 50.0055V49.9833C186.634 49.9833 186.166 48.4734 186.1 47.8517L182.135 30.6875H49.4875L45.5232 47.8517C45.4564 48.4734 44.9664 49.9611 46.5032 49.9611V50.0055H185.12V50.0055Z" fill="white"/>
<path d="M180.845 54.4017C180.845 54.4017 181.335 54.4017 181.58 54.0464L184.475 48.3398H47.1055L49.8003 54.0686C50.0676 54.4239 50.5352 54.4239 50.5352 54.4239" fill="white"/>
<path d="M183.516 48.673V48.7174C185.031 48.7174 184.563 47.3185 184.496 46.6968L180.933 32.0195H50.6901L47.1267 46.719C47.0599 47.3407 46.57 48.7174 48.1067 48.7174V48.673H183.516Z" fill="#297E66"/>
<path d="M48.7079 48.4077C48.0843 48.4299 47.6166 48.5409 47.6611 48.6519C47.7057 48.7852 48.2625 48.874 48.8861 48.874H182.492C183.115 48.874 183.672 48.763 183.716 48.6075C183.761 48.4521 183.293 48.3633 182.67 48.3633L48.7079 48.4077V48.4077Z" fill="#297E66"/>
<path d="M62.6948 36.9258H57.1492C57.0824 36.9258 57.0379 36.9258 56.971 36.948C56.9265 36.9702 56.882 36.9702 56.8374 37.0146C56.7929 37.0368 56.7706 37.0812 56.7483 37.1256C56.7261 37.17 56.7038 37.2144 56.7038 37.2589L55.2784 44.0535C55.2562 44.1201 55.2562 44.1645 55.2784 44.2089C55.2784 44.2533 55.3007 44.2755 55.323 44.3199C55.3452 44.3421 55.3898 44.3643 55.4343 44.3865C55.4789 44.4087 55.5457 44.4087 55.5902 44.4087H61.2694C61.3362 44.4087 61.403 44.4087 61.4476 44.3865L61.5812 44.3199C61.6257 44.2977 61.648 44.2533 61.6703 44.2089C61.6926 44.1645 61.7148 44.1201 61.7148 44.0535L61.9153 42.9876C61.9153 42.921 61.9375 42.8766 61.9153 42.8322C61.9153 42.7878 61.893 42.7656 61.8707 42.7212C61.8485 42.699 61.8039 42.6768 61.7594 42.6546C61.7148 42.6324 61.648 42.6324 61.6035 42.6324H57.9732C57.951 42.6324 57.951 42.6324 57.9287 42.6102L57.9064 42.588V42.5435L58.1069 41.4999C58.1069 41.4777 58.1069 41.4555 58.1291 41.4555C58.1514 41.4555 58.1514 41.4333 58.1514 41.4333C58.1737 41.4333 58.1737 41.4111 58.196 41.4111H61.2694C61.3362 41.4111 61.403 41.4111 61.4476 41.3889L61.5812 41.3223C61.6257 41.3001 61.648 41.2557 61.6703 41.2113C61.6926 41.1669 61.7148 41.1224 61.7148 41.0558L61.9153 40.0566C61.9153 39.99 61.9375 39.9456 61.9153 39.9012C61.9153 39.8568 61.893 39.8346 61.8707 39.7902C61.8485 39.768 61.8039 39.7458 61.7594 39.7236C61.7148 39.7014 61.648 39.7014 61.6035 39.7014H58.5523C58.53 39.7014 58.53 39.7014 58.5078 39.6791L58.4855 39.6569V39.6125L58.6637 38.7244C58.6637 38.7021 58.6637 38.6799 58.6859 38.6799C58.6859 38.6577 58.7082 38.6577 58.7082 38.6577C58.7305 38.6577 58.7305 38.6355 58.7527 38.6355H62.3384C62.4052 38.6355 62.4498 38.6355 62.5166 38.6133L62.6502 38.5467C62.6948 38.5245 62.717 38.4801 62.7393 38.4357C62.7616 38.3913 62.7838 38.3469 62.7838 38.3025L62.9843 37.2811C62.9843 37.2366 63.0066 37.17 62.9843 37.1478C62.9843 37.1034 62.962 37.0812 62.9397 37.0368C62.9175 37.0146 62.8729 36.9924 62.8284 36.9702C62.8061 36.9258 62.7616 36.9258 62.6948 36.9258V36.9258ZM65.835 42.6546H65.7905C65.7682 42.6546 65.7682 42.6546 65.7459 42.6324C65.7459 42.6324 65.7237 42.6102 65.7237 42.588V42.5435L66.3918 38.6799C66.3918 38.6577 66.3918 38.6355 66.4141 38.6355C66.4141 38.6133 66.4363 38.6133 66.4363 38.6133C66.4363 38.6133 66.4586 38.5911 66.4809 38.5911H68.3517C68.3962 38.5911 68.4408 38.6133 68.4853 38.6133C68.5298 38.6355 68.5521 38.6355 68.5967 38.6577C68.6412 38.6799 68.6635 38.7021 68.708 38.7466L68.9307 38.9686L69.0198 39.0574C69.0421 39.0796 69.0644 39.124 69.0644 39.1462C69.0644 39.1906 69.0866 39.2129 69.0866 39.2573C69.0866 39.3017 69.0866 39.3461 69.0644 39.3905L68.6635 41.7442C68.6635 41.7886 68.6412 41.8552 68.6189 41.8774C68.5967 41.9218 68.5967 41.9662 68.5744 41.9884C68.5521 42.0328 68.5298 42.055 68.4853 42.0772C68.463 42.0994 68.4185 42.1439 68.3739 42.1661L68.0844 42.3881C68.0399 42.4325 67.9953 42.4547 67.9508 42.4769L67.8172 42.5435C67.7726 42.5657 67.7281 42.5657 67.6835 42.5657H65.835V42.6546ZM69.1534 36.9258H64.7883C64.7214 36.9258 64.6769 36.9258 64.6101 36.948C64.5656 36.9702 64.521 36.9702 64.4765 37.0146C64.4319 37.0368 64.4097 37.0812 64.3874 37.1256C64.3651 37.17 64.3428 37.2144 64.3428 37.2589L63.0956 44.0535C63.0956 44.1201 63.0734 44.1645 63.0956 44.2089C63.0956 44.2533 63.1179 44.2755 63.1402 44.3199C63.1625 44.3421 63.207 44.3643 63.2515 44.3865C63.2961 44.4087 63.3629 44.4087 63.4297 44.4087H67.9285C68.0844 44.4087 68.218 44.4087 68.3294 44.3865C68.4408 44.3643 68.5521 44.3421 68.6635 44.2977C68.7748 44.2533 68.8639 44.2089 68.9753 44.1423C69.0866 44.0757 69.1757 44.009 69.3093 43.9202L70.2225 43.2097C70.3338 43.1209 70.4229 43.0542 70.512 42.9654C70.6011 42.8766 70.6456 42.81 70.7124 42.7212L70.8461 42.4547C70.8683 42.3659 70.9129 42.2549 70.9129 42.1217L71.3806 39.1684C71.4028 39.0574 71.4028 38.9464 71.4028 38.8576C71.4028 38.7688 71.3806 38.6799 71.3583 38.5911C71.336 38.5023 71.2915 38.4357 71.2469 38.3469C71.2024 38.2581 71.1356 38.1914 71.0465 38.1026L70.3561 37.4143C70.267 37.3255 70.2002 37.2588 70.1111 37.1922C70.022 37.1256 69.9552 37.0812 69.8438 37.059C69.7548 37.0146 69.6434 36.9924 69.532 36.9702C69.443 36.9258 69.3093 36.9258 69.1534 36.9258V36.9258ZM79.5764 36.9258H78.0397C77.9729 36.9258 77.9283 36.9258 77.8615 36.948C77.817 36.9702 77.7724 36.9702 77.7279 37.0146C77.6833 37.0368 77.6611 37.0812 77.6388 37.1256C77.6165 37.17 77.5943 37.2144 77.5943 37.2589L76.9929 41.7664C76.9929 41.8108 76.9707 41.8552 76.9707 41.8996C76.9484 41.944 76.9484 41.9884 76.9261 42.0106C76.9038 42.055 76.8816 42.0772 76.8593 42.0994C76.837 42.1217 76.7925 42.1661 76.7479 42.1883L76.4584 42.4103C76.4139 42.4547 76.3693 42.4769 76.3248 42.4991L76.1912 42.5657C76.1466 42.5879 76.1021 42.588 76.0575 42.588H75.2112C75.1667 42.588 75.1221 42.5657 75.0776 42.5657C75.0331 42.5435 75.0108 42.5435 74.9662 42.4991C74.9217 42.4769 74.8994 42.4547 74.8549 42.4103L74.6322 42.1883L74.5431 42.0994C74.5208 42.0772 74.4985 42.0328 74.4985 42.0106C74.4763 41.9662 74.4763 41.944 74.4763 41.8996V41.7664L75.1221 37.2589V37.1256C75.1221 37.0812 75.0999 37.059 75.0776 37.0146C75.0553 36.9924 75.0108 36.9702 74.9662 36.948C74.9217 36.9258 74.8549 36.9258 74.8103 36.9258H73.2736C73.2068 36.9258 73.1623 36.9258 73.0955 36.948C73.0509 36.9702 73.0064 36.9702 72.9618 37.0146C72.9173 37.0368 72.895 37.0812 72.8727 37.1256C72.8505 37.17 72.8282 37.2144 72.8282 37.2589L72.0932 42.0994C72.071 42.2105 72.071 42.3215 72.071 42.4325C72.071 42.5213 72.0932 42.6324 72.1155 42.699C72.1378 42.7878 72.1823 42.8766 72.2269 42.9432C72.2714 43.032 72.3382 43.0987 72.4273 43.1875L73.14 43.898C73.2291 43.9868 73.3182 44.0535 73.385 44.1201C73.4741 44.1867 73.5632 44.2311 73.6522 44.2755C73.7413 44.3199 73.8527 44.3421 73.964 44.3643C74.0754 44.3865 74.209 44.3865 74.3649 44.3865H76.3471C76.503 44.3865 76.6366 44.3865 76.7479 44.3643C76.8593 44.3421 76.9707 44.3199 77.082 44.2755C77.1934 44.2311 77.2825 44.1867 77.3938 44.1201C77.5052 44.0535 77.5943 43.9868 77.7056 43.898L78.5965 43.1875C78.7078 43.0987 78.7969 43.032 78.8637 42.9432C78.9305 42.8544 78.9973 42.7878 79.0419 42.699C79.0864 42.6102 79.131 42.5213 79.1532 42.4325C79.1755 42.3437 79.1978 42.2327 79.2201 42.0994L79.8437 37.2589V37.1256C79.8437 37.0812 79.8214 37.059 79.7768 37.0146C79.7546 36.9924 79.71 36.9702 79.6655 36.948C79.6878 36.9258 79.6432 36.9258 79.5764 36.9258V36.9258ZM86.8368 36.9258H83.6966C83.5407 36.9258 83.4293 36.9258 83.2957 36.948C83.1843 36.9702 83.073 36.9924 82.9616 37.0368C82.8503 37.0812 82.7612 37.1256 82.6721 37.17C82.583 37.2366 82.4717 37.3033 82.3603 37.3921L81.4917 38.0804C81.3804 38.1692 81.2913 38.2359 81.2245 38.3247C81.1577 38.4135 81.0908 38.4801 81.0463 38.5689C81.0018 38.6577 80.9572 38.7466 80.9349 38.8354C80.9127 38.9242 80.8904 39.0352 80.8681 39.1462L80.5118 42.0994C80.4895 42.2105 80.4895 42.3215 80.4895 42.4325C80.4895 42.5213 80.5118 42.6324 80.5341 42.699C80.5563 42.7878 80.6009 42.8766 80.6677 42.9432C80.7345 43.032 80.8013 43.0987 80.8904 43.1875L81.6254 43.898C81.7144 43.9868 81.8035 44.0535 81.8926 44.1201C81.9817 44.1867 82.0708 44.2311 82.1599 44.2755C82.249 44.3199 82.3603 44.3421 82.4717 44.3643C82.583 44.3865 82.7167 44.3865 82.8726 44.3865H86.1019C86.1687 44.3865 86.2355 44.3865 86.2801 44.3643L86.4137 44.2977C86.4582 44.2755 86.4805 44.2311 86.5028 44.1867C86.525 44.1423 86.525 44.0979 86.5473 44.0312L86.6587 42.9654V42.81C86.6364 42.7656 86.6364 42.7434 86.5919 42.699C86.5696 42.6768 86.525 42.6546 86.4805 42.6324C86.436 42.6102 86.3691 42.6102 86.3023 42.6102H83.5852C83.5407 42.6102 83.4961 42.5879 83.4516 42.5657C83.4071 42.5435 83.3848 42.5213 83.3402 42.4991C83.2957 42.4769 83.2734 42.4547 83.2289 42.4103L83.0284 42.2105L82.9394 42.1217C82.9171 42.0994 82.8948 42.055 82.8948 42.0328C82.8726 41.9884 82.8726 41.9662 82.8726 41.9218V41.7886L83.1398 39.4349C83.1398 39.3905 83.1621 39.3461 83.1621 39.3017C83.1843 39.2573 83.1843 39.2351 83.2066 39.1906C83.2289 39.1462 83.2512 39.124 83.2734 39.1018C83.2957 39.0796 83.3402 39.0352 83.3848 39.013L83.6298 38.8354C83.6743 38.791 83.7189 38.7688 83.7634 38.7466C83.8079 38.7244 83.8525 38.7021 83.8748 38.6799C83.897 38.6577 83.9638 38.6577 84.0084 38.6577H86.6587C86.7255 38.6577 86.77 38.6577 86.8368 38.6355L86.9705 38.5689C87.015 38.5467 87.0373 38.5023 87.0596 38.4579C87.0818 38.4135 87.0818 38.3691 87.1041 38.3247L87.2155 37.3033V37.17C87.1932 37.1256 87.1932 37.1034 87.1486 37.059C87.1264 37.0368 87.0818 37.0146 87.0373 36.9924C86.9705 36.9258 86.9037 36.9258 86.8368 36.9258V36.9258ZM90.712 41.1002H90.6675L90.6452 41.078V41.0558V41.0114L91.5584 38.5467C91.5584 38.5467 91.5584 38.5245 91.5806 38.5245L91.6029 38.5023H91.692C91.692 38.5023 91.7142 38.5023 91.7142 38.5245V38.5467L92.2042 41.0114V41.0558C92.2042 41.078 92.2042 41.078 92.1819 41.078L92.1597 41.1002H90.712ZM92.9837 36.9258H90.5561C90.4448 36.9258 90.3557 36.9258 90.2666 36.948C90.1775 36.9702 90.133 36.9924 90.0662 37.0146C90.0216 37.0368 89.9771 37.0812 89.9325 37.1478C89.888 37.1922 89.8657 37.2588 89.8212 37.3477L87.1486 43.9868C87.1264 44.0535 87.1264 44.0979 87.1264 44.1423C87.1264 44.1867 87.1264 44.2311 87.1709 44.2755C87.1932 44.3199 87.2377 44.3421 87.2823 44.3643C87.3268 44.3865 87.3936 44.3865 87.4827 44.3865H89.0417C89.1085 44.3865 89.1753 44.3865 89.2199 44.3643L89.3535 44.2977C89.398 44.2755 89.4203 44.2311 89.4649 44.1867C89.4871 44.1423 89.5317 44.0757 89.5539 43.9868L89.9771 42.8544C89.9771 42.8322 89.9994 42.81 89.9994 42.81C89.9994 42.7878 90.0216 42.7878 90.0216 42.7878C90.0439 42.7878 90.0439 42.7656 90.0662 42.7656H92.4715C92.4937 42.7656 92.4937 42.7656 92.516 42.7878L92.5383 42.81C92.5383 42.8322 92.5606 42.8322 92.5606 42.8544L92.7833 43.9868L92.8501 44.1867C92.8724 44.2311 92.8946 44.2755 92.9392 44.2977C92.9837 44.3199 93.006 44.3421 93.0728 44.3643C93.1396 44.3865 93.1842 44.3865 93.251 44.3865H94.81C94.899 44.3865 94.9436 44.3865 95.0104 44.3643C95.0549 44.3421 95.0995 44.3199 95.1218 44.2755C95.144 44.2311 95.1663 44.2089 95.1663 44.1423V43.9868L93.6519 37.3477C93.6296 37.2588 93.6073 37.2144 93.585 37.1478C93.5628 37.1034 93.5182 37.059 93.4737 37.0146C93.4291 36.9924 93.3623 36.9702 93.2955 36.948C93.1842 36.9258 93.0728 36.9258 92.9837 36.9258ZM102.828 36.9258H96.5471C96.4803 36.9258 96.4358 36.9258 96.369 36.948C96.3244 36.9702 96.2799 36.9702 96.2576 37.0146C96.2353 37.0368 96.1908 37.0812 96.1908 37.1256C96.1685 37.17 96.1685 37.2144 96.1685 37.2589L96.1017 38.2803C96.1017 38.3247 96.1017 38.3913 96.124 38.4135C96.1462 38.4579 96.1685 38.4801 96.1908 38.5245C96.213 38.5467 96.2576 38.5689 96.3021 38.5911C96.3467 38.6133 96.4135 38.6133 96.4803 38.6133H98.4179C98.4402 38.6133 98.4402 38.6133 98.4625 38.6355L98.4847 38.6577V38.7021L98.1507 44.0312C98.1507 44.0979 98.1507 44.1423 98.1729 44.1867C98.1952 44.2311 98.2175 44.2533 98.2397 44.2977C98.262 44.3199 98.3066 44.3421 98.3511 44.3643C98.3956 44.3865 98.4625 44.3865 98.5293 44.3865H100.111C100.177 44.3865 100.244 44.3865 100.289 44.3643L100.422 44.2977C100.467 44.2755 100.489 44.2311 100.489 44.1867C100.511 44.1423 100.511 44.0979 100.511 44.0312L100.801 38.7021V38.6577C100.801 38.6355 100.823 38.6355 100.823 38.6355C100.823 38.6355 100.845 38.6133 100.868 38.6133H102.828C102.894 38.6133 102.939 38.6133 103.006 38.5911C103.05 38.5689 103.095 38.5467 103.117 38.5245C103.139 38.5023 103.184 38.4579 103.184 38.4135C103.206 38.3691 103.206 38.3247 103.206 38.2803L103.251 37.2589C103.251 37.2144 103.251 37.1478 103.229 37.1256C103.206 37.0812 103.184 37.059 103.162 37.0146C103.139 36.9924 103.095 36.9702 103.05 36.948C102.939 36.9258 102.872 36.9258 102.828 36.9258V36.9258ZM106.257 36.9258H104.721C104.654 36.9258 104.609 36.9258 104.543 36.948C104.498 36.9702 104.453 36.9702 104.431 37.0146C104.409 37.0368 104.364 37.0812 104.364 37.1256C104.342 37.17 104.342 37.2144 104.342 37.2589L104.053 44.0535C104.053 44.1201 104.053 44.1645 104.075 44.2089C104.097 44.2533 104.119 44.2755 104.142 44.3199C104.164 44.3421 104.208 44.3643 104.253 44.3865C104.298 44.4087 104.364 44.4087 104.431 44.4087H106.012C106.079 44.4087 106.146 44.4087 106.191 44.3865C106.235 44.3643 106.28 44.3421 106.302 44.3199C106.324 44.2977 106.369 44.2533 106.369 44.2089C106.391 44.1645 106.391 44.1201 106.391 44.0535L106.614 37.2589C106.614 37.2144 106.614 37.1478 106.591 37.1256C106.569 37.0812 106.547 37.059 106.525 37.0146C106.502 36.9924 106.458 36.9702 106.413 36.948C106.391 36.9258 106.324 36.9258 106.257 36.9258V36.9258ZM111.179 42.6546H111.023C110.979 42.6546 110.934 42.6324 110.89 42.6324C110.845 42.6102 110.823 42.6102 110.778 42.5657C110.734 42.5435 110.712 42.5213 110.667 42.4769L110.422 42.2549L110.333 42.1661C110.311 42.1439 110.289 42.0994 110.266 42.0772C110.244 42.0328 110.244 42.0106 110.244 41.9662V41.833L110.289 39.4793C110.289 39.4349 110.289 39.3905 110.311 39.3461C110.311 39.3017 110.333 39.2795 110.355 39.2351C110.378 39.1906 110.4 39.1684 110.422 39.1462C110.444 39.124 110.489 39.0796 110.533 39.0574L110.801 38.8354C110.845 38.791 110.89 38.7688 110.912 38.7466C110.957 38.7244 110.979 38.7021 111.023 38.7021C111.068 38.6799 111.113 38.6799 111.157 38.6799H112.449C112.493 38.6799 112.538 38.7021 112.582 38.7021C112.627 38.7244 112.649 38.7244 112.694 38.7466C112.738 38.7688 112.761 38.791 112.805 38.8354L113.072 39.0574L113.162 39.1462C113.184 39.1684 113.206 39.2129 113.228 39.2351C113.251 39.2795 113.251 39.3017 113.251 39.3461V39.4793L113.228 41.833C113.228 41.8774 113.228 41.944 113.206 41.9662C113.206 42.0106 113.184 42.055 113.162 42.0772C113.139 42.1217 113.117 42.1439 113.095 42.1661C113.072 42.1883 113.028 42.2327 112.983 42.2549L112.716 42.4769C112.672 42.5213 112.627 42.5435 112.605 42.5657C112.56 42.5879 112.538 42.6102 112.493 42.6324C112.449 42.6546 112.404 42.6546 112.36 42.6546H111.179V42.6546ZM112.961 36.9258H110.578C110.422 36.9258 110.311 36.9258 110.177 36.948C110.066 36.9702 109.954 36.9924 109.865 37.0368C109.776 37.0812 109.665 37.1256 109.576 37.17C109.487 37.2366 109.398 37.3033 109.286 37.3921L108.485 38.0804C108.395 38.1692 108.306 38.2359 108.24 38.3247C108.173 38.4135 108.128 38.4801 108.084 38.5689C108.039 38.6577 108.017 38.7466 107.995 38.8354C107.972 38.9242 107.972 39.0352 107.95 39.1462L107.861 42.0994C107.861 42.2105 107.861 42.3215 107.883 42.4325C107.905 42.5213 107.928 42.6324 107.95 42.699C107.995 42.7878 108.039 42.8766 108.106 42.9432C108.173 43.032 108.24 43.0987 108.351 43.1875L109.153 43.898C109.242 43.9868 109.353 44.0535 109.442 44.1201C109.531 44.1867 109.62 44.2311 109.732 44.2755C109.821 44.3199 109.932 44.3421 110.066 44.3643C110.177 44.3865 110.311 44.3865 110.467 44.3865H112.917C113.072 44.3865 113.206 44.3865 113.317 44.3643C113.429 44.3421 113.54 44.3199 113.651 44.2755C113.741 44.2311 113.852 44.1867 113.941 44.1201C114.03 44.0535 114.119 43.9868 114.231 43.898L115.055 43.1875C115.144 43.0987 115.233 43.032 115.3 42.9432C115.366 42.8544 115.411 42.7878 115.455 42.699C115.5 42.6102 115.522 42.5213 115.545 42.4325C115.567 42.3437 115.567 42.2327 115.567 42.0994V39.1462C115.567 39.0352 115.567 38.9242 115.545 38.8354C115.522 38.7466 115.5 38.6577 115.455 38.5689C115.411 38.4801 115.366 38.4135 115.3 38.3247C115.233 38.2359 115.166 38.1692 115.055 38.0804L114.275 37.3921C114.186 37.3033 114.097 37.2366 114.008 37.17C113.919 37.1034 113.83 37.059 113.718 37.0368C113.629 36.9924 113.518 36.9702 113.406 36.948C113.228 36.9258 113.117 36.9258 112.961 36.9258V36.9258ZM123.54 36.9258H122.07C122.003 36.9258 121.936 36.9258 121.892 36.948C121.847 36.9702 121.803 36.9702 121.78 37.0146C121.758 37.0368 121.736 37.0812 121.714 37.1256C121.691 37.17 121.691 37.2144 121.691 37.2589L121.758 40.745V40.7672C121.758 40.7672 121.758 40.7894 121.736 40.7894C121.736 40.7894 121.714 40.7894 121.714 40.8116H121.691H121.669H121.647C121.647 40.8116 121.625 40.8116 121.625 40.7894C121.625 40.7672 121.625 40.7894 121.602 40.7672L119.264 37.2366C119.219 37.1922 119.197 37.1256 119.152 37.1034C119.108 37.059 119.063 37.0368 119.019 37.0146C118.974 36.9924 118.93 36.9702 118.863 36.9702C118.796 36.948 118.729 36.948 118.663 36.948H117.17C117.104 36.948 117.059 36.948 117.014 36.9702C116.97 36.9924 116.925 36.9924 116.903 37.0368C116.881 37.059 116.859 37.1034 116.836 37.1478C116.814 37.1922 116.814 37.2366 116.814 37.2811L116.836 44.0757C116.836 44.1423 116.836 44.1867 116.859 44.2311C116.881 44.2755 116.903 44.2977 116.925 44.3421C116.948 44.3643 116.992 44.3865 117.037 44.4087C117.081 44.4309 117.148 44.4309 117.215 44.4309H118.707C118.774 44.4309 118.841 44.4309 118.885 44.4087C118.93 44.3865 118.974 44.3643 118.997 44.3421C119.019 44.3199 119.041 44.2755 119.063 44.2311C119.086 44.1867 119.086 44.1423 119.086 44.0757L119.041 40.5007V40.4785C119.041 40.4785 119.041 40.4563 119.063 40.4563C119.086 40.4563 119.086 40.4563 119.086 40.4341H119.152C119.152 40.4341 119.175 40.4341 119.175 40.4563L119.197 40.4785L121.558 44.0979C121.602 44.1645 121.625 44.2089 121.669 44.2533C121.714 44.2977 121.758 44.3199 121.803 44.3421C121.847 44.3643 121.914 44.3865 121.959 44.3865C122.003 44.3865 122.092 44.4087 122.159 44.4087H123.674C123.74 44.4087 123.785 44.4087 123.852 44.3865C123.896 44.3643 123.941 44.3421 123.963 44.3199C123.985 44.2977 124.008 44.2533 124.03 44.2089C124.052 44.1645 124.052 44.1201 124.052 44.0535L123.874 37.2589C123.874 37.2144 123.874 37.1478 123.852 37.1256C123.829 37.0812 123.807 37.059 123.785 37.0146C123.763 36.9924 123.718 36.9702 123.674 36.948C123.651 36.9258 123.607 36.9258 123.54 36.9258ZM133.896 36.9258H128.351C128.284 36.9258 128.239 36.9258 128.195 36.948C128.15 36.9702 128.106 36.9702 128.083 37.0146C128.061 37.0368 128.039 37.0812 128.016 37.1256C127.994 37.17 127.994 37.2144 127.994 37.2589L128.284 44.0535C128.284 44.1201 128.306 44.1645 128.306 44.2089C128.328 44.2533 128.351 44.2755 128.373 44.3199C128.395 44.3421 128.44 44.3643 128.506 44.3865C128.551 44.4087 128.618 44.4087 128.685 44.4087H134.364C134.431 44.4087 134.475 44.4087 134.542 44.3865C134.609 44.3643 134.631 44.3421 134.653 44.3199C134.676 44.2977 134.698 44.2533 134.72 44.2089C134.742 44.1645 134.742 44.1201 134.742 44.0535L134.676 42.9876C134.676 42.921 134.653 42.8766 134.653 42.8322C134.631 42.7878 134.609 42.7656 134.564 42.7212C134.52 42.699 134.497 42.6768 134.431 42.6546C134.364 42.6324 134.319 42.6324 134.252 42.6324H130.6C130.578 42.6324 130.578 42.6324 130.555 42.6102L130.533 42.588V42.5435L130.489 41.4999V41.4555C130.489 41.4333 130.489 41.4333 130.511 41.4333C130.511 41.4333 130.533 41.4111 130.555 41.4111H133.629C133.696 41.4111 133.74 41.4111 133.807 41.3889C133.852 41.3667 133.896 41.3445 133.918 41.3223C133.941 41.3001 133.963 41.2557 133.985 41.2113C134.007 41.1669 134.007 41.1224 134.007 41.0558L133.941 40.0566C133.941 39.99 133.918 39.9456 133.918 39.9012C133.896 39.8568 133.874 39.8346 133.852 39.7902C133.829 39.768 133.785 39.7458 133.74 39.7236C133.696 39.7014 133.629 39.7014 133.562 39.7014H130.511C130.489 39.7014 130.489 39.7014 130.466 39.6791L130.444 39.6569V39.6125L130.399 38.7244V38.6799C130.399 38.6577 130.399 38.6577 130.422 38.6577C130.422 38.6577 130.444 38.6355 130.466 38.6355H134.03C134.097 38.6355 134.141 38.6355 134.186 38.6133C134.23 38.5911 134.275 38.5689 134.297 38.5467C134.319 38.5245 134.341 38.4801 134.364 38.4357C134.386 38.3913 134.386 38.3469 134.386 38.3025L134.319 37.2811C134.319 37.2366 134.297 37.17 134.297 37.1478C134.275 37.1034 134.252 37.0812 134.23 37.0368C134.208 37.0146 134.163 36.9924 134.119 36.9702C134.007 36.9258 133.963 36.9258 133.896 36.9258V36.9258ZM138.462 42.6546H138.395C138.373 42.6546 138.373 42.6546 138.35 42.6324C138.35 42.6324 138.328 42.6102 138.328 42.588V42.5435L138.039 38.6799V38.6355C138.039 38.6133 138.039 38.6133 138.061 38.6133C138.061 38.6133 138.083 38.5911 138.105 38.5911H139.954C139.998 38.5911 140.043 38.6133 140.087 38.6133C140.132 38.6355 140.177 38.6355 140.199 38.6577C140.243 38.6799 140.288 38.7021 140.31 38.7466L140.577 38.9686C140.622 39.013 140.667 39.0352 140.689 39.0574C140.711 39.0796 140.733 39.124 140.756 39.1462C140.778 39.1906 140.8 39.2129 140.8 39.2573C140.8 39.3017 140.822 39.3461 140.822 39.3905L141.023 41.7442V41.8774C141.023 41.9218 141.001 41.9662 141.001 41.9884C140.978 42.0328 140.978 42.055 140.934 42.0772C140.912 42.0994 140.889 42.1439 140.845 42.1661L140.6 42.3881C140.555 42.4325 140.533 42.4547 140.488 42.4769C140.444 42.4991 140.422 42.5213 140.377 42.5435C140.332 42.5657 140.288 42.5657 140.243 42.5657H138.462V42.6546ZM140.355 36.9258H135.99C135.923 36.9258 135.878 36.9258 135.834 36.948C135.789 36.9702 135.745 36.9702 135.722 37.0146C135.7 37.0368 135.678 37.0812 135.655 37.1256C135.633 37.17 135.633 37.2144 135.633 37.2589L136.101 44.0535C136.101 44.1201 136.123 44.1645 136.145 44.2089C136.168 44.2533 136.19 44.2755 136.235 44.3199C136.279 44.3421 136.301 44.3643 136.368 44.3865C136.413 44.4087 136.48 44.4087 136.546 44.4087H141.023C141.179 44.4087 141.312 44.4087 141.424 44.3865C141.535 44.3643 141.646 44.3421 141.736 44.2977C141.825 44.2533 141.914 44.2089 142.003 44.1423C142.092 44.0757 142.181 44.009 142.27 43.9202L143.005 43.2097C143.094 43.1209 143.161 43.0542 143.228 42.9654C143.295 42.8766 143.339 42.81 143.361 42.7212L143.428 42.4547V42.1217L143.139 39.1684C143.116 39.0574 143.116 38.9464 143.094 38.8576C143.072 38.7688 143.027 38.6799 142.983 38.5911C142.938 38.5023 142.871 38.4357 142.805 38.3469C142.738 38.2581 142.649 38.1914 142.537 38.1026L141.691 37.4143C141.58 37.3255 141.491 37.2588 141.402 37.1922C141.312 37.1256 141.201 37.0812 141.112 37.059C141.001 37.0146 140.912 36.9924 140.778 36.9702C140.644 36.9258 140.511 36.9258 140.355 36.9258V36.9258ZM146.212 36.9258H144.675C144.609 36.9258 144.564 36.9258 144.519 36.948C144.475 36.9702 144.43 36.9702 144.408 37.0146C144.386 37.0368 144.364 37.0812 144.341 37.1256C144.319 37.17 144.319 37.2144 144.341 37.2589L145.009 44.0535C145.009 44.1201 145.032 44.1645 145.054 44.2089C145.076 44.2533 145.099 44.2755 145.143 44.3199C145.188 44.3421 145.21 44.3643 145.277 44.3865C145.321 44.4087 145.388 44.4087 145.455 44.4087H147.036C147.103 44.4087 147.147 44.4087 147.214 44.3865C147.281 44.3643 147.303 44.3421 147.326 44.3199C147.348 44.2977 147.37 44.2533 147.392 44.2089C147.415 44.1645 147.415 44.1201 147.392 44.0535L146.658 37.2589C146.658 37.2144 146.635 37.1478 146.613 37.1256C146.591 37.0812 146.568 37.059 146.524 37.0146C146.479 36.9924 146.457 36.9702 146.39 36.948C146.346 36.9258 146.279 36.9258 146.212 36.9258ZM154.408 36.9258H148.127C148.061 36.9258 148.016 36.9258 147.972 36.948C147.927 36.9702 147.882 36.9702 147.86 37.0146C147.838 37.0368 147.816 37.0812 147.793 37.1256C147.793 37.17 147.771 37.2144 147.793 37.2589L147.905 38.2803C147.905 38.3247 147.927 38.3913 147.949 38.4135C147.972 38.4579 147.994 38.4801 148.038 38.5245C148.083 38.5467 148.105 38.5689 148.172 38.5911C148.217 38.6133 148.283 38.6133 148.35 38.6133H150.31C150.332 38.6133 150.332 38.6133 150.355 38.6355L150.377 38.6577C150.377 38.6799 150.377 38.6799 150.399 38.7021L151.045 44.0312C151.045 44.0979 151.067 44.1423 151.09 44.1867C151.112 44.2311 151.134 44.2533 151.179 44.2977C151.223 44.3199 151.245 44.3421 151.312 44.3643C151.357 44.3865 151.424 44.3865 151.49 44.3865H153.072C153.138 44.3865 153.183 44.3865 153.25 44.3643C153.294 44.3421 153.339 44.3199 153.361 44.2977C153.383 44.2755 153.406 44.2311 153.428 44.1867C153.428 44.1423 153.45 44.0979 153.428 44.0312L152.738 38.7021V38.6577C152.738 38.6355 152.738 38.6355 152.76 38.6355C152.76 38.6355 152.782 38.6133 152.804 38.6133H154.742C154.809 38.6133 154.853 38.6133 154.898 38.5911C154.942 38.5689 154.987 38.5467 155.009 38.5245C155.032 38.5023 155.054 38.4579 155.076 38.4135V38.2803L154.942 37.2589C154.942 37.2144 154.92 37.1478 154.898 37.1256C154.876 37.0812 154.853 37.059 154.809 37.0146C154.764 36.9924 154.742 36.9702 154.675 36.948C154.519 36.9258 154.475 36.9258 154.408 36.9258V36.9258ZM157.838 36.9258H156.301C156.234 36.9258 156.19 36.9258 156.145 36.948C156.101 36.9702 156.056 36.9702 156.034 37.0146C156.011 37.0368 155.989 37.0812 155.989 37.1256V37.2589L156.947 44.0535C156.947 44.1201 156.969 44.1645 156.991 44.2089C157.014 44.2533 157.036 44.2755 157.08 44.3199L157.214 44.3865C157.259 44.4087 157.325 44.4087 157.392 44.4087H158.974C159.04 44.4087 159.085 44.4087 159.152 44.3865C159.196 44.3643 159.241 44.3421 159.263 44.3199C159.285 44.2977 159.308 44.2533 159.33 44.2089V44.0535L158.328 37.2589C158.328 37.2144 158.305 37.1478 158.283 37.1256C158.261 37.0812 158.239 37.059 158.194 37.0146C158.15 36.9924 158.127 36.9702 158.06 36.948C157.971 36.9258 157.905 36.9258 157.838 36.9258V36.9258ZM163.829 42.6546H163.673C163.628 42.6546 163.584 42.6324 163.539 42.6324C163.495 42.6324 163.45 42.6102 163.406 42.5657C163.361 42.5435 163.316 42.5213 163.272 42.4769L162.982 42.2549C162.938 42.2105 162.893 42.1883 162.871 42.1661L162.782 42.0772C162.76 42.0328 162.737 42.0106 162.737 41.9662C162.715 41.9218 162.715 41.8774 162.715 41.833L162.337 39.4793C162.337 39.4349 162.314 39.3905 162.314 39.3461C162.314 39.3017 162.314 39.2795 162.337 39.2351C162.337 39.1906 162.359 39.1684 162.381 39.1462C162.403 39.124 162.426 39.0796 162.47 39.0574L162.693 38.8354C162.737 38.791 162.76 38.7688 162.804 38.7466C162.849 38.7244 162.871 38.7021 162.916 38.7021C162.96 38.6799 162.982 38.6799 163.049 38.6799H164.341C164.385 38.6799 164.43 38.7021 164.475 38.7021C164.519 38.7021 164.564 38.7244 164.608 38.7466C164.653 38.7688 164.697 38.791 164.742 38.8354L165.031 39.0574C165.076 39.1018 165.12 39.124 165.143 39.1462L165.232 39.2351C165.254 39.2795 165.276 39.3017 165.276 39.3461C165.299 39.3905 165.299 39.4349 165.321 39.4793L165.722 41.833C165.722 41.8774 165.744 41.944 165.744 41.9662C165.744 42.0106 165.744 42.055 165.722 42.0772C165.722 42.1217 165.699 42.1439 165.677 42.1661C165.655 42.1883 165.633 42.2327 165.588 42.2549L165.365 42.4769C165.321 42.5213 165.299 42.5435 165.254 42.5657C165.21 42.5879 165.187 42.6102 165.143 42.6324C165.098 42.6546 165.054 42.6546 165.009 42.6546H163.829ZM164.564 36.9258H162.181C162.025 36.9258 161.913 36.9258 161.802 36.948C161.691 36.9702 161.579 36.9924 161.49 37.0368L161.223 37.17C161.134 37.2366 161.067 37.3033 160.978 37.3921L160.288 38.0804C160.198 38.1692 160.132 38.2359 160.087 38.3247C160.043 38.4135 159.998 38.4801 159.976 38.5689C159.953 38.6577 159.931 38.7466 159.931 38.8354C159.931 38.9242 159.931 39.0352 159.953 39.1462L160.399 42.0994L160.466 42.4325C160.488 42.5213 160.533 42.6324 160.599 42.699C160.644 42.7878 160.711 42.8766 160.8 42.9432C160.889 43.032 160.978 43.0987 161.089 43.1875L162.002 43.898C162.114 43.9868 162.225 44.0535 162.314 44.1201C162.426 44.1867 162.515 44.2311 162.626 44.2755C162.737 44.3199 162.849 44.3421 162.96 44.3643C163.071 44.3865 163.205 44.3865 163.361 44.3865H165.811C165.967 44.3865 166.1 44.3865 166.212 44.3643C166.323 44.3421 166.434 44.3199 166.524 44.2755C166.613 44.2311 166.702 44.1867 166.791 44.1201C166.88 44.0535 166.947 43.9868 167.036 43.898L167.726 43.1875C167.815 43.0987 167.882 43.032 167.927 42.9432C167.971 42.8544 168.016 42.7878 168.038 42.699C168.06 42.6102 168.083 42.5213 168.083 42.4325C168.083 42.3437 168.06 42.2327 168.038 42.0994L167.503 39.1462C167.481 39.0352 167.459 38.9242 167.414 38.8354L167.281 38.5689C167.236 38.4801 167.169 38.4135 167.08 38.3247C166.991 38.2359 166.902 38.1692 166.791 38.0804L165.878 37.3921C165.766 37.3033 165.655 37.2366 165.566 37.17C165.454 37.1034 165.365 37.059 165.254 37.0368C165.143 36.9924 165.054 36.9702 164.92 36.948C164.831 36.9258 164.697 36.9258 164.564 36.9258V36.9258ZM175.12 36.9258H173.65C173.584 36.9258 173.539 36.9258 173.472 36.948C173.428 36.9702 173.383 36.9702 173.361 37.0146C173.339 37.0368 173.316 37.0812 173.316 37.1256V37.2589L174.029 40.745V40.7672C174.029 40.7672 174.029 40.7894 174.007 40.7894C174.007 40.7894 173.984 40.7894 173.984 40.8116C173.984 40.8338 173.962 40.8116 173.962 40.8116H173.94H173.918C173.918 40.8116 173.895 40.8116 173.895 40.7894C173.895 40.7672 173.873 40.7894 173.873 40.7672L170.889 37.2366C170.844 37.1922 170.8 37.1256 170.755 37.1034C170.711 37.059 170.666 37.0368 170.599 37.0146C170.555 36.9924 170.488 36.9702 170.443 36.9702C170.376 36.948 170.31 36.948 170.243 36.948H168.751C168.684 36.948 168.639 36.948 168.595 36.9702C168.55 36.9924 168.506 36.9924 168.483 37.0368C168.461 37.059 168.439 37.1034 168.439 37.1478V37.2811L169.686 44.0757C169.686 44.1423 169.708 44.1867 169.731 44.2311C169.753 44.2755 169.775 44.2977 169.82 44.3421L169.953 44.4087C169.998 44.4309 170.065 44.4309 170.131 44.4309H171.624C171.69 44.4309 171.757 44.4309 171.802 44.4087C171.846 44.3865 171.891 44.3643 171.913 44.3421C171.935 44.3199 171.958 44.2755 171.958 44.2311V44.0757L171.267 40.5007V40.4785C171.267 40.4785 171.267 40.4563 171.29 40.4563C171.312 40.4563 171.312 40.4563 171.312 40.4341C171.312 40.4119 171.334 40.4341 171.334 40.4341H171.379C171.379 40.4341 171.401 40.4341 171.401 40.4563C171.401 40.4563 171.423 40.4563 171.423 40.4785L174.452 44.0979C174.497 44.1645 174.541 44.2089 174.586 44.2533C174.63 44.2977 174.675 44.3199 174.742 44.3421C174.786 44.3643 174.853 44.3865 174.92 44.3865C174.987 44.4087 175.053 44.4087 175.12 44.4087H176.635C176.701 44.4087 176.746 44.4087 176.791 44.3865C176.835 44.3643 176.88 44.3421 176.902 44.3199C176.924 44.2977 176.946 44.2533 176.946 44.2089V44.0535L175.521 37.2589C175.499 37.2144 175.499 37.1478 175.477 37.1256C175.454 37.0812 175.432 37.059 175.387 37.0146L175.254 36.948C175.254 36.9258 175.187 36.9258 175.12 36.9258" fill="#297E66"/>
<path d="M62.6948 36.127H57.1492C57.0824 36.127 57.0379 36.127 56.971 36.1492C56.9265 36.1714 56.882 36.1714 56.8374 36.2158C56.7929 36.238 56.7706 36.2824 56.7483 36.3268C56.7261 36.3712 56.7038 36.4156 56.7038 36.46L55.2784 43.2546C55.2562 43.3213 55.2562 43.3657 55.2784 43.4101C55.2784 43.4545 55.3007 43.4767 55.323 43.5211C55.3452 43.5433 55.3898 43.5655 55.4343 43.5877C55.4789 43.6099 55.5457 43.6099 55.5902 43.6099H61.2694C61.3362 43.6099 61.403 43.6099 61.4476 43.5877L61.5812 43.5211C61.6257 43.4989 61.648 43.4545 61.6703 43.4101C61.6926 43.3657 61.7148 43.3213 61.7148 43.2546L61.9153 42.1888C61.9153 42.1222 61.9375 42.0778 61.9153 42.0334C61.9153 41.989 61.893 41.9668 61.8707 41.9224C61.8485 41.9002 61.8039 41.8779 61.7594 41.8557C61.7148 41.8335 61.648 41.8335 61.6035 41.8335H57.9732C57.951 41.8335 57.951 41.8335 57.9287 41.8113L57.9064 41.7891V41.7447L58.1069 40.7011C58.1069 40.6789 58.1069 40.6567 58.1291 40.6567C58.1514 40.6567 58.1514 40.6345 58.1514 40.6345C58.1737 40.6345 58.1737 40.6123 58.196 40.6123H61.2694C61.3362 40.6123 61.403 40.6123 61.4476 40.5901L61.5812 40.5235C61.6257 40.5013 61.648 40.4569 61.6703 40.4124C61.6926 40.368 61.7148 40.3236 61.7148 40.257L61.9153 39.2578C61.9153 39.1912 61.9375 39.1468 61.9153 39.1024C61.9153 39.058 61.893 39.0358 61.8707 38.9914C61.8485 38.9691 61.8039 38.9469 61.7594 38.9247C61.7148 38.9025 61.648 38.9025 61.6035 38.9025H58.5523C58.53 38.9025 58.53 38.9025 58.5078 38.8803L58.4855 38.8581V38.8137L58.6637 37.9255C58.6637 37.9033 58.6637 37.8811 58.6859 37.8811C58.6859 37.8589 58.7082 37.8589 58.7082 37.8589C58.7305 37.8589 58.7305 37.8367 58.7527 37.8367H62.3384C62.4052 37.8367 62.4498 37.8367 62.5166 37.8145L62.6502 37.7479C62.6948 37.7257 62.717 37.6813 62.7393 37.6369C62.7616 37.5925 62.7838 37.548 62.7838 37.5036L62.9843 36.4822C62.9843 36.4378 63.0066 36.3712 62.9843 36.349C62.9843 36.3046 62.962 36.2824 62.9397 36.238C62.9175 36.2158 62.8729 36.1936 62.8284 36.1714C62.7838 36.1492 62.7616 36.127 62.6948 36.127V36.127ZM65.835 41.8557H65.7905C65.7682 41.8557 65.7682 41.8557 65.7459 41.8335C65.7237 41.8113 65.7237 41.8113 65.7237 41.7891V41.7447L66.3918 37.8811C66.3918 37.8589 66.3918 37.8367 66.4141 37.8367C66.4141 37.8145 66.4363 37.8145 66.4363 37.8145C66.4363 37.8145 66.4586 37.7923 66.4809 37.7923H68.3517C68.3962 37.7923 68.4408 37.8145 68.4853 37.8145C68.5298 37.8367 68.5521 37.8367 68.5967 37.8589C68.6412 37.8811 68.6635 37.9033 68.708 37.9477L68.9307 38.1698L69.0198 38.2586C69.0421 38.2808 69.0644 38.3252 69.0644 38.3474C69.0644 38.3918 69.0866 38.414 69.0866 38.4584C69.0866 38.5028 69.0866 38.5473 69.0644 38.5917L68.6635 40.9454C68.6635 40.9898 68.6412 41.0564 68.6189 41.0786C68.5967 41.123 68.5967 41.1674 68.5744 41.1896C68.5521 41.234 68.5298 41.2562 68.4853 41.2784C68.463 41.3006 68.4185 41.345 68.3739 41.3672L68.0844 41.5893C68.0399 41.6337 67.9953 41.6559 67.9508 41.6781L67.8172 41.7447C67.7726 41.7669 67.7281 41.7669 67.6835 41.7669H65.835V41.8557ZM69.1534 36.127H64.7883C64.7214 36.127 64.6769 36.127 64.6101 36.1492C64.5656 36.1714 64.521 36.1714 64.4765 36.2158C64.4319 36.238 64.4097 36.2824 64.3874 36.3268C64.3651 36.3712 64.3428 36.4156 64.3428 36.46L63.0956 43.2546C63.0956 43.3213 63.0734 43.3657 63.0956 43.4101C63.0956 43.4545 63.1179 43.4767 63.1402 43.5211C63.1625 43.5433 63.207 43.5655 63.2515 43.5877C63.2961 43.6099 63.3629 43.6099 63.4297 43.6099H67.9285C68.0844 43.6099 68.218 43.6099 68.3294 43.5877C68.4408 43.5655 68.5521 43.5433 68.6635 43.4989C68.7748 43.4545 68.8639 43.4101 68.9753 43.3435C69.0866 43.2768 69.1757 43.2102 69.3093 43.1214L70.2225 42.4109C70.3338 42.322 70.4229 42.2554 70.512 42.1666C70.6011 42.0778 70.6456 42.0112 70.7124 41.9224L70.8461 41.6559C70.8683 41.5671 70.9129 41.4561 70.9129 41.3228L71.3806 38.3696C71.4028 38.2586 71.4028 38.1476 71.4028 38.0588C71.4028 37.9699 71.3806 37.8811 71.3583 37.7923C71.336 37.7035 71.2915 37.6369 71.2469 37.5481C71.2024 37.4592 71.1356 37.3926 71.0465 37.3038L70.3561 36.6155C70.267 36.5266 70.2002 36.46 70.1111 36.3934C70.022 36.3268 69.9552 36.2824 69.8438 36.2602C69.7548 36.2158 69.6434 36.1936 69.532 36.1714C69.443 36.127 69.3093 36.127 69.1534 36.127V36.127ZM79.5764 36.127H78.0397C77.9729 36.127 77.9283 36.127 77.8615 36.1492C77.7947 36.1714 77.7724 36.1714 77.7279 36.2158C77.6833 36.238 77.6611 36.2824 77.6388 36.3268C77.6165 36.3712 77.5943 36.4156 77.5943 36.46L76.9929 40.9676C76.9929 41.012 76.9707 41.0564 76.9707 41.1008C76.9484 41.1452 76.9484 41.1896 76.9261 41.2118C76.9038 41.2562 76.8816 41.2784 76.8593 41.3006C76.837 41.3228 76.7925 41.3672 76.7479 41.3894L76.4584 41.6115C76.4139 41.6559 76.3693 41.6781 76.3248 41.7003L76.1912 41.7669C76.1466 41.7891 76.1021 41.7891 76.0575 41.7891H75.2112C75.1667 41.7891 75.1221 41.7669 75.0776 41.7669C75.0331 41.7447 75.0108 41.7447 74.9662 41.7003C74.9217 41.6781 74.8994 41.6559 74.8549 41.6115L74.6322 41.3894L74.5431 41.3006C74.5208 41.2784 74.4985 41.234 74.4985 41.2118C74.4763 41.1674 74.4763 41.1452 74.4763 41.1008V40.9676L75.1221 36.46V36.3268C75.1221 36.2824 75.0999 36.2602 75.0776 36.2158C75.0553 36.1936 75.0108 36.1714 74.9662 36.1492C74.9217 36.127 74.8549 36.127 74.8103 36.127H73.2736C73.2068 36.127 73.1623 36.127 73.0955 36.1492C73.0509 36.1714 73.0064 36.1714 72.9618 36.2158C72.9173 36.238 72.895 36.2824 72.8727 36.3268C72.8505 36.3712 72.8282 36.4156 72.8282 36.46L72.0932 41.3006C72.071 41.4117 72.071 41.5227 72.071 41.6337C72.071 41.7225 72.0932 41.8335 72.1155 41.9002C72.1378 41.989 72.1823 42.0778 72.2269 42.1444C72.2714 42.2332 72.3382 42.2998 72.4273 42.3887L73.14 43.0992C73.2291 43.188 73.3182 43.2546 73.385 43.3213C73.4741 43.3879 73.5632 43.4323 73.6522 43.4767C73.7413 43.5211 73.8527 43.5433 73.964 43.5655C74.0754 43.5877 74.209 43.5877 74.3649 43.5877H76.3471C76.503 43.5877 76.6366 43.5877 76.7479 43.5655C76.8593 43.5433 76.9707 43.5211 77.082 43.4767C77.1934 43.4323 77.2825 43.3879 77.3938 43.3213C77.5052 43.2546 77.5943 43.188 77.7056 43.0992L78.5965 42.3887C78.7078 42.2998 78.7969 42.2332 78.8637 42.1444C78.9305 42.0556 78.9973 41.989 79.0419 41.9002C79.0864 41.8113 79.131 41.7225 79.1532 41.6337C79.1755 41.5449 79.1978 41.4339 79.2201 41.3006L79.8437 36.46V36.3268C79.8437 36.2824 79.8214 36.2602 79.7768 36.2158C79.7546 36.1936 79.71 36.1714 79.6655 36.1492C79.6209 36.127 79.6432 36.127 79.5764 36.127V36.127ZM86.8368 36.127H83.6966C83.5407 36.127 83.4293 36.127 83.2957 36.1492C83.1843 36.1714 83.073 36.1936 82.9616 36.238C82.8503 36.2824 82.7612 36.3268 82.6721 36.3712C82.583 36.4378 82.4717 36.5044 82.3603 36.5933L81.4917 37.2816C81.3804 37.3704 81.2913 37.437 81.2245 37.5258C81.1577 37.6147 81.0908 37.6813 81.0463 37.7701C81.0018 37.8589 80.9572 37.9477 80.9349 38.0366C80.9127 38.1254 80.8904 38.2364 80.8681 38.3474L80.5118 41.3006C80.4895 41.4117 80.4895 41.5227 80.4895 41.6337C80.4895 41.7225 80.5118 41.8335 80.5341 41.9002C80.5563 41.989 80.6009 42.0778 80.6677 42.1444C80.7345 42.2332 80.8013 42.2998 80.8904 42.3887L81.6254 43.0992C81.7144 43.188 81.8035 43.2546 81.8926 43.3213C81.9817 43.3879 82.0708 43.4323 82.1599 43.4767C82.249 43.5211 82.3603 43.5433 82.4717 43.5655C82.583 43.5877 82.7167 43.5877 82.8726 43.5877H86.1019C86.1687 43.5877 86.2355 43.5877 86.2801 43.5655L86.4137 43.4989C86.4582 43.4767 86.4805 43.4323 86.5028 43.3879C86.525 43.3435 86.525 43.299 86.5473 43.2324L86.6587 42.1666V42.0112C86.6364 41.9668 86.6364 41.9446 86.5919 41.9002C86.5696 41.8779 86.525 41.8557 86.4805 41.8335C86.436 41.8113 86.3691 41.8113 86.3023 41.8113H83.5852C83.5407 41.8113 83.4961 41.7891 83.4516 41.7669C83.4071 41.7447 83.3848 41.7225 83.3402 41.7003C83.2957 41.6781 83.2734 41.6559 83.2289 41.6115L83.0284 41.4117L82.9394 41.3228C82.9171 41.3006 82.8948 41.2562 82.8948 41.234C82.8726 41.1896 82.8726 41.1674 82.8726 41.123V40.9898L83.1398 38.6361C83.1398 38.5917 83.1621 38.5473 83.1621 38.5028C83.1843 38.4584 83.1843 38.4362 83.2066 38.3918C83.2289 38.3474 83.2512 38.3252 83.2734 38.303C83.2957 38.2808 83.3402 38.2364 83.3848 38.2142L83.6298 38.0366C83.6743 37.9921 83.7189 37.9699 83.7634 37.9477C83.8079 37.9255 83.8525 37.9033 83.8748 37.8811C83.897 37.8589 83.9638 37.8589 84.0084 37.8589H86.6587C86.7255 37.8589 86.77 37.8589 86.8368 37.8367L86.9705 37.7701C87.015 37.7479 87.0373 37.7035 87.0596 37.6591C87.0818 37.6147 87.0818 37.5703 87.1041 37.5258L87.2155 36.5044V36.3712C87.1932 36.3268 87.1932 36.3046 87.1486 36.2602C87.1264 36.238 87.0818 36.2158 87.0373 36.1936C86.9705 36.127 86.9037 36.127 86.8368 36.127V36.127ZM90.712 40.3236H90.6675L90.6452 40.3014V40.2792V40.2348L91.5584 37.7701C91.5584 37.7701 91.5584 37.7479 91.5806 37.7479L91.6029 37.7257H91.692C91.692 37.7257 91.7142 37.7257 91.7142 37.7479V37.7701L92.2042 40.2348V40.2792C92.2042 40.3014 92.2042 40.3014 92.1819 40.3014L92.1597 40.3236H90.712ZM92.9837 36.127H90.5561C90.4448 36.127 90.3557 36.127 90.2666 36.1492C90.1775 36.1714 90.133 36.1936 90.0662 36.2158C90.0216 36.238 89.9771 36.2824 89.9325 36.349C89.888 36.3934 89.8657 36.46 89.8212 36.5488L87.1486 43.188C87.1264 43.2546 87.1264 43.299 87.1264 43.3435C87.1264 43.3879 87.1264 43.4323 87.1709 43.4767C87.1932 43.5211 87.2377 43.5433 87.2823 43.5655C87.3268 43.5877 87.3936 43.5877 87.4827 43.5877H89.0417C89.1085 43.5877 89.1753 43.5877 89.2199 43.5655L89.3535 43.4989C89.398 43.4767 89.4203 43.4323 89.4649 43.3879C89.4871 43.3435 89.5317 43.2768 89.5539 43.188L89.9771 42.0556C89.9771 42.0334 89.9994 42.0112 89.9994 42.0112C89.9994 41.989 90.0216 41.989 90.0216 41.989C90.0439 41.989 90.0439 41.9668 90.0662 41.9668H92.4715C92.4937 41.9668 92.4937 41.9668 92.516 41.989L92.5383 42.0112C92.5383 42.0334 92.5606 42.0334 92.5606 42.0556L92.7833 43.188L92.8501 43.3879C92.8724 43.4323 92.8946 43.4767 92.9392 43.4989C92.9837 43.5211 93.006 43.5433 93.0728 43.5655C93.1396 43.5877 93.1842 43.5877 93.251 43.5877H94.81C94.899 43.5877 94.9436 43.5877 95.0104 43.5655C95.0549 43.5433 95.0995 43.5211 95.1218 43.4767C95.144 43.4323 95.1663 43.4101 95.1663 43.3435V43.188L93.6519 36.5488C93.6296 36.46 93.6073 36.4156 93.585 36.349C93.5628 36.3046 93.5182 36.2602 93.4737 36.2158C93.4291 36.1936 93.3623 36.1714 93.2955 36.1492C93.1842 36.127 93.0728 36.127 92.9837 36.127ZM102.828 36.127H96.5471C96.4803 36.127 96.4358 36.127 96.369 36.1492C96.3021 36.1714 96.2799 36.1714 96.2576 36.2158C96.2353 36.238 96.1908 36.2824 96.1908 36.3268C96.1685 36.3712 96.1685 36.4156 96.1685 36.46L96.1017 37.4814C96.1017 37.5258 96.1017 37.5925 96.124 37.6147C96.1462 37.6591 96.1685 37.6813 96.1908 37.7257C96.213 37.7479 96.2576 37.7701 96.3021 37.7923C96.3467 37.8145 96.4135 37.8145 96.4803 37.8145H98.4179C98.4402 37.8145 98.4402 37.8145 98.4625 37.8367L98.4847 37.8589V37.9033L98.1507 43.2324C98.1507 43.299 98.1507 43.3435 98.1729 43.3879C98.1952 43.4323 98.2175 43.4545 98.2397 43.4989C98.262 43.5211 98.3066 43.5433 98.3511 43.5655C98.3956 43.5877 98.4625 43.5877 98.5293 43.5877H100.111C100.177 43.5877 100.244 43.5877 100.289 43.5655L100.422 43.4989C100.467 43.4767 100.489 43.4323 100.489 43.3879C100.511 43.3435 100.511 43.299 100.511 43.2324L100.801 37.9033V37.8589C100.801 37.8367 100.823 37.8367 100.823 37.8367C100.823 37.8367 100.845 37.8145 100.868 37.8145H102.828C102.894 37.8145 102.939 37.8145 103.006 37.7923C103.05 37.7701 103.095 37.7479 103.117 37.7257C103.139 37.7035 103.184 37.6591 103.184 37.6147C103.206 37.5703 103.206 37.5258 103.206 37.4814L103.251 36.46C103.251 36.4156 103.251 36.349 103.229 36.3268C103.206 36.2824 103.184 36.2602 103.162 36.2158C103.139 36.1936 103.095 36.1714 103.05 36.1492C102.939 36.127 102.872 36.127 102.828 36.127V36.127ZM106.257 36.127H104.721C104.654 36.127 104.609 36.127 104.543 36.1492C104.498 36.1714 104.453 36.1714 104.431 36.2158C104.409 36.238 104.364 36.2824 104.364 36.3268C104.342 36.3712 104.342 36.4156 104.342 36.46L104.053 43.2546C104.053 43.3213 104.053 43.3657 104.075 43.4101C104.097 43.4545 104.119 43.4767 104.142 43.5211C104.164 43.5433 104.208 43.5655 104.253 43.5877C104.298 43.6099 104.364 43.6099 104.431 43.6099H106.012C106.079 43.6099 106.146 43.6099 106.191 43.5877C106.235 43.5655 106.28 43.5433 106.302 43.5211C106.324 43.4989 106.369 43.4545 106.369 43.4101C106.391 43.3657 106.391 43.3213 106.391 43.2546L106.614 36.46C106.614 36.4156 106.614 36.349 106.591 36.3268C106.569 36.2824 106.547 36.2602 106.525 36.2158C106.502 36.1936 106.458 36.1714 106.413 36.1492C106.391 36.127 106.324 36.127 106.257 36.127V36.127ZM111.179 41.8557H111.023C110.979 41.8557 110.934 41.8335 110.89 41.8335C110.845 41.8113 110.823 41.8113 110.778 41.7669C110.734 41.7447 110.712 41.7225 110.667 41.6781L110.422 41.4561L110.333 41.3672C110.311 41.345 110.289 41.3006 110.266 41.2784C110.244 41.234 110.244 41.2118 110.244 41.1674V41.0342L110.289 38.6805C110.289 38.6361 110.289 38.5917 110.311 38.5473C110.311 38.5028 110.333 38.4806 110.355 38.4362C110.378 38.3918 110.4 38.3696 110.422 38.3474C110.444 38.3252 110.489 38.2808 110.533 38.2586L110.801 38.0366C110.845 37.9921 110.89 37.9699 110.912 37.9477C110.957 37.9255 110.979 37.9033 111.023 37.9033C111.068 37.8811 111.113 37.8811 111.157 37.8811H112.449C112.493 37.8811 112.538 37.9033 112.582 37.9033C112.627 37.9255 112.649 37.9255 112.694 37.9477C112.738 37.9699 112.761 37.9921 112.805 38.0366L113.072 38.2586L113.162 38.3474C113.184 38.3696 113.206 38.414 113.228 38.4362C113.251 38.4806 113.251 38.5028 113.251 38.5473V38.6805L113.228 41.0342C113.228 41.0786 113.228 41.1452 113.206 41.1674C113.206 41.2118 113.184 41.2562 113.162 41.2784C113.139 41.3228 113.117 41.345 113.095 41.3672C113.072 41.3894 113.028 41.4339 112.983 41.4561L112.716 41.6781C112.672 41.7225 112.627 41.7447 112.605 41.7669C112.56 41.7891 112.538 41.8113 112.493 41.8335C112.449 41.8557 112.404 41.8557 112.36 41.8557H111.179V41.8557ZM112.961 36.127H110.578C110.422 36.127 110.311 36.127 110.177 36.1492C110.066 36.1714 109.954 36.1936 109.865 36.238C109.776 36.2824 109.665 36.3268 109.576 36.3712C109.487 36.4378 109.398 36.5044 109.286 36.5933L108.485 37.2816C108.395 37.3704 108.306 37.437 108.24 37.5258C108.173 37.6147 108.128 37.6813 108.084 37.7701C108.039 37.8589 108.017 37.9477 107.995 38.0366C107.972 38.1254 107.972 38.2364 107.95 38.3474L107.861 41.3006C107.861 41.4117 107.861 41.5227 107.883 41.6337C107.905 41.7225 107.928 41.8335 107.95 41.9002C107.995 41.989 108.039 42.0778 108.106 42.1444C108.173 42.2332 108.24 42.2998 108.351 42.3887L109.153 43.0992C109.242 43.188 109.353 43.2546 109.442 43.3213C109.531 43.3879 109.62 43.4323 109.732 43.4767C109.821 43.5211 109.932 43.5433 110.066 43.5655C110.177 43.5877 110.311 43.5877 110.467 43.5877H112.917C113.072 43.5877 113.206 43.5877 113.317 43.5655C113.429 43.5433 113.54 43.5211 113.651 43.4767C113.741 43.4323 113.852 43.3879 113.941 43.3213C114.03 43.2546 114.119 43.188 114.231 43.0992L115.055 42.3887C115.144 42.2998 115.233 42.2332 115.3 42.1444C115.366 42.0556 115.411 41.989 115.455 41.9002C115.5 41.8113 115.522 41.7225 115.545 41.6337C115.567 41.5449 115.567 41.4339 115.567 41.3006V38.3474C115.567 38.2364 115.567 38.1254 115.545 38.0366C115.522 37.9477 115.5 37.8589 115.455 37.7701C115.411 37.6813 115.366 37.6147 115.3 37.5258C115.233 37.437 115.166 37.3704 115.055 37.2816L114.275 36.5933C114.186 36.5044 114.097 36.4378 114.008 36.3712C113.919 36.3046 113.83 36.2602 113.718 36.238C113.629 36.1936 113.518 36.1714 113.406 36.1492C113.228 36.127 113.117 36.127 112.961 36.127V36.127ZM123.54 36.127H122.07C122.003 36.127 121.936 36.127 121.892 36.1492C121.847 36.1714 121.803 36.1714 121.78 36.2158C121.758 36.238 121.736 36.2824 121.714 36.3268C121.691 36.3712 121.691 36.4156 121.691 36.46L121.758 39.9461V39.9684C121.758 39.9684 121.758 39.9906 121.736 39.9906C121.736 39.9906 121.714 39.9906 121.714 40.0128H121.691H121.669H121.647C121.647 40.0128 121.625 40.0128 121.625 39.9906C121.625 39.9684 121.625 39.9906 121.602 39.9684L119.264 36.4378C119.219 36.3934 119.197 36.3268 119.152 36.3046C119.108 36.2602 119.063 36.238 119.019 36.2158C118.974 36.1936 118.93 36.1714 118.863 36.1714C118.796 36.1492 118.729 36.1492 118.663 36.1492H117.17C117.104 36.1492 117.059 36.1492 117.014 36.1714C116.97 36.1936 116.925 36.1936 116.903 36.238C116.881 36.2602 116.859 36.3046 116.836 36.349C116.814 36.3934 116.814 36.4378 116.814 36.4822L116.836 43.2768C116.836 43.3435 116.836 43.3879 116.859 43.4323C116.881 43.4767 116.903 43.4989 116.925 43.5433C116.948 43.5655 116.992 43.5877 117.037 43.6099C117.081 43.6321 117.148 43.6321 117.215 43.6321H118.707C118.774 43.6321 118.841 43.6321 118.885 43.6099C118.93 43.5877 118.974 43.5655 118.997 43.5433C119.019 43.5211 119.041 43.4767 119.063 43.4323C119.086 43.3879 119.086 43.3435 119.086 43.2768L119.041 39.7019V39.6797C119.041 39.6797 119.041 39.6575 119.063 39.6575C119.086 39.6575 119.086 39.6575 119.086 39.6353H119.152C119.152 39.6353 119.175 39.6353 119.175 39.6575L119.197 39.6797L121.558 43.299C121.602 43.3657 121.625 43.4101 121.669 43.4545C121.714 43.4989 121.758 43.5211 121.803 43.5433C121.847 43.5655 121.914 43.5877 121.959 43.5877C122.003 43.5877 122.092 43.6099 122.159 43.6099H123.674C123.74 43.6099 123.785 43.6099 123.852 43.5877C123.896 43.5655 123.941 43.5433 123.963 43.5211C123.985 43.4989 124.008 43.4545 124.03 43.4101C124.052 43.3657 124.052 43.3213 124.052 43.2546L123.874 36.46C123.874 36.4156 123.874 36.349 123.852 36.3268C123.829 36.2824 123.807 36.2602 123.785 36.2158C123.763 36.1936 123.718 36.1714 123.674 36.1492C123.629 36.127 123.607 36.127 123.54 36.127ZM133.896 36.127H128.351C128.284 36.127 128.239 36.127 128.195 36.1492C128.15 36.1714 128.106 36.1714 128.083 36.2158C128.061 36.238 128.039 36.2824 128.016 36.3268C127.994 36.3712 127.994 36.4156 127.994 36.46L128.284 43.2546C128.284 43.3213 128.306 43.3657 128.306 43.4101C128.328 43.4545 128.351 43.4767 128.373 43.5211C128.395 43.5433 128.44 43.5655 128.506 43.5877C128.551 43.6099 128.618 43.6099 128.685 43.6099H134.364C134.431 43.6099 134.475 43.6099 134.542 43.5877C134.609 43.5655 134.631 43.5433 134.653 43.5211C134.676 43.4989 134.698 43.4545 134.72 43.4101C134.742 43.3657 134.742 43.3213 134.742 43.2546L134.676 42.1888C134.676 42.1222 134.653 42.0778 134.653 42.0334C134.631 41.989 134.609 41.9668 134.564 41.9224C134.52 41.9002 134.497 41.8779 134.431 41.8557C134.364 41.8335 134.319 41.8335 134.252 41.8335H130.6C130.578 41.8335 130.578 41.8335 130.555 41.8113L130.533 41.7891V41.7447L130.489 40.7011V40.6567C130.489 40.6345 130.489 40.6345 130.511 40.6345C130.511 40.6345 130.533 40.6123 130.555 40.6123H133.629C133.696 40.6123 133.74 40.6123 133.807 40.5901C133.852 40.5679 133.896 40.5457 133.918 40.5235C133.941 40.5013 133.963 40.4569 133.985 40.4124C134.007 40.368 134.007 40.3236 134.007 40.257L133.941 39.2578C133.941 39.1912 133.918 39.1468 133.918 39.1024C133.896 39.058 133.874 39.0358 133.852 38.9914C133.829 38.9691 133.785 38.9469 133.74 38.9247C133.696 38.9025 133.629 38.9025 133.562 38.9025H130.511C130.489 38.9025 130.489 38.9025 130.466 38.8803L130.444 38.8581V38.8137L130.399 37.9255V37.8811C130.399 37.8589 130.399 37.8589 130.422 37.8589C130.422 37.8589 130.444 37.8367 130.466 37.8367H134.03C134.097 37.8367 134.141 37.8367 134.186 37.8145C134.23 37.7923 134.275 37.7701 134.297 37.7479C134.319 37.7257 134.341 37.6813 134.364 37.6369C134.386 37.5925 134.386 37.548 134.386 37.5036L134.319 36.4822C134.319 36.4378 134.297 36.3712 134.297 36.349C134.275 36.3046 134.252 36.2824 134.23 36.238C134.208 36.2158 134.163 36.1936 134.119 36.1714C134.007 36.127 133.963 36.127 133.896 36.127V36.127ZM138.462 41.8557H138.395C138.373 41.8557 138.373 41.8557 138.35 41.8335C138.328 41.8113 138.328 41.8113 138.328 41.7891V41.7447L138.039 37.8811V37.8367C138.039 37.8145 138.039 37.8145 138.061 37.8145C138.061 37.8145 138.083 37.7923 138.105 37.7923H139.954C139.998 37.7923 140.043 37.8145 140.087 37.8145C140.132 37.8367 140.177 37.8367 140.199 37.8589C140.243 37.8811 140.288 37.9033 140.31 37.9477L140.577 38.1698C140.622 38.2142 140.667 38.2364 140.689 38.2586C140.711 38.2808 140.733 38.3252 140.756 38.3474C140.778 38.3918 140.8 38.414 140.8 38.4584C140.8 38.5028 140.822 38.5473 140.822 38.5917L141.023 40.9454V41.0786C141.023 41.123 141.001 41.1674 141.001 41.1896C140.978 41.234 140.978 41.2562 140.934 41.2784C140.912 41.3006 140.889 41.345 140.845 41.3672L140.6 41.5893C140.555 41.6337 140.533 41.6559 140.488 41.6781C140.444 41.7003 140.422 41.7225 140.377 41.7447C140.332 41.7669 140.288 41.7669 140.243 41.7669H138.462V41.8557ZM140.355 36.127H135.99C135.923 36.127 135.878 36.127 135.834 36.1492C135.789 36.1714 135.745 36.1714 135.722 36.2158C135.7 36.238 135.678 36.2824 135.655 36.3268C135.633 36.3712 135.633 36.4156 135.633 36.46L136.101 43.2546C136.101 43.3213 136.123 43.3657 136.145 43.4101C136.168 43.4545 136.19 43.4767 136.235 43.5211C136.279 43.5433 136.301 43.5655 136.368 43.5877C136.413 43.6099 136.48 43.6099 136.546 43.6099H141.023C141.179 43.6099 141.312 43.6099 141.424 43.5877C141.535 43.5655 141.646 43.5433 141.736 43.4989C141.825 43.4545 141.914 43.4101 142.003 43.3435C142.092 43.2768 142.181 43.2102 142.27 43.1214L143.005 42.4109C143.094 42.322 143.161 42.2554 143.228 42.1666C143.295 42.0778 143.339 42.0112 143.361 41.9224L143.428 41.6559V41.3228L143.139 38.3696C143.116 38.2586 143.116 38.1476 143.094 38.0588C143.072 37.9699 143.027 37.8811 142.983 37.7923C142.938 37.7035 142.871 37.6369 142.805 37.5481C142.738 37.4592 142.649 37.3926 142.537 37.3038L141.691 36.6155C141.58 36.5266 141.491 36.46 141.402 36.3934C141.312 36.3268 141.201 36.2824 141.112 36.2602C141.001 36.2158 140.912 36.1936 140.778 36.1714C140.644 36.127 140.511 36.127 140.355 36.127V36.127ZM146.212 36.127H144.675C144.609 36.127 144.564 36.127 144.519 36.1492C144.475 36.1714 144.43 36.1714 144.408 36.2158C144.386 36.238 144.364 36.2824 144.341 36.3268C144.319 36.3712 144.319 36.4156 144.341 36.46L145.009 43.2546C145.009 43.3213 145.032 43.3657 145.054 43.4101C145.076 43.4545 145.099 43.4767 145.143 43.5211C145.188 43.5433 145.21 43.5655 145.277 43.5877C145.321 43.6099 145.388 43.6099 145.455 43.6099H147.036C147.103 43.6099 147.147 43.6099 147.214 43.5877C147.281 43.5655 147.303 43.5433 147.326 43.5211C147.348 43.4989 147.37 43.4545 147.392 43.4101C147.415 43.3657 147.415 43.3213 147.392 43.2546L146.658 36.46C146.658 36.4156 146.635 36.349 146.613 36.3268C146.591 36.2824 146.568 36.2602 146.524 36.2158C146.479 36.1936 146.457 36.1714 146.39 36.1492C146.323 36.127 146.279 36.127 146.212 36.127ZM154.408 36.127H148.127C148.061 36.127 148.016 36.127 147.972 36.1492C147.927 36.1714 147.882 36.1714 147.86 36.2158C147.838 36.238 147.816 36.2824 147.793 36.3268C147.793 36.3712 147.771 36.4156 147.793 36.46L147.905 37.4814C147.905 37.5258 147.927 37.5925 147.949 37.6147C147.972 37.6591 147.994 37.6813 148.038 37.7257C148.083 37.7479 148.105 37.7701 148.172 37.7923C148.217 37.8145 148.283 37.8145 148.35 37.8145H150.31C150.332 37.8145 150.332 37.8145 150.355 37.8367L150.377 37.8589C150.377 37.8811 150.377 37.8811 150.399 37.9033L151.045 43.2324C151.045 43.299 151.067 43.3435 151.09 43.3879C151.112 43.4323 151.134 43.4545 151.179 43.4989C151.223 43.5211 151.245 43.5433 151.312 43.5655C151.357 43.5877 151.424 43.5877 151.49 43.5877H153.072C153.138 43.5877 153.183 43.5877 153.25 43.5655C153.294 43.5433 153.339 43.5211 153.361 43.4989C153.383 43.4767 153.406 43.4323 153.428 43.3879C153.428 43.3435 153.45 43.299 153.428 43.2324L152.738 37.9033V37.8589C152.738 37.8367 152.738 37.8367 152.76 37.8367C152.76 37.8367 152.782 37.8145 152.804 37.8145H154.742C154.809 37.8145 154.853 37.8145 154.898 37.7923C154.942 37.7701 154.987 37.7479 155.009 37.7257C155.032 37.7035 155.054 37.6591 155.076 37.6147V37.4814L154.942 36.46C154.942 36.4156 154.92 36.349 154.898 36.3268C154.876 36.2824 154.853 36.2602 154.809 36.2158C154.764 36.1936 154.742 36.1714 154.675 36.1492C154.519 36.127 154.475 36.127 154.408 36.127V36.127ZM157.838 36.127H156.301C156.234 36.127 156.19 36.127 156.145 36.1492C156.101 36.1714 156.056 36.1714 156.034 36.2158C156.011 36.238 155.989 36.2824 155.989 36.3268V36.46L156.947 43.2546C156.947 43.3213 156.969 43.3657 156.991 43.4101C157.014 43.4545 157.036 43.4767 157.08 43.5211L157.214 43.5877C157.259 43.6099 157.325 43.6099 157.392 43.6099H158.974C159.04 43.6099 159.085 43.6099 159.152 43.5877C159.196 43.5655 159.241 43.5433 159.263 43.5211C159.285 43.4989 159.308 43.4545 159.33 43.4101V43.2546L158.328 36.46C158.328 36.4156 158.305 36.349 158.283 36.3268C158.261 36.2824 158.239 36.2602 158.194 36.2158C158.15 36.1936 158.127 36.1714 158.06 36.1492C157.994 36.127 157.905 36.127 157.838 36.127V36.127ZM163.829 41.8557H163.673C163.628 41.8557 163.584 41.8335 163.539 41.8335C163.495 41.8335 163.45 41.8113 163.406 41.7669C163.361 41.7447 163.316 41.7225 163.272 41.6781L162.982 41.4561C162.938 41.4117 162.893 41.3894 162.871 41.3672L162.782 41.2784C162.76 41.234 162.737 41.2118 162.737 41.1674C162.715 41.123 162.715 41.0786 162.715 41.0342L162.337 38.6805C162.337 38.6361 162.314 38.5917 162.314 38.5473C162.314 38.5028 162.314 38.4806 162.337 38.4362C162.337 38.3918 162.359 38.3696 162.381 38.3474C162.403 38.3252 162.426 38.2808 162.47 38.2586L162.693 38.0366C162.737 37.9921 162.76 37.9699 162.804 37.9477C162.849 37.9255 162.871 37.9033 162.916 37.9033C162.96 37.8811 162.982 37.8811 163.049 37.8811H164.341C164.385 37.8811 164.43 37.9033 164.475 37.9033C164.519 37.9033 164.564 37.9255 164.608 37.9477C164.653 37.9699 164.697 37.9921 164.742 38.0366L165.031 38.2586C165.076 38.303 165.12 38.3252 165.143 38.3474L165.232 38.4362C165.254 38.4806 165.276 38.5028 165.276 38.5473C165.299 38.5917 165.299 38.6361 165.321 38.6805L165.722 41.0342C165.722 41.0786 165.744 41.1452 165.744 41.1674C165.744 41.2118 165.744 41.2562 165.722 41.2784C165.722 41.3228 165.699 41.345 165.677 41.3672C165.655 41.3894 165.633 41.4339 165.588 41.4561L165.365 41.6781C165.321 41.7225 165.299 41.7447 165.254 41.7669C165.21 41.7891 165.187 41.8113 165.143 41.8335C165.098 41.8557 165.054 41.8557 165.009 41.8557H163.829ZM164.564 36.127H162.181C162.025 36.127 161.913 36.127 161.802 36.1492C161.691 36.1714 161.579 36.1936 161.49 36.238L161.223 36.3712C161.134 36.4378 161.067 36.5044 160.978 36.5933L160.288 37.2816C160.198 37.3704 160.132 37.437 160.087 37.5258C160.043 37.6147 159.998 37.6813 159.976 37.7701C159.953 37.8589 159.931 37.9477 159.931 38.0366C159.931 38.1254 159.931 38.2364 159.953 38.3474L160.399 41.3006L160.466 41.6337C160.488 41.7225 160.533 41.8335 160.599 41.9002C160.644 41.989 160.711 42.0778 160.8 42.1444C160.889 42.2332 160.978 42.2998 161.089 42.3887L162.002 43.0992C162.114 43.188 162.225 43.2546 162.314 43.3213C162.426 43.3879 162.515 43.4323 162.626 43.4767C162.737 43.5211 162.849 43.5433 162.96 43.5655C163.071 43.5877 163.205 43.5877 163.361 43.5877H165.811C165.967 43.5877 166.1 43.5877 166.212 43.5655C166.323 43.5433 166.434 43.5211 166.524 43.4767C166.613 43.4323 166.702 43.3879 166.791 43.3213C166.88 43.2546 166.947 43.188 167.036 43.0992L167.726 42.3887C167.815 42.2998 167.882 42.2332 167.927 42.1444C167.971 42.0556 168.016 41.989 168.038 41.9002C168.06 41.8113 168.083 41.7225 168.083 41.6337C168.083 41.5449 168.06 41.4339 168.038 41.3006L167.503 38.3474C167.481 38.2364 167.459 38.1254 167.414 38.0366L167.281 37.7701C167.236 37.6813 167.169 37.6147 167.08 37.5258C166.991 37.437 166.902 37.3704 166.791 37.2816L165.878 36.5933C165.766 36.5044 165.655 36.4378 165.566 36.3712C165.454 36.3046 165.365 36.2602 165.254 36.238C165.143 36.1936 165.054 36.1714 164.92 36.1492C164.831 36.127 164.697 36.127 164.564 36.127V36.127ZM175.12 36.127H173.65C173.584 36.127 173.539 36.127 173.472 36.1492C173.405 36.1714 173.383 36.1714 173.361 36.2158C173.339 36.238 173.316 36.2824 173.316 36.3268V36.46L174.029 39.9461V39.9684C174.029 39.9684 174.029 39.9906 174.007 39.9906C174.007 39.9906 173.984 39.9906 173.984 40.0128C173.984 40.035 173.962 40.0128 173.962 40.0128H173.94H173.918C173.918 40.0128 173.895 40.0128 173.895 39.9906C173.895 39.9684 173.873 39.9906 173.873 39.9684L170.889 36.4378C170.844 36.3934 170.8 36.3268 170.755 36.3046C170.711 36.2602 170.666 36.238 170.599 36.2158C170.555 36.1936 170.488 36.1714 170.443 36.1714C170.376 36.1492 170.31 36.1492 170.243 36.1492H168.751C168.684 36.1492 168.639 36.1492 168.595 36.1714C168.55 36.1936 168.506 36.1936 168.483 36.238C168.461 36.2602 168.439 36.3046 168.439 36.349V36.4822L169.686 43.2768C169.686 43.3435 169.708 43.3879 169.731 43.4323C169.753 43.4767 169.775 43.4989 169.82 43.5433L169.953 43.6099C169.998 43.6321 170.065 43.6321 170.131 43.6321H171.624C171.69 43.6321 171.757 43.6321 171.802 43.6099C171.846 43.5877 171.891 43.5655 171.913 43.5433C171.935 43.5211 171.958 43.4767 171.958 43.4323V43.2768L171.267 39.7019V39.6797C171.267 39.6797 171.267 39.6575 171.29 39.6575C171.29 39.6575 171.312 39.6575 171.312 39.6353H171.379C171.379 39.6353 171.401 39.6353 171.401 39.6575C171.401 39.6575 171.423 39.6575 171.423 39.6797L174.452 43.299C174.497 43.3657 174.541 43.4101 174.586 43.4545C174.63 43.4989 174.675 43.5211 174.742 43.5433C174.786 43.5655 174.853 43.5877 174.92 43.5877C174.987 43.6099 175.053 43.6099 175.12 43.6099H176.635C176.701 43.6099 176.746 43.6099 176.791 43.5877C176.835 43.5655 176.88 43.5433 176.902 43.5211C176.924 43.4989 176.946 43.4545 176.946 43.4101V43.2546L175.521 36.46C175.499 36.4156 175.499 36.349 175.477 36.3268C175.454 36.2824 175.432 36.2602 175.387 36.2158L175.254 36.1492C175.254 36.127 175.187 36.127 175.12 36.127" fill="white"/>
</g>
<defs>
<clipPath id="clip0_1512_2021">
<rect width="232" height="56" fill="white"/>
</clipPath>
</defs>
</svg>