<svg xmlns:xlink="http://www.w3.org/1999/xlink" xmlns="http://www.w3.org/2000/svg" width="191" height="97" viewBox="0 0 191 97" fill="none">
<path d="M99.8041 61.0231C99.2971 59.9458 98.5684 58.9953 97.6496 58.2349C97.2693 57.9497 96.8575 57.6962 96.4139 57.4745C95.2733 56.8725 94.0376 56.4606 92.7386 56.2071C91.9781 56.0487 91.1861 55.9536 90.4256 55.9536C89.9821 53.7041 89.4118 51.4862 88.7147 49.3C88.2078 47.5574 87.3523 45.4029 85.7048 41.0622C84.8493 38.8127 83.8671 36.6265 82.7582 34.5037C81.0155 30.7967 78.7977 27.3115 76.1679 24.1431C74.1718 21.8618 71.9856 19.8024 69.6094 17.933L68.8173 17.2994C67.9618 16.6974 67.0747 16.1271 66.1875 15.6201C64.9202 14.9548 60.6428 13.3389 59.8191 12.9904C60.1042 12.4517 61.3399 10.2972 62.2904 8.55464C62.5439 8.11106 62.829 7.66749 63.1142 7.2556C63.7162 6.43182 64.2231 5.57635 64.6667 4.65752C65.1736 3.42185 65.3954 1.71093 64.7301 0.823779C64.3182 0.316838 63.7162 0 63.0508 0C61.8468 0.0316838 60.7062 0.601993 59.9458 1.55251C58.2982 3.29512 56.8408 5.22783 55.6051 7.28728L53.2288 11.0893C52.6585 10.9626 49.4901 10.2022 45.9415 9.69525H45.8148C43.0266 9.28336 37.1651 8.39621 34.8522 9.37841C33.87 9.66357 33.0462 10.3923 32.6977 11.3745C32.5393 11.9448 32.666 12.5468 33.0145 12.9904C33.6482 13.8775 34.9156 14.0043 37.0067 13.9092H37.482C39.6998 13.7825 41.9177 13.8141 44.1039 14.0043C46.4485 14.2894 48.7931 14.7013 51.106 15.2399L50.6941 15.6835C45.6564 14.7647 40.4919 14.9865 35.5493 16.3172C30.7333 17.7746 26.2342 20.0242 22.1787 23.0341L21.6401 23.4143C19.3588 24.9985 16.032 29.2125 13.6874 33.3948C12.9587 34.6938 12.3567 36.2463 12.0715 36.8483C11.3428 38.4958 10.8359 39.8266 10.6774 40.2068C9.56851 43.6603 8.90315 47.2089 8.68137 50.8209C5.44962 50.409 4.59415 51.2961 3.04165 52.6585L2.72481 52.9437C0.221786 55.1615 0 59.0903 0 60.2626C0.190103 63.4944 1.33072 66.5994 3.23175 69.1975C4.87931 71.5738 7.28728 73.2847 10.0438 74.0768C10.8042 74.2352 11.5646 74.3303 12.3567 74.3303C15.937 81.4274 20.7212 84.976 24.2381 87.986C27.7867 90.9959 36.1196 96.0337 40.9355 96.6357C45.8782 97.1743 50.8525 97.1109 55.7952 96.4772C69.0391 94.7346 74.1718 91.8197 76.8966 89.9821C78.3224 88.9682 79.6531 87.7959 80.8254 86.4968C84.5324 82.3779 87.4157 77.5937 89.4118 72.4292C91.9781 72.6827 94.8931 73.0312 97.0792 71.4153C98.0614 70.6866 98.8852 69.7678 99.4872 68.7539C100.406 67.043 100.691 65.0152 100.279 63.1142C100.279 62.3854 100.089 61.6884 99.8041 61.0231ZM90.8058 59.9458C91.0593 59.9458 91.3445 59.9458 91.5979 59.9458C92.8019 59.9141 93.9742 60.2626 94.9247 60.9597C95.3683 61.2765 95.6852 61.6884 95.8753 62.1953C95.9703 62.5122 96.0337 62.829 96.0654 63.1459C96.097 63.5578 96.097 63.9696 96.0654 64.3815V64.5716C96.002 65.5855 95.6852 66.536 95.1149 67.3915C94.703 68.0569 94.0376 68.7539 92.0732 69.0391C91.4078 69.0707 90.7108 69.0707 90.0771 68.9757C90.4573 67.2964 90.6791 65.5855 90.8058 63.8429C90.8692 62.5122 90.8692 61.2131 90.8058 59.9458ZM18.3449 71.5104C18.4083 70.9718 18.2816 70.4331 17.933 70.0213C17.2043 69.5777 16.3172 69.4193 15.4617 69.5777C14.9548 67.6767 14.5112 65.7439 14.1944 63.7795C13.7825 61.4033 13.529 59.027 13.4023 56.6507C13.7825 56.7457 14.131 56.9041 14.4795 57.0942C14.7647 57.2527 14.8914 57.3794 15.2716 57.6329C15.6201 57.8863 15.9686 58.1081 16.3489 58.2982C16.634 58.4567 16.9508 58.52 17.2677 58.4883C17.4895 58.4567 17.7113 58.3616 17.8697 58.2032C17.9647 58.1081 18.0281 58.0131 18.0915 57.8863C18.3133 56.9041 18.0598 55.8903 17.4578 55.1299C16.5706 53.7041 15.335 52.5318 13.8458 51.708C14.131 48.6664 14.733 45.6564 15.6518 42.7098C15.6518 42.7098 16.4122 40.3018 17.8063 37.0067C18.2499 35.9928 18.7251 35.1057 18.7251 35.1057C18.9152 34.7572 19.0737 34.4403 19.2638 34.1235C19.4539 33.775 19.6757 33.4264 19.9291 33.0462C20.4994 32.1591 21.1331 31.3036 21.8302 30.4798C22.7807 29.3392 23.8262 28.262 24.9035 27.2481L27.058 25.6322C29.7511 23.6678 32.7294 22.1153 35.8978 21.0381C38.5909 20.2143 41.3474 19.6757 44.1673 19.4539C44.991 19.4222 45.8148 19.4222 46.6069 19.4539C47.3356 19.4856 48.0644 19.5489 48.7614 19.6757L48.5396 20.1192C48.4129 20.341 48.3178 20.5945 48.2228 20.8163L48.0644 21.1331C47.4941 22.3054 45.7514 26.3293 46.9237 28.357C46.9237 28.4204 47.7475 29.7511 50.504 28.4521C50.504 28.4521 51.8981 27.8184 53.2922 25.1253C53.2922 25.1253 54.6863 22.0836 55.3833 20.7846C56.0487 19.5172 56.6824 18.3449 56.7141 18.3449L57.2844 17.4578C58.3933 17.7113 59.4705 18.0598 60.5161 18.44C63.5894 19.6123 66.4093 21.3549 68.8173 23.5728C71.1619 25.6639 73.2213 28.0719 74.9639 30.6699C77.7521 34.7572 79.3046 38.6226 81.4591 43.8504C82.1562 45.5613 82.5364 46.7653 82.6948 47.0822C83.8037 50.1555 84.7226 53.2605 85.4513 56.4606L83.8671 57.1259C83.075 57.4745 82.6948 57.6329 82.3146 57.823C81.6492 58.2032 80.9839 58.6468 80.4136 59.1854L80.3502 59.2488C79.8749 59.8507 79.8749 60.6745 80.3502 61.2765C80.5403 61.5617 80.8571 61.7518 81.174 61.8785C81.7126 62.0686 82.1878 61.8785 83.1384 61.53C83.5502 61.3716 83.9621 61.1815 84.374 60.9914C84.5324 60.928 84.6909 60.8646 84.8493 60.8329C85.2612 60.7062 85.6097 60.6112 85.8948 60.5478C86.1483 62.9241 85.9582 65.332 85.3879 67.645C84.8493 67.4865 84.3107 67.3598 83.772 67.2648C83.17 67.138 82.568 67.3598 82.1562 67.8034C81.8076 68.342 81.7126 68.9757 81.8393 69.6094C82.3463 71.2569 84.1839 71.2252 84.5324 71.3203L84.7542 71.4153C83.6453 74.4253 82.0611 77.2769 80.065 79.8432C77.8155 82.7582 75.0907 85.2295 71.9856 87.1939C70.6549 87.9543 69.2608 88.588 67.8351 89.0949C66.9162 89.4118 65.9657 89.6969 65.8073 89.7603C65.6172 89.8236 64.8568 90.0137 63.8429 90.2672C62.829 90.5207 61.625 90.7742 60.3577 90.9959C58.3616 91.3762 56.6507 91.5979 55.4784 91.7247C54.3061 91.8514 52.405 92.0732 50.2505 92.1683C48.1277 92.2316 46.0366 92.1683 43.9138 91.9781C36.5631 91.1861 30.5432 86.6553 26.0758 83.17C24.2064 81.776 22.4955 80.1918 20.943 78.4175C19.6757 76.96 18.5667 75.4075 17.6162 73.7283C18.0598 73.0629 18.3449 72.3025 18.3449 71.5104ZM10.3923 69.1975C9.63188 69.1024 8.93484 68.849 8.33284 68.4054L8.14274 68.3103C7.88927 68.1836 7.6358 68.0252 7.41401 67.8668C6.55855 67.2014 5.86151 66.3142 5.41793 65.332C4.62584 63.8429 4.24563 62.1637 4.37237 60.4527C4.43573 59.4072 4.81594 58.3933 5.44962 57.5378C5.70309 57.221 5.98824 56.9675 6.30508 56.7141C6.90707 56.2705 7.60412 56.0487 8.36453 56.0487H8.52295C8.618 58.3299 8.8081 60.5795 9.15662 62.829C9.44178 64.9835 9.85367 67.1063 10.3923 69.1975Z" fill="white"/>
<path d="M59.7863 73.9815C58.9942 75.439 58.3289 76.9598 57.7269 78.544C56.4912 82.2827 57.0615 84.3105 60.1032 86.3699C62.0992 87.8274 64.8557 87.6373 66.5984 85.8947C67.232 85.0709 68.341 84.5322 68.341 80.952C67.8657 78.6391 66.8835 76.4529 65.4577 74.5518C64.6973 73.1894 63.8419 71.8904 62.923 70.623C62.6379 70.2428 62.0676 70.2428 61.7824 70.623C60.9586 71.6369 60.2616 72.7459 59.7863 73.9815Z" fill="white"/>
<path d="M33.3624 80.667C39.1605 84.4691 46.3527 84.2156 50.3766 83.2334C50.8518 83.1066 51.2954 82.9482 51.739 82.7264C52.4677 82.3462 52.6578 81.3957 52.1192 80.7937C51.3905 79.7165 49.7112 80.1601 48.6023 80.1917C47.1448 80.2551 45.6557 80.1917 44.1982 80.0333C41.315 79.7165 38.5268 78.7026 36.1189 77.0867C34.3446 75.6926 32.7287 74.1084 31.3663 72.3025C30.8594 71.6054 30.2257 71.0034 29.497 70.4965C27.7227 69.4192 24.6493 70.4965 25.5682 72.9045C26.8989 76.2629 30.4791 78.766 33.3624 80.667ZM57.1252 56.714C57.1886 56.4605 57.2837 56.2071 57.3787 55.9853C57.5055 55.7001 57.6322 55.415 57.8223 55.1298C58.4876 54.1159 59.4698 53.3555 60.6105 52.9753C63.2085 52.3733 65.87 53.8625 66.6621 56.3972C67.3591 58.6467 66.8205 61.5933 64.7927 62.9557C63.6521 63.7795 62.258 64.0964 60.8639 63.8429C60.3253 63.7478 59.8184 63.5894 59.3114 63.3676C58.8679 63.2092 58.456 62.9874 58.0758 62.7023C57.854 62.4488 57.6322 62.1953 57.4421 61.9102C56.9351 61.0547 56.6817 60.0408 56.7767 59.0586C56.7767 58.2665 56.8718 57.5061 57.0936 56.7457L57.1252 56.714ZM67.4225 50.8208C65.0145 49.1099 61.9412 48.5713 59.0896 49.3317C58.2025 49.5218 57.347 49.902 56.5866 50.4089C55.8262 50.8525 55.1925 51.4545 54.7173 52.1832C52.7212 55.7001 51.9608 60.4844 54.0836 64.0647C55.1292 65.7122 56.7767 66.9162 58.6461 67.4865C59.2164 67.6133 59.7867 67.7083 60.357 67.7717C61.656 68.0251 62.9868 68.0251 64.2541 67.7717C65.363 67.4865 66.4086 66.9479 67.2641 66.1875C68.1512 65.4588 68.9116 64.6033 69.5136 63.6211C70.0206 62.4171 70.3057 61.1498 70.4324 59.8507C70.5275 59.0269 70.5592 58.2348 70.5275 57.4111C70.5275 56.6823 70.4641 55.9536 70.3374 55.2566C69.9255 53.4506 68.8799 51.8981 67.4225 50.8208ZM48.3805 52.5318C48.0954 50.3456 47.1765 48.3178 45.7191 46.6386C44.5151 44.991 42.6457 44.0088 40.618 43.9138C38.5268 43.6286 36.404 43.9771 34.503 44.8643C32.3802 46.0049 30.7009 47.8426 29.8138 50.0921C29.497 50.8525 29.1801 51.5812 28.9266 52.3416C28.7365 53.007 28.6098 53.7041 28.5781 54.3694C28.4831 55.3199 28.5464 56.2388 28.7682 57.1893C29.2752 59.2487 30.4158 61.1181 32 62.5122C32.8238 63.2726 33.806 63.8746 34.8515 64.2548C35.6753 64.5716 36.5624 64.6983 37.4496 64.635C38.3367 64.5399 39.1922 64.4132 40.0477 64.2231C43.121 63.1775 45.6874 60.9596 47.1765 58.0447C48.0954 56.3655 48.5389 54.4328 48.3805 52.5318ZM44.5468 53.609C44.4517 54.2427 44.2933 54.8764 44.0398 55.4784C43.5012 56.714 42.7408 57.823 41.7586 58.7101C40.111 60.5161 37.4813 61.1181 35.2 60.1992C34.3446 59.9141 33.6475 59.3121 33.2356 58.4883C32.9822 57.9814 32.7604 57.4744 32.5703 56.9358C32.3168 56.112 32.2218 55.2249 32.3485 54.3377C32.5069 52.31 33.4257 50.4089 34.9149 49.0148C35.9921 48.1594 37.2278 47.5891 38.5902 47.3356H38.9387C40.3962 47.3039 41.822 47.8742 42.8992 48.8881C44.0715 50.2188 44.6735 51.8981 44.5468 53.609Z" fill="white"/>
<path d="M119.322 20.2469V21.4192C119.322 25.1896 117.072 27.6293 113.333 27.6293C109.911 27.6926 107.123 24.8728 107.187 21.4509C107.187 18.0608 109.943 15.3043 113.365 15.3043C115.044 15.2092 116.692 15.8429 117.864 17.0469L115.836 19.3598C115.171 18.6944 114.284 18.3459 113.365 18.3142C111.686 18.3776 110.387 19.7717 110.45 21.4192C110.355 23.0985 111.686 24.5243 113.365 24.5559C114.506 24.7144 115.615 24.0173 115.963 22.9084H113.238V20.1836H119.322V20.2469ZM125.341 15.5894C128.32 15.5894 130.316 17.1419 130.316 19.4865C130.347 20.944 129.492 22.2747 128.161 22.8767L130.633 27.3758H127.116L125.088 23.447H124.106V27.3758H121.096V15.6211H125.341V15.5894ZM124.074 20.7539H125.563C126.482 20.7539 127.084 20.2469 127.084 19.4548C127.084 18.6944 126.482 18.2192 125.563 18.2192H124.074V20.7539ZM140.043 15.5894V18.441H135.227V19.9935H139.282V22.845H135.227V24.5243H140.011V27.3441H132.185V15.5894H140.043ZM145.144 25.1263L144.32 27.3441H141.152L145.746 15.5894H149.294L153.857 27.3441H150.53L149.706 25.1263H145.144ZM146.126 22.4648H148.787L147.457 18.8212L146.126 22.4648ZM159.37 27.3441H156.36V18.441H153.096V15.5894H162.57V18.441H159.338L159.37 27.3441ZM119.512 38.1166C119.512 43.5979 112.858 46.3544 108.993 42.4573C105.127 38.5602 107.884 31.9383 113.365 31.9383C116.755 31.97 119.512 34.6948 119.512 38.1166ZM116.248 38.1166C116.09 35.5502 112.953 34.4413 111.21 36.3106C109.468 38.18 110.799 41.2216 113.365 41.2216C115.013 41.1583 116.312 39.7642 116.248 38.1166ZM125.436 32.2234C128.415 32.2234 130.411 33.7759 130.411 36.1205C130.443 37.578 129.587 38.9087 128.256 39.479L130.728 43.9781H127.211L125.215 40.0493H124.233V43.9781H121.191V32.2234H125.436ZM124.169 37.3879H125.658C126.45 37.4829 127.147 36.881 127.179 36.0889C127.179 35.3601 126.577 34.8532 125.658 34.8532H124.169V37.3879ZM138.395 43.788L135.765 37.9899L134.878 43.9464H131.868L133.611 32.1917H136.399L139.282 38.9087L142.166 32.1917H144.954L146.696 43.9464H143.718L142.799 37.9899L140.169 43.788H138.395ZM159.94 38.1166C159.94 43.5979 153.287 46.3544 149.421 42.489C145.556 38.5919 148.281 31.97 153.794 31.97C157.184 31.9383 159.94 34.6948 159.94 38.1166ZM156.677 38.1166C156.518 35.5819 153.382 34.4413 151.639 36.3106C149.896 38.18 151.195 41.2216 153.762 41.2216C155.441 41.1583 156.74 39.7642 156.677 38.1166ZM164.439 43.9781H161.398V32.2234H164.629L168.97 39.0355V32.2234H172.012V43.9781H168.78L164.439 37.2928V43.9781ZM178.475 32.2234C182.309 32.2234 185.129 34.7264 185.129 38.1166C185.129 41.5385 182.309 43.9781 178.475 43.9781H174.135V32.2234H178.475ZM177.335 41.1583H178.412C180.471 41.1583 181.865 39.9543 181.865 38.1166C181.865 36.279 180.503 35.075 178.412 35.075H177.335V41.1583ZM113.365 51.4872C112.605 51.4872 112.288 51.7724 112.288 52.2159C112.288 53.7367 118.054 53.0397 118.054 57.1903C118.054 59.3448 116.121 61.024 113.333 61.024C110.545 61.024 109.278 59.9468 108.549 58.8695L110.704 56.8418C111.306 57.7289 112.319 58.2359 113.397 58.2359C114.315 58.2359 114.791 57.9507 114.791 57.3804C114.791 55.7962 109.024 56.5249 109.024 52.3743C109.024 50.2198 110.925 48.7307 113.523 48.7307C115.298 48.6673 116.977 49.4594 118.054 50.8852L115.995 52.9447C115.393 52.0258 114.411 51.5189 113.365 51.4872ZM125.088 60.7389H122.046V51.7724H118.815V48.9208H128.32V51.7724H125.088V60.7389ZM134.15 48.9208C137.16 48.9208 139.156 50.4733 139.156 52.8179C139.187 54.2754 138.332 55.6378 137.001 56.2081L139.504 60.7072H135.924L133.896 56.7784H132.914V60.7072H129.872V48.9208H134.15ZM132.882 54.117H134.371C135.29 54.117 135.924 53.5783 135.924 52.8179C135.924 52.0258 135.29 51.5822 134.371 51.5822H132.851L132.882 54.117ZM148.724 48.9208V51.7724H143.876V53.3249H147.964V56.2398H143.876V57.9507H148.692V60.8022H140.835V48.9208H148.724ZM158.514 48.9208V51.7724H153.698V53.3249H157.786V56.2398H153.698V57.9507H158.514V60.8022H150.657V48.9208H158.514ZM166.245 60.7389H163.204V51.7724H159.972V48.9208H169.477V51.7724H166.245V60.7389ZM111.496 72.7154V77.3729H108.486V65.6182H111.496V69.9589H116.026V65.6182H119.005V77.3729H115.963V72.7154H111.496ZM132.66 71.5114C132.66 76.9927 126.007 79.7492 122.141 75.8837C118.244 71.9866 121.001 65.3647 126.514 65.3647C129.904 65.333 132.66 68.0895 132.66 71.5114ZM129.397 71.5114C129.239 68.945 126.102 67.8044 124.328 69.7054C122.585 71.5747 123.916 74.6481 126.482 74.6481C128.161 74.553 129.46 73.1589 129.397 71.5114ZM138.047 68.1846C137.286 68.1846 136.969 68.4697 136.969 68.8816C136.969 70.4024 142.704 69.7054 142.704 73.8243C142.704 75.9788 140.771 77.658 138.015 77.658C135.258 77.658 133.991 76.5808 133.262 75.5035L135.417 73.4758C136.019 74.3629 137.033 74.8699 138.078 74.8382C138.997 74.8382 139.472 74.553 139.472 73.9827C139.472 72.3985 133.738 73.1589 133.738 69.0084C133.738 66.9172 135.639 65.3647 138.237 65.3647C140.011 65.3013 141.69 66.0934 142.736 67.5192L140.676 69.5787C140.074 68.7232 139.092 68.1846 138.047 68.1846ZM148.661 65.6182C151.639 65.6182 153.635 67.2341 153.635 69.6737C153.635 72.1451 151.639 73.7926 148.661 73.7926H147.425V77.3412H144.383V65.5865H148.661V65.6182ZM147.425 71.1629H148.914C149.77 71.2262 150.467 70.5292 150.435 69.6737C150.435 68.8499 149.738 68.1846 148.914 68.2479H147.425V71.1629ZM155.093 77.3729H158.134V65.6182H155.093V77.3729ZM165.643 77.3729H162.602V68.4697H159.37V65.6182H168.843V68.4697H165.612L165.643 77.3729ZM171.758 75.155L170.934 77.3095H167.766L172.36 65.5548H175.909L180.503 77.3095H177.176L176.384 75.155H171.758ZM172.74 72.4619H175.402L174.071 68.8182L172.74 72.4619ZM184.812 65.6182V74.5213H190.135V77.3729H181.739V65.6182H184.812ZM116.755 85.5156C115.963 84.8186 114.917 84.4384 113.872 84.4384C110.989 84.5651 109.088 87.48 110.165 90.1415C111.21 92.8029 114.601 93.6267 116.787 91.7573L117.801 92.8346C116.755 93.8168 115.361 94.3237 113.904 94.2287C106.331 94.2287 106.331 82.8542 113.904 82.8542C115.329 82.8225 116.755 83.3294 117.801 84.3433L116.755 85.5156ZM127.306 89.286H121.159V94.0703H119.607V83.1393H121.159V87.8285H127.274V83.1393H128.827V94.0703H127.274L127.306 89.286ZM138.585 91.3138H133.357L132.28 94.1336H130.633L135.1 83.171H136.906L141.437 94.1019H139.694L138.585 91.3138ZM135.987 84.8186L133.928 89.9514H138.047L135.987 84.8186ZM143.021 83.1393H146.855C149.263 83.1393 150.847 84.4384 150.847 86.4345C150.879 87.9553 149.801 89.2543 148.312 89.5712L151.037 94.0703H149.294L146.728 89.7296H144.574V94.0703H143.021V83.1393ZM144.574 84.5334V88.3672H147.013C148.185 88.5256 149.231 87.6701 149.294 86.4978C149.294 85.3255 148.376 84.5651 147.045 84.5651L144.574 84.5334ZM153.603 94.0703H155.156V83.1393H153.603V94.0703ZM161.968 84.5968V94.0703H160.447V84.5968H156.962V83.1393H165.517V84.5968H161.968ZM170.934 90.4266L166.879 83.1393H168.622L171.758 88.7791L174.927 83.1393H176.574L172.487 90.4266V94.0703H170.934V90.4266Z" fill="white"/>
</svg>