<svg xmlns:xlink="http://www.w3.org/1999/xlink" xmlns="http://www.w3.org/2000/svg" width="144" height="57" viewBox="0 0 144 57" fill="none">
<path d="M41.9426 51.2981C45.5453 51.2981 47.5028 48.8849 47.5028 45.4971V28.2196H55.165V45.8823C55.0898 53.6587 48.9181 56.7109 41.9426 56.7109C34.9671 56.7109 28.7954 53.6587 28.7188 45.8823V28.2196H36.3824V45.4971C36.3824 48.8849 38.3399 51.2981 41.9426 51.2981Z" fill="white"/>
<path d="M92.7159 44.5716C92.7419 41.5442 94.5577 38.8086 97.5879 38.8086C101.113 38.8086 102.49 41.2466 102.49 44.5716H92.7159ZM106.326 47.1249V45.3055C106.326 39.9305 103.31 36.1386 97.8539 36.1386C91.7617 36.1386 88.9238 40.8964 88.9238 46.5821C88.9238 52.3072 91.3786 56.7148 97.5489 56.7148C102.148 56.7148 105.521 54.5132 106.096 50.1027H102.265C101.841 52.9258 100.424 54.0463 97.5879 54.0463C93.8681 54.0463 92.6335 50.7082 92.6335 47.1249H106.326Z" fill="white"/>
<path d="M114.385 28.2188H110.742V56.1367H114.385V28.2188Z" fill="white"/>
<path d="M8.86584 56.1348H16.5295V33.6356H25.1141V28.2198H0.28125V33.6356H8.86584V56.1348Z" fill="white"/>
<path d="M27.2745 14.6281C25.4066 15.2205 23.4781 14.7463 23.4824 12.2222C23.4853 8.37633 32.4357 5.15195 33.6761 1.79188C33.984 0.954414 34.0028 0.264309 33.6052 0.286194C33.3204 0.302244 33.5431 0.719517 32.9171 1.35418C29.2088 5.09651 22.9981 5.09067 18.2316 7.24561C15.106 8.66229 5.94603 13.0116 8.05386 22.7153C8.15506 23.1749 8.42686 24.72 8.70732 24.72C9.03116 24.72 9.02827 23.8023 9.01959 22.6876C8.9502 16.91 15.7291 15.2993 17.9352 11.5248C18.1984 11.0726 18.6552 10.4394 18.7636 10.7341C18.8157 10.8756 18.7824 11.0857 18.6928 11.4869C18.0017 14.5887 14.788 16.5803 15.6987 18.7965C16.8784 21.6751 20.2874 19.5289 21.3326 17.6789C21.6131 17.1697 21.7707 16.8443 21.9586 16.91C22.0989 16.9596 22.0945 17.5447 22.0063 18.0699C21.4469 21.4081 20.6864 23.2829 18.2649 25.1825C17.4914 25.7909 16.2727 25.9178 16.4332 26.3847C16.4736 26.5058 16.9984 26.4927 17.4162 26.4504C23.8626 26.0346 29.2551 18.3632 30.6835 13.353C30.8324 12.9999 30.8786 12.6687 30.7196 12.5447C30.5259 12.3929 30.2425 12.7416 29.9548 12.9984C29.2175 13.6521 28.207 14.332 27.2745 14.6281Z" fill="white"/>
<path d="M125.799 56.1348V39.2819H130.24V36.7257H125.799V33.5918C125.799 31.3479 126.869 30.9627 128.942 30.9627C129.552 30.9627 130.167 31.0429 130.78 31.0765V28.0257C129.927 27.8302 129.058 27.6391 128.173 27.6391C124.726 27.6391 122.156 29.3826 122.156 33.0987V36.7257H118.404V39.2819H122.156V56.1348H125.799Z" fill="white"/>
<path d="M132.334 36.7266V39.2827H135.63V51.6521C135.63 54.2345 135.666 56.7148 141.075 56.7148C141.916 56.7148 142.707 56.6361 143.563 56.4843V53.6612C142.971 53.8056 142.223 53.8946 141.647 53.8946C140.343 53.8946 139.273 53.2337 139.273 51.8447V39.2827H143.717V36.7266H139.273V31.429L135.63 32.5889V36.7295L132.334 36.7266Z" fill="white"/>
<path d="M62.8301 56.1348H72.3327C84.1643 56.1348 85.4062 46.0298 85.4062 42.178C85.4062 38.3292 84.1643 28.2183 72.3327 28.2183H62.8301V56.1348ZM66.6684 31.5419H72.3341C78.7285 31.5419 81.3814 36.4106 81.3814 42.178C81.3814 47.9469 78.7285 52.8112 72.3341 52.8112H66.6684V31.5419Z" fill="white"/>
</svg>