<svg xmlns:xlink="http://www.w3.org/1999/xlink" xmlns="http://www.w3.org/2000/svg" width="235" height="70" viewBox="0 0 235 70" fill="none">
<path d="M139.087 63.3132H139.679V21.6687H139.087V63.3132V63.3132ZM157.372 27.6784H162.959V26.4933H157.372V23.2769H163.129V22.0919H156.102V32.0798H163.213V30.8948H157.372V27.6784V27.6784ZM168.208 31.1487C166.853 31.1487 165.838 30.0484 165.838 28.6941C165.838 27.3398 166.769 26.2394 168.208 26.2394C169.562 26.2394 170.494 27.2551 170.494 28.6941C170.494 30.0484 169.562 31.1487 168.208 31.1487ZM170.494 26.2394C169.986 25.5623 169.139 25.2237 168.123 25.2237C166.261 25.2237 164.737 26.7473 164.737 28.7787C164.737 30.8102 166.261 32.3337 168.123 32.3337C169.224 32.3337 169.986 31.9105 170.494 31.318V32.2491H171.679V21.838H170.494V26.2394V26.2394ZM178.62 29.1173C178.62 30.4716 177.774 31.1487 176.673 31.1487C175.573 31.1487 174.726 30.5562 174.726 29.1173V25.3083H173.541V29.2019C173.541 31.2334 174.98 32.1645 176.673 32.1645C178.282 32.1645 179.721 31.2334 179.721 29.2019V25.3083H178.62V29.1173ZM187.424 31.1487L186.662 30.3023C186.155 30.7255 185.562 31.0641 184.8 31.0641C183.53 31.0641 182.514 30.0484 182.514 28.6094C182.514 27.1705 183.53 26.1548 184.8 26.1548C185.562 26.1548 186.07 26.4087 186.578 26.9166L187.34 26.1548C186.747 25.4776 185.816 25.0544 184.8 25.0544C182.684 25.0544 181.245 26.578 181.245 28.6094C181.245 30.6409 182.684 32.1645 184.8 32.1645C185.901 32.2491 186.832 31.8259 187.424 31.1487ZM191.826 26.2394C193.181 26.2394 194.112 27.2551 194.112 28.6941C194.112 30.0484 193.181 31.1487 191.826 31.1487C190.472 31.1487 189.456 30.0484 189.456 28.6941C189.456 27.3398 190.387 26.2394 191.826 26.2394V26.2394ZM191.657 32.2491C192.758 32.2491 193.519 31.8259 194.027 31.2334V32.1645H195.213V25.393H194.027V26.2394C193.519 25.5623 192.673 25.2237 191.657 25.2237C189.795 25.2237 188.271 26.7473 188.271 28.7787C188.271 30.7255 189.795 32.2491 191.657 32.2491V32.2491ZM198.006 29.7098C198.006 31.4027 198.853 32.2491 200.376 32.2491C201.223 32.2491 201.9 31.9952 202.408 31.5719L201.9 30.7255C201.477 30.9794 201.054 31.1487 200.546 31.1487C199.784 31.1487 199.276 30.7255 199.276 29.7098V26.4087H202.154V25.3083H199.276V23.1923H198.091V25.3083H196.652V26.4087H198.091V29.7098H198.006ZM203.593 32.0798H204.778V25.3083H203.593V32.0798ZM204.186 22.0919C203.763 22.0919 203.339 22.4305 203.339 22.9383C203.339 23.3615 203.678 23.7848 204.186 23.7848C204.609 23.7848 205.032 23.4462 205.032 22.9383C205.032 22.4305 204.609 22.0919 204.186 22.0919ZM207.657 28.6941C207.657 27.2551 208.673 26.2394 210.027 26.2394C211.381 26.2394 212.397 27.2551 212.397 28.6941C212.397 30.133 211.381 31.1487 210.027 31.1487C208.673 31.1487 207.657 30.133 207.657 28.6941ZM213.582 28.6941C213.582 26.6626 212.059 25.1391 210.027 25.1391C207.995 25.1391 206.472 26.6626 206.472 28.6941C206.472 30.7255 207.995 32.2491 210.027 32.2491C212.059 32.2491 213.582 30.7255 213.582 28.6941ZM221.455 32.0798V27.8476C221.455 26.2394 220.27 25.1391 218.662 25.1391C217.9 25.1391 216.969 25.393 216.461 26.1548V25.3083H215.276V32.0798H216.461V28.2709C216.461 27.0012 217.392 26.2394 218.492 26.2394C219.678 26.2394 220.355 27.0012 220.355 28.1862V31.9952H221.455V32.0798ZM158.896 46.5538C157.541 46.5538 156.526 45.4534 156.526 44.0992C156.526 42.7449 157.457 41.6445 158.896 41.6445C160.25 41.6445 161.182 42.6602 161.182 44.0992C161.266 45.4534 160.25 46.5538 158.896 46.5538ZM161.182 41.6445C160.674 40.9674 159.827 40.6288 158.811 40.6288C156.949 40.6288 155.425 42.1524 155.425 44.1838C155.425 46.2152 156.949 47.7388 158.811 47.7388C159.912 47.7388 160.674 47.3156 161.182 46.7231V47.6542H162.367V40.8827H161.182V41.6445ZM167.615 40.5441C166.853 40.5441 165.922 40.7981 165.414 41.5599V40.7134H164.229V47.4849H165.414V43.6759C165.414 42.4063 166.345 41.6445 167.446 41.6445C168.631 41.6445 169.308 42.4063 169.308 43.5913V47.4002H170.494V43.1681C170.409 41.6445 169.308 40.5441 167.615 40.5441V40.5441ZM175.234 46.5538C173.88 46.5538 172.864 45.4534 172.864 44.0992C172.864 42.7449 173.795 41.6445 175.234 41.6445C176.589 41.6445 177.52 42.6602 177.52 44.0992C177.604 45.4534 176.673 46.5538 175.234 46.5538ZM177.52 41.6445C177.012 40.9674 176.165 40.6288 175.149 40.6288C173.287 40.6288 171.763 42.1524 171.763 44.1838C171.763 46.2152 173.287 47.7388 175.149 47.7388C176.25 47.7388 177.012 47.3156 177.52 46.7231V47.6542H178.705V37.243H177.52V41.6445V41.6445ZM183.192 38.682H186.578V47.4849H187.848V38.682H191.234V37.497H183.192V38.682V38.682ZM192.419 41.5599V40.6288H191.318V47.4002H192.504V43.5913C192.504 42.3216 193.265 41.5599 194.281 41.5599C194.705 41.5599 195.128 41.6445 195.466 41.8138L195.72 40.6288C195.382 40.4595 194.959 40.3749 194.451 40.3749C193.604 40.5441 192.927 40.9674 192.419 41.5599V41.5599ZM199.699 46.5538C198.345 46.5538 197.329 45.4534 197.329 44.0992C197.329 42.7449 198.26 41.6445 199.699 41.6445C201.054 41.6445 201.985 42.6602 201.985 44.0992C202.07 45.4534 201.138 46.5538 199.699 46.5538ZM201.985 41.6445C201.477 40.9674 200.63 40.6288 199.615 40.6288C197.752 40.6288 196.228 42.1524 196.228 44.1838C196.228 46.2152 197.752 47.7388 199.615 47.7388C200.715 47.7388 201.477 47.3156 201.985 46.7231V47.6542H203.17V40.8827H201.985V41.6445ZM205.879 37.497C205.456 37.497 205.032 37.8356 205.032 38.3434C205.032 38.7666 205.371 39.1898 205.879 39.1898C206.302 39.1898 206.725 38.8513 206.725 38.3434C206.725 37.8356 206.387 37.497 205.879 37.497ZM205.371 47.4849H206.472V40.7134H205.371V47.4849ZM212.059 40.5441C211.297 40.5441 210.366 40.7981 209.858 41.5599V40.7134H208.673V47.4849H209.858V43.6759C209.858 42.4063 210.789 41.6445 211.889 41.6445C213.075 41.6445 213.752 42.4063 213.752 43.5913V47.4002H214.937V43.1681C214.852 41.6445 213.752 40.5441 212.059 40.5441V40.5441ZM217.561 37.497C217.138 37.497 216.715 37.8356 216.715 38.3434C216.715 38.7666 217.053 39.1898 217.561 39.1898C217.985 39.1898 218.408 38.8513 218.408 38.3434C218.408 37.8356 217.985 37.497 217.561 37.497ZM216.969 47.4849H218.154V40.7134H216.969V47.4849ZM223.741 40.5441C222.979 40.5441 222.048 40.7981 221.54 41.5599V40.7134H220.355V47.4849H221.54V43.6759C221.54 42.4063 222.471 41.6445 223.572 41.6445C224.757 41.6445 225.434 42.4063 225.434 43.5913V47.4002H226.619V43.1681C226.535 41.6445 225.349 40.5441 223.741 40.5441V40.5441ZM231.614 46.3845C230.259 46.3845 229.328 45.2842 229.328 44.0145C229.328 42.7449 230.259 41.6445 231.614 41.6445C232.968 41.6445 233.899 42.6602 233.899 44.0145C233.899 45.3688 232.968 46.3845 231.614 46.3845ZM233.815 40.7134V41.6445C233.307 40.9674 232.545 40.5441 231.445 40.5441C229.582 40.5441 228.058 41.9831 228.058 44.0145C228.058 46.046 229.497 47.4849 231.445 47.4849C232.46 47.4849 233.222 47.0617 233.815 46.4692V47.0617C233.815 48.5852 232.799 49.347 231.36 49.347C230.513 49.347 229.667 49.0931 228.99 48.5853L228.482 49.5163C229.159 50.1088 230.259 50.3628 231.36 50.3628C233.476 50.3628 235 49.0931 235 46.8924V40.6288H233.815V40.7134ZM56.4643 37.7509H60.7817H56.4643ZM74.665 21.6687C69.9243 21.6687 66.1149 25.2237 66.1149 29.8791C66.1149 34.5345 69.9243 38.0895 74.665 38.0895C79.4056 38.0895 83.2151 34.5345 83.2151 29.8791C83.2151 25.2237 79.4056 21.6687 74.665 21.6687V21.6687ZM74.665 33.8573C72.464 33.8573 70.6862 32.0798 70.6862 29.8791C70.6862 27.6784 72.464 25.9008 74.665 25.9008C76.866 25.9008 78.6437 27.6784 78.6437 29.8791C78.6437 32.0798 76.7813 33.8573 74.665 33.8573ZM98.6221 27.763C98.6221 24.4619 95.9978 22.0073 92.6117 22.0073H85.3314V37.7509H89.6488V33.4341H91.6805L93.6275 37.7509H98.5375L95.8285 32.4184C97.3523 31.4027 98.6221 29.8791 98.6221 27.763ZM92.6117 29.6252H89.7334V25.9008H92.6117C93.6275 25.9008 94.2201 27.0012 94.2201 27.763C94.2201 28.5248 93.5429 29.6252 92.6117 29.6252V29.6252ZM101.246 22.0073H105.564V37.7509H101.246V22.0073ZM116.23 22.0073H114.622L107.341 37.7509H111.997L112.759 35.9734H118.177L118.939 37.7509H123.595L116.23 22.0073V22.0073ZM114.029 32.2491L115.384 29.2019H115.468L116.823 32.2491H114.029V32.2491ZM54.6866 22.0073L64.8451 0H0L10.2432 22.1765H15.0684L18.9625 30.6409L22.8566 22.1765H27.6819L20.4863 37.6663H17.4388L32.4225 70L47.745 36.9045C46.5598 37.5816 45.2053 38.0048 43.6816 38.0048C39.0256 38.0048 35.3854 34.5345 35.3854 29.8791C35.3854 25.3083 39.0256 21.7533 43.6816 21.7533C46.6444 21.7533 49.1841 23.3615 50.6232 25.7316L47.0677 27.9323C46.3905 26.8319 45.1207 26.0701 43.7662 26.0701C41.6499 26.0701 39.8721 27.8476 39.8721 29.9637C39.8721 32.0798 41.6499 33.8573 43.7662 33.8573C45.2053 33.8573 46.3905 33.0955 47.0677 31.9952L49.438 33.4341L52.9089 25.9855H56.4643V37.9202H60.7817V25.9008H65.1837V22.0073H54.6866ZM33.4384 37.6663H29.0364V22.1765H33.4384V37.6663ZM56.4643 37.7509H60.7817H56.4643ZM61.3743 46.2152C60.7817 45.792 60.0198 45.5381 59.1733 45.5381C58.3267 45.5381 57.6495 45.8767 57.6495 46.4692C57.6495 47.0617 58.3267 47.231 59.2579 47.4002L59.6812 47.4849C61.1203 47.7388 62.2208 48.3313 62.2208 49.6856C62.2208 51.4631 60.697 52.2249 59.004 52.2249C57.8188 52.2249 56.549 51.8863 55.7025 51.2092L56.549 49.9395C57.1416 50.3628 58.0728 50.786 59.0886 50.786C59.9352 50.786 60.6124 50.4474 60.6124 49.8549C60.6124 49.347 60.0198 49.0931 58.9193 48.9238L58.4114 48.8392C57.0569 48.5853 56.0411 47.9927 56.0411 46.5538C56.0411 44.9456 57.4802 44.0145 59.1733 44.0145C60.2738 44.0145 61.205 44.2684 62.2208 44.8609L61.3743 46.2152V46.2152ZM67.2154 47.9927H65.1837V49.9395C65.1837 50.6167 65.5223 50.8706 66.0303 50.8706C66.3689 50.8706 66.7921 50.7013 67.0461 50.532L67.554 51.7171C67.0461 52.0556 66.5382 52.3096 65.7763 52.3096C64.4218 52.3096 63.7446 51.5478 63.7446 50.1088V47.9927H62.6441V46.7231H63.6599V45.1149H65.1837V46.7231H67.1308V47.9927H67.2154ZM69.3318 49.347C69.3318 50.1935 69.8397 50.8706 70.7709 50.8706C71.6174 50.8706 72.21 50.1935 72.21 49.347C72.21 48.5006 71.6174 47.8235 70.7709 47.8235C69.9243 47.9081 69.3318 48.5852 69.3318 49.347ZM73.5645 52.1403H72.1254V51.5478C71.7867 51.971 71.2788 52.3096 70.5169 52.3096C68.9932 52.3096 67.8926 51.0399 67.8926 49.4317C67.8926 47.8235 68.9932 46.5538 70.5169 46.5538C71.2788 46.5538 71.7867 46.8924 72.1254 47.3156V46.7231H73.5645V52.1403V52.1403ZM78.813 47.9927H76.866V49.9395C76.866 50.6167 77.2046 50.8706 77.7125 50.8706C78.0512 50.8706 78.4744 50.7013 78.7284 50.532L79.2363 51.7171C78.7284 52.0556 78.2205 52.3096 77.4586 52.3096C76.1041 52.3096 75.4269 51.5478 75.4269 50.1088V47.9927H74.411V46.7231H75.4269V45.1149H76.866V46.7231H78.813V47.9927ZM81.014 48.8392H83.469C83.2997 48.162 82.8764 47.7388 82.2839 47.7388C81.6066 47.7388 81.1834 48.162 81.014 48.8392ZM84.9081 49.347V49.8549H81.014C81.1834 50.6167 81.6913 50.9553 82.4532 50.9553C82.9611 50.9553 83.469 50.786 83.8076 50.4474L84.6542 51.3785C84.0616 51.971 83.2151 52.2249 82.2839 52.2249C80.5908 52.2249 79.4056 51.1245 79.4056 49.347C79.4056 47.6542 80.5061 46.4692 82.1992 46.4692C83.8923 46.5538 84.9081 47.6542 84.9081 49.347ZM62.8134 55.4414L61.7129 56.5417C61.2896 56.0339 60.6124 55.6953 59.7658 55.6953C58.3267 55.6953 57.3109 56.7957 57.3109 58.3192C57.3109 59.9275 58.4114 60.9432 59.7658 60.9432C61.0357 60.9432 61.7976 60.3507 62.0515 59.1657H60.0198V57.8114H63.6599V58.2346C63.6599 60.6046 62.0515 62.2975 59.7658 62.2975C57.5648 62.2975 55.6178 60.7739 55.6178 58.2346C55.6178 55.8646 57.3955 54.1717 59.7658 54.1717C61.1203 54.2564 62.1362 54.6796 62.8134 55.4414ZM65.9456 59.5042C65.9456 60.3507 66.5382 61.0278 67.3847 61.0278C68.2313 61.0278 68.8238 60.4353 68.8238 59.5042C68.8238 58.6578 68.2313 57.9807 67.3847 57.9807C66.5382 58.0653 65.9456 58.6578 65.9456 59.5042ZM70.3476 59.5042C70.3476 61.1125 69.0778 62.3821 67.3847 62.3821C65.6916 62.3821 64.4218 61.1125 64.4218 59.5042C64.4218 57.896 65.6916 56.6264 67.3847 56.6264C69.0778 56.6264 70.3476 57.896 70.3476 59.5042ZM74.3264 62.2975H72.6333L70.4323 56.7956H72.0407L73.4798 60.6892L74.9189 56.7956H76.4427L74.3264 62.2975ZM78.1358 58.9964H80.5908C80.4215 58.3192 79.9982 57.896 79.4056 57.896C78.6437 57.896 78.2205 58.3192 78.1358 58.9964ZM82.0299 59.5042V60.0121H78.1358C78.3051 60.7739 78.813 61.1125 79.5749 61.1125C80.0829 61.1125 80.5908 60.9432 80.9294 60.6046L81.7759 61.5357C81.1834 62.1282 80.3368 62.3821 79.4056 62.3821C77.7125 62.3821 76.5274 61.2817 76.5274 59.5042C76.5274 57.8114 77.6279 56.6264 79.321 56.6264C80.9294 56.6264 82.0299 57.8114 82.0299 59.5042V59.5042ZM86.7705 56.7956L86.5166 58.2346C86.2626 58.1499 85.924 58.0653 85.5854 58.0653C84.9081 58.0653 84.4002 58.4885 84.4002 59.3349V62.2975H82.9611V56.7956H84.4002V57.3882C84.7388 56.8803 85.2468 56.6264 85.924 56.6264C86.2626 56.6264 86.5166 56.711 86.7705 56.7956ZM92.6963 58.8271V62.2975H91.2572V59.2503C91.2572 58.4885 90.8339 58.0653 90.1567 58.0653C89.5641 58.0653 88.9715 58.4885 88.9715 59.3349V62.2975H87.5324V56.7956H88.9715V57.4728C89.3948 56.8803 89.9874 56.711 90.58 56.711C91.7651 56.6264 92.6963 57.5574 92.6963 58.8271V58.8271ZM102.77 58.8271V62.2975H101.331V59.2503C101.331 58.4885 100.908 58.0653 100.231 58.0653C99.638 58.0653 99.0454 58.4885 99.0454 59.3349V62.2975H97.6063V59.2503C97.6063 58.4885 97.183 58.0653 96.5058 58.0653C95.9132 58.0653 95.3206 58.4885 95.3206 59.3349V62.2975H93.9661V56.7956H95.4053V57.4728C95.8285 56.8803 96.4211 56.711 97.0137 56.711C97.7756 56.711 98.4528 57.0496 98.7914 57.6421C99.2147 56.9649 99.8919 56.711 100.654 56.711C101.924 56.6264 102.77 57.5574 102.77 58.8271ZM105.225 58.9964H107.68C107.511 58.3192 107.088 57.896 106.495 57.896C105.818 57.896 105.394 58.3192 105.225 58.9964ZM109.119 59.5042V60.0121H105.225C105.394 60.7739 105.902 61.1125 106.664 61.1125C107.172 61.1125 107.68 60.9432 108.019 60.6046L108.865 61.5357C108.273 62.1282 107.426 62.3821 106.495 62.3821C104.802 62.3821 103.617 61.2817 103.617 59.5042C103.617 57.8114 104.717 56.6264 106.41 56.6264C108.103 56.6264 109.119 57.8114 109.119 59.5042V59.5042ZM115.299 58.8271V62.2975H113.86V59.2503C113.86 58.4885 113.437 58.0653 112.759 58.0653C112.167 58.0653 111.574 58.4885 111.574 59.3349V62.2975H110.135V56.7956H111.574V57.4728C111.997 56.8803 112.59 56.711 113.183 56.711C114.452 56.6264 115.299 57.5574 115.299 58.8271V58.8271ZM120.463 58.1499H118.516V60.0967C118.516 60.7739 118.854 61.0278 119.362 61.0278C119.701 61.0278 120.124 60.8585 120.378 60.6892L120.886 61.8742C120.378 62.2128 119.87 62.4668 119.108 62.4668C117.754 62.4668 117.077 61.705 117.077 60.266V58.1499H115.976V56.8803H116.992V55.2721H118.431V56.8803H120.378V58.1499H120.463Z" fill="white"/>
</svg>