<svg xmlns:xlink="http://www.w3.org/1999/xlink" xmlns="http://www.w3.org/2000/svg" width="259" height="51" viewBox="0 0 259 51" fill="none">
<path d="M31.4253 41.6335C34.7923 41.6335 37.9003 41.1131 40.663 40.159C41.3536 39.8988 42.0443 39.6386 42.6486 39.3784C41.8716 41.2866 40.7493 42.8478 39.2816 44.0621C36.3463 46.2304 32.893 47.7049 29.0943 48.3121C30.1303 46.6641 30.9073 44.409 31.4253 41.6335ZM15.799 46.3172C15.7126 46.2304 15.6263 46.2304 15.54 46.1437C14.245 45.5366 13.727 42.5876 14.4176 38.0774C16.9213 39.2049 19.684 40.0723 22.533 40.7662C24.6913 41.1998 26.8496 41.5468 29.008 41.6335C27.972 46.1437 26.5906 48.5723 25.7273 48.5723C25.641 48.5723 25.641 48.5723 25.5546 48.5723C22.1013 48.5723 18.7343 47.7049 15.799 46.3172ZM3.62597 31.8325C3.45331 31.0519 3.36697 30.2713 3.28064 29.4906C4.05764 30.6182 5.00731 31.7458 6.12964 32.7866C7.85631 34.3478 9.92831 35.8223 12.173 37.0366C11.7413 39.6386 11.5686 41.9804 11.914 43.8886C8.02897 40.9396 5.09364 36.6896 3.62597 31.8325ZM32.893 25.5009C32.893 24.5468 32.893 23.6794 32.893 22.7253C35.8283 22.5519 38.5046 21.7713 40.7493 20.4702C42.8213 24.5468 43.9436 28.8835 43.8573 32.96C43.8573 34.1743 43.771 35.3019 43.5983 36.3427C42.5623 37.0366 41.3536 37.557 39.9723 37.9907C37.555 38.7713 34.7923 39.2917 31.857 39.3784C32.5476 35.1284 32.893 30.1845 32.893 25.5009ZM23.051 38.4243C20.1156 37.8172 17.353 36.8631 14.8493 35.6488C15.6263 31.9192 17.1803 27.4958 19.5976 22.4651C19.943 21.7713 20.2883 21.0774 20.6336 20.2968C22.3603 21.0774 24.1733 21.6845 26.0726 22.1182C27.5403 22.4651 29.008 22.6386 30.4756 22.6386C30.4756 23.506 30.4756 24.46 30.4756 25.4141C30.4756 30.9651 30.044 35.6488 29.3533 39.2049C27.3676 39.2049 25.2093 38.9447 23.051 38.4243ZM7.76997 31.0519C5.78431 29.2304 4.40297 27.2355 3.71231 25.2407C4.23031 23.0723 5.35264 20.8172 6.90664 18.7355C8.37431 16.7407 10.2736 14.9192 12.432 13.358C13.0363 14.4855 13.8996 15.6131 15.022 16.5672C16.058 17.5213 17.2666 18.4753 18.648 19.256C18.3026 19.9498 17.871 20.7304 17.5256 21.4243C15.4536 25.7611 13.727 30.358 12.691 34.5213C10.878 33.5672 9.23764 32.3529 7.76997 31.0519ZM31.339 9.02126C34.0153 11.0162 36.4326 13.6182 38.5046 16.6539C38.85 17.2611 39.2816 17.7815 39.627 18.3886C37.7276 19.5162 35.3966 20.1233 32.8066 20.2968C32.5476 16.2202 32.116 12.3172 31.339 9.02126ZM26.677 19.8631C24.9503 19.5162 23.3963 18.9958 21.8423 18.3019C24.0006 14.4855 26.418 11.1029 28.8353 8.58759C29.6123 11.5366 30.2166 15.4396 30.4756 20.2968C29.1806 20.2968 27.8856 20.1233 26.677 19.8631ZM16.576 14.9192C15.6263 13.9651 14.8493 13.0111 14.3313 12.057C16.576 10.756 18.9933 9.6284 21.5833 8.84779C23.1373 8.41412 24.6913 8.06718 26.2453 7.80697C24.0006 10.3223 21.756 13.5315 19.684 17.1743C18.5616 16.5672 17.5256 15.7866 16.576 14.9192ZM11.5686 7.3733C11.5686 7.46004 11.4823 7.63351 11.4823 7.72024C11.2233 8.84779 11.3096 9.97534 11.5686 11.1029C9.06497 12.8376 6.82031 14.9192 5.09364 17.2611C4.57564 17.9549 4.05764 18.7355 3.62597 19.4294C4.92097 14.659 7.68364 10.409 11.5686 7.3733ZM13.727 8.24065C13.986 7.02636 14.763 5.89881 15.8853 5.03146C18.648 4.25085 21.8423 4.42432 25.2093 5.63861C23.828 5.89881 22.3603 6.24575 20.979 6.67942C18.389 7.46004 15.9716 8.50085 13.727 9.80187C13.6406 9.28146 13.6406 8.76106 13.727 8.24065ZM32.8066 5.1182C33.5836 4.59779 34.3606 4.25085 34.965 4.07738C36.1736 4.51106 37.296 5.1182 38.4183 5.89881C36.6916 5.55187 34.7923 5.29167 32.8066 5.1182ZM28.9216 2.60289C29.8713 2.68963 30.9073 2.8631 31.9433 3.1233C31.2526 3.47024 30.6483 3.90391 29.9576 4.42432C29.526 3.73044 29.267 3.1233 28.9216 2.60289ZM26.3316 3.55697C25.2956 3.1233 24.1733 2.8631 23.1373 2.60289C24.0006 2.51616 24.7776 2.42942 25.641 2.42942C26.0726 2.42942 26.5043 2.94983 27.0223 3.81718C26.8496 3.73044 26.5906 3.64371 26.3316 3.55697ZM0.431641 25.5009C0.431641 27.9294 0.776974 30.2713 1.38131 32.4396C1.38131 32.6131 1.46764 32.6998 1.46764 32.8733V32.96C4.66197 43.3682 14.3313 50.9141 25.641 50.9141C30.9073 50.9141 35.742 49.2662 39.7996 46.4907C39.7996 46.4907 39.886 46.4907 39.886 46.4039C40.145 46.2304 40.3176 46.057 40.5766 45.8835C45.2386 42.4141 48.692 37.3835 50.1596 31.5723C50.246 31.3121 50.3323 31.0519 50.3323 30.7917C50.3323 30.7049 50.3323 30.7049 50.3323 30.6182C50.6776 28.9702 50.8503 27.2355 50.8503 25.4141C50.8503 21.9447 50.1596 18.6488 48.8646 15.5264C48.6056 14.9192 47.915 14.659 47.3106 14.9192C46.7063 15.1794 46.4473 15.8733 46.7063 16.4804C47.915 19.3427 48.5193 22.3784 48.5193 25.4141C48.5193 27.3223 48.2603 29.1437 47.8286 30.9651C47.4833 32.0927 46.879 33.1335 46.0156 34.0876C46.0156 33.6539 46.0156 33.307 46.0156 32.8733C46.0156 28.3631 44.807 23.506 42.476 19.0825C44.2026 17.608 45.2386 15.7866 45.584 13.7917C45.6703 13.1845 45.2386 12.5774 44.6343 12.4039C44.03 12.3172 43.3393 12.7509 43.253 13.358C42.994 14.659 42.3033 15.96 41.2673 17.0009C40.922 16.4804 40.5766 15.8733 40.2313 15.3529C38.1593 12.3172 35.742 9.71514 33.0656 7.54677C36.6053 7.80697 39.886 8.67432 42.5623 10.1488C42.994 10.409 43.512 10.409 43.9436 10.0621C44.4616 9.6284 44.548 8.93453 44.1163 8.41412C40.3176 3.1233 33.7563 0.174321 25.641 0.174321C11.7413 0.0875867 0.431641 11.4498 0.431641 25.5009Z" fill="white"/>
<path d="M252.785 18.0399C256.497 18.0399 258.569 19.8613 258.569 23.1572C258.569 26.2797 256.497 28.1011 253.13 28.1011H250.713V32.9582H247.604V18.0399H252.785ZM250.799 25.5858H252.698C254.511 25.5858 255.461 24.8052 255.461 23.1572C255.461 21.5092 254.425 20.6419 252.612 20.6419H250.799V25.5858ZM241.82 26.9735C241.82 29.1419 240.957 30.1827 239.23 30.1827C237.504 30.1827 236.64 29.0552 236.64 26.9735V18.0399H233.446V26.7133C233.446 28.8817 233.964 30.4429 235 31.4837C235.95 32.4378 237.417 32.9582 239.23 32.9582C241.82 32.9582 244.928 31.8307 244.928 26.6266V17.9531H241.82V26.9735ZM224.899 17.9531C228.093 17.9531 231.547 19.948 231.547 25.499C231.547 31.0501 228.093 33.045 224.899 33.045C221.705 33.045 218.251 31.0501 218.251 25.499C218.251 19.948 221.705 17.9531 224.899 17.9531ZM224.899 30.2695C226.108 30.2695 228.266 29.6623 228.266 25.499C228.266 21.3358 226.194 20.7286 224.899 20.7286C222.741 20.7286 221.532 22.4633 221.532 25.499C221.532 28.6215 222.741 30.2695 224.899 30.2695ZM215.057 28.448C215.575 29.4888 216.007 30.4429 217.043 30.4429H217.82V32.8715H217.733C217.733 32.8715 217.129 33.045 216.179 33.045C213.676 33.045 212.899 31.3103 212.294 29.8358C211.776 28.6215 211.258 27.4939 209.963 27.4939H208.582V32.9582H205.388V18.0399H210.654C214.453 18.0399 216.266 19.5143 216.266 22.7235C216.266 24.7184 215.057 25.9327 213.848 26.4531C214.366 27.0603 214.712 27.7541 215.057 28.448ZM208.496 25.0654H210.222C211.949 25.0654 213.071 24.2848 213.071 22.897C213.071 21.5092 212.122 20.7286 210.481 20.7286H208.496V25.0654ZM196.927 27.4939H200.208V27.6674C200.208 28.6215 199.862 30.2695 197.618 30.2695C195.459 30.2695 194.164 28.5348 194.164 25.5858C194.164 22.5501 195.373 20.8154 197.531 20.8154C200.035 20.8154 200.121 23.4174 200.121 23.5041V23.6776L203.057 23.2439V23.1572C203.057 22.1164 202.107 18.0399 197.445 18.0399C193.301 18.0399 190.884 20.8154 190.884 25.5858C190.884 30.2694 193.387 33.1317 197.531 33.1317C201.675 33.1317 203.143 30.1827 203.143 27.7541V25.1521H196.927V27.4939ZM187.517 18.0399H183.804L178.883 24.7184V18.0399H175.689V32.9582H178.883V26.1062L183.891 32.9582H187.689L181.991 25.499L187.517 18.0399ZM169.732 27.2337L164.552 18.0399H161.358V32.9582H164.552V24.1113L169.732 32.9582H172.926V18.0399H169.818V27.2337H169.732ZM155.055 18.2133L160.494 32.9582H157.214L155.919 29.3154H150.998L149.789 32.9582H146.508L151.947 18.1266H155.055V18.2133ZM153.501 22.1164L151.947 26.8001H155.142L153.501 22.1164ZM143.573 25.0654C144.695 25.4123 146.163 26.4531 146.163 28.7082C146.163 31.397 144.264 32.9582 140.983 32.9582H134.767V18.0399H140.379C143.573 18.0399 145.213 19.4276 145.213 22.0297C145.213 24.1113 144.264 24.8919 143.573 25.0654ZM140.033 24.1113C141.328 24.1113 141.933 23.5909 141.933 22.3766C141.933 21.249 141.156 20.6419 139.602 20.6419H137.875V24.1113H140.033ZM137.875 30.3562H140.379C142.019 30.3562 142.71 29.749 142.71 28.448C142.71 26.8868 141.415 26.5399 140.292 26.5399H137.875V30.3562ZM121.731 18.0399C126.306 18.0399 129.069 20.9021 129.069 25.7592C129.069 30.3562 126.652 32.9582 122.335 32.9582H117.328V18.0399H121.731ZM120.522 30.3562H122.335C124.58 30.3562 125.961 28.6215 125.961 25.7592C125.961 22.4633 124.493 20.7286 121.731 20.7286H120.522V30.3562ZM109.471 18.0399H106.277V32.9582H115.86V30.3562H109.471V18.0399ZM102.047 28.448C102.565 29.4888 102.996 30.4429 104.032 30.4429H104.809V32.8715H104.723C104.723 32.8715 104.119 33.045 103.169 33.045C100.665 33.045 99.8882 31.3103 99.2839 29.8358C98.7659 28.6215 98.2479 27.4939 96.9529 27.4939H95.5715V32.9582H92.3772V18.0399H97.6435C101.442 18.0399 103.255 19.5143 103.255 22.7235C103.255 24.7184 102.047 25.9327 100.838 26.4531C101.442 27.0603 101.788 27.7541 102.047 28.448ZM95.5715 25.0654H97.2982C99.0248 25.0654 100.147 24.2848 100.147 22.897C100.147 21.5092 99.1975 20.7286 97.5572 20.7286H95.5715V25.0654ZM84.0029 17.9531C87.1972 17.9531 90.6505 19.948 90.6505 25.499C90.6505 31.0501 87.1972 33.045 84.0029 33.045C80.8085 33.045 77.3552 31.0501 77.3552 25.499C77.3552 19.948 80.8085 17.9531 84.0029 17.9531ZM84.0029 30.2695C85.2979 30.2695 87.3699 29.6623 87.3699 25.499C87.3699 21.3358 85.2979 20.7286 84.0029 20.7286C81.8445 20.7286 80.6359 22.4633 80.6359 25.499C80.6359 28.6215 81.8445 30.2695 84.0029 30.2695ZM73.3839 18.0399H76.9235L72.6932 32.9582H69.1535L66.5635 23.6776L63.8872 32.9582H60.3475L56.1172 18.0399H59.7432L62.2469 28.8817L65.2685 18.0399H67.9449L70.7939 28.8817L73.3839 18.0399Z" fill="white"/>
</svg>